<svg xmlns="http://www.w3.org/2000/svg" viewBox="0 0 230 64"><defs><style>.cls-1,.cls-4{fill:#fff;}.cls-1{stroke:#f5a214;stroke-miterlimit:10;stroke-width:1.81px;}.cls-2{opacity:0.6;}.cls-3{fill:#333230;}.cls-5{fill:#6ac4c1;}.cls-6{fill:#c4e5e5;}.cls-7{fill:#cf4116;}.cls-8{fill:#f7fcfe;}.cls-20,.cls-23,.cls-9{fill:none;stroke-linecap:round;stroke-linejoin:round;}.cls-20,.cls-9{stroke:#1d2539;}.cls-9{stroke-width:0.43px;}.cls-10{fill:#dbdad6;opacity:0.2;}.cls-11{fill:#eacc2c;}.cls-12{fill:#3d3c3d;}.cls-13{fill:#e04830;}.cls-14{fill:#222a2b;}.cls-15{fill:#3f4e50;}.cls-16{fill:#2d333a;}.cls-17{fill:#64c2bd;}.cls-18{fill:#fbfbf5;}.cls-19{fill:#dcdcdc;}.cls-20{stroke-width:0.18px;}.cls-21{fill:#1d353d;}.cls-22{fill:#d11b1a;}.cls-23{stroke:#874222;stroke-width:0.73px;}.cls-24{fill:#1b2438;}</style></defs><title>專題網頁</title><g id="圖層_2" data-name="圖層 2"><circle class="cls-1" cx="31.31" cy="31.69" r="23.11"/><g class="cls-2"><path class="cls-3" d="M28.37,22.5H20.42v-.41a.33.33,0,0,0-.33-.33H16.53a.33.33,0,0,0-.33.33v.41H16a.33.33,0,0,0-.33.33v.55h13v-.55A.33.33,0,0,0,28.37,22.5Z"/><path class="cls-4" d="M15.67,23.38v8.76a.33.33,0,0,0,.33.33H28.37a.33.33,0,0,0,.33-.33V23.38Z"/><rect class="cls-5" x="16.2" y="23.84" width="12.03" height="8.13" rx="0.04" ry="0.04"/><circle class="cls-4" cx="18.12" cy="22.23" r="0.2"/><circle class="cls-6" cx="19.33" cy="22.23" r="0.2"/><rect class="cls-4" x="16.9" y="29.67" width="1.01" height="1.99"/><rect class="cls-4" x="18.48" y="29.06" width="1.01" height="2.6"/><rect class="cls-4" x="20.06" y="28.5" width="1.01" height="3.16"/><rect class="cls-4" x="21.64" y="30.08" width="1.01" height="1.58"/><rect class="cls-4" x="23.22" y="29.41" width="1.01" height="2.25"/><rect class="cls-4" x="24.8" y="27.37" width="1.01" height="4.29"/><polygon class="cls-4" points="23.19 28.39 21.25 26.43 17.54 27.81 17.43 27.51 21.34 26.06 23.21 27.95 26.9 24.72 27.11 24.96 23.19 28.39"/><circle class="cls-7" cx="17.49" cy="27.68" r="0.47"/><circle class="cls-7" cx="21.29" cy="26.34" r="0.47"/><circle class="cls-7" cx="23.2" cy="28.11" r="0.47"/><circle class="cls-7" cx="26.96" cy="24.87" r="0.47"/><circle class="cls-5" cx="16.86" cy="22.23" r="0.2"/><rect class="cls-4" x="26.46" y="26.34" width="1.01" height="5.33"/></g><path class="cls-8" d="M46.67,34C46.67,43.16,42.09,46,36.42,46S26.1,43.16,26.1,34s4.6-16.64,10.28-16.64S46.67,24.78,46.67,34Z"/><path class="cls-9" d="M26.57,38.5A20,20,0,0,1,26.1,34a26.17,26.17,0,0,1,.52-5.24"/><path class="cls-9" d="M28.64,23c1.88-3.49,4.66-5.69,7.74-5.69,5.68,0,10.28,7.45,10.28,16.64S42.09,46,36.42,46c-3.24,0-6.13-.94-8-3.44"/><path class="cls-10" d="M26.91,30.55a15.31,15.31,0,0,1,7-12.72C29.4,19.66,26.1,26.19,26.1,34,26.1,43.16,30.74,46,36.42,46a13,13,0,0,0,3.5-.44A15.39,15.39,0,0,1,26.91,30.55Z"/><circle class="cls-11" cx="36.56" cy="28.23" r="6.69"/><ellipse class="cls-12" cx="33.36" cy="26.55" rx="0.54" ry="0.85"/><ellipse class="cls-12" cx="39.57" cy="26.55" rx="0.54" ry="0.85"/><ellipse class="cls-13" cx="36.56" cy="31.94" rx="0.65" ry="0.92"/><rect class="cls-14" x="38.01" y="36.48" width="0.73" height="0.07"/><polygon class="cls-14" points="37.46 36.39 36.73 36.35 36.73 36.34 36.57 36.35 36.4 36.34 36.4 36.35 35.66 36.39 35.86 36.6 36.73 36.6 36.73 36.6 37.26 36.6 37.46 36.39"/><rect class="cls-15" x="35.66" y="35.9" width="1.79" height="0.5"/><path class="cls-15" d="M34.1,39.5a.18.18,0,0,0,.18.18h4.57A.18.18,0,0,0,39,39.5v-.93H34.1Z"/><path class="cls-15" d="M39,36.7a.18.18,0,0,0-.17-.18H34.28a.18.18,0,0,0-.18.18v.93H39Z"/><rect class="cls-16" x="34.1" y="37.63" width="4.92" height="0.94"/><circle class="cls-17" cx="36.56" cy="38.16" r="1.35"/><rect class="cls-17" x="36" y="36.01" width="1.13" height="0.26"/><rect class="cls-15" x="37.98" y="36.29" width="0.78" height="0.19"/><circle class="cls-17" cx="34.46" cy="36.86" r="0.17"/><path class="cls-18" d="M37.35,37.49,35.8,38.86a1,1,0,0,0,1.55-1.37Z"/><path class="cls-19" d="M36.56,37.12a1,1,0,0,0-.76,1.74l1.55-1.37A1,1,0,0,0,36.56,37.12Z"/><path class="cls-20" d="M26.21,31.56s4.09,5.54,7.89,6.07"/><path class="cls-20" d="M46.67,31.56s-4.09,5.54-7.89,6.07"/><path class="cls-21" d="M42.31,34.06l-.26.34-.52.69-.25.33a.12.12,0,0,0,0,.17l5.33,3.53a.12.12,0,0,0,.17,0h0l.53-.69h0a.12.12,0,0,0,0-.17L42.48,34A.12.12,0,0,0,42.31,34.06Z"/><circle class="cls-21" cx="39.66" cy="33.12" r="1.56" transform="translate(-10.72 44.58) rotate(-52.67)"/><path class="cls-22" d="M40.66,31.81a.11.11,0,0,1,0,.16l-1.86,2.44a.11.11,0,0,1-.16,0h0a.11.11,0,0,1,0-.16l1.86-2.44a.11.11,0,0,1,.16,0Z"/><path class="cls-22" d="M39.88,33.46h2.81a.18.18,0,0,1,.18.18v1.45a.18.18,0,0,1-.18.18H39.88a.18.18,0,0,1-.18-.18V33.63A.17.17,0,0,1,39.88,33.46Z" transform="translate(-11.07 46.35) rotate(-52.67)"/><path class="cls-4" d="M40.6,34.69l-.18.24-.17-.13.52-.68.17.13-.18.24.72.55-.15.2Z"/><path class="cls-4" d="M41.92,34.44l-1.1-.39.17-.22.46.18.38.16h0c-.09-.1-.17-.21-.25-.32l-.29-.4.16-.21.66,1Z"/><line class="cls-23" x1="23.44" y1="31.56" x2="27.11" y2="35.61"/></g><g id="圖層_2_拷貝" data-name="圖層 2 拷貝"><circle class="cls-1" cx="31.31" cy="31.69" r="23.11"/><g class="cls-2"><path class="cls-3" d="M28.37,22.5H20.42v-.41a.33.33,0,0,0-.33-.33H16.53a.33.33,0,0,0-.33.33v.41H16a.33.33,0,0,0-.33.33v.55h13v-.55A.33.33,0,0,0,28.37,22.5Z"/><path class="cls-4" d="M15.67,23.38v8.76a.33.33,0,0,0,.33.33H28.37a.33.33,0,0,0,.33-.33V23.38Z"/><rect class="cls-5" x="16.2" y="23.84" width="12.03" height="8.13" rx="0.04" ry="0.04"/><circle class="cls-4" cx="18.12" cy="22.23" r="0.2"/><circle class="cls-6" cx="19.33" cy="22.23" r="0.2"/><rect class="cls-4" x="16.9" y="29.67" width="1.01" height="1.99"/><rect class="cls-4" x="18.48" y="29.06" width="1.01" height="2.6"/><rect class="cls-4" x="20.06" y="28.5" width="1.01" height="3.16"/><rect class="cls-4" x="21.64" y="30.08" width="1.01" height="1.58"/><rect class="cls-4" x="23.22" y="29.41" width="1.01" height="2.25"/><rect class="cls-4" x="24.8" y="27.37" width="1.01" height="4.29"/><polygon class="cls-4" points="23.19 28.39 21.25 26.43 17.54 27.81 17.43 27.51 21.34 26.06 23.21 27.95 26.9 24.72 27.11 24.96 23.19 28.39"/><circle class="cls-7" cx="17.49" cy="27.68" r="0.47"/><circle class="cls-7" cx="21.29" cy="26.34" r="0.47"/><circle class="cls-7" cx="23.2" cy="28.11" r="0.47"/><circle class="cls-7" cx="26.96" cy="24.87" r="0.47"/><circle class="cls-5" cx="16.86" cy="22.23" r="0.2"/><rect class="cls-4" x="26.46" y="26.34" width="1.01" height="5.33"/></g><path class="cls-8" d="M46.67,34C46.67,43.16,42.09,46,36.42,46S26.1,43.16,26.1,34s4.6-16.64,10.28-16.64S46.67,24.78,46.67,34Z"/><path class="cls-9" d="M26.57,38.5A20,20,0,0,1,26.1,34a26.17,26.17,0,0,1,.52-5.24"/><path class="cls-9" d="M28.64,23c1.88-3.49,4.66-5.69,7.74-5.69,5.68,0,10.28,7.45,10.28,16.64S42.09,46,36.42,46c-3.24,0-6.13-.94-8-3.44"/><path class="cls-10" d="M26.91,30.55a15.31,15.31,0,0,1,7-12.72C29.4,19.66,26.1,26.19,26.1,34,26.1,43.16,30.74,46,36.42,46a13,13,0,0,0,3.5-.44A15.39,15.39,0,0,1,26.91,30.55Z"/><circle class="cls-11" cx="36.56" cy="28.23" r="6.69"/><ellipse class="cls-12" cx="33.36" cy="26.55" rx="0.54" ry="0.85"/><ellipse class="cls-12" cx="39.57" cy="26.55" rx="0.54" ry="0.85"/><ellipse class="cls-13" cx="36.56" cy="31.94" rx="0.65" ry="0.92"/><rect class="cls-14" x="38.01" y="36.48" width="0.73" height="0.07"/><polygon class="cls-14" points="37.46 36.39 36.73 36.35 36.73 36.34 36.57 36.35 36.4 36.34 36.4 36.35 35.66 36.39 35.86 36.6 36.73 36.6 36.73 36.6 37.26 36.6 37.46 36.39"/><rect class="cls-15" x="35.66" y="35.9" width="1.79" height="0.5"/><path class="cls-15" d="M34.1,39.5a.18.18,0,0,0,.18.18h4.57A.18.18,0,0,0,39,39.5v-.93H34.1Z"/><path class="cls-15" d="M39,36.7a.18.18,0,0,0-.17-.18H34.28a.18.18,0,0,0-.18.18v.93H39Z"/><rect class="cls-16" x="34.1" y="37.63" width="4.92" height="0.94"/><circle class="cls-17" cx="36.56" cy="38.16" r="1.35"/><rect class="cls-17" x="36" y="36.01" width="1.13" height="0.26"/><rect class="cls-15" x="37.98" y="36.29" width="0.78" height="0.19"/><circle class="cls-17" cx="34.46" cy="36.86" r="0.17"/><path class="cls-18" d="M37.35,37.49,35.8,38.86a1,1,0,0,0,1.55-1.37Z"/><path class="cls-19" d="M36.56,37.12a1,1,0,0,0-.76,1.74l1.55-1.37A1,1,0,0,0,36.56,37.12Z"/><path class="cls-20" d="M26.21,31.56s4.09,5.54,7.89,6.07"/><path class="cls-20" d="M46.67,31.56s-4.09,5.54-7.89,6.07"/><path class="cls-21" d="M42.31,34.06l-.26.34-.52.69-.25.33a.12.12,0,0,0,0,.17l5.33,3.53a.12.12,0,0,0,.17,0h0l.53-.69h0a.12.12,0,0,0,0-.17L42.48,34A.12.12,0,0,0,42.31,34.06Z"/><circle class="cls-21" cx="39.66" cy="33.12" r="1.56" transform="translate(-10.72 44.58) rotate(-52.67)"/><path class="cls-22" d="M40.66,31.81a.11.11,0,0,1,0,.16l-1.86,2.44a.11.11,0,0,1-.16,0h0a.11.11,0,0,1,0-.16l1.86-2.44a.11.11,0,0,1,.16,0Z"/><path class="cls-22" d="M39.88,33.46h2.81a.18.18,0,0,1,.18.18v1.45a.18.18,0,0,1-.18.18H39.88a.18.18,0,0,1-.18-.18V33.63A.17.17,0,0,1,39.88,33.46Z" transform="translate(-11.07 46.35) rotate(-52.67)"/><path class="cls-4" d="M40.6,34.69l-.18.24-.17-.13.52-.68.17.13-.18.24.72.55-.15.2Z"/><path class="cls-4" d="M41.92,34.44l-1.1-.39.17-.22.46.18.38.16h0c-.09-.1-.17-.21-.25-.32l-.29-.4.16-.21.66,1Z"/><line class="cls-23" x1="23.44" y1="31.56" x2="27.11" y2="35.61"/><path class="cls-24" d="M85.15,17.08l3,1.69a2.17,2.17,0,0,1,.57.48q5-1.81,6.79-1.81a4.37,4.37,0,0,1,2.72,1.12A97.11,97.11,0,0,1,105.39,26a2.07,2.07,0,0,0,1.6.88q-2.93,2.2-3.5,2.2a1.33,1.33,0,0,1-.66-.21c0,.28,0,.57,0,.88a49.46,49.46,0,0,1-.24,5.28,5.82,5.82,0,0,0,.63-.3v2.08l2.17,1.09q.72.42.72,1,0,.36-3.65,3.17l-.15.12.51.21A12.54,12.54,0,0,0,106,43.37a1.38,1.38,0,0,0,.69-.21q-1,1.24-2.26,2.6a1.29,1.29,0,0,1-1,.51q-1,0-5.61-2.44-1.09-.54-2.05-1.06l-.54,1.3a1.46,1.46,0,0,1-1,1q-3.29.51-5.82.72-2.29.12-3.08.12a8.4,8.4,0,0,1-2.63-.48,4.26,4.26,0,0,1-2-1.72,10.5,10.5,0,0,1-.57-4.16A82.77,82.77,0,0,1,81.13,29a29.28,29.28,0,0,1-3.59-2.14q.81,0,2-1.45a63.23,63.23,0,0,0,4.77-5.76,5.71,5.71,0,0,0,1-1.84A1.72,1.72,0,0,0,85.15,17.08Zm8.66,24.57q-2.53-1.42-4.53-2.75-3.44,0-5.1-.15v.79q0,2.2.57,2.59a3.91,3.91,0,0,0,2.32.54,24.6,24.6,0,0,0,5.1-.63Q93.05,41.86,93.81,41.65Zm-9.2-8.06q-.12.85-.18,1.66l.3,0q4.16.27,8.27.27,3.26,0,5.58-.09.09-.79.15-1.81-2.14.09-6.76.09Q86.81,33.74,84.6,33.59ZM85,25.71q2-.06,4.83-.24v-2a1.23,1.23,0,0,0-.45-1h2.84q1.51,0,1.6,1.33V25.2Q96.46,25,98.06,25a6.8,6.8,0,0,1,1,.06q-1.57-1.63-2.72-2.75-1.57-1.42-2.26-1.42a22.1,22.1,0,0,0-4.83,1.18,13.2,13.2,0,0,1-2,.51Q86.11,24.3,85,25.71ZM85.36,29l-.24,1.33q3.41.21,6.85.21,4.41,0,6.91-.21V29.7a1.41,1.41,0,0,0-.48-1.12,2.86,2.86,0,0,0-1.66-.42q-3,0-7.51.42Q86.65,28.91,85.36,29ZM99.3,40.77l.06-.06q1.12-1.12,1.84-1.9-1.93.09-5.88.12Q97.31,39.87,99.3,40.77Z"/><path class="cls-24" d="M122,17.53h3.29q1.75,0,1.9,1.45v1.48l1.81,0a21.78,21.78,0,0,1,6.1.57,5.37,5.37,0,0,1,2.75,1.69,5.42,5.42,0,0,1,.81,3.14,3.88,3.88,0,0,1-.6,2.54,1.67,1.67,0,0,1-1.48.88l-3.65-.63q.06,1.06.12,2.26,2.29-.06,4.29-.18a1.43,1.43,0,0,0,1.33-1v3.65a1.27,1.27,0,0,1-1.45,1.42q-1.78.18-4.1.24V40q2.41-.42,5.31-1l-2,4.19a1.56,1.56,0,0,1-1,.72Q134.17,44,133,44c0,.36,0,.62-.06.79q-.3,1-1.15,1h-3.53q.48-.3.66-1.57-4.5.24-6.61.24a16.12,16.12,0,0,1-4-.54,6.37,6.37,0,0,1-3.41-2.35,4.93,4.93,0,0,1-.75-2.78,28.46,28.46,0,0,1,.39-3.77q-1.24,0-2.23-.09-1.45-.09-1.45-1.39V30.12q.36.69,1.84.69l3,.12q.48-1.45,1.06-2.75a6,6,0,0,0,.45-1.24q0-.51-.81-.93l3.68.33q1.63.15,1.63,1.12a15.54,15.54,0,0,1-1,2.32L120.17,31q2.14,0,4.59,0Q127,31,129,31q-.06-1.18-.15-2.38-.15-2-.66-2.35h3.44a1.11,1.11,0,0,1,1.24,1q.06.6.09,1.21a1.2,1.2,0,0,0,.88-.6,3.06,3.06,0,0,0,.48-2,2.07,2.07,0,0,0-.27-1.09,2,2,0,0,0-1.48-.75,32.76,32.76,0,0,0-3.53-.15,67.24,67.24,0,0,0-9,.57q-3.26.69-4.25.81V26.5q0,2.05-1.15,2.05h-3.83q.87-.36.88-1.72v-4.2a2.45,2.45,0,0,0-.87-2.2h3.41a1.32,1.32,0,0,1,1.48,1q1.78-.12,5.1-.48l1.84-.18V18.65A1.43,1.43,0,0,0,122,17.53Zm7.09,23q0-2.2,0-4V35.13q-2.05,0-4.38,0-3.32,0-6,0a19.2,19.2,0,0,0-.42,3.17,2,2,0,0,0,1.33,2.14,10.14,10.14,0,0,0,3.65.51A55.68,55.68,0,0,0,129.1,40.56Z"/><path class="cls-24" d="M144.14,20.43l3,.09q1.09,0,1.09,1.36,0,1.69,0,3.53l.72-1a1.23,1.23,0,0,0,.51,1q-.06-2.14-.18-4.32-.15-2.87-.69-3.41H152a1.14,1.14,0,0,1,1.24,1q.3,4.08.36,10.26.54.45,1.09.88a11,11,0,0,0,1.78,1.3,4.28,4.28,0,0,0,1-.15L155.49,33l-.51.6a4,4,0,0,0,1.3.3l1.45.09q.87-4.32,1.63-8.87v0a23.22,23.22,0,0,1-2.56.6,1.46,1.46,0,0,1-1.24-.91q-.6-1-1.66-2.84a2,2,0,0,0,1,.27,31.52,31.52,0,0,0,4.44-.66l.63-.12a27.63,27.63,0,0,0,.33-3q.06-.33-.45-.87,1.9.27,3.62.48.94.15.94,1a16.3,16.3,0,0,1-.21,1.87l.69,0a6.86,6.86,0,0,1,3.26.69,4.3,4.3,0,0,1,2.35,2.2A11.43,11.43,0,0,1,171,28q0,1.45-.24,4.56l-.21,1.24a2.72,2.72,0,0,0,1-.48v3.08A1.25,1.25,0,0,1,171,37.6a23,23,0,0,1-3.35.21q1.48,2.6,3.23,5.22a1.45,1.45,0,0,0,1.09.45q-1.75,1.09-1.81,1.09a6,6,0,0,1-2.29,1.12q-.24,0-1-1.18-1-1.54-2.72-4.92l-.91-1.75H161q-.6,2.5-1.21,4.92-.81,3-1.66,3a4.44,4.44,0,0,1-1.12-.24l-2.47-.51q1-.42,1.45-3,.48-2.11,1-4.29a19.18,19.18,0,0,1-2-.15,1.41,1.41,0,0,1-.45-1.21V34.1a1.26,1.26,0,0,1-.63.33.74.74,0,0,1-.33-.12q0,8.66-.24,10.38a1.13,1.13,0,0,1-1.12.88h-3.5q.72-.6.81-3.71.06-5.43.06-9.48V31.3l0,0q-.88-.66-1.48-1.18-.15,4-.45,8.9-.15,2.72-.69,2.72-.27,0-3.53-.24a7.47,7.47,0,0,0,.6-3.32q.72-9.29.72-16.75A1,1,0,0,0,144.14,20.43Zm19.49,4q-.81,5-1.84,9.78l1.27,0q1.84,0,3.26,0,.15-.85.3-2.14a29.7,29.7,0,0,0,.42-4,3.94,3.94,0,0,0-.94-3,3.92,3.92,0,0,0-2.32-.57Z"/><path class="cls-24" d="M176.05,34.43h3.26a1.36,1.36,0,0,1,1.45.84l1.09-.21a12.91,12.91,0,0,1,2.63-.39,4.58,4.58,0,0,1,2.35.48,2.58,2.58,0,0,1,1,2.26v1.24a18.31,18.31,0,0,1-.12,2.08,2.12,2.12,0,0,0,.6-.48v3a1.2,1.2,0,0,1-.48,1.15,23.56,23.56,0,0,1-4.47.21q-1.6,0-2.63,0-.27.91-1,.91h-3.71q.84-.36.85-1.72V36.52A2.29,2.29,0,0,0,176.05,34.43Zm3.86-16.78h2.84q1.51,0,1.6,1.33v1.18a27.11,27.11,0,0,0,2.78-.21,1.34,1.34,0,0,0,.57-.24l-.06-.09.12.06a1.3,1.3,0,0,0,.33-.33v.42a2.65,2.65,0,0,0,.63.09,15.17,15.17,0,0,0,3-.51,35.61,35.61,0,0,1,7.09-1.06,4,4,0,0,1,2.84.91,3.23,3.23,0,0,1,.75,2.32q0,.94-.94,8.72a105.61,105.61,0,0,0-.63,11.23q0,1.06.75,1.06a9,9,0,0,0,3.23-.57l-1.33,2.84q-.51.91-2.9.91a4.13,4.13,0,0,1-2.66-.63,3.35,3.35,0,0,1-1-2.66q0-5.52.72-12.76.85-6.85.85-7.36,0-1-.81-1a20.35,20.35,0,0,0-2.81.21,1.31,1.31,0,0,1,0,.24v7.91a11.6,11.6,0,0,0,1.42-.18,1.65,1.65,0,0,0,.72-.57v3q0,.91-.45,1.15a4.57,4.57,0,0,1-1.69.3V43.49q0,2-1.09,2h-3.62q.72-.36.72-1.72V33.44a6.57,6.57,0,0,1-2.17-.33,1.28,1.28,0,0,1-.51-1.21v-3a1.3,1.3,0,0,0,.91.57q.91.12,1.78.18v-7.3a5.79,5.79,0,0,1-1.09.15q-.3,0-.72-.63l-1.12-1.6v2.05a1.24,1.24,0,0,1-.45,1.15,29.83,29.83,0,0,1-5.34.24,32.82,32.82,0,0,1-5.4-.24,1.29,1.29,0,0,1-.51-1.18v-3a1.84,1.84,0,0,0,1.21.6q1.42.15,2.78.18V18.65A1.32,1.32,0,0,0,179.91,17.66Zm-3,6.64a1.56,1.56,0,0,0,1.09.6,35.61,35.61,0,0,0,4.38.27,27.5,27.5,0,0,0,4.47-.27,1.57,1.57,0,0,0,.91-.6v3q0,.88-.45,1.12a22.85,22.85,0,0,1-4.92.27,25,25,0,0,1-5-.27,1.24,1.24,0,0,1-.48-1.15Zm0,4.95a1.72,1.72,0,0,0,1.09.6,35.61,35.61,0,0,0,4.38.27,27.5,27.5,0,0,0,4.47-.27,1.8,1.8,0,0,0,.91-.6v3q0,.88-.45,1.12a25.61,25.61,0,0,1-4.92.24,28.05,28.05,0,0,1-5-.24,1.28,1.28,0,0,1-.48-1.18Zm4,11.74q1.27.09,2.5.09h.45q0-.42,0-.94t0-1.12q0-1.27-.81-1.3a4.17,4.17,0,0,0-1.57.36,5.35,5.35,0,0,1-.57.21Z"/></g></svg>