<svg xmlns="http://www.w3.org/2000/svg" viewBox="0 0 135 144"><defs><style>.cls-1{fill:none;stroke:#231815;stroke-miterlimit:10;stroke-width:3.17px;}.cls-2{fill:#fff;}.cls-3{fill:#e5e5e5;}.cls-4{fill:#1f2020;}.cls-5{fill:#1997ba;}</style></defs><title>5</title><g id="圖層_2" data-name="圖層 2"><path class="cls-1" d="M105.64,112.11c0,5.11-3.85,9.25-8.6,9.25H39.93c-4.75,0-8.6-4.14-8.6-9.25V19.28c0-5.11,3.85-9.25,8.6-9.25H97c4.75,0,8.6,4.14,8.6,9.25Z"/><rect class="cls-1" x="37.96" y="129.18" width="11.52" height="7.07" rx="1.63" ry="1.63"/><rect class="cls-1" x="87.48" y="129.18" width="11.52" height="7.07" rx="1.63" ry="1.63"/><path class="cls-1" d="M105.61,133a1.58,1.58,0,0,1-1.52,1.63H32.87A1.58,1.58,0,0,1,31.35,133V123a1.58,1.58,0,0,1,1.52-1.63H104.1a1.58,1.58,0,0,1,1.52,1.63Z"/><path class="cls-2" d="M105.64,112.11c0,5.11-3.85,9.25-8.6,9.25H39.93c-4.75,0-8.6-4.14-8.6-9.25V19.28c0-5.11,3.85-9.25,8.6-9.25H97c4.75,0,8.6,4.14,8.6,9.25Z"/><rect class="cls-3" x="31.33" y="51.02" width="74.26" height="3.63"/><rect class="cls-4" x="42.04" y="21.45" width="4.68" height="24.3"/><rect class="cls-4" x="42.04" y="62.08" width="4.68" height="50.96"/><rect class="cls-2" x="37.96" y="129.18" width="11.52" height="7.07" rx="1.63" ry="1.63"/><rect class="cls-2" x="87.48" y="129.18" width="11.52" height="7.07" rx="1.63" ry="1.63"/><path class="cls-5" d="M105.61,133a1.58,1.58,0,0,1-1.52,1.63H32.87A1.58,1.58,0,0,1,31.35,133V123a1.58,1.58,0,0,1,1.52-1.63H104.1a1.58,1.58,0,0,1,1.52,1.63Z"/><path class="cls-2" d="M39.92,124.56H38.63a.82.82,0,0,1,0-1.63h1.29a.82.82,0,0,1,0,1.63Z"/><path class="cls-2" d="M34,130.81a.82.82,0,0,1-.82-.82v-5.08a2,2,0,0,1,1.91-2h1.63a.82.82,0,1,1,0,1.63H35.1a.34.34,0,0,0-.28.37V130A.82.82,0,0,1,34,130.81Z"/></g></svg>