<?xml version="1.0" standalone="no"?>
<!DOCTYPE svg PUBLIC "-//W3C//DTD SVG 20010904//EN"
 "http://www.w3.org/TR/2001/REC-SVG-20010904/DTD/svg10.dtd">
<svg version="1.0" xmlns="http://www.w3.org/2000/svg"
 width="754.000000pt" height="706.000000pt" viewBox="0 0 754.000000 706.000000"
 preserveAspectRatio="xMidYMid meet">
<metadata>
Created by potrace 1.15, written by Peter Selinger 2001-2017
</metadata>
<g transform="translate(0.000000,706.000000) scale(0.100000,-0.100000)"
fill="#000000" stroke="none">
<path d="M1995 4079 c-231 -57 -433 -219 -540 -434 -71 -143 -87 -219 -88
-420 -1 -104 4 -195 12 -235 65 -325 325 -587 650 -656 55 -11 393 -14 2044
-14 2180 0 2047 -4 2204 62 104 43 187 100 274 187 122 124 202 281 229 453
17 103 8 372 -14 452 -82 293 -278 498 -571 597 l-70 24 -2025 2 c-1985 2
-2027 1 -2105 -18z m1770 -454 c36 -10 75 -13 98 -10 49 9 82 -13 108 -68 22
-51 24 -98 4 -136 -16 -32 -33 -41 -77 -41 -24 0 -43 13 -94 64 -46 47 -72 67
-98 72 -122 22 -197 -70 -183 -224 9 -97 55 -185 115 -223 25 -16 56 -29 69
-29 35 0 65 35 61 73 -3 29 -7 33 -48 43 -35 8 -47 17 -54 37 -20 56 42 89
180 95 161 7 246 -27 230 -93 -4 -15 -18 -27 -39 -34 -29 -10 -36 -19 -50 -64
-62 -197 -345 -270 -556 -144 -64 39 -111 93 -148 173 -23 50 -27 72 -27 149
0 76 4 99 26 147 81 174 285 264 483 213z m919 -24 c77 -38 148 -111 184 -189
34 -74 43 -205 18 -278 -47 -140 -185 -239 -352 -251 -123 -10 -219 23 -305
104 -76 71 -103 136 -107 258 -5 125 16 190 88 268 82 90 184 129 323 123 73
-3 98 -9 151 -35z"/>
<path d="M4420 3463 c-41 -36 -48 -87 -26 -185 29 -129 85 -225 143 -242 37
-12 81 19 94 65 25 83 -25 272 -90 341 -50 52 -80 57 -121 21z"/>
</g>
</svg>
