<svg xmlns="http://www.w3.org/2000/svg" xmlns:xlink="http://www.w3.org/1999/xlink" viewBox="0 0 243.91 222.58"><defs><style>.cls-1{fill:#f5a214;}.cls-2{fill:#fff;}.cls-3{fill:#f4cb26;}.cls-4{clip-path:url(#clip-path);}.cls-5{fill:#fac76b;}</style><clipPath id="clip-path"><path class="cls-1" d="M186.79,117.69c.23,32.58-17.36,50.73-50.38,48.44-33.95-2.36-58.78-16.27-56.46-48.67,1.36-19,9.65-43.09,28.35-48.44,25.54-7.3,57.67,5.18,68.35,17.84s9.12,19.57,10.13,30.82Z"/></clipPath></defs><title>專題網頁</title><g id="圖層_2" data-name="圖層 2"><circle class="cls-2" cx="121.95" cy="111.29" r="95.37"/><path class="cls-3" d="M106.66,13.26c1.39-.28,2.67,0,2.17.32,2.77-.93,2.9-.3,3.16-1.44,1.8-.69,3.83-.08,1.77.53l2.63-.54c.88-.18,1.76-.29,2.65-.43-1.06,0-2.13-.09-3.2,0,.83-1.05,5.11.12,6.12-1-1.94.09-3.89.13-5.83.27l.27-.33a17.23,17.23,0,0,1-4.8.43c.13-.17,0-.41,1-.51-3.53.31-3.95.85-4.21,1.31a1.55,1.55,0,0,1-.64.75,10.16,10.16,0,0,1-2.56.85A6.71,6.71,0,0,1,106.66,13.26Z"/><path class="cls-3" d="M100.38,12.12l-2.14,1.69c-1.37.18-2.71.49-4.06.77.06.4-2.71,1.53-.67,1.32a9,9,0,0,1,1.69-.63c-.1.48-1.37,1-2.44,1.37s-1.9.87-1.21,1.09c3-1.21,3.51-1.07,5.22-2.32,1.44-.33,2.7-.52,3.77-.68a12.76,12.76,0,0,1,2.66-.16c.83-.28.86-.83,1.93-1.13l-.74.17L104,12.35a12.67,12.67,0,0,1-2.79.7c1.47-.83,3-1.58,4.5-2.38-.87-.47-2.48-.31-4.11-.05a27.2,27.2,0,0,1-4.27.72C100,11.86,95.66,12.29,100.38,12.12Z"/><path class="cls-3" d="M105.13,13.45l.11,0Z"/><path class="cls-3" d="M174.77,186.18c.75-.56.79-1,.81-1.18-1.42,1-2.83,2.05-4.32,3-.74.47-1.46,1-2.21,1.41l-2.27,1.31c.45.14,3.3-1,1.65.18,1-.09,3.17-1.88,3.25-2.48l-.36.86a4,4,0,0,1,2.4-1.4c.59-.06.86.29.31.91l.17-.12c1.37-2,2.72-4,3.9-6.09C176.09,183.93,177.19,184.44,174.77,186.18Z"/><path class="cls-3" d="M137.49,19.63c1.38.13,1.57,0,1.44-.12A8.28,8.28,0,0,0,137.49,19.63Z"/><path class="cls-3" d="M178.94,181.11c.38-.63.7-1.31,1.05-2A10.73,10.73,0,0,0,178.94,181.11Z"/><path class="cls-3" d="M173.34,199.9s0,.09.1.1l.71-.88h0C173.83,199.41,173.58,199.66,173.34,199.9Z"/><path class="cls-3" d="M203.31,142.37l.19-.63A5.58,5.58,0,0,0,203.31,142.37Z"/><path class="cls-3" d="M144.71,215.91c1.72-.69,3.45-1.27,5.11-2-.6.55,1.9-.27.91.46.39-.17,2.22-.85,1.66-.88l-1.06.33c2.44-1.83.7-1.68,4.87-4a9.15,9.15,0,0,0-3.24.88,14.57,14.57,0,0,0-2.07,1.26c-.48.21-.89.37-1.31.53-1.29.92-2.64,1.7-4,2.54Z"/><path class="cls-3" d="M198.29,48.13h.1C198.34,48.1,198.31,48.11,198.29,48.13Z"/><path class="cls-3" d="M198.8,48.07l-.41,0C198.7,48.22,199.47,48.94,198.8,48.07Z"/><path class="cls-3" d="M178.78,182.12a1.63,1.63,0,0,1,.16-1l-.84,1.43C178.29,182.41,178.54,182.27,178.78,182.12Z"/><path class="cls-3" d="M177.38,186.18l-3.18,2.45-.94,1.27C174.47,188.92,175.82,187.7,177.38,186.18Z"/><path class="cls-3" d="M200.44,147.55c1.51-3.54,1.6-3,1.54-1.93s-.31,2.64.57,1.06a7.76,7.76,0,0,0,.54-2.43,11.36,11.36,0,0,1,.22-1.88c-.89,3-1.27,2.58-1.67,2.19s-.79-.75-1.91,2.08a4.53,4.53,0,0,1,.24-2.91,15.72,15.72,0,0,1,1.4-3.36c.86-.92.89-.38.77.51s-.42,2.09,0,2.53c.74-2.36.43-2,.22-3.19a25.27,25.27,0,0,0,1.37-5.52,16.53,16.53,0,0,1,.61-2.42,4.37,4.37,0,0,1,1-1.83c.42-2.75-.18-2.69-.43-4.34-.52-.25-.85.72-1.16,1.85s-.76,2.4-1.3,2.78c.14-.18.41-.53.54-.38-.27.74-.47,1.49-.78,2.21.49-1,.71-.89.84-.33a6.86,6.86,0,0,1-.09,2.09c-.21.85-.64,2.53-.88,2.2.07-.44.09-.89.14-1.33a9.2,9.2,0,0,0-.64,2.66,5.26,5.26,0,0,1-.9,2.65c-.27,0-.13-.67-.26-.82,0,2.12-.69,3.94-1.48,6.87l-.3-2c.22,2.68-2.56,7.44-5.05,10.27.37-.26.85-.84.82-.34-.92,2-2.49,3-2.42,1.83a5.27,5.27,0,0,1-1,2c-.54.73-1.21,1.53-1.89,2.35s-1.44,1.6-2,2.41a10.76,10.76,0,0,0-.79,1.2,5.57,5.57,0,0,0-.55,1.13A78.88,78.88,0,0,1,180,179.16a9.74,9.74,0,0,1,1.08-1.34c.81-.06,1.34-.23,1.51-.12s0,.54-.54,1.63c1.38-1.86.16-1.9,2.59-4.23-.62,1.25-.07,2.34,2.34.1a31.33,31.33,0,0,0,3.1-4.87c.41-.81.82-1.58,1.16-2.39l1-2.4c1.23-3.17,2.11-6.36,3.42-9.79.39.08,1.24-1.15,2.2-2.68s1.88-3.45,2.55-4.67c.28,1.31-.47,3.27-1.35,5.26.38-.57.78-1.4,1.25-2.26s1-1.75,1.32-2.54Z"/><path class="cls-3" d="M193.25,164.55a3.65,3.65,0,0,0,.47-.42A1.68,1.68,0,0,0,193.25,164.55Z"/><path class="cls-3" d="M198.66,154.23s0,0,.06.06l.29-.62Z"/><path class="cls-3" d="M181.35,182.21c-.23.49-.47.78-.73,1.24l.69-.82C181.52,182.33,181.58,182.14,181.35,182.21Z"/><path class="cls-3" d="M179.24,182.24v-.4c-.19.1-.31.19-.47.28C178.84,182.29,179,182.36,179.24,182.24Z"/><path class="cls-3" d="M214.8,119.89l-.1-.81A1.41,1.41,0,0,0,214.8,119.89Z"/><path class="cls-3" d="M204.85,140c-.81,2.6,1,.69-.41,4.32l.48-1c-.5,2.82-2.8,7.21-4.33,10.17-.2-.53-1.46,1.5-1.88.82-.49,1-1,2-1.35,3a6.74,6.74,0,0,0-.7,2.43c-.92,1.08-1.67,3.16-3,4.46.78-.38-.35,2.95,1.79-1-.16.32,0,.2-.11.52,2.17-2,1.9-3.54,3.22-5.58,1.15-1-.73,2.37.16,1.29.17-.35.38-.73.62-1.14s.47-.86.74-1.31c.52-.91,1.11-1.84,1.58-2.73.89-1.79,1.47-3.28.72-3.53.87-2,1.26-2.19,1.81-2.67a11.7,11.7,0,0,1,.8-3.48c.46-1.3,1.11-2.67,1.58-4,1.06-2.6,1.71-4.89.69-5.15l-.54,2.31a16.09,16.09,0,0,0-.54,2.79Z"/><path class="cls-3" d="M184.89,178.94c.13-.11.3-.28.42-.37Z"/><path class="cls-3" d="M152.2,192.09l.54-1.7,2-.88,1.7-.8c1.06-.51,2-.87,2.94-1.34l2.78-1.33c1-.49,2-1.09,3.15-1.77.46,0-.06.39-.32.61,3.26-2.06,8.2-5.14,9.95-7.46.24-.19.6-.43,1-.67s.78-.52,1.14-.73c.71-.41,1.24-.58.91,0a7.46,7.46,0,0,1,1.37-1.44c.47.25-1.08,1.12-.84,1.45.44-.34.67-.4.66-.6-.42.93,1.87.62-1.48,3.48-2,.19,2.22-2.09.62-2.42-1.09.93-.65,1.21-.64,1.41-1.43,1.17-1.62.85-1.72.57-.32.73-2.43,1.77-2.89,2.78-2.86,2.15-.41-.9-2.29.46-.12.61-.23,1.24-.37,1.85l-3.41,1.9c-2.32,1.6-1.88,2-1.49,2.46a.76.76,0,0,1,.16.93,5.93,5.93,0,0,1-2.2,2c.23-.5-.38-.7-1.4-.63a10.35,10.35,0,0,0-1.77.29,18.63,18.63,0,0,0-2.1.58,23.05,23.05,0,0,0,3-1.91,19,19,0,0,1,3.42-1.93c-3.33.74,3.84-2.35,1.77-2.5a13.47,13.47,0,0,1-5.39,3.35l.55-.42a12.18,12.18,0,0,0-2.61,1.86,8.86,8.86,0,0,1-3.39,1.75c-1.41.6-1.28.15-1.14-.23C153.28,191.7,152.3,192.36,152.2,192.09Zm3-1.47c.64-.21,1.27-.47,1.9-.71A4.69,4.69,0,0,0,155.17,190.63Z"/><path class="cls-3" d="M69.49,24.6l.68-.27A2.89,2.89,0,0,0,69.49,24.6Z"/><path class="cls-3" d="M72.77,200.44l-1.19-.73A13.34,13.34,0,0,0,72.77,200.44Z"/><path class="cls-3" d="M45.06,184.38,43.38,183A8.81,8.81,0,0,0,45.06,184.38Z"/><path class="cls-3" d="M56.1,34.21l-.06,0c-.07.09-.12.17-.2.26Z"/><path class="cls-3" d="M20,126.18a6.42,6.42,0,0,0,.14-1.17C20,125.08,20,125.52,20,126.18Z"/><path class="cls-3" d="M45.37,184.62l-.07-.11-.24-.13Z"/><path class="cls-3" d="M83.85,209.78c.3.07.58.15.91.22A4.73,4.73,0,0,0,83.85,209.78Z"/><path class="cls-3" d="M83.36,205.62a7.2,7.2,0,0,0,.85.2Z"/><path class="cls-3" d="M130.71,215.35l1.89-.33A9.69,9.69,0,0,0,130.71,215.35Z"/><path class="cls-3" d="M87.71,208.19a2.15,2.15,0,0,0,.34-.07C87.79,208.08,87.64,208.11,87.71,208.19Z"/><path class="cls-3" d="M81.58,22.61l-.1,0,0,.16Z"/><path class="cls-3" d="M84.87,19.14l1.46-.69A9.09,9.09,0,0,0,84.87,19.14Z"/><path class="cls-3" d="M21.75,99c.25-.47.62-1.58.76-1C22.36,97,21.7,97,21.75,99Z"/><path class="cls-3" d="M77.83,33.67a5,5,0,0,1,.58-.84C78,33.3,77.59,33.7,77.83,33.67Z"/><path class="cls-3" d="M78.41,32.83c.22-.23.45-.48.64-.7A8,8,0,0,0,78.41,32.83Z"/><path class="cls-3" d="M31.78,111.45a.93.93,0,0,0-.17.51C31.79,111.89,31.82,111.71,31.78,111.45Z"/><path class="cls-3" d="M87.61,18.17c.14-.4,6.6-3.28.94-1.54-.1-1,3.46-1.71,4.94-2.31-1.18.1.38-.75-.05-1a18,18,0,0,1-2.83,1.2c-.71-.22,1.09-1.18,2.66-1.41-2,0,2.16-1.41-.6-1C87.11,14.13,83.32,16,80.2,19l2.23-1.2c.77-.36,1.55-.72,2.32-1.05s1.53-.64,2.27-.9a19.73,19.73,0,0,1,2.14-.54l-.8,1.15a11.84,11.84,0,0,0-3.85,1.05l-1.71.77c-.58.28-1.19.58-1.88.87C83,18.29,85.18,17.68,87.3,17c1.6-.19,1.91-.06,1.54.22s-1.41.71-2.52,1.25A2.64,2.64,0,0,1,87.61,18.17Z"/><path class="cls-3" d="M86.31,26.56l.1,0a1.51,1.51,0,0,0,.21-.17Z"/><path class="cls-3" d="M129,198.53l.47-.35C129.08,198.35,129,198.45,129,198.53Z"/><path class="cls-3" d="M81.26,24.39h0S81.22,24.42,81.26,24.39Z"/><path class="cls-3" d="M116.55,198.59l.07-.07S116.58,198.57,116.55,198.59Z"/><path class="cls-3" d="M111.46,216.26a.27.27,0,0,0,.09.12C111.87,216.36,111.72,216.31,111.46,216.26Z"/><path class="cls-3" d="M116.54,198.67a.12.12,0,0,1,0-.08S116.52,198.64,116.54,198.67Z"/><path class="cls-3" d="M59.94,177.34a3,3,0,0,0,.18.56C60.25,177.93,60.23,177.78,59.94,177.34Z"/><path class="cls-3" d="M68.8,186.18c0,.07.07.12.13.21Z"/><path class="cls-3" d="M17.65,101.91c-.07.7-.09,1.24-.08,1.69A11.8,11.8,0,0,0,17.65,101.91Z"/><path class="cls-3" d="M116.62,198.52a2.69,2.69,0,0,1,.61-.25A2.22,2.22,0,0,0,116.62,198.52Z"/><path class="cls-3" d="M44.15,165.5l.31.27-.1-.22Z"/><path class="cls-3" d="M41,159.51a2.12,2.12,0,0,0,.47.26c-.74-.95-1.59-2.42-2.37-3.67s-1.4-2.31-1.91-2.35a19.27,19.27,0,0,1,1,2.59c.34,1,.57,1.93.16,1.74a12.62,12.62,0,0,1,1.34,2.53,9.43,9.43,0,0,0,1.07,2c-1.1-2.61.48-.65,1.73.76.7,1.58-.77.12-.11,1.45L44.74,168l-1.9-2.88,1.31.36-.27-.24c-1.82-2.27-1.56-2.59-1.41-2.85S42.76,161.88,41,159.51Z"/><path class="cls-3" d="M41.47,159.77a3.68,3.68,0,0,0,.66.67A1.79,1.79,0,0,0,41.47,159.77Z"/><path class="cls-3" d="M33.35,138c-.11-.27-.23-.56-.4-.92Z"/><path class="cls-3" d="M170.77,191.33c-.21-.14-3.35,1-3,1.59l2.69-1.31Z"/><path class="cls-3" d="M32.66,75.06c-.16.35-.31.7-.44,1.06a2.13,2.13,0,0,0,0,.24A4.22,4.22,0,0,0,32.66,75.06Z"/><path class="cls-3" d="M37.54,157.32a2.69,2.69,0,0,0,.8.76A2.71,2.71,0,0,0,37.54,157.32Z"/><path class="cls-3" d="M34.18,75.45c.35-.37.86-.92,1.14-.91a19.53,19.53,0,0,0,.67-2.6A18.36,18.36,0,0,1,34.18,75.45Z"/><path class="cls-3" d="M36,71.87l0,.08A.56.56,0,0,0,36,71.87Z"/><path class="cls-3" d="M172.59,190.49l.67-.59-.29.4c.68-.37,1.37-.7,2-1.09.2-.2.43-.4.71-.64a.61.61,0,0,0-.18.33l.65-.37c1.15-1.57,4.4-4.76,5.13-5.9a38.82,38.82,0,0,1,3.57-3.7c-.87.85-2,2-1.41,1.95,1.08-.65,2-1,3-1.67a9.61,9.61,0,0,0,3.15-3.48c-.58.61-1.15,1.23-1.74,1.83,1-1.71,1.94-3.38,2.81-5.1.87-.54.55.11,0,1a12.87,12.87,0,0,0-1.52,2.47,16.72,16.72,0,0,1,2.06-2.39c.69-.71,1.41-1.33,2.06-1.91,1.33-1.13,2.29-2.22,2.44-3.39.75.22,2.11.65,3.75-1.82-1.92,1.23.57-1.75-1.18-.87a5,5,0,0,1,1.09-1.7c.45-.55.78-1,.6-1.27l.11.4a8.89,8.89,0,0,0,2.88-4.59c.3-1.32.25-2.41.46-3.49.6-1.34,1.15-2.48,1.68-3.5s.93-2,1.37-2.87l.66-1.33.59-1.38c.39-.94.81-1.92,1.19-3.05a3.83,3.83,0,0,0,2.84-2.67c-.32-1.07.53-5.37-.21-6-1.26,3.21-.06,2.89-.42,5-1.42,1.35-.91-.12-2.18,1.91,1.06-1.64,2-8.21,3.19-10l0,.73a30,30,0,0,1,2.12-3.56A7.32,7.32,0,0,0,215,126a11.94,11.94,0,0,0,0-3.4c-.07-.9-.11-1.79-.24-2.69.08.13.18.16.25.23.42-4.31,1.38-3.09.7-7.92.05.37.15.14.2.52a10,10,0,0,0-.12-4c-.24-1.29-.56-2.48-.76-3.49.63-1.3.74.25,1.32,1A29,29,0,0,0,213,93.55c0-1-.14-2.06-.23-3.09.74,1.7,1.87,3.78,2.2,3.15-.44-1.67-.72-1.27-1.13-3.66a10.39,10.39,0,0,1,2,2.21c-.37-5.15-1.85-.73-1.26-4.53-.41-1.55-1.33-2.25-1.91-2.26,0-1,0-2-.11-3-.81-.08-1.88-3.44-2.89-5.52-.4-.14,0,2,.52,2.72-.55,0-1.71-2.14-2.26-3.59.63-.56-.49-2.89-1.44-4.94s-1.92-3.76-.71-3.35c-.88-1.55-2-3.16-3.06-4.86-.54-.84-1.16-1.66-1.73-2.49s-1.15-1.66-1.77-2.43c-1.21-1.56-2.38-3.06-3.54-4.3L194,51.89c-.53-.51-1-1-1.45-1.35-.35-.71-1-1.67-1.41-2.32s-.49-1,.42-.54a32.3,32.3,0,0,0-2.82-2.63c-.91-.74-1.84-1.33-2.72-2l-1.33-.94c-.46-.3-.92-.62-1.38-1-.94-.67-1.84-1.52-2.89-2.44-.12-.22.38.17.93.55s1.11.8,1.2.55a13,13,0,0,1-1.12-.78c-.37-.26-.72-.53-1.06-.81-.68-.57-1.34-1.19-2-1.86s-1.51-1.32-2.41-2c-.45-.35-.94-.72-1.46-1.08s-1.12-.68-1.75-1c.83.5,1.23.39,1.43.34-.05.26-2.27-.84-3.64-1.43-.64-.54,1,.43.73,0a48.92,48.92,0,0,0-13.76-6.59c-4.64-1.5-9.38-2.47-14.66-3.74,3,.68,4.4.14,4.55-.26-1-.28-2-.59-3-.81-1.28.23-3.51-.36-5.49-.28-.2-.22-1.09-.59-.1-.65a12.73,12.73,0,0,0-4.1-.8,25.3,25.3,0,0,0-3.84.16c-1.29.16-2.61.33-4.06.4a25.75,25.75,0,0,1-4.88,0l4.5-.89c1.51-.25,3-.45,4.59-.67l-2.2-.87c1.36-.19,2.74-.44,4.12-.54a6.85,6.85,0,0,0-3.21-.24c-.88.09-1.48.17-1.61-.21.53-.17,1.76,0,1.83-.41-2.32-.45-2.54,0-4.3.15a17.92,17.92,0,0,1,4.23-.63,35.91,35.91,0,0,1,5.11.06c1.76.07,3.51.34,5.13.55s3.11.5,4.35.68c.79.06-.74.21-.9.33a21.31,21.31,0,0,1,2.58.76,16,16,0,0,0,3,.83c1.7-.19-1-.79-2.23-1.2.31-.5.91-.29,2.29,0,.1.73,7.32,2.54,8.62,4.18a10.8,10.8,0,0,0,3,.8c.4,0,.35-.3.28-.55-.13-.51-.31-1,3,.7.55.55,1.08,1.14,1.6,1.73a44.5,44.5,0,0,1,13.13,6.56l-.85-.57c-.76-.09,0,.75.32,1.19a47.77,47.77,0,0,0,4.17,3,8.49,8.49,0,0,1,3,2.74c3.82,1.9,9.3,6.38,12.78,9.79,0,.86-1.21-.18-2.65-1.54s-3.22-3-4.2-3.38c1,1,2,2.08,3,3.11a10.32,10.32,0,0,0-4.5-3,20,20,0,0,0,3.31,2.86L194.8,45a19.11,19.11,0,0,1,1.77,1.55c-.41,0-.24.48.83,1.73l.89-.12c0,.06.05.24.33.67,1.44,1.59,2.92,3.15,4.25,4.84-.55-1.29,0-1.77-1-3.1,0,.74-.92-.33-2-1.65,1.29.85-.68-1.55-.36-1.77l3.33,4.15c1,1.39,2,2.65,2.77,3.5l-.18,1c.78,1.41,1.75,2.75,2.57,4a34.7,34.7,0,0,1,2,3.48l-.66-.42c.86,1.72,1.73,3.41,2.59,5.05a24.63,24.63,0,0,1,1.83,5c1,1.44,2.09,3.09,3,4.74s1.92,3.23,2.67,4.49c.61.61,1.15,3.14,1.51,6s.76,6,1.73,7.81a41.45,41.45,0,0,1-1.69-3.8,16.2,16.2,0,0,0,.91,3.3c.3.91.41,1.63,0,2.09a9.24,9.24,0,0,0-.34-2.43c-.11-.27-.19-.12-.28.14-.17.51-.35,1.42-.71.16.24,1.33.42,2.7.67,3.9.12.6.24,1.15.37,1.64a12.19,12.19,0,0,0,.32,1.23c-.44-4.38,1.52,1.43.58-3a27.69,27.69,0,0,1,1.34,5.85,35.81,35.81,0,0,1,.19,6.47c-.4,0-.61.47-.81,2l.56,1.26c-.16,1.93-.6-3.77-.91.12a10,10,0,0,1,.22,1.68c0,.61,0,1.26,0,1.93-.1,1.35-.19,2.79-.41,4.14a30.21,30.21,0,0,0-.35,3.73,4.09,4.09,0,0,0,.44,2.46c-.63,1.46-.56,0-.54-1.3a3.23,3.23,0,0,0-.13-1.39c-.13-.16-.3.13-.73,1.22a23.3,23.3,0,0,1,.26-4.28c.18-1.35.23-2.48-.21-3,.06,2.61-.86.86-1.05,2.51l.21,2.93.12-.63a21.93,21.93,0,0,1-.21,4.12c-.09.75-.2,1.52-.32,2.31l-.51,2.39-.56,2.45-.69,2.42-.68,2.39-.73,2.28c-.81,5.27-1,9.28-4,15,.19-1-.54.16-1.19,1s-1.26,1.42-.75-.58c-1.84,2.34-2.8,5.13-2.51,5.38,1.45-2.17.58-.72,1.85-2.52a10.86,10.86,0,0,1-1.28,2.95,15.05,15.05,0,0,1-1.89,2.51c.38-.53.17-.37.12-.58-2,2.44-.4,1.52-1.53,3.5-.49.1-1.25,1.08-2.07,2.23a28.06,28.06,0,0,1-2.6,3.07c-.35,1-.77,1.94-1.18,2.92.58-1.68-2,2-2.83,2-1.15,1.84-1.78,3.78-4.32,5.9.75-1.18-2.5,1.73-3,1.23a18.2,18.2,0,0,0-2.94,2.54c-.87.85-1.64,1.72-2.42,2.59a20.11,20.11,0,0,1-2.5,2.45,12.66,12.66,0,0,1-3.18,2c.06-.22.72-1.15-.68-.45a39.71,39.71,0,0,1-3.85,2.63l0,0,0,0c-.54.35-.84.62-.78.77-.81.83-1.39,1.55-2.23,2.37a30.73,30.73,0,0,1-3.86,3c.61.51,3.91-1.44,5.22-2.47l.87-1.35a3.36,3.36,0,0,0,2.49-1c.75-.63,1.4-1.34,1.94-1.46a8.91,8.91,0,0,1-2,2.13c-.94.74-2.08,1.52-3.28,2.32-2.45,1.52-5.19,3.06-7.19,4.36,3.09-.14,8.84-2.93,13.45-6-.76.31-1.51.63-2.3.89.84-.47,1.63-1,2.44-1.53-.93.27-1.83.57-2.77.79a32.87,32.87,0,0,0,3.27-2c1-.68,2-1.37,3-2.07a5.67,5.67,0,0,1-2.63,1.2c-.49,0-.51-.21.21-.58,3-1.18,2.43-2.29,4.41-3.63-1.13.72-2.56,1.72-1.89.72a25.41,25.41,0,0,0,4.61-2.72,44.69,44.69,0,0,1,4.28-2.73c-.63-.31.41-1.17,1.48-2.22s2.29-2.15,2.16-2.74l-1.52,1.3c.85-1.15,1.69-2.29,2.46-3.5,3.43-2.12-1.65,3.24,3-.59,3.78-4,2.68-4.79,5.24-8.23a12.28,12.28,0,0,1-1.34,3.26,26.08,26.08,0,0,1-2.94,4l1.66-1.37c-.37,1.17-3.77,4.7-5.55,6.37,1.13-1.71.74-1.43-.13-.61a17,17,0,0,1-3.19,2.5c.24.76,2-1.1.21,1.42l2.3-2.19c.67-.63,1.47-1.26,2.81-2.51a28.46,28.46,0,0,0-3.07,3.37,24.57,24.57,0,0,0-1.54,2.53,14.74,14.74,0,0,1-1.52,2.32,12.58,12.58,0,0,1-1.23,1.28,19,19,0,0,1-1.85,1.36c2.33-2.25-1.53-.11-2-.16-1.1,1-3.53,2.88-4.45,3.78l1.52.19a10.73,10.73,0,0,1-4.37,2.23,13.26,13.26,0,0,0-2.17.92,10.71,10.71,0,0,0-2.45,1.74c-.22.84,3.7-1.88,3-1.37a19.22,19.22,0,0,1-6.73,3.34c-1,.28-2.06.52-3.16.78s-2.32.5-3.68.9c-.18.4.18,1-1.47,2.27.34-.81-1.13-.54.74-1.81a24.18,24.18,0,0,0-5.22,2.54c1.9-.53,1.61-.19.76.39s-2.28,1.26-2.57,1.56c-2,.56.4-.79,1.53-1.36-1.62.38-3.74.13-4.34,1.31-.13-.3.83-1.08,2.15-1.91.66-.42,1.41-.85,2.17-1.25s1.5-.84,2.18-1.15l-1.91.64a9.72,9.72,0,0,1,3.34-1.46c-2,.25-2-.35-1.78-.94.27,0-.07.2.19.19,1.54-.42,2.6-1.06,2.12-1.24.47-.7-.07-.58-.9-.34a12.31,12.31,0,0,1-2.49.63c-.73.34-1.45.72-2.17,1L153.18,210c-1.17.87-2.38,1.67-3.6,2.51a13.48,13.48,0,0,1-4.17.93c-1.2.08-2.29.09-3.65.09l-.58.87c-3.08.53-6,.61-4.19-.58.14.23.54.14,1.21.05a1,1,0,0,1,.39-.31c.06-.05.08-.1.13-.16-3.21.76-5.26,1.1-5.44,1.18,5.42-1.79.11-1.39.89-2.84-1.8.41-3.63.66-5.47.95,3.39.17.11.65-1.08.92-.37-.72-4.49.17-6.45,0l.15-.15a57.92,57.92,0,0,0-7.23-.3c.09.25-2.92,1.3-4.42,1.81,1.95.4,2.34.54,2.27.71s-.6.32-.46.56a3.77,3.77,0,0,0-1.24-.1c-.59.14.74.38.83.64,2.15,0,4.31.08,6.16,0a11.13,11.13,0,0,0,4.24-.91c-1.28-.51-2.21.4-3.65,0a12.93,12.93,0,0,1,3.61-.46l4.65-.09,1.17.6,3.49-.6c-1.44.42-.5,1.08-4.22,1.4.51.63,3.69-.38,6-.35.36-.3.72-.64,1.07-1-.4.52,4.46,0,1.09,1.06-1.85.5-3.72.83-5.6,1.21l1.63.45c-1.61.17-3.22.38-4.83.44l1.13-.46c-7.77.75-2.3-1.5-10.07-.68-2.47.84-5.16.85-9.89-.06,3.48.22.45-.66,1.81-1.08-3.42-.82-4.69-.28-6.58-.2-.79-.69-1.32-1.22,1.74-.6.58-1-4.09-.51-4.12-1.76a31.37,31.37,0,0,0-9.67-.78c-2.4,0-5.1-.22-10.5-3.27l.6-.24c-1.82-.67-3.45-1.3-4.93-2s-2.81-1.4-4.14-2.1l-3.93-2.26c-1.35-.76-2.72-1.66-4.29-2.54-1.38-1.35-2.65-2.81-3.95-4.2,1.14.59,4.37,1.8,3.42.43a10.71,10.71,0,0,0,3,3.07c1.13.88,2.32,1.71,3.45,2.7.41-.12-.5-.91-.85-1.33,1.52.88,2,1.81,4.16,2.76,0-.24-2-1.78-.32-1,.8.72,1.64,1.4,2.46,2.11a5.27,5.27,0,0,0,3.34.56c.71-.07,1.45,0,3.63,1.14a10.12,10.12,0,0,1-5-.34c1,.53.27.33-.49.09s-1.56-.47-.71.19a16.31,16.31,0,0,1,4.08,1.3,22.67,22.67,0,0,0,4.76,1.68,5,5,0,0,1-1.75-.28l2.9,1.36c1,.45,2,.83,3,1.24-.66-.52.64-.25,2.06,0s3,.44,2.82,0l-2-.68-1.46-.53c-.83-.29-1.43-.47-2-.67a43,43,0,0,1-6-2.53,15.09,15.09,0,0,0,6.46.51,1.07,1.07,0,0,0,.36.2c1.36-.42.32-1,.83-2.38a11.77,11.77,0,0,1-4.46-1.08,50.27,50.27,0,0,0-4.7-1.78c-1,.39,1.68,1.94,3.62,2.47-1.17-.25-2.31-.6-3.46-.92l.79,0c-2.71-1.28-5.34-2.72-7.92-4.22a6.31,6.31,0,0,0,3.19.71,15.7,15.7,0,0,1-2.85-2.05c-.15.79-.55,1.19-1.52.61-4.92-3-7.1-5.51-8.29-7.42l-.57-.34c.28,1.24-4.06-1.31-6-1.84.58-.57-1.94-2.32-2.91-3.71-1.28.09-1.29,1.83-.2,3.76,3.56,2,2.25.8,4.45,1l2.71,1.62c.92.51,1.85,1,2.77,1.49L62,194.09c2.34,2.13,5.43,2.9,4.72,3.59a9.52,9.52,0,0,1-2.79-1.29A10.73,10.73,0,0,0,61.2,195l1.51,1.5c-3.57-1.41-1.06-1.78-5-4,.79,1.66-.36-.19-2.21-1a20,20,0,0,0,3.27,2.93c1.25,1,2.23,1.85,1.25,2-1.17-.41-2.48-2-3.92-3.53s-2.89-3.15-4.54-3.64l.22,0a23.6,23.6,0,0,0-6.5-4.78A13.08,13.08,0,0,0,43.06,182c-.87-.83-1.8-1.64-2.52-2.44l.35-.22c-.72-.71-1.36-1.49-2-2.24A5.29,5.29,0,0,1,40.71,179a26.22,26.22,0,0,0,2.15,2.78l.35-.74a6.17,6.17,0,0,0,2.62,2.87c1,.61,2.09,1.07,3.16,1.61a32.79,32.79,0,0,1-4.44-4.12c-1.38-1.5-2.62-2.69-3.44-2.52-.27-.68-.49-1.39-.72-2.09l-.83-.61c-.49-1.57,1.16-.85,3.15,1.31.19.51.29.77.06.75.58.41,1.18.76,1.9,1.33a14.12,14.12,0,0,1,1.17,1.05,19.29,19.29,0,0,1,1.46,1.54l-1.51-1A36.39,36.39,0,0,0,49.87,185,10.8,10.8,0,0,0,53,187,159.65,159.65,0,0,1,41.6,174.1a21.4,21.4,0,0,1-3.27-.68,7.47,7.47,0,0,0-2.81-.37,38.27,38.27,0,0,1-6.59-10.55l.42.12a22.79,22.79,0,0,0-2.13-3.83c-.41-1.72,1.28.67.94-.5-1-1.53-1.88-3.14-2.81-4.73.4,0,1.07,1.06,1.76,2.35l2,3.74c-.24-.34-.73-1-.69-.74a19.77,19.77,0,0,0,2.43,4c.94,1.34,1.68,2.59,1.56,3.32.82,1-2-1.73.21,1.85,1.18,2.61,2.51,2.83,2.93,2.89.31-.17-2-4-.72-2.95-1.2-1.79-2.16-2.22-3.18-4.84,1.08,1.87,3.37,3.85,3.45,5.15,3,3.1,4.23,1.42,3.18-.2-.27.76-4.71-6-2.43-.94-2-1.64-4.36-5.53-6.24-8.22l.2.06c-.66-1.18-1.38-2.33-2-3.54.41.44,1.13,1.45,1.51,1.3-1.17-1.49-2.21-3.07-3.33-4.63,1,1.3.9.8.53-.2a27.68,27.68,0,0,1-1-3.26c-.8-.33-2-2.23-1.59-.13.46,2.39.82,1.17,1.66,3.16l-2-2.49V149c-.47-.48-1-1-1.42-1.46-1.31-4,2.34,1.12-.12-3.72l-.81,1c-.23-.75-.47-1.53-.66-2.34L20,140c-.17-.84-.35-1.68-.49-2.53l-.37-2.52-.37-2.42c-.09-.79-.19-1.55-.3-2.28-.2-1.45-.5-2.75-.73-3.82.77,1.12,1.83,1.47,2.2-.24a27.09,27.09,0,0,0,.5,3.8c.13.74.27,1.5.43,2.24l.54,2.09c0,.27-.54-.47-1.08-1.65a15,15,0,0,1-1.16-4.29c-.75.84-.18,2.64.41,4.26s1.25,3.08.41,3.46c1.31,7.46,3.09,4.91,4.11,11.23.79-.2,1,1.53,1.81,1.58.45-2.14-2.86-7.86-3.45-11.93a4.32,4.32,0,0,0,.69,1.21c-.3-1.41-.49-2.42-.75-3.29s-.55-1.63-.93-2.58l0,.27c-1.46-3.32.19-2.27.16-4.35-.3-.76-.43-3.64-1-3.1.1-1.27.18-2.54.31-3.8l-.89.27c-.22-2.11.34-2.61-.35-4.48l-.81,0c0,1.76.05,3.54.15,5.31-.52-2.66-.84-.67-1.25-3.63,1.14,3.25.24-2.38,1-2.73l-.51-2.16.23.55c.39-1.71-.39-2-.25-4a25.51,25.51,0,0,0-.57,3.22,10.36,10.36,0,0,0,.29,3.7,42.83,42.83,0,0,1-1.13-7.62c-.28-2.33.35-3.94.64-6.09,0,2.09.65,1.75,1.13,1.94s.84.86.45,4.94c-.15-.15-.1-.82,0-1.07-1.12,1.08.09,4.93.53,6.66.58-.48.78,1.34,1-1.77-.18.51-.53-.13-.78-1.28a11.16,11.16,0,0,1-.26-2,11.67,11.67,0,0,1,.18-2.27l1.26.55c.11-1.42.12-2.85.31-4.26l0,.4c.95-1.54.13-4.56,1-7.42-.31-2.18,1.71-10.12-.31-6.94,1.37-2.43.83-4.94,1.52-7.8-.49,1.12-1,2.24-1.45,3.4.05-2.22.26-3,.27-3.66a22.23,22.23,0,0,0-.2-3.18c.45-.23,1-.88,1.09-.1.49-1.38,1-2.92,1.62-4.46l1.88-4.62c.65-1.49,1.25-2.92,1.71-4.21a17.69,17.69,0,0,0,1.06-3.27,15.45,15.45,0,0,1,2.89-3.74,19.41,19.41,0,0,0,1.51-1.88,21.59,21.59,0,0,0,1.8-3c.25-.56-.12-.53-.26-.73s-.06-.66,1.21-2.12c.22-.15-1.36,3.54,1,0A8.22,8.22,0,0,1,39,49.48c.53-.7,1.16-1.38,1.8-2.08a26.35,26.35,0,0,0,3.69-4.59c1.61-1.36,4.07-4,4.08-2.94-2.45,2.2-5.32,5.87-5.49,6.63-.08-.65-1.8,1.55-.58-.58C39,49.5,40.86,48.71,38,52.1c.09.43,2-1.37,2.36-2.29.8.59-4.6,7.4-1.33,4.91,2.73-3.73,1.87-6.2,5.33-8.66a13.76,13.76,0,0,1-1.53,2.57,7.44,7.44,0,0,0-1.38,3.06c.76-.81,1.58-1.57,2.36-2.35.3-.78.57-1.59.91-2.36l0,.21a10.84,10.84,0,0,0,3.49-4.34c.27-.62.5-1.26.87-2a11.28,11.28,0,0,1,1.74-2.62C48.05,39.84,50,36.4,48,37.73c2.51-2.64,4.58-4.35,5.32-3.55-2.22,2.57-2,2.88-1.86,3.11s.41.45-1.39,3c.48-.23.5.31.73.58s.64.27,2-.91c2.41-3.34-1.49.2,1.2-2.85.24-.1.48-.2.48,0,1-1.64,1.77-1.27,3.08-3.22l-.27.51c2.53-1.29,1.93-2.48,4.24-3.42-.61,0-.4-.4.1-.92a19.33,19.33,0,0,0,1.76-1.81c-2.18,1.17-4,1.05-7.72,4.23,0,.86.44.89-.87,2.43l2.34-2.12c-.45.52-.74,1-1.13,1.49L53.54,36c2.61-2.86.84-2.2,1.67-3.77,2.91-2.09,2.19-2,4.07-3.23.33.78,6.45-2.81,10.21-4.38-.55.3-1.22.76-1.6,1-2.15,2.07,2.09-.46,2.32-.27l1.61-1.45c-.32.25-.69.71.16.37,2.39-1.59,1.83-2.27,4.33-3.75.41.35-1.39,2.13.31,1.56A6.31,6.31,0,0,0,78.79,22a11.39,11.39,0,0,0,4-1.56,6.13,6.13,0,0,1,2-1.25,2.49,2.49,0,0,0-.36.23L87,19a6.59,6.59,0,0,1-2.89,1.38,6.1,6.1,0,0,0-2.83,1.5l.17.81a13,13,0,0,0-4,2.82,19.76,19.76,0,0,0,2.46-1.27c.68-.39,1.4-.8,2.62-1.45.56.31-1,1.46-1.28,1.62l.18-.59a8.54,8.54,0,0,0-3.71,2c-.53.42-1.08.85-1.71,1.32a15.29,15.29,0,0,1-2.24,1.44c-.55.28-.25,0-.21-.16-2.43,2.32-5.72,3.21-7.71,5.93l.6-1L65,34.75c-.53.57-1.11,1.24-1.73,1.94-1.27,1.38-2.59,3.07-3.9,4.73l.19.26c.47-.17-.71.85-1.38,1.35h0L56.4,45.5l-1.52,2.25a6.63,6.63,0,0,0,1.63-1.12c.16-.74,3.13-3.09,2.17-3.36a11.82,11.82,0,0,0,2.39-2,9.61,9.61,0,0,1,2.08-1.81c-1.07.54-.89.12-.43-.5A7.76,7.76,0,0,0,64,37.22a4.63,4.63,0,0,0,1.75-1c.6-.43,1.12-.74,1.2-.36.49-.12-1.24.27-1.76,1.26-.77,1,.21.44,1.12-.09s1.81-.94.75.19c2.81-2.72,7.24-5.28,10.44-7.79l-2.1.87c1.57-.87,5.3-2.89,5.73-2.74-1.14.69-2.54,1.36-4,2.31.29.7,3.61-1.87,4-1.52,1.26-1.14,2.59-2.18,3.92-3.29l-2,.86c1-1,5.48-2.31,8.71-3.23a7.77,7.77,0,0,1-3.31,1.71A19.34,19.34,0,0,0,84,26.23c-2.15,1.43,1.87.33-.21,1.56a5.69,5.69,0,0,0,2.67-1.25l1-.16A19.49,19.49,0,0,1,83.48,29,26.8,26.8,0,0,0,79,32.12a1.53,1.53,0,0,0,.37-.57,20.52,20.52,0,0,0-6.26,3.57,4.71,4.71,0,0,0,2.06-1.33c.19.15-1.61,1.45-2.16,2.13,2-.92.66.28,1.9-.32A21.08,21.08,0,0,1,71.43,38c-.94.2.3-.86-.13-1.17a5.09,5.09,0,0,1-2,1.12,5.12,5.12,0,0,0-2.38,1.7c2.86-2-.07,1.43-.77,2.41l.47-.33A3.36,3.36,0,0,1,65.72,43a2,2,0,0,1-1.19.52c.89-1.12,2.09-1.79,1.4-2a13.21,13.21,0,0,0-2.09,2l.45-1c-1.12,1.06-2.32,2-3.39,3.17A13.06,13.06,0,0,0,60.45,49c-1.12.41-1.86,1.82-2.45,2.68l.17-.5a9,9,0,0,0-1.42,1.22c-.48.52-1,1.11-1.38,1.67a15.66,15.66,0,0,0-1.05,1.55,2,2,0,0,0-.33.94c-.3.21-.21-.29,0-1s.64-1.71.88-2.47c.5-1.51.3-2.19-2.86,1.93-2.42,3.1-.37,2.8-1.23,4.9,0,0-.05-.19-.26-.07-1.06,1.32-.73,1.76-1.28,3a7,7,0,0,0,1.7-2.39c.11.39-.41,1.09-1,1.85a7.49,7.49,0,0,0-1.31,2.33c.09-1.92-2.05,2.53-1.77,1.18a14.58,14.58,0,0,0-2.49,4.26,14.82,14.82,0,0,0-.87,3.73,5.22,5.22,0,0,0-1.75,2.8,17.93,17.93,0,0,1-1.58,4A20.13,20.13,0,0,1,41,78.47c.07-2.24-1.77,3.41-1.23.14-.14.69.36.19.51-.51.35-1.2.56-2.39.11-2.25-.65.82-1.19,1.7-1.78,2.56l.22-1.06c-.84,1.33-1.77,2.65-2.52,4,.1.17.42-.18.59-.36-2.24,5-3.26,11.19-4.07,15.87.48.3.68,1.18.74,2.39s-.1,2.73-.12,4.36-.18,3.34-.07,4.88a12.58,12.58,0,0,0,.56,3.86c-.65-1-1.73-1.57-2.17-.93-.09-.85-.89-2.63-.67-4.6.34-.3.93-2.67,1.2-1.11.16-5.37-1,.66-1.67-1-.16,6.07,1.2,9.58,2,13.25l-.25.11c.24.93.43,1.85.71,2.77-.07-1.15.27-1.73.53-1.64s.5.83.49,2.3l-.1-.35a11.71,11.71,0,0,0,.29,3.53c.32,1.38.72,2.85.91,4.14.34.53.72,1.05,1.07,1.57.51,2.54-.76,3-1.27,4a16.51,16.51,0,0,0,2,4.83c.81,1.3,1.59,2.42,2.45,3.65a18.81,18.81,0,0,0,.84,3.79c.36,1.26.48,2-.52.66A7.51,7.51,0,0,0,42.94,150a4.41,4.41,0,0,1,1.46,1.52,7.72,7.72,0,0,1,.63,1.39,17,17,0,0,1,.65,2l-1.3-1.15a65,65,0,0,0,5.77,8.12l1.47,1.83,1.35,1.6a21.7,21.7,0,0,1,1.78,2.47c-1.49-.21-.64,1.54.52,3.65s2.79,4.42,2.55,5.47c.09-.53,1.89,1,2.3,1a2.57,2.57,0,0,0,1.66,1.56c-.79-.94-.13-1,.22-1.2s.37-.37-1.55-1.68c.65.15,1.3.36,2,.61a16.32,16.32,0,0,1,2.19.91,30.84,30.84,0,0,1,5.14,3.34l-.55.61-3-2.63c-.08.73-1.61-.63-2.41-1A21,21,0,0,1,65.3,180a3.54,3.54,0,0,1,.61.83c.17.39-.06.49-.27.57-.43.17-.81.31,2.27,2.65.92,0,.4-.1,2.15.89-.78-.52-1.25-.17,0,.72l1.55.31c.76,1.27-.32.9-1.36.34s-2.12-1.16-1.45-.1c-.7-.31-1.53-.7-2.33-1.14s-1.6-.91-2.31-1.28c-1.44-.73-2.46-1.2-2.42-.48,3.71,3.47,4.7,1.33,8.65,4.69l.22.66c1.71.74,2.34.3,3.4.47-.05.26.22.68,1.21,1.32,1.6.3,2.82.7,4.08,1a26.92,26.92,0,0,0,3.94.64,30.17,30.17,0,0,1-3.85-1.69,19.48,19.48,0,0,1-2.19-1.51,37.54,37.54,0,0,0-5.9-3.78c1.15.44,5.78,3,6.64,2.18l-.47.67a43.45,43.45,0,0,1,7.26,3.17c-.63-.11-1.26-.23-1.88-.39a21.23,21.23,0,0,1,4.71,2.43A8.1,8.1,0,0,0,92,194.46a14.24,14.24,0,0,0-2.58-.91,49.57,49.57,0,0,1,6.6,2.18c1.64,0,3.23,0,4.83-.05-.14.38,2.72,1.06,1.19,1.37a9.75,9.75,0,0,0,2.13.66,9.48,9.48,0,0,0,1.78.06,29.34,29.34,0,0,1,3-.2c1.63.64.89.64-.34.62s-2.91-.23-3.18.29a34.45,34.45,0,0,0,3.52.76c1.18.16,2.34.28,3.44.35a23.64,23.64,0,0,0,5.51-.34c-1-.19-1.42-.4-1.36-.58a2.14,2.14,0,0,0,1.2.27l1.9.05.74-.51c1.75.4,1.52.71,0,1.06,1.71.19,3.71-.95,5.48-.21a18.62,18.62,0,0,1-4.58.41,17.19,17.19,0,0,0-3.55.06,22.26,22.26,0,0,1,6.33.58,17.06,17.06,0,0,0,3,.37,24.26,24.26,0,0,0,4.59-.44c.13.24-1.14.89.36.71,3.45-.64.77-1.19,1.78-1.91a10.51,10.51,0,0,1-3.1.42,8.75,8.75,0,0,1-2.34-.53l.67-.48c.12.2,1.77.12,2.28.26l.33-.92c-.1,1,2.64,1.42,4.66.71-2.19-.34-1.62-.44-2.33-1.43a4.72,4.72,0,0,1,3.07-.5,4.51,4.51,0,0,0,3.29-.7c-.16.39-2.9,1.13-.45.9,2-.42,1.56-1.09,2.82-1.62-1.3,1.12-.78,1.61-2.21,2.92a41.3,41.3,0,0,0-4.93,1.26l3.12.13c-3.07.68-2.11,1.31-2.31,1.66,5.52-.14,3.8-1.94,7.21-2.49,1.49-.91-3.18.61-.78-.53,1.58-.3,1.72-.48,1.9-.73s.38-.56,2.05-1.22l-.47.52c1.19.15,2.08-.67,3.24-1.18,1.21-.69-2.29-2.12,2.9-4-.17.31-.22.48-.18.57-.44,1.4-1,2.71-1.48,4.09s-1.09,2.77-1.7,4.1c1.46-.43,2.94-1,4.49-1.46l4.69-1.71c1.56-.67,3.19-1.28,4.79-2s3.24-1.39,4.81-2.22c1,.15.09,1-1.09,1.88s-2.58,1.63-2.25,1.79c-1,.44-2,.8-3.09,1.17,0-.31,1.53-1,2.65-1.72s1.88-1.24.35-1c-5,2.9-7.6,3.32-12.4,6.17,1,.34,2.74-.25,4.6-1.13.93-.43,1.93-.85,2.9-1.26a11.84,11.84,0,0,1,2.86-.89,21.88,21.88,0,0,0-3.58,1.86c1.6-.57,3.22-1.25,4.92-1.91s3.4-1.47,5.13-2.36l.6-.71-1.6.8-1.3.57c-.74.32-1.21.51-1.32.55a20.2,20.2,0,0,0,2.15-1.17,11.64,11.64,0,0,0,1.62-1.29c.88-.84,1.34-1.59,1.19-2.06l-.54.27.91-.87ZM144.52,19.77a1.45,1.45,0,0,0,.56-.22C144.92,19.67,145,19.79,144.52,19.77ZM108.83,207.65a95.57,95.57,0,0,0,13.81,1.41c-2-.46-3.89-1-5.32-1.43a9.61,9.61,0,0,1-2.77-1.26c-.68-.7,1.24-.7,7.79-.63l.86-.16c-.86-.07-2-.16-3.32-.22s-2.73,0-4.11-.09c-1.14.24-3.58.91-5.78,1.32l-2.89.63a3.94,3.94,0,0,0-1.22.32c.72.69,2,.28,3.47.62ZM106.09,204c-2.48-.66-2-.14-2.45.16l2.69.33C106,204.34,105.86,204.17,106.09,204Zm-2.37.56a2.45,2.45,0,0,1,.64.19Zm49.7-3.08-.25.11,1.8-.52A9.08,9.08,0,0,0,153.41,201.48Zm-5.28.7-.4.84,1.7-.4A1.59,1.59,0,0,0,148.13,202.18Zm-16.67.92c-.94.92-4.42,1.21-4.59,2.2-.21.26.53.3,1.37.32l3-.15c0-.15.22-.28.55-.45-1,0-1.76-.22-1.39-.84,2.77,1.06,2.26-1.18,5.11-1.19C136.28,202.2,132.28,202.72,131.46,203.1ZM48.32,51.59a6.93,6.93,0,0,0,.91-.24l-.88,1.9a26.08,26.08,0,0,1-1.85,1.85c-.6.59-1.19,1.16-1.74,1.74A8.34,8.34,0,0,0,42.37,61a9.28,9.28,0,0,1-2.89,1.93,14.26,14.26,0,0,1,1.2-1.68c1.73-4.4,2.92-5.11,3.9-5.61a5.09,5.09,0,0,0,1.54-1A11.44,11.44,0,0,0,48.32,51.59ZM28.18,88.47a.91.91,0,0,0-.09-.56c-.26,8.5-.28,15.13-.54,19.52a3.69,3.69,0,0,0,.53-1.11c.19-.51.38-1.12.56-1.76.38-1.29.64-2.7.93-3.59q.28.85.63,1.69l-.7,1,.51,2.85c.6-.75.66-3,1.18-4.46a23.65,23.65,0,0,1-.32-2.74l-.21-2.13c0-.66-.09-1.24-.15-1.59-.44,1.24-.78,2.51-1.12,3.78.3-1,1-6.17,1.25-8.23-.18-.06-.66.74-.93,1.65s-.38,1.92,0,2.22c-.66.32.06-3.76-1-1.3a19,19,0,0,1,.92-5.44,44.13,44.13,0,0,1,1.73-4.59l1.06-.08c1.15-2.24-.61-2,.89-4.62-1,3.53,1.23-.21.37,2.55.66-.74,1,.31,1.88-2.4a3,3,0,0,1,.77-2.58,3.17,3.17,0,0,0,.91-2.43c1-1.2.07,1.79,1.44-.82a8.71,8.71,0,0,0,.35-3c-.11-.51-.44-.67-.82-1a5.88,5.88,0,0,0-1,3.23,5.69,5.69,0,0,1-.7,2.84c.21-1.79.39-3.62.67-5.44a5.72,5.72,0,0,0-1.15,2,11.23,11.23,0,0,0,.56-2.77c0-.48.07-.92.12-1.32l-1,1.94c-.3.62-.57,1.19-.83,1.69a5,5,0,0,1-1.23,1.81l-.26-.57a5.37,5.37,0,0,0-1.16,3.48c-.24.64-.44,1.3-.63,1.92s-.29,1.24-.43,1.77c-.26,1.07-.52,1.86-.9,2l-.07-1.12c-.5,1.61-.7,2.53-1,3.55L28.8,86C28.61,86.65,28.4,87.44,28.18,88.47ZM61.75,188A11.57,11.57,0,0,0,60,183.73a51.57,51.57,0,0,0-6.45-7.09l.59.45a13.62,13.62,0,0,0-2.22-2.72c-.81-.84-1.71-1.61-2.64-2.42a17.92,17.92,0,0,1-4.82-6.18,22.57,22.57,0,0,0,2.17,1.8A30.87,30.87,0,0,0,49.49,169l-2.19-2c1.21.1-.86-2-2.07-3.76l2,.9a13.49,13.49,0,0,0,1.36,2.41c.57.79,1.1,1.4,1.16,1.28-.27-.25.13.82.85,2.22a17,17,0,0,0,3,3.94c.33-.7-3.7-4.94-1.06-3.76a5,5,0,0,1-1.64-1.8,8.6,8.6,0,0,0-1.49-2c1.82,1.48,1.16-.18,2.63.8-.84-1-1.75-1.88-2.55-2.89.09-.17,3.87,4.06,2.65,1A7.77,7.77,0,0,1,51,164.32c-.37-.47-.74-1-1.11-1.49-.73-1-1.39-1.77-1.75-1.57l.15-.22c-1.39-2.5-1.66-.42-3.14-3.66-.38.18-.27.91.5,1.93.75.8,1.26.66,2.59,2.41,0,.58-.35,0-.71-.44s-.71-.88-.74.06,3.76,4.52,1.84,3.91l-1.55-2.48c-.73.42-1.86-1.39-2.37-1-1.24-1.37-1.38-3.27-2.88-4.52-.83-.41-1,1.25-2.18-1.65a8.89,8.89,0,0,0-.58-2.57c-.17-.5-.38-1-.6-1.55s-.42-1.1-.65-1.65c-.45-1.11-1-2.18-1.4-3.18s-.8-1.84-1.09-2.44q-.68-1-1.28-2c-.46.38,1.64,4.14.49,3l-.76-1.67-.68-1.7.39.17A19.82,19.82,0,0,0,32,138.76c.88.92,1.53,3.47,2.15,2.71a16.62,16.62,0,0,0-.79-3.44c.15.31.31.57.41.49-.58-3.38-1.81-2.92-2.32-3.69-.93-1.56-1-.64-.89.64s.39,2.93-.09,2.84c-.54-1.64-1.12-3.28-1.55-5l-.7-2.51c-.22-.84-.39-1.69-.58-2.54.43.83.85,1.65,1.13,1.26-.06-2.56.63-.18,0-3.65-.57.22-.89-.86-1.19-2.31l-.47-2.31a16.31,16.31,0,0,0-.51-2.16c.38-1.22.46-1.46.67,1.1.74-.37.13-3.76.2-5-.2-.7-.34-1.91-.53-2.67-.34,1-.85.61-1.19-1.64l-.15-.13c-.08.92-.11,2-.18,3.08s-.17,2.25-.13,3.35c0,2.2.15,4.24.72,5.35l-.45-.61a20,20,0,0,0,1.2,6.45,26.88,26.88,0,0,1,.7,2.71,3.6,3.6,0,0,1-.05,2.07c-.59-.05.07.88-.73,1l.67,1.49.74,1.46-.54-.54c.58,1.72,1.05,3.47,1.73,5.16l-.19-.09,2.06,3,1.76,2.23c.33-.13.37-.32.92.37a9.42,9.42,0,0,1,.93,1.83h0c.44,1.22.33,2.22.81,3.78-.7-1.5-1.43-3-2.11-4.5-.7-.15-1.16.49-.5,2.91-.44-.91-1-1.12-.59.06.2.07,1.72,2.87,1.65,1.56,1.14,2.1,2.24,5.05,3.82,8.15a44.31,44.31,0,0,0,2.7,4.65A30.81,30.81,0,0,0,44,169.89c-1.82-1.91-1.36-1-.91-.06.23.44.48.84.43.87s-.43-.33-1.32-1.5a5.2,5.2,0,0,0,2.38,3,9.35,9.35,0,0,1,3,2.54c0,.49-1.45-1.72-2.54-2.07a30.77,30.77,0,0,0,6.56,6.56c1.12.92,2.3,1.76,3.47,2.68.59.46,1.15,1,1.75,1.45s1.2,1,1.81,1.58l-.27.75c.51.37,1,.78,1.61,1.18Zm11.33,6.6c1.15.55,2.28,1.15,3.48,1.67l-.33-.19,3.65,1.19c-1.94-1.32-2.89-2.73.13-1.61-.38.15.29.92-.79.57a17.23,17.23,0,0,0,1.63,1.16c.63.38,1.3.75,1.89,1,1.18.56,2.05.76,1.71,0-4.22-.74-.29-1.7-3.56-2.33,1.89.06,3.3,1.07,4.92,1.42-.9,0-.95.31-.49.85a10.7,10.7,0,0,0,2.61,1.81c1.09.3,3.94,1.38,5.8,1.71-.42-.87,1.22-.73-1.57-1.86a14.1,14.1,0,0,1,2,.48,13.19,13.19,0,0,1,2.49.93c-.76-.09-2.06-.37-2-.11a17.18,17.18,0,0,0,3.13,1.8c.63.15,1.27.23,1.9.35a1.35,1.35,0,0,1-.4-.34l2.21-.12c-2.82-.32-1.19-.6-1.07-1-.26.77,1.74.51,2.67.7l-1.84-1.3a4.6,4.6,0,0,1,2,.51c.66.23,1.14.36,1-.1-2.11-.57-3.55-1-5-1.3s-2.78-.65-4.72-1.06l1.36,1.07a5.36,5.36,0,0,1-3.4-1.48,6.69,6.69,0,0,0-1.15-.91,8.7,8.7,0,0,0-1-.51c-.39-.2-.87-.41-1.45-.63-2.19-.12-6.9-2.91-7.51-1.87.72-.06-2.31-2.36-4.07-2.71A14.3,14.3,0,0,1,73,191.23c-1.37-.59-2.32-1-1.71-.31,1.31.9,3.46,1.42,4.21,2.68l-2.78-1.34,1.45,1.54C73.33,193.08,73.11,193.64,73.08,194.65Zm69.18,18.09h.13l-.14,0Z"/><path class="cls-3" d="M83.32,21.95c.71-.66,2.85-1.4,2.21-1.8.15.29-.78.69-1.56,1S82.58,21.88,83.32,21.95Z"/><path class="cls-3" d="M86,21.52c.09-.2-.11-.4.82-.79L84.35,21.9Z"/><path class="cls-3" d="M90.19,24.69a9.89,9.89,0,0,1,3.9-2.08c1.24,1.27-3.19,1.54-3.58,3.26a12.74,12.74,0,0,0,4-2A13.74,13.74,0,0,1,98,22.06a14.28,14.28,0,0,0-4.67.73C91.55,23.37,90,24.09,90.19,24.69Z"/><path class="cls-3" d="M89.3,27.2c.62-.36,1.23-.76,1.86-1.1l-.23,0-1.86,1.11Z"/><path class="cls-3" d="M41.69,45c-.53-.15-1.09,1.37-1.5,2.08A7.6,7.6,0,0,0,41.69,45Z"/><path class="cls-3" d="M194.87,36.34A105.26,105.26,0,0,0,180,24.89c2.24,1.5,4.4,2.93,6.74,4.75,1.2.87,2.42,1.87,3.76,3S193.31,34.94,194.87,36.34Z"/><path class="cls-3" d="M21.6,101.89c0-2.44-.06-4.23-.15-6a35.83,35.83,0,0,1,.45-6.12,15.67,15.67,0,0,0-1,4.14,16.72,16.72,0,0,0,0,3.33,27.61,27.61,0,0,1,.08,3.12,16.14,16.14,0,0,1-.51,3.59Z"/><path class="cls-3" d="M17.81,99.75c.53-.36.64.63.83,1.63s.3,2,.67,1.67c0-3.36-.79-1.64-.34-4.68Z"/><polygon class="cls-3" points="37.49 82.43 37.54 83.82 37.7 82.77 37.49 82.43"/><polygon class="cls-3" points="18.63 122.64 18.35 122.11 18.37 124.65 18.63 122.64"/><path class="cls-3" d="M18.08,121.58c.09.18.17.36.27.53C18.25,121.94,18.17,121.76,18.08,121.58Z"/><polygon class="cls-3" points="38.87 84.64 39.67 82.91 39.56 81.88 38.87 84.64"/><path class="cls-3" d="M30.33,100.39l-.07-1.82C30.28,98.93,29.58,101.33,30.33,100.39Z"/><polygon class="cls-3" points="21.03 137.85 22.05 140.13 22.07 139.86 21.05 137.59 21.03 137.85"/><path class="cls-3" d="M32.34,114.34c.68-1.22.3,3.46.86,1C33,113.12,32.68,114,32.34,114.34Z"/><path class="cls-3" d="M32.16,141a3.66,3.66,0,0,0,.4.84C32.41,141.52,32.27,141.24,32.16,141Z"/><path class="cls-3" d="M32.16,141a16.24,16.24,0,0,0-.73-2.51A4.48,4.48,0,0,0,32.16,141Z"/><path class="cls-3" d="M36.43,151.32l-.32-.83c.69.67.47.31-.12-.31-.41-.84-.59-.7-.78-.74l-.5-.41.56.6C35.87,151,36.27,151.75,36.43,151.32Z"/><path class="cls-3" d="M53.77,193.2c-2.61-2.61-3.23-3.33-2.7-3.61-2.39-2.5-2.66-1.44-4.35-2.73,1.47,1.33,2.3,2.17,3.22,3.08S51.92,191.73,53.77,193.2Z"/><path class="cls-3" d="M46.72,186.86c-.33-.3-.62-.6-1-1A8,8,0,0,0,46.72,186.86Z"/><path class="cls-3" d="M37.58,137.36c.46.52.95,1,1.41,1.53l-.33-.61C38.3,138,37.92,137.68,37.58,137.36Z"/><path class="cls-3" d="M57.87,196.82a10.6,10.6,0,0,1-1.7-1.59C55.67,195.55,58.39,197.27,57.87,196.82Z"/><path class="cls-3" d="M54.8,179.7c0-.45-1.63-1.84-2.12-2.56C53.48,178.08,53.42,179.57,54.8,179.7Z"/><path class="cls-3" d="M67.84,200.77c-.55-.38-1.21-1.26-.6-1.41C66.29,199.07,64.64,199.2,67.84,200.77Z"/><path class="cls-3" d="M59.19,183.87l-.23-.45c-.64-.41-1.31-.8-1.94-1.23C57.72,182.77,58.47,183.31,59.19,183.87Z"/><path class="cls-3" d="M59.22,172.55c-2.11-1.24,1.44,3.85-1.78,1.29a7,7,0,0,0,1.47,1.7c.24.15.26,0,.27-.22,0-.41,0-1,1.33.38C59,174,58.87,172.57,59.22,172.55Z"/><path class="cls-3" d="M60.51,175.7q.32.38.74.79C61,176.16,60.72,175.91,60.51,175.7Z"/><path class="cls-3" d="M86.68,197.65a5.72,5.72,0,0,0-.86-.1A5.45,5.45,0,0,0,86.68,197.65Z"/><path class="cls-3" d="M70.36,183.16l-1.74-.62-1.7-.7c2.23,1,7.15,4.35,7.4,3.27a14.33,14.33,0,0,0-4.53-2.51Z"/><path class="cls-3" d="M104.4,216.45l-1.88.07,2.25.52C104.14,216.78,105.43,216.26,104.4,216.45Z"/><path class="cls-3" d="M105.2,217.14l-.44-.1A1.49,1.49,0,0,0,105.2,217.14Z"/><path class="cls-3" d="M80.07,195.17a14.75,14.75,0,0,0-3-1.38C77.4,194.18,80,195.7,80.07,195.17Z"/><path class="cls-3" d="M117.3,216.34c-1,.05-2,0-3,0,1.09,0,2.17.14,3.26.12Z"/><path class="cls-3" d="M131.36,217.73l.54.15c.83-.17,1.65-.4,2.46-.62l-.55-.12C133,217.37,132.18,217.55,131.36,217.73Z"/><path class="cls-3" d="M114.53,198.14c-1.66-.2-3.06.47-2.65.73,1.09.15,2.19.18,3.28.26-.77-.86-.91,0-2.79-.42C113.09,198.57,113.82,198.34,114.53,198.14Z"/><path class="cls-3" d="M214.53,161.71c0,1-2.38,4.63-3,4.53.15-.59,1.1-2.72.1-1.62-.17,1.21-.46,2.36-.7,3.56-3.13,3.35.49-3.77,1.07-5.94a28.29,28.29,0,0,0-1.42,2.54c-.39.75-.72,1.41-1,2.1a25.55,25.55,0,0,1-2.73,4.77,12.61,12.61,0,0,1,2.36-2.14c.43.19-.08,1.17-1,2.43s-2.07,2.82-3.07,4.11c1.6-1.4,1.12-.25.46,1.17a1.86,1.86,0,0,0-.25.55l-.22.49.25-.31c.06.09.21.09.52,0a18.21,18.21,0,0,1,2.4-2.86,23.24,23.24,0,0,0,2-2.23c-1.14.29-.26-1,.86-2.65s2.66-3.72,3-4.84l1.17-2.33.48-.85c.24-.09.29.24-.2,1.68.42-1.19,2.34-4.86,1.76-4.72.74-1.39,1.36-2.83,2-4.26l1-2.15.86-2.19a3.62,3.62,0,0,1,.52-.66c0-.34,0-.42-.1-.4a106.79,106.79,0,0,0,6.91-40.14c0,2-.46,3.76-.66,5.82-.89-3.13-.27,3.38-1.21,2.41a14.38,14.38,0,0,1,.16-4.6c-.46-.45-.91,1.25-1.47,1a13.7,13.7,0,0,0,.28,5.41,18.34,18.34,0,0,1,.43,2.33,11.25,11.25,0,0,1-.23,3.06c-.53-.27-.82-1.83-1.16,1.37l0-.83a9.75,9.75,0,0,1-.32,2.83,8.24,8.24,0,0,1-.55,1.42c-.34.72-.5,1.21-.06,3l-.77-.25a25,25,0,0,1-.5,4.63c-.36,1.71-.84,3.43-1.13,4.68l-.11-.19c-1.39,7.12-.95,3.95-3.65,11.59.25-1.25.38-2.54.55-3.8-1.36,2.44-.7,3.39-1.63,5.18-.08-.19-.81,0-.17-1.79-.86,3.16-1.89,6.3-3.06,9.41C212.64,164.34,214,161.87,214.53,161.71Z"/><path class="cls-3" d="M206.86,171.66a14.21,14.21,0,0,0-1.07,1.46C206.2,172.58,206.54,172.11,206.86,171.66Z"/><path class="cls-3" d="M228.5,106.45l.08,2.87A22.26,22.26,0,0,0,228.5,106.45Z"/><path class="cls-3" d="M199.23,183.76c1.5-1-.47,1.34-.46,1.78l2.15-2.27,2.05-2.36c-.25-.18-.12-.88-.42-1C201.47,181.23,200.41,182.54,199.23,183.76Z"/><path class="cls-3" d="M204.61,179.91a5.13,5.13,0,0,1,.56-1.64c-.69.91-1.45,1.77-2.19,2.63C203.17,181,203.58,180.89,204.61,179.91Z"/><path class="cls-3" d="M191.44,169.7,192,169l.69-1.27C192.31,168.37,191.9,169.06,191.44,169.7Z"/><path class="cls-3" d="M201.16,158.42a10.08,10.08,0,0,0-2.14,3.42A25.75,25.75,0,0,0,201.16,158.42Z"/><polygon class="cls-3" points="195.26 158.29 196.26 156.24 196.07 156.37 195.26 158.29"/><path class="cls-3" d="M222.35,86.21c-.12-.43-.22-.84-.37-1.27C222.15,85.52,222.25,85.9,222.35,86.21Z"/><path class="cls-3" d="M226.15,109.13c.74-6.54.86,4.25,2,2.21l-.47-3.58.32.3-.11-2.19-.21-2.18c-.47.93-.45,1.6-1,1.44-.11-2.89,0-3.36.23-3.65s.53-.38.6-2.55L227,95.68c-.16-1.08-.4-2.15-.6-3.22l.26.49a2.24,2.24,0,0,0-.34-.94,105.55,105.55,0,0,0-6.53-21c-1-1.77-1-1.14-1-.41s-.05,1.62-1,.43c1.79,4.21,3.3,10.82,4.4,10.9-.19-.11-.57-.31-.44.62l1.61,2.3L223,82.33a12.82,12.82,0,0,1,1.27,2.7c.37,1.16.73,2.51,1,3.83a23,23,0,0,1,.64,6,12.47,12.47,0,0,0-1.43-3.73A17.21,17.21,0,0,1,223.26,86c-.21.37-.41,1.69-.91.25C224.54,93.85,225,100.95,226.15,109.13Z"/><path class="cls-3" d="M195.15,37.82l.12,0C195.12,37.73,195.06,37.73,195.15,37.82Z"/><path class="cls-3" d="M196.89,39.83c1.15.68,2.33,1.35,3.43,2.11-1.33-1.53-2.81-2.92-4.21-4.38l-.85.23a7.68,7.68,0,0,1,2.6,2.31Z"/><path class="cls-3" d="M203.77,45c-2.26-2.23-2.86-1.46-2.06.07-2.18-1.88-.25-1.78-2.26-2.64-.45.49,2.15,2.86,2.74,3.43Z"/><polygon class="cls-3" points="215.92 64.74 215.18 64.13 216.07 66.11 215.92 64.74"/><path class="cls-3" d="M215.18,64.13l-.89-2a1.61,1.61,0,0,0-.36.92Z"/><path class="cls-3" d="M211.72,57.1c-.42-.82-.93-1.69-1.57-2.74C210.67,55.27,211.21,56.18,211.72,57.1Z"/><path class="cls-3" d="M212.75,59.36l.07-.12-1.1-2.13C212.1,57.9,212.43,58.63,212.75,59.36Z"/><path class="cls-3" d="M214.28,62.16c.41-.61.81-1.31-.93-3.95l-.54,1C213.31,60.21,213.85,61.16,214.28,62.16Z"/><polygon class="cls-3" points="203.71 143.97 204.14 141.92 203.97 142.09 203.54 144.14 203.71 143.97"/><path class="cls-3" d="M208,132.73a11.16,11.16,0,0,0-.06-1.31A3.42,3.42,0,0,0,208,132.73Z"/><path class="cls-3" d="M205.38,123.33c.93-2.25.43,3.35,1.26-1,.62-.32,1.2,1.87.49,3.88-.52-.26,0-2.05-.78-.89.39,1.46-.13,1.91.78,1.58.13,2.41.59,2.78.78,4.48a24.34,24.34,0,0,1,.49-2.62l.65-3.27a25.49,25.49,0,0,0,.41-3.46c0-.56,0-1.11,0-1.64a9.68,9.68,0,0,0-.2-1.49c-.86-2.08-2.33-1-3.79-1.09a8.53,8.53,0,0,0-.5,2.72C204.87,121.86,204.91,123.16,205.38,123.33Z"/><path class="cls-3" d="M203.34,126.68a8.58,8.58,0,0,0-.29,2C203.6,128.64,203.23,127.53,203.34,126.68Z"/><path class="cls-3" d="M215.26,101.14c-.24-.21-.77-2.33-1.06-1.82.21,1.07.49,2.14.63,3.23A2,2,0,0,1,215.26,101.14Z"/><path class="cls-3" d="M215,104l-.22-1.43A7,7,0,0,0,215,104Z"/><path class="cls-3" d="M215.37,101l-.11.17C215.31,101.19,215.35,101.17,215.37,101Z"/><path class="cls-3" d="M207,49.44c.35-.19-.79-1.41-1.41-2A19.21,19.21,0,0,0,207,49.44Z"/><path class="cls-3" d="M157.65,14l-1.25-.77A4,4,0,0,0,157.65,14Z"/><path class="cls-3" d="M134.7,19.53a.54.54,0,0,1-.29.17A.46.46,0,0,0,134.7,19.53Z"/><path class="cls-3" d="M134.41,19.7c-.91.22-3.53-.66-4.55-.18l.14-.15-1.82.16,3.37.2A9.12,9.12,0,0,0,134.41,19.7Z"/><path class="cls-1" d="M186.79,117.69c.23,32.58-17.36,50.73-50.38,48.44-33.95-2.36-58.78-16.27-56.46-48.67,1.36-19,9.65-43.09,28.35-48.44,25.54-7.3,57.67,5.18,68.35,17.84s9.12,19.57,10.13,30.82Z"/><g class="cls-4"><path class="cls-1" d="M195.67,112.07c2.92,32.54-18.23,53.27-52.9,50.86-35.64-2.48-61.71-17.08-59.28-51.1,1.43-20,10.13-45.25,29.77-50.86,26.82-7.66,63,3.88,71.77,18.74a81.75,81.75,0,0,1,10.63,32.36Z"/></g><path class="cls-5" d="M137,80c11,2.61,21.46,6.59,28.61,15.74,3,3.89,8.44-1.58,5.43-5.43-7.89-10.09-19.88-14.83-32-17.72-4.8-1.14-6.85,6.26-2,7.4Z"/><circle class="cls-5" cx="175.25" cy="102.22" r="3.67"/></g></svg>