<?xml version="1.0" standalone="no"?>
<!DOCTYPE svg PUBLIC "-//W3C//DTD SVG 20010904//EN"
 "http://www.w3.org/TR/2001/REC-SVG-20010904/DTD/svg10.dtd">
<svg version="1.0" xmlns="http://www.w3.org/2000/svg"
 width="519.000000pt" height="519.000000pt" viewBox="0 0 519.000000 519.000000"
 preserveAspectRatio="xMidYMid meet">

<g transform="translate(0.000000,519.000000) scale(0.100000,-0.100000)"
fill="#000000" stroke="none">
<path d="M2545 3794 c-343 -34 -508 -104 -679 -284 -37 -40 -86 -100 -108
-134 -53 -82 -151 -283 -182 -376 -126 -377 -151 -785 -65 -1050 144 -439 558
-715 1224 -814 425 -64 750 -33 1018 97 221 106 355 244 467 480 113 238 152
537 120 930 -18 222 -69 363 -192 529 -125 169 -275 285 -519 402 -213 102
-425 166 -659 200 -107 16 -353 27 -425 20z m594 -164 c205 -52 416 -144 559
-242 89 -62 234 -204 252 -247 29 -72 -24 -161 -97 -161 -35 0 -46 8 -129 93
-170 174 -352 268 -696 362 -72 19 -98 46 -98 98 0 69 40 116 98 117 19 0 69
-9 111 -20z m976 -714 c28 -29 40 -66 31 -102 -19 -76 -120 -102 -177 -45 -23
23 -29 38 -29 71 0 61 41 100 105 100 35 0 51 -6 70 -24z"/>
</g>
</svg>
