<svg xmlns="http://www.w3.org/2000/svg" viewBox="0 0 307.48 397.48"><defs><style>.cls-1{fill:#40a9a3;}.cls-2{fill:#39375a;}.cls-3{fill:#fff;}.cls-4{fill:#dc4e3b;}.cls-5{fill:#f1d01f;}.cls-12,.cls-18,.cls-6,.cls-8{fill:none;}.cls-6{stroke:#f5a214;stroke-width:6.53px;}.cls-18,.cls-6{stroke-miterlimit:10;}.cls-7{fill:#f7fcfe;}.cls-8{stroke:#1d2539;stroke-width:1.55px;}.cls-12,.cls-8{stroke-linecap:round;stroke-linejoin:round;}.cls-9{fill:#dbdad6;opacity:0.2;}.cls-10{fill:#eacc2c;}.cls-11{fill:#424042;}.cls-12{stroke:#f1d01f;stroke-width:0.65px;}.cls-13{fill:#f2db59;}.cls-14{fill:#004643;}.cls-15{fill:#006661;}.cls-16{fill:#6dbbb2;}.cls-17{fill:#f5c732;}.cls-18{stroke:#40a9a3;stroke-width:0.98px;}.cls-19{fill:#231815;}.cls-20{fill:#515151;}</style></defs><title>專題網頁</title><g id="圖層_2" data-name="圖層 2"><circle class="cls-1" cx="151.87" cy="115.4" r="5.88"/><circle class="cls-2" cx="151.87" cy="115.4" r="4.46"/><circle class="cls-3" cx="149.79" cy="113.27" r="0.9"/><path class="cls-2" d="M155.53,131.83h9.87V135a4.93,4.93,0,0,1-4.93,4.93h0a4.93,4.93,0,0,1-4.93-4.93Z"/><rect class="cls-3" x="155.53" y="131.83" width="9.87" height="2.68"/><path class="cls-4" d="M120,146.21a5.06,5.06,0,0,1-5.06-5.06h0V118.53h4.85v22.62h2.62v5.06Z"/><path class="cls-5" d="M122.35,108.55,119.87,111a3.55,3.55,0,1,1-5.38.36l-2.77-2.07a7,7,0,0,0-1.39,4.19,7,7,0,1,0,12-4.9Z"/><circle class="cls-1" cx="136.41" cy="166.7" r="0.81"/><circle class="cls-1" cx="136.41" cy="163.72" r="0.81"/><circle class="cls-1" cx="136.42" cy="160.73" r="0.81"/><circle class="cls-4" cx="136.42" cy="157.75" r="0.81"/><circle class="cls-4" cx="136.42" cy="154.77" r="0.81"/><circle class="cls-4" cx="136.42" cy="151.79" r="0.81"/><circle class="cls-6" cx="160.89" cy="127.81" r="83.23"/><path class="cls-7" d="M196.86,143.19c0,33.1-16.46,43.48-36.91,43.48s-37.14-10.38-37.14-43.48,16.58-59.93,37-59.93S196.86,110.09,196.86,143.19Z"/><path class="cls-8" d="M189.77,172.77c-6.7,10.16-17.54,13.9-29.82,13.9-20.45,0-37.14-10.38-37.14-43.48s16.58-59.93,37-59.93,37,26.83,37,59.93q0,.95,0,1.87"/><path class="cls-8" d="M196.4,152.18a59.06,59.06,0,0,1-1.8,9.67"/><path class="cls-9" d="M125.71,130.88a55.14,55.14,0,0,1,25-45.8c-16.06,6.56-27.94,30.08-27.94,58.11,0,33.1,16.69,43.48,37.14,43.48a46.69,46.69,0,0,0,12.6-1.59C146.34,181.13,125.71,158.05,125.71,130.88Z"/><circle class="cls-10" cx="160.47" cy="122.5" r="24.09"/><circle class="cls-3" cx="151.87" cy="115.54" r="6.95"/><circle class="cls-11" cx="151.87" cy="115.54" r="3.63"/><circle class="cls-3" cx="149.69" cy="113.21" r="2.18"/><circle class="cls-3" cx="169.07" cy="115.56" r="6.95"/><circle class="cls-11" cx="169.07" cy="115.56" r="3.63"/><circle class="cls-3" cx="171.25" cy="113.23" r="2.18"/><circle class="cls-1" cx="169.07" cy="115.4" r="5.88"/><circle class="cls-2" cx="169.07" cy="115.4" r="4.46"/><circle class="cls-3" cx="171.15" cy="113.27" r="0.9"/><circle class="cls-1" cx="151.87" cy="115.4" r="5.88"/><circle class="cls-2" cx="151.87" cy="115.4" r="4.46"/><circle class="cls-3" cx="153.95" cy="113.27" r="0.9"/><polyline class="cls-12" points="145.57 74.77 151.88 74.77 156.49 68.95 160.25 80.66 163.4 70.94 165.59 74.8 176.99 74.8"/><path class="cls-5" d="M147.17,72.59a3.66,3.66,0,1,0-1.47,5.3l8.09,12.27a.48.48,0,0,0,.8-.53L146.5,77.36A3.65,3.65,0,0,0,147.17,72.59Z"/><path class="cls-5" d="M172.5,72.59a3.66,3.66,0,1,1,1.47,5.3l-8.09,12.27a.48.48,0,0,1-.8-.53l8.09-12.27A3.65,3.65,0,0,1,172.5,72.59Z"/><path class="cls-4" d="M198.33,130.75a5.06,5.06,0,0,1,5.57,4.49h0l2.41,22.49-4.82.52-2.41-22.49-2.6.28-.54-5Z"/><path class="cls-5" d="M200,168.44l2.21-2.67a3.55,3.55,0,1,1,5.32-.93l3,1.76a7,7,0,1,0-10.5,1.84Z"/><path class="cls-1" d="M179.93,154.21a1.86,1.86,0,0,0-2.57-2.57Z"/><path class="cls-1" d="M176.79,152.2a1.86,1.86,0,0,0,2.57,2.57Z"/><path class="cls-1" d="M179.93,176a1.86,1.86,0,0,0-2.57-2.57Z"/><path class="cls-1" d="M176.79,174a1.86,1.86,0,0,0,2.57,2.57Z"/><path class="cls-1" d="M145.23,176a1.86,1.86,0,0,0-2.57-2.57Z"/><path class="cls-1" d="M142.1,174a1.86,1.86,0,0,0,2.57,2.57Z"/><path class="cls-1" d="M145.23,154.64a1.86,1.86,0,0,0-2.57-2.57Z"/><path class="cls-1" d="M142.1,152.63a1.86,1.86,0,0,0,2.57,2.57Z"/><rect class="cls-4" x="144.86" y="167.47" width="5.24" height="4.61"/><rect class="cls-13" x="151.56" y="167.47" width="5.24" height="4.61"/><rect class="cls-4" x="158.27" y="167.47" width="5.24" height="4.61"/><rect class="cls-13" x="164.97" y="167.47" width="5.24" height="4.61"/><rect class="cls-13" x="171.68" y="167.47" width="5.24" height="4.61"/><rect class="cls-14" x="144.86" y="155.99" width="32.06" height="9.2" rx="0.57" ry="0.57"/><rect class="cls-15" x="146.18" y="155.99" width="2.05" height="9.2"/><rect class="cls-4" x="146.18" y="163.68" width="2.05" height="1.52"/><rect class="cls-15" x="149.22" y="155.99" width="2.04" height="9.2"/><rect class="cls-16" x="149.22" y="161.35" width="2.04" height="3.85"/><rect class="cls-15" x="152.26" y="155.99" width="2.05" height="9.2"/><rect class="cls-17" x="152.26" y="160.71" width="2.05" height="4.49"/><rect class="cls-15" x="155.3" y="155.99" width="2.05" height="9.2"/><rect class="cls-4" x="155.3" y="160.22" width="2.05" height="4.97"/><rect class="cls-15" x="158.34" y="155.99" width="2.05" height="9.2"/><rect class="cls-16" x="158.34" y="161.04" width="2.05" height="4.15"/><rect class="cls-15" x="161.39" y="155.99" width="2.04" height="9.2"/><rect class="cls-17" x="161.39" y="162.11" width="2.04" height="3.08"/><rect class="cls-15" x="164.43" y="155.99" width="2.05" height="9.2"/><rect class="cls-4" x="164.43" y="161.6" width="2.05" height="3.6"/><rect class="cls-15" x="167.47" y="155.99" width="2.05" height="9.2"/><rect class="cls-16" x="167.47" y="160.66" width="2.05" height="4.54"/><rect class="cls-15" x="170.51" y="155.99" width="2.05" height="9.2"/><rect class="cls-17" x="170.51" y="162.06" width="2.05" height="3.14"/><rect class="cls-15" x="173.55" y="155.99" width="2.05" height="9.2"/><rect class="cls-4" x="173.55" y="163.68" width="2.05" height="1.52"/><rect class="cls-18" x="139.72" y="149.6" width="42.33" height="28.88" rx="4.77" ry="4.77"/><circle class="cls-1" cx="185.37" cy="151.79" r="0.81"/><circle class="cls-1" cx="185.37" cy="154.77" r="0.81"/><circle class="cls-1" cx="185.36" cy="157.76" r="0.81"/><circle class="cls-4" cx="185.36" cy="160.74" r="0.81"/><circle class="cls-4" cx="185.36" cy="163.72" r="0.81"/><circle class="cls-4" cx="185.36" cy="166.7" r="0.81"/><path class="cls-19" d="M96.22,250.55a7.92,7.92,0,0,0,2.33.34,56,56,0,0,0,6.86-.89,65.69,65.69,0,0,1,9-.8,24.17,24.17,0,0,1,6.46.58,6.14,6.14,0,0,1,2.91,1.87,6.25,6.25,0,0,1,.86,3.46,7.81,7.81,0,0,1-.34,2.79q-.31.95-.77.95l-3.71-.7a1,1,0,0,0,.52-.83,6.73,6.73,0,0,0,.25-2.21,3.19,3.19,0,0,0-.34-1.5,2.45,2.45,0,0,0-1.71-1,24.79,24.79,0,0,0-4.13-.28q-.73,0-1.41,0v2q1,.09,1.9.09a19,19,0,0,0,3.31-.21,1.39,1.39,0,0,0,.64-.55v2.57q0,.77-.34,1a13.61,13.61,0,0,1-3.61.24q-1.16,0-1.9,0v.67a3.83,3.83,0,0,1-.06.74q2.39.4,4.47.7,5.48.74,6.46.74a1.16,1.16,0,0,0,.77-.37l-.67,1.78q-.52,1.81-1.07,1.81-.92,0-7.2-1-5.15-.8-11.27-2.14L103,260.1a27.51,27.51,0,0,1-1.56,2.6,2.49,2.49,0,0,1-.7.83h.4a1.32,1.32,0,0,1,1.44.86l5.3-.55a1,1,0,0,0,.24,0q-.15-1.29-.64-1.5h3.31a1.07,1.07,0,0,1,1.19,1,1.58,1.58,0,0,1,0,.31q3.31-.18,5.3-.18a10.1,10.1,0,0,1,2.85.31,5,5,0,0,1,2.17,1.13,2.78,2.78,0,0,1,.83,2.24q0,.83,0,1.47l.61-.25v2.57q0,.74-.34.95a12.4,12.4,0,0,1-1.71.12l1,1.41s.65.9,2,2.63q.09.31.83.4l-1.62.74a6,6,0,0,1-1.9.86q-.61,0-1.53-1.19a106.22,106.22,0,0,1-12.8.7q-5.3,0-9.71-.28-.92-.09-1-.71,0-.43.28-3.09a.91.91,0,0,0,.83.52q4.38.21,9.59.21h.73v-.09q0-1.07,0-2-3.74,0-5.76-.12-.25,1-1,1h-3.8q.89-.34.89-1.68v-5.67a2.14,2.14,0,0,0-.89-2.05h1.87l-.21-.09-3-1.5a1.55,1.55,0,0,0,1.19-.8,38.9,38.9,0,0,0,3.31-5.45,3.57,3.57,0,0,0,.55-1.35.38.38,0,0,0-.09-.18,10.51,10.51,0,0,1-1.9.4q-.83,0-1.9-1.81Zm6.49,18.25h.09q2.82.12,5.6.18,0-1.13-.06-2.3-4,.46-5.63.58Zm1.78-11.45,4.47.86v-5.08a3.57,3.57,0,0,0,0-.49q-2.27.22-4.38.61-1,.31-1.81.52l1.72.21q1,.12,1,.83a7.31,7.31,0,0,1-.55,1.62Zm13.9,16.42a2.85,2.85,0,0,1-.37-1q0-.28.49-.67-2.51,0-6.22,0,0,1.26-.09,2Q115.48,274,118.39,273.76Zm-6.09-7.32q0,1,0,2.17v.4q3.89,0,6.65-.06V268q0-1.44-.95-1.65-.61-.06-2.27-.06Q114.62,266.32,112.3,266.44Z"/><path class="cls-19" d="M129.46,250.55a7.92,7.92,0,0,0,2.33.34,56,56,0,0,0,6.86-.89,65.69,65.69,0,0,1,9-.8,24.17,24.17,0,0,1,6.46.58,6.14,6.14,0,0,1,2.91,1.87,6.25,6.25,0,0,1,.86,3.46,7.81,7.81,0,0,1-.34,2.79q-.31.95-.77.95l-3.71-.7a1,1,0,0,0,.52-.83,6.73,6.73,0,0,0,.25-2.21,3.19,3.19,0,0,0-.34-1.5,2.45,2.45,0,0,0-1.71-1,24.79,24.79,0,0,0-4.13-.28q-.73,0-1.41,0v2q1,.09,1.9.09a19,19,0,0,0,3.31-.21,1.39,1.39,0,0,0,.64-.55v2.57q0,.77-.34,1a13.61,13.61,0,0,1-3.61.24q-1.16,0-1.9,0v.67a3.83,3.83,0,0,1-.06.74q2.39.4,4.47.7,5.48.74,6.46.74a1.16,1.16,0,0,0,.77-.37l-.67,1.78q-.52,1.81-1.07,1.81-.92,0-7.2-1-5.15-.8-11.27-2.14l-1.41-.31a27.51,27.51,0,0,1-1.56,2.6,2.49,2.49,0,0,1-.7.83h.4a1.32,1.32,0,0,1,1.44.86l5.3-.55a1,1,0,0,0,.24,0q-.15-1.29-.64-1.5H144a1.07,1.07,0,0,1,1.19,1,1.58,1.58,0,0,1,0,.31q3.31-.18,5.3-.18a10.1,10.1,0,0,1,2.85.31,5,5,0,0,1,2.17,1.13,2.78,2.78,0,0,1,.83,2.24q0,.83,0,1.47l.61-.25v2.57q0,.74-.34.95a12.4,12.4,0,0,1-1.71.12l1,1.41s.65.9,2,2.63q.09.31.83.4l-1.62.74a6,6,0,0,1-1.9.86q-.61,0-1.53-1.19a106.22,106.22,0,0,1-12.8.7q-5.3,0-9.71-.28-.92-.09-1-.71,0-.43.28-3.09a.91.91,0,0,0,.83.52q4.38.21,9.59.21h.73v-.09q0-1.07,0-2-3.74,0-5.76-.12-.25,1-1,1H131q.89-.34.89-1.68v-5.67a2.14,2.14,0,0,0-.89-2.05h1.87l-.21-.09-3-1.5a1.55,1.55,0,0,0,1.19-.8,38.9,38.9,0,0,0,3.31-5.45,3.57,3.57,0,0,0,.55-1.35.38.38,0,0,0-.09-.18,10.51,10.51,0,0,1-1.9.4q-.83,0-1.9-1.81ZM136,268.8H136q2.82.12,5.6.18,0-1.13-.06-2.3-4,.46-5.63.58Zm1.78-11.45,4.47.86v-5.08a3.57,3.57,0,0,0,0-.49q-2.27.22-4.38.61-1,.31-1.81.52l1.72.21q1,.12,1,.83a7.31,7.31,0,0,1-.55,1.62Zm13.9,16.42a2.85,2.85,0,0,1-.37-1q0-.28.49-.67-2.51,0-6.22,0,0,1.26-.09,2Q148.72,274,151.63,273.76Zm-6.09-7.32q0,1,0,2.17v.4q3.89,0,6.65-.06V268q0-1.44-.95-1.65-.61-.06-2.27-.06Q147.87,266.32,145.54,266.44Z"/><path class="cls-19" d="M180.8,268.28a5.78,5.78,0,0,1-2.66,5.12,10.28,10.28,0,0,1-5.85,1.56,16.52,16.52,0,0,1-4.47-.67,1.69,1.69,0,0,1-1.56.61h-3.52a4.36,4.36,0,0,0,.73-.46,1,1,0,0,0,.4-.67q.12-.74.28-3.31.18-3.58.18-6.62a90.51,90.51,0,0,0-.55-9.46,1.63,1.63,0,0,0-.89-1.13h3.68a1.21,1.21,0,0,1,1.19.71,20.24,20.24,0,0,1,5-.71,7.65,7.65,0,0,1,4.72,1.32,5.09,5.09,0,0,1,2,4.35,4.78,4.78,0,0,1-2.14,4.13,6.73,6.73,0,0,1,2.48,2.14A5.26,5.26,0,0,1,180.8,268.28ZM175.32,259q0-2.2-3.52-2.2a16.09,16.09,0,0,0-3.67.67q.18,2.21.21,4.5l1.41,0Q175.32,262,175.32,259Zm1.38,9.16a2.41,2.41,0,0,0-1.53-2.3,5.78,5.78,0,0,0-2.88-.64q-1.84,0-4,.15,0,2.39-.15,5.36a15.9,15.9,0,0,0,4.1.58,5.62,5.62,0,0,0,2.88-.77A2.68,2.68,0,0,0,176.7,268.19Z"/><path class="cls-19" d="M203.05,264.27a11.61,11.61,0,0,1-2.36,7.6,8.81,8.81,0,0,1-7.17,3.09,8.3,8.3,0,0,1-6.92-3.22,11.56,11.56,0,0,1-2.36-7.47,12,12,0,0,1,2.48-7.47,8.21,8.21,0,0,1,6.8-3.55,9.59,9.59,0,0,1,6.65,2.48l1.13,1.19a1.93,1.93,0,0,0,1.56.52l-1.13.8A13.19,13.19,0,0,1,203.05,264.27Zm-4.07,0a7.12,7.12,0,0,0-1.07-4.1,1.91,1.91,0,0,0-1.47-.52l1.13-.71a6,6,0,0,0-4-1.81,4.45,4.45,0,0,0-3.89,2.48,8.89,8.89,0,0,0-1.29,4.66,8.37,8.37,0,0,0,1.29,4.59,4.4,4.4,0,0,0,3.89,2.3,4.74,4.74,0,0,0,4.1-2.24A7.93,7.93,0,0,0,199,264.27Z"/><path class="cls-19" d="M224.41,252.72q0,.37,0,1.65V256a1.26,1.26,0,0,1-1.29,1.35q-1.41.15-5.39.28.25,4.32.25,7.38v.46a64.76,64.76,0,0,1-.37,7.81,1.47,1.47,0,0,1-1.56,1.47h-4.07a4.22,4.22,0,0,0,.89-.52,1.23,1.23,0,0,0,.46-.89,85.69,85.69,0,0,0,.4-9.92q0-3.43-.21-5.82-3.09,0-5.73-.25a1.41,1.41,0,0,1-1.35-1.41q-.06-.52-.06-3.12a2.1,2.1,0,0,0,1.19.74,66,66,0,0,0,8,.4q2.48,0,5.33-.18.77,0,2.27-.12A2,2,0,0,0,224.41,252.72Z"/><path class="cls-20" d="M106.38,306.49q.15.28.69.28,2.44.1,6.92.1t7.42-.17a.6.6,0,0,0,.55-.33v1.43q0,.57-.62.57-2.14.12-5.78.16v.41q.69,0,1.26,0a10.6,10.6,0,0,1,3.37.36,2.92,2.92,0,0,1,1.53,1,3.63,3.63,0,0,1,.45,1.93,4.17,4.17,0,0,1-.19,1.53c-.14.37-.3.55-.5.55l-2.08-.43a.56.56,0,0,0,.36-.45,3.55,3.55,0,0,0,.14-1.2,2.73,2.73,0,0,0-.17-1,1.18,1.18,0,0,0-.86-.65,9,9,0,0,0-2-.19h0a2.35,2.35,0,0,0,.95.6,9.36,9.36,0,0,0,1.46.65.67.67,0,0,0,.26-.07q-.33.5-.65,1a.35.35,0,0,1-.29.19,4.56,4.56,0,0,1-1.38-.6q-1.1-.6-1.1-.84a.76.76,0,0,1,.17-.34,6.5,6.5,0,0,0,.36-.55l-1,0v2.41q0,1.09-.64,1.08h-2.13q.5-.19.5-.95V310.5l-1.77.22-.74.16a3.14,3.14,0,0,0,.71.33,10.42,10.42,0,0,0,1.38.52.81.81,0,0,0,.29-.07l-.67,1a.36.36,0,0,1-.31.21,4.74,4.74,0,0,1-1.27-.5q-1.07-.5-1.07-.69a.73.73,0,0,1,.19-.34,3.7,3.7,0,0,1,.21-.31q-.65.14-1,.19v1.5q0,1.12-.6,1.12h-2.07q.4-.21.4-1v-2.75a1.45,1.45,0,0,0-.4-1.19h1.82a.73.73,0,0,1,.83.65q1-.08,2.84-.31l1.26-.12v-.36a1.51,1.51,0,0,0,0-.24q-4.06,0-6.27-.09-.62,0-.62-.55Zm3.65,5.73q0,.33,1,.77a9.76,9.76,0,0,0,1.46.6.66.66,0,0,0,.26-.07q-.29.45-.58.86l.22,0q3.17-.21,5-.24l-.46-.19q-1.17-.45-1.17-.64a.73.73,0,0,1,.19-.34l.5-.74q0,.26,1,.62a11.94,11.94,0,0,0,1.53.46.8.8,0,0,0,.28-.07l-.64.91a6.13,6.13,0,0,1,1,.17,2.82,2.82,0,0,1,1.24.58,1.35,1.35,0,0,1,.5,1.15,21.3,21.3,0,0,1-.1,2.53,1.44,1.44,0,0,0,.29-.12v1.31a.55.55,0,0,1-.19.5q-.84.14-6.33.14h-.12c0,.39.12.62.29.69a3,3,0,0,0,1.24.19,26.9,26.9,0,0,0,3-.21,19,19,0,0,0,2.7-.55l-.71,1.65a.68.68,0,0,1-.48.48q-1.95.09-3.46.12l-1.86,0a6.23,6.23,0,0,1-1.5-.21,2.44,2.44,0,0,1-1.17-.71,3,3,0,0,1-.33-1.48q-2.12,0-3.18-.07a1.5,1.5,0,0,1-.05.33.64.64,0,0,1-.64.5h-2q.38-.16.45-.95,0-1.36,0-2.39a26.33,26.33,0,0,0-.17-2.84q-.09-.72-.38-.86h1.91a.6.6,0,0,1,.67.48l1.88-.14q-.31-.14-.72-.36-1.14-.58-1.14-.81a.73.73,0,0,1,.19-.34Zm-.48,4.37h.07q1.67.07,3.32.09.05-.43.12-.86H113l-3.43.28C109.54,316.25,109.55,316.42,109.55,316.59Zm0,2.15.21,0q1.5.09,3,.1l.07-.72-3.22,0C109.57,318.33,109.56,318.55,109.55,318.74Zm5.47-.6c0,.26-.06.52-.09.76H115q2.38,0,4-.05a7.09,7.09,0,0,0,.05-.74Q117.73,318.14,115,318.14Zm.5-2.44q-.14.52-.22,1,2.38,0,3.77-.09,0-.79-.57-.91a11.61,11.61,0,0,0-1.38-.05Q116.57,315.64,115.52,315.7Z"/><path class="cls-20" d="M125,306.69h1.82a.58.58,0,0,1,.64.41l.28-.1a3.92,3.92,0,0,1,1.5-.38,1.73,1.73,0,0,1,.95.21,1.45,1.45,0,0,1,.62.72,7.15,7.15,0,0,1,.34,1.91q.21,2.29.21,5.32,0,4.53-.12,5.85a1.89,1.89,0,0,1-.6,1.41,2.55,2.55,0,0,1-1.62.43,1.23,1.23,0,0,1-1.26-.65l-.15-.34q0,.38,0,.57a.61.61,0,0,1-.6.5h-1.89q.38-.35.45-2.12,0-3.06,0-5.37,0-2.91-.16-6.44A3.63,3.63,0,0,0,125,306.69Zm2.65,4.3a5.34,5.34,0,0,0,.6,0c.33,0,.61,0,.84,0,0-.33,0-.63-.05-.9a4.63,4.63,0,0,0-.17-1.36.49.49,0,0,0-.33-.1,2.26,2.26,0,0,0-.91.22l-.05,0Q127.63,309.89,127.65,311Zm0,9.5a1.63,1.63,0,0,0,.33,0q.74,0,.93-.24a7.55,7.55,0,0,0,.28-2.75q-.38,0-.91,0l-.58,0Q127.66,319.4,127.63,320.5Zm.05-5.09a4.48,4.48,0,0,0,.57,0c.37,0,.68,0,.95,0v-.62q0-.88,0-1.65-.4,0-.93,0l-.57,0Zm5-8.85,1,.38q.95.4.95.81a6.94,6.94,0,0,1-.72,1.43,4,4,0,0,0-.57,1.31,5.89,5.89,0,0,0,.59,1,4.85,4.85,0,0,1,.64,1.24q0,.29-.83.59l-.86.38h.17a.64.64,0,0,1,.74.6l.4,0a7.2,7.2,0,0,0,.31-.67,4.9,4.9,0,0,0,.29-.72.55.55,0,0,0-.22-.43l.71.05a8.88,8.88,0,0,1-.77-1.46,1.51,1.51,0,0,1-.14-.65,3.41,3.41,0,0,1,.41-1.26,21.74,21.74,0,0,0,1.17-2.32,1.51,1.51,0,0,0-.07-.4l.95.55q1,.52,1,.9a4.19,4.19,0,0,1-.76,1.19,3.35,3.35,0,0,0-.69,1.34,3.31,3.31,0,0,0,.6,1,4.47,4.47,0,0,1,.77,1.27q0,.29-.81.76l-.41.26c0,.1-.1.21-.15.31a15.37,15.37,0,0,1,1.84-.15,2.66,2.66,0,0,1,1.1.19,1.83,1.83,0,0,1,1.05.72,3.46,3.46,0,0,1,.41,1.89q0,1.86-.14,3.2a1,1,0,0,0,0,.16,1.59,1.59,0,0,0,.48-.24v1.5a.6.6,0,0,1-.26.59,33.31,33.31,0,0,1-4,.12q-2,0-3.12-.05-.12.48-.48.48H131.4a.81.81,0,0,0,.43-.83v-6.83a1.07,1.07,0,0,0-.43-1h1.36a.74.74,0,0,0,.1-.21,1.78,1.78,0,0,0-.38-.67q-.47-.81-.93-1.79a1.74,1.74,0,0,1-.21-.58,7.35,7.35,0,0,1,.84-2.12q.67-1.41.67-1.45A.62.62,0,0,0,132.72,306.56ZM137.51,318l.84.64a.53.53,0,0,0,.34.12q.07-1.41.07-2.08a1.12,1.12,0,0,0-.29-.83,1.46,1.46,0,0,0-1-.33,11.26,11.26,0,0,0-2.31.31,10.49,10.49,0,0,1-1.34.34v2.93a.78.78,0,0,0,.31-.16l.77-.71-.1-.1q-.84-.69-.84-.88t.62-.69l.91-.69a1.25,1.25,0,0,0-.09.33,5,5,0,0,0,.72.65l.09.05.07-.09a2.65,2.65,0,0,0,.5-.76,1,1,0,0,0-.07-.26l1.39.74a.38.38,0,0,1,.26.34,2.76,2.76,0,0,1-.6.83A2.53,2.53,0,0,0,137.51,318Zm-3.7,2.1q1.55.12,3.06.12l1.72,0q.07-.52.1-1.24l-.31.26q-.77.84-1.12.84a1.47,1.47,0,0,1-.6-.33q-.22-.17-.48-.41l-.55.46a1,1,0,0,1-.57.21,4.27,4.27,0,0,1-1.26-.57ZM139,306.83l1.14.5q.86.46.86.81t-.81,1.27a3,3,0,0,0-.71,1.07,3.2,3.2,0,0,0,.74,1.12,3.11,3.11,0,0,1,.77,1.24q0,.29-.74.64l-1.1.52a.62.62,0,0,0,.14-.26q0-.21-.46-.74a8.91,8.91,0,0,1-.95-1.51,3,3,0,0,1-.4-1,2.6,2.6,0,0,1,.5-1.34,18.21,18.21,0,0,0,1.17-1.89A.8.8,0,0,0,139,306.83Z"/><path class="cls-20" d="M146.71,306l1.6,1.07a1,1,0,0,1,.22.22q.57-.07,1.12-.17a33,33,0,0,1,5.27-.57,2.22,2.22,0,0,1,1.62.74,18.19,18.19,0,0,1,2.31,3.36q.74,1.21,1.08,1.21-1.14.65-1.72.95v.1q0,1.19-.05,1.83l.33-.12v1.26c0,.24-.07.4-.21.46q-.79.09-6,.09-3.58,0-5.13-.05a.48.48,0,0,1-.43.26H144.8q.4-.19.4-.89v-2.87a.29.29,0,0,1-.14.05,1,1,0,0,1-.59-.29l-1.33-1q.45,0,1.12-1a23.71,23.71,0,0,0,2.53-4.25A.87.87,0,0,0,146.71,306Zm-1.65,10.88h1.89a.76.76,0,0,1,.79.41l2.39-.21q3.36-.21,5-.21a5,5,0,0,1,1.48.17,2.76,2.76,0,0,1,1.14.6,1.48,1.48,0,0,1,.43,1.17,12.36,12.36,0,0,1-.1,1.91l.24-.07v1.15a.45.45,0,0,1-.19.43q-.77.09-5.78.09-3.18,0-4.72,0a.57.57,0,0,1-.46.24h-2.13a.92.92,0,0,0,.5-1v-3.51A1.29,1.29,0,0,0,145.06,316.88Zm2.22-5.32,2.69-.26q3.41-.28,5.13-.28a6.12,6.12,0,0,1,1.27.1q-.64-1.29-1.17-2.17t-.9-.76a38.64,38.64,0,0,0-5.18.52l-1.07.14a1.4,1.4,0,0,0,.57.14q1.41.12,2.81.12a25.76,25.76,0,0,0,2.89-.12,1.38,1.38,0,0,0,.6-.24v1.36a.56.56,0,0,1-.22.52q-.43.07-3.27.07t-3.34-.07a.63.63,0,0,1-.21-.53v-1q-.36.62-.91,1.51-.17.26-.33.45A.68.68,0,0,1,147.28,311.56Zm.05,3.29q1.6.09,3.18.1v-2.29h0q-2.15.24-3.15.33Zm.5,4.06q2,.1,3.87.1,2.74,0,4.22-.09c-.06-.34-.2-.55-.43-.62a7.11,7.11,0,0,0-1.08-.05q-1,0-3.79.14l-2.79.24Zm0,2q2.31.09,4.54.09,2.07,0,3.49,0a3.38,3.38,0,0,0,.07-.58q-1.29.07-4.23.07-2.56,0-3.87-.05Zm1.84-8a.35.35,0,0,0-.14.26,7.42,7.42,0,0,0,.43,1.12c0,.06.12.13.33.21l-1,.21a4.08,4.08,0,0,1-.71.12.31.31,0,0,1-.14,0,3.66,3.66,0,0,1-.28-.6,3.15,3.15,0,0,1-.22-.65q0-.26.64-.4Zm2.75,2.07q2.17,0,3.61-.07,0-.48,0-1.46,0-.81-.52-.93-.33,0-1.22,0-.62,0-1.91.07Zm1-2.2,1.46.17q.38.05.38.36a2,2,0,0,1-.07.31,6.74,6.74,0,0,1-.45,1c-.06.11-.11.17-.17.17a2.23,2.23,0,0,1-.48-.1q-.46-.12-1-.22a.22.22,0,0,0,.14-.17,6.82,6.82,0,0,0,.33-.93,1.87,1.87,0,0,0,.1-.34Q153.63,312.94,153.4,312.77Z"/><path class="cls-20" d="M168.71,310.94v.38q0,.53.62.53a7.83,7.83,0,0,0,3-.46l-.74,1.41a.52.52,0,0,1-.38.33v.78l1.27,0h1.36v-.79a1.36,1.36,0,0,1-.91-.45,2.79,2.79,0,0,1-.34-1.58v-4a.45.45,0,0,0-.33-.43h1.58a.62.62,0,0,1,.48.17q.31-.07.76-.12,1.17-.12,1.77-.12a.93.93,0,0,1,.57.16,1.13,1.13,0,0,1,.43.5,2.05,2.05,0,0,1,.19,1c0,.31,0,.57,0,.79l.16-.17v1.31a.51.51,0,0,1-.22.5,8.67,8.67,0,0,1-2.17.14q-.81,0-1.33,0v.29q0,.55.62.55a9.58,9.58,0,0,0,3.36-.48l-.72,1.41a.57.57,0,0,1-.52.4l-1.08.1v.76l.81-.05a2,2,0,0,0,.9-.34V315a.58.58,0,0,1-.26.57,12.42,12.42,0,0,1-1.45.12v.72l1-.09A2.75,2.75,0,0,0,178,316v1.63q0,.48-.29.62a14.78,14.78,0,0,1-1.74.1,7.26,7.26,0,0,0,.41.6s.29.4.86,1.17c0,.1.19.17.46.21l-.86.38,1.22,0a.39.39,0,0,0,.33-.21l-.09.95q0,.77-.17.89a.38.38,0,0,1-.29.17q-2.1,0-5.09-.29a45,45,0,0,1-6.35-1,4,4,0,0,0-1.08-.24,5.82,5.82,0,0,0-.53.76q-.53.76-.84.76A2.43,2.43,0,0,1,163,322l-1-.78a1,1,0,0,0,.76-.33l.79-1a4.87,4.87,0,0,1,.72-.81,17.92,17.92,0,0,0,.12-2.17v-2.72c0-.28,0-.41-.12-.41a1.47,1.47,0,0,0-.46.16,2.42,2.42,0,0,1-.72.17q-.29,0-.4-.41L162,312a2.57,2.57,0,0,0,.55.07,3.1,3.1,0,0,0,1.34-.29,5.53,5.53,0,0,1,1.33-.26,1,1,0,0,1,.76.31,3.28,3.28,0,0,1,.43,2v2.89a16.11,16.11,0,0,1-.21,2.43q.88.28,1.93.52a11.66,11.66,0,0,0,1-1.15l.1-.16a20.08,20.08,0,0,1-2.22-.12.67.67,0,0,1-.29-.65V316a2.52,2.52,0,0,0,1.19.33l.95.05v-.69q-1.15-.05-1.58-.12a.64.64,0,0,1-.26-.6v-1.53a2,2,0,0,0,1.1.34l.74,0v-.45h-.26a1.89,1.89,0,0,1-1.45-.48,2.7,2.7,0,0,1-.36-1.57V307a.48.48,0,0,0-.33-.43h1.57q.53,0,.6.36l.36-.09a15.52,15.52,0,0,1,1.7-.14.9.9,0,0,1,.53.14,1.25,1.25,0,0,1,.43.52,2.51,2.51,0,0,1,.15,1q0,.55,0,.95a.79.79,0,0,0,.33-.28v1.31a.51.51,0,0,1-.22.5,9.52,9.52,0,0,1-2.15.12Zm-5.09-4.11q.52,0,2,1.45a1.63,1.63,0,0,1,.57,1,.64.64,0,0,1-.21.41l-1.17,1.5a.25.25,0,0,0,.07-.14q0-.41-.77-1a9.57,9.57,0,0,0-2-1.57.43.43,0,0,0-.19.07l1.08-1.36Q163.4,306.83,163.62,306.83Zm5.09,1.57v1q.55,0,1.07,0h.15q0-.28,0-.62a5.19,5.19,0,0,0,0-.58s0,0,0,0a7.35,7.35,0,0,0-.86.09Zm1.7,11.7q.81.14,1.69.24,1.6.19,3,.28a4,4,0,0,1-.45-.59,3,3,0,0,1-.65-1.14q0-.19.52-.52l-2.08,0h-2l.4.22q.33.22.33.4a.6.6,0,0,1-.1.29A7.14,7.14,0,0,1,170.42,320.1Zm.76-3.63,1.26,0h1.38v-.76h-2.63Zm3.25-8.14v.93a13,13,0,0,0,1.33.07h.31c0-.17,0-.36,0-.57a2.43,2.43,0,0,0,0-.59.06.06,0,0,0-.05,0q-.24,0-.93.07Z"/><path class="cls-20" d="M181,307.67q.19.4.9.4,1,.05,2.43.07v-.33a1.39,1.39,0,0,0-.5-1.26h1.94a.8.8,0,0,1,.9.83v.79h2.19l3-.05v-.31a1.39,1.39,0,0,0-.5-1.26h1.95a.78.78,0,0,1,.88.83v.67l2-.1a.75.75,0,0,0,.69-.5v1.89a.66.66,0,0,1-.76.74q-.84.09-1.95.12v.64q0,1.17-.64,1.17H191.3q.5-.21.5-1v-.76q-1.38,0-3,0h-2.19v.1q0,1.19-.65,1.19h-.14l.76.43c.29.2.43.37.43.52a1.44,1.44,0,0,1-.28.74l-.9,1.26q.09,3.48.09,6.35,0,1.17-.29,1.43-.1.22-.67.22h-1.67a.84.84,0,0,0,.29-.76q0-2.12,0-4.53l0,0q-.67.72-1,.72a7.65,7.65,0,0,1-2-1.12q.45,0,1.08-.86a38.12,38.12,0,0,0,2.6-3.48,4.27,4.27,0,0,0,.46-.95h-.93a.92.92,0,0,0,.5-1v-.36q-1.5,0-2.56-.07-.76,0-.76-.72Zm8.73,9.93q-.05.62-.05,1.19c0,.71.13,1.13.4,1.26a2.71,2.71,0,0,0,1.46.29,15.12,15.12,0,0,0,2.93-.34,12.29,12.29,0,0,0,2.58-.77l-.88,2.19a.93.93,0,0,1-.62.64q-1.86.21-3.29.29t-1.76.07a4.57,4.57,0,0,1-1.51-.29,2.46,2.46,0,0,1-1.17-1,5.73,5.73,0,0,1-.34-2.36,36.56,36.56,0,0,1,.76-6.25q.07-.86.69-.89h2.27a.82.82,0,0,0-.48.71q-.43,1.53-.69,2.91l.31-.09a23.78,23.78,0,0,0,4.37-1.88q.91-.38,1-.95l.77,1.81a1.31,1.31,0,0,1,.12.45q0,.38-.57.65a29.41,29.41,0,0,1-5,2Q190.08,317.52,189.7,317.61Z"/><path class="cls-20" d="M202.15,306.76l1.76.91q.45.29.45.6a5.18,5.18,0,0,1-.43,1.33q1.43.07,2.84.1v-2.39a.81.81,0,0,0-.36-.62h1.72q.91,0,1,.76v2.27q3,0,4.58-.16a2.85,2.85,0,0,0,1.08-.38V311a.67.67,0,0,1-.36.69,38.14,38.14,0,0,1-5.3.21v3q2.82,0,4.41-.15a3,3,0,0,0,1.12-.38v1.84a.67.67,0,0,1-.36.69,36.55,36.55,0,0,1-5.16.21v2.82q3.2,0,5-.14a4.54,4.54,0,0,0,1.27-.33v1.88q0,.57-.36.72-.95.14-7.18.14-6,0-7.28-.14a.78.78,0,0,1-.33-.74v-1.86a4,4,0,0,0,1.57.33q2.51.12,5,.12v-2.81a44.63,44.63,0,0,1-5.09-.21.72.72,0,0,1-.36-.72v-1.81a3.11,3.11,0,0,0,1.39.38q2,.12,4.06.14v-2.94q-2.63,0-3.79-.12c-.08.2-.17.4-.28.6q-.53,1.39-1,1.39a10.14,10.14,0,0,1-2.2-1q.48-.12.93-1.14a27,27,0,0,0,1.77-4.51A2,2,0,0,0,202.15,306.76Z"/><path class="cls-20" d="M82.45,339.07a6.24,6.24,0,0,0,.29.71,4,4,0,0,0,.62,1.05.75.75,0,0,0,.31.1l-1,.19-.55.12a.6.6,0,0,1,.29.45c0,.06-.11.15-.34.29a8.1,8.1,0,0,0-1.15.95.56.56,0,0,0-.15.28c0,.13.07.19.21.19l.22,0q.86-.62,1.93-1.24.67-.34.67-.52v-.29l1.07,1.31a1,1,0,0,1,.15.5q0,.24-.64.59a17.67,17.67,0,0,0-2.69,1.51c-.4.25-.6.42-.6.5s.17.14.5.14a8.23,8.23,0,0,0,2-.29h0a3.36,3.36,0,0,1-.22-.74q0-.26.84-.64l1.1-.45a.55.55,0,0,0-.14.15.24.24,0,0,0-.07.17,2.88,2.88,0,0,0,.07.31q.29,1,.69,2a.66.66,0,0,0,.53.21q-.86.52-.9.52a2.93,2.93,0,0,1-1.08.53s-.12-.13-.22-.38l-.15-.38-1.1.29.15.05q.5.21.5.53a1,1,0,0,1-.14.41,17.36,17.36,0,0,0,2.22-.14,1.45,1.45,0,0,0,.65-.33v1.64q0,.48-.26.62a4.75,4.75,0,0,1-.95.1q.31.58.67,1.15a.76.76,0,0,0,.6.26l-1,.6a3.34,3.34,0,0,1-1.27.59q-.09,0-.29-.41a18.05,18.05,0,0,1-.83-1.65c-.09-.21-.17-.37-.24-.5h-.31a25.12,25.12,0,0,1-1.57,2.34q-.21.29-.41.29a.88.88,0,0,1-.4-.16l-1.81-.89a.58.58,0,0,0,.45-.26q.57-.71,1-1.38a8,8,0,0,1-1-.09.68.68,0,0,1-.28-.65v-1.6a1.33,1.33,0,0,0,.81.33l1.64.12q.21-.41.31-.65a6.46,6.46,0,0,1-.91.07,2.16,2.16,0,0,1-1.41-.38,1,1,0,0,1-.36-.74,2.73,2.73,0,0,1,.79-1.55.43.43,0,0,1,.1-.1,1.1,1.1,0,0,1-.67-.36,1.17,1.17,0,0,1-.29-.74,2.19,2.19,0,0,1,.4-.88A9.39,9.39,0,0,1,80,341.46h0a6.15,6.15,0,0,1-.71.15.23.23,0,0,1-.21-.1,2.86,2.86,0,0,1-.48-1,3.13,3.13,0,0,1-.29-.81q0-.31.45-.43l.14-.05q-.52,0-.52-.5v-1.55a.64.64,0,0,0,.48.26q1.12,0,2.62-.12,1.69-.1,3.12-.33,1.14-.15,1.24-.43.4,1.55.4,1.7c0,.15-.28.28-.83.4l-.22,0,.69.28q.36.16.36.41a1.62,1.62,0,0,1-.15.36,10.59,10.59,0,0,1-.77,1.34c-.08.14-.16.21-.24.21a9.54,9.54,0,0,1-1.58-.76.28.28,0,0,0,.21-.14,8.88,8.88,0,0,0,.71-1.26c.09-.17.15-.29.17-.34Q83.52,339,82.45,339.07Zm-1.74,1.31c.29.17.52.32.71.45q-.15-.26-.31-.57a2.91,2.91,0,0,1-.33-.77.43.43,0,0,1,.14-.31l-1,.05v0a3.66,3.66,0,0,0,.29.83,5.7,5.7,0,0,0,.34.79.93.93,0,0,0,.19-.24A.67.67,0,0,0,80.72,340.38Zm7-3.46,1.62.93c.26.17.4.32.4.45a2.83,2.83,0,0,1-.17.86l0,.14c.31,0,.62,0,.93,0a2.17,2.17,0,0,1,0-.28q-.07-1.46-.38-1.7h1.88a.62.62,0,0,1,.69.55q.05.65.07,1.39l.84-.1a1.29,1.29,0,0,0,.53-.33v1.74a.67.67,0,0,1-.29.65,2.77,2.77,0,0,1-1,.16q0,.76,0,1.58l.52-.09a1,1,0,0,0,.46-.33v1.74a.68.68,0,0,1-.28.65,1.68,1.68,0,0,1-.71.14v1.53l.52-.09a1.12,1.12,0,0,0,.46-.33V348a.69.69,0,0,1-.28.65,1.88,1.88,0,0,1-.72.15q0,1.09-.05,1.67a8.31,8.31,0,0,0,.95-.1,1.12,1.12,0,0,0,.53-.34v1.81a.65.65,0,0,1-.36.67,11.75,11.75,0,0,1-2.69.16q-1.38,0-2.07-.05a.72.72,0,0,1-.69.31H86.78a1.47,1.47,0,0,0,.33-1.07q0-2.22,0-5.18,0-.71,0-2.08l-.07,0a7,7,0,0,1-1.84-1q.28,0,.67-1,.86-1.87,1.62-3.94a6.51,6.51,0,0,0,.31-1.26A1.16,1.16,0,0,0,87.72,336.92Zm1.46,6a11.76,11.76,0,0,0,1.39.09q0-.79,0-1.58-.88,0-1.41-.05Q89.17,342.17,89.18,343Zm.09,3.65a10.63,10.63,0,0,0,1.33.09v-1.5q-.83,0-1.34-.07Q89.25,345.87,89.27,346.61Zm0,3.8q.62.05,1.24.07.05-.4.07-.91t0-.72l-1.31-.07Q89.27,349.72,89.25,350.41Z"/><path class="cls-20" d="M96.71,337.42a4.46,4.46,0,0,0,1.31.19,31.56,31.56,0,0,0,3.86-.5,37,37,0,0,1,5.06-.45,13.59,13.59,0,0,1,3.63.33,3.46,3.46,0,0,1,1.64,1,3.52,3.52,0,0,1,.48,1.95,4.4,4.4,0,0,1-.19,1.57q-.17.53-.43.53l-2.08-.4a.59.59,0,0,0,.29-.46,3.79,3.79,0,0,0,.14-1.24,1.8,1.8,0,0,0-.19-.84,1.38,1.38,0,0,0-1-.55,14,14,0,0,0-2.32-.15l-.79,0v1.12q.55.05,1.07.05a10.65,10.65,0,0,0,1.86-.12.78.78,0,0,0,.36-.31v1.45q0,.43-.19.55a7.63,7.63,0,0,1-2,.14l-1.07,0v.38a2.13,2.13,0,0,1,0,.41l2.51.4q3.08.41,3.63.41a.65.65,0,0,0,.43-.21l-.38,1q-.29,1-.6,1-.52,0-4-.55-2.89-.45-6.33-1.21l-.79-.17a15.42,15.42,0,0,1-.88,1.46,1.4,1.4,0,0,1-.4.46h.22a.74.74,0,0,1,.81.48l3-.31.14,0q-.09-.72-.36-.84h1.86a.6.6,0,0,1,.67.55.89.89,0,0,1,0,.17q1.86-.1,3-.1a5.65,5.65,0,0,1,1.6.17,2.83,2.83,0,0,1,1.22.64,1.56,1.56,0,0,1,.46,1.26q0,.47,0,.83l.34-.14v1.45q0,.41-.19.53a6.91,6.91,0,0,1-1,.07l.55.79s.37.5,1.1,1.48c0,.12.19.19.46.22l-.91.41a3.38,3.38,0,0,1-1.07.48q-.34,0-.86-.67a59.65,59.65,0,0,1-7.19.4q-3,0-5.46-.16-.52-.05-.55-.4t.15-1.74a.51.51,0,0,0,.46.29q2.46.12,5.39.12h.41v-.05q0-.6,0-1.12-2.1,0-3.24-.07-.14.55-.58.55H97.59q.5-.19.5-.95v-3.18a1.2,1.2,0,0,0-.5-1.15h1l-.12-.05-1.69-.84a.87.87,0,0,0,.67-.45,21.94,21.94,0,0,0,1.86-3.06,2,2,0,0,0,.31-.76.21.21,0,0,0-.05-.1,6,6,0,0,1-1.07.22q-.47,0-1.07-1Zm3.65,10.26h.05q1.58.07,3.15.1,0-.64,0-1.29-2.27.26-3.17.33Zm1-6.44,2.51.48v-2.86a2,2,0,0,0,0-.28q-1.27.12-2.46.34l-1,.29,1,.12q.59.07.59.46a4.13,4.13,0,0,1-.31.91Zm7.81,9.23a1.6,1.6,0,0,1-.21-.59c0-.1.09-.23.28-.38l-3.49,0q0,.71-.05,1.14Q107.54,350.6,109.18,350.46Zm-3.43-4.11q0,.59,0,1.22v.22q2.19,0,3.73,0v-.52q0-.81-.53-.93-.34,0-1.27,0Q107.06,346.28,105.75,346.35Z"/><path class="cls-20" d="M119.92,343.39h1.74a.7.7,0,0,1,.72.4q.72-.05,1.67-.21a29.53,29.53,0,0,1,3.36-.26,18.45,18.45,0,0,1,2.15.1,2.23,2.23,0,0,1,1.21.46,1.35,1.35,0,0,1,.38,1.12c0,.21,0,.37,0,.48l.38-.09v1.14a.45.45,0,0,1-.21.45l-.5,0,.41.4a.74.74,0,0,1,.22.4q0,.16-.29.4a8.18,8.18,0,0,1-1.22.91,3.66,3.66,0,0,0,.95.57c.2,0,.31,0,.34-.07a11,11,0,0,1-1,1.05l0,0h1a.49.49,0,0,0,.41-.26l-.1,1.07q-.05.88-.22,1a.49.49,0,0,1-.36.19q-2.08,0-5-.24a54.93,54.93,0,0,1-6.3-.81,4.38,4.38,0,0,0-1.07-.21,5,5,0,0,0-.5.69q-.52.71-.81.71a2.43,2.43,0,0,1-1-.57l-1.07-.83a1,1,0,0,0,.76-.33l.83-.76a3.59,3.59,0,0,1,.69-.58,12.69,12.69,0,0,0,.19-2.31v-2.75c0-.29,0-.43-.12-.43a1,1,0,0,0-.43.22,2,2,0,0,1-.69.21q-.31,0-.43-.46l-.65-1.81a3.4,3.4,0,0,0,.62.07,2.52,2.52,0,0,0,1.27-.34,4.48,4.48,0,0,1,1.26-.29.93.93,0,0,1,.72.33,4,4,0,0,1,.4,2.15v2.93a12.18,12.18,0,0,1-.28,2.43l.14,0a54.63,54.63,0,0,0,5.85.72q2,.14,3.68.21-.34-.26-.81-.65t-1-.83l-.17.58a.87.87,0,0,1-.57.45H125a2.17,2.17,0,0,1-.88-.24,1.45,1.45,0,0,1-.6-.88,3.11,3.11,0,0,1-.09-.72v-.17a12.68,12.68,0,0,1-1.17,1.27q-.38.41-.55.41a6.35,6.35,0,0,1-1.74-1q.31,0,.71-.46.6-.59,1.15-1.21h-1.93q.43-.19.43-.9v-1.84A1.24,1.24,0,0,0,119.92,343.39Zm-2.82-6.54q.55,0,2.1,1.62a1.79,1.79,0,0,1,.6,1.15.7.7,0,0,1-.21.43l-1.24,1.5a.81.81,0,0,0,.05-.22q0-.45-.77-1.08a9.47,9.47,0,0,0-2-1.65.67.67,0,0,0-.26.07l1.14-1.41Q116.88,336.85,117.1,336.85Zm2.56,4.27a3.22,3.22,0,0,0,1.22.24q2.38.1,4.73.1,3.2,0,4.89-.1a3.16,3.16,0,0,0,1-.24v1.36a.58.58,0,0,1-.21.52q-.76.07-5.68.07-4.73,0-5.77-.07a.65.65,0,0,1-.19-.53Zm.26-4.41h1.74a.68.68,0,0,1,.72.41l1.77-.19q2.13-.22,3.36-.22a15.44,15.44,0,0,1,2.12.12,2,2,0,0,1,1.21.55,1.78,1.78,0,0,1,.38,1.33q0,.31,0,.55a2.07,2.07,0,0,0,.31-.14v1.2a.49.49,0,0,1-.21.46,43,43,0,0,1-4.85.14q-2.94,0-4.2-.07a.55.55,0,0,1-.34.14h-2q.43-.19.43-.9v-2.27A1.24,1.24,0,0,0,119.92,336.71Zm2.56,2.7,1,.05v-1l-1,.19Zm0,6.16q1.95.09,3.89.09l2.53,0a5.47,5.47,0,0,0,0-.64q0-.22-.33-.29a7.28,7.28,0,0,0-1.21-.07,17.72,17.72,0,0,0-3.2.24l-1.72.36Zm2.79,1.79-.07.38a1.63,1.63,0,0,0-.05.33q0,.69.36.69a4.15,4.15,0,0,0,.95-.12l.07,0Q125.88,348,125.28,347.37Zm0-7.83,1,0v-1.48c-.36,0-.68,0-1,.07Zm3.1,8.42.72-.5.52-.43-2.32,0Q127.81,347.5,128.39,348Zm-.34-8.42,1,0c0-.25,0-.52,0-.81a.55.55,0,0,0-.36-.55,2.42,2.42,0,0,0-.69-.1Z"/><path class="cls-20" d="M137.37,336.23l1.6,1.07a1,1,0,0,1,.22.22q.57-.07,1.12-.17a33,33,0,0,1,5.27-.57,2.22,2.22,0,0,1,1.62.74,18.19,18.19,0,0,1,2.31,3.36q.74,1.21,1.08,1.21-1.14.65-1.72.95v.1q0,1.19-.05,1.83l.33-.12v1.26c0,.24-.07.4-.21.46q-.79.09-6,.09-3.58,0-5.13-.05a.48.48,0,0,1-.43.26h-1.94q.4-.19.4-.89v-2.87a.29.29,0,0,1-.14.05,1,1,0,0,1-.59-.29l-1.33-1q.45,0,1.12-1a23.71,23.71,0,0,0,2.53-4.25A.87.87,0,0,0,137.37,336.23Zm-1.65,10.88h1.89a.76.76,0,0,1,.79.41l2.39-.21q3.36-.21,5-.21a5,5,0,0,1,1.48.17,2.76,2.76,0,0,1,1.14.6,1.48,1.48,0,0,1,.43,1.17,12.36,12.36,0,0,1-.1,1.91l.24-.07V352a.45.45,0,0,1-.19.43q-.77.09-5.78.09-3.18,0-4.72,0a.57.57,0,0,1-.46.24h-2.13a.92.92,0,0,0,.5-1V348.3A1.29,1.29,0,0,0,135.72,347.11Zm2.22-5.32,2.69-.26q3.41-.28,5.13-.28a6.12,6.12,0,0,1,1.27.1q-.64-1.29-1.17-2.17t-.9-.76a38.64,38.64,0,0,0-5.18.52l-1.07.14a1.4,1.4,0,0,0,.57.14q1.41.12,2.81.12a25.76,25.76,0,0,0,2.89-.12,1.38,1.38,0,0,0,.6-.24v1.36a.56.56,0,0,1-.22.52q-.43.07-3.27.07t-3.34-.07a.63.63,0,0,1-.21-.53v-1q-.36.62-.91,1.51-.17.26-.33.45A.68.68,0,0,1,137.94,341.79Zm.05,3.29q1.6.09,3.18.1v-2.29h0q-2.15.24-3.15.33Zm.5,4.06q2,.1,3.87.1,2.74,0,4.22-.09c-.06-.34-.2-.55-.43-.62a7.11,7.11,0,0,0-1.08-.05q-1,0-3.79.14l-2.79.24Zm0,2q2.31.09,4.54.09,2.07,0,3.49,0a3.38,3.38,0,0,0,.07-.58q-1.29.07-4.23.07-2.56,0-3.87-.05Zm1.84-8a.35.35,0,0,0-.14.26,7.42,7.42,0,0,0,.43,1.12c0,.06.12.13.33.21l-1,.21a4.08,4.08,0,0,1-.71.12.31.31,0,0,1-.14,0,3.66,3.66,0,0,1-.28-.6,3.15,3.15,0,0,1-.22-.65q0-.26.64-.4Zm2.75,2.07q2.17,0,3.61-.07,0-.48,0-1.46,0-.81-.52-.93-.33,0-1.22,0-.62,0-1.91.07Zm1-2.2,1.46.17q.38.05.38.36a2,2,0,0,1-.07.31,6.74,6.74,0,0,1-.45,1c-.06.11-.11.17-.17.17a2.23,2.23,0,0,1-.48-.1q-.46-.12-1-.22a.22.22,0,0,0,.14-.17,6.82,6.82,0,0,0,.33-.93,1.87,1.87,0,0,0,.1-.34Q144.29,343.17,144.06,343Z"/><path class="cls-20" d="M155.62,351.82c0,.16,0,.29,0,.38a.63.63,0,0,1-.62.5H153q.38-.34.45-2.13,0-3.1,0-5.44,0-2.93-.17-6.47a3.62,3.62,0,0,0-.38-1.95h1.88a.63.63,0,0,1,.67.5,4.6,4.6,0,0,0,.5-.19,4,4,0,0,1,1.43-.24,2.63,2.63,0,0,1,1.69.41,1.22,1.22,0,0,1,.45,1,13.35,13.35,0,0,1-1.62,4.46l-.12.22a2,2,0,0,1,1.1.38,1,1,0,0,1,.31.38v-1a1.8,1.8,0,0,0,1,.33q.45.05.86.07-.09-.53-.21-1.19-.15-.91-.22-1.43a4.07,4.07,0,0,1-.53-.05.74.74,0,0,1-.36-.72v-1.76a1.73,1.73,0,0,0,.95.33q1.34.1,2.63.12v-.86a.79.79,0,0,0-.26-.57h1.62q.86,0,.91.76v.67q1.46,0,2.36-.12a1.69,1.69,0,0,0,.76-.33v1.79a.67.67,0,0,1-.36.69c-.13,0-.36,0-.71.07a3.41,3.41,0,0,1-.07.38q-.24,1.14-.58,2.25.67,0,1.17-.1a2.25,2.25,0,0,0,.81-.33v1.79a.67.67,0,0,1-.33.67,33.16,33.16,0,0,1-4.53.15,37.19,37.19,0,0,1-4.58-.15s-.07,0-.07-.05v.12a31.87,31.87,0,0,1-.29,4.63,3.41,3.41,0,0,1-.69,1.86A2,2,0,0,1,157,352,3.71,3.71,0,0,1,155.62,351.82Zm0-13q.07,1.7.09,3.86A6.47,6.47,0,0,0,156,342a12.56,12.56,0,0,0,1.33-3.3q0-.22-.46-.22a2.62,2.62,0,0,0-1.14.29Zm.1,6.3q0,3.24,0,5a4.91,4.91,0,0,0,.81.07.49.49,0,0,0,.48-.29,14.36,14.36,0,0,0,.4-4.39q0-.86-.62-.88a1.6,1.6,0,0,0-.93.4Zm4.06.64h1.84a.73.73,0,0,1,.81.57l1.17-.12q1.82-.22,2.44-.22a3.94,3.94,0,0,1,.9.1,2.3,2.3,0,0,1,.83.4,1.55,1.55,0,0,1,.55.71,2.23,2.23,0,0,1,.21.91,8.68,8.68,0,0,1-.29,1.79,1.3,1.3,0,0,0,.65-.34v1.76a.69.69,0,0,1-.29.67,22.56,22.56,0,0,1-3.51.14q-1.76,0-2.65-.05-.1.67-.57.67h-2.08q.41-.22.41-1v-4.8A1.41,1.41,0,0,0,159.77,345.73Zm2.69,4.17q1.33.1,2.62.1h.79a13,13,0,0,0,.38-1.93.28.28,0,0,0-.15-.22,2.89,2.89,0,0,0-.6-.05,14,14,0,0,0-1.82.22q-.83.19-1.21.24Zm.76-6.85.93,0h.62q.36-1.15.65-2.43a1.4,1.4,0,0,0,.05-.21h-2.77c.06.22.11.45.15.69Q163.06,342.39,163.21,343Z"/><path class="cls-20" d="M175.16,336.66l1.82,1c.29.2.43.37.43.52a3,3,0,0,1-.22,1q-.6,1.34-1.19,2.51c0,.25,0,.52,0,.79a3.23,3.23,0,0,0,.52-.78,26,26,0,0,0,2-4.56.92.92,0,0,0-.09-.29l1.62.79q.38.26.38.53a3.38,3.38,0,0,1-.38,1,9.21,9.21,0,0,0,2.13-.38,17.57,17.57,0,0,1,3.08-.28,3.19,3.19,0,0,1,1.77.4,1.56,1.56,0,0,1,.5,1.34,4.26,4.26,0,0,1-.36,2.17.84.84,0,0,1-.6.36l-.26,0a.39.39,0,0,0-.1.26q.47,5.3,1,8.81,0,.12.43.28l-1.19.24a4,4,0,0,1-.83.16c-.08,0-.17-.08-.26-.24a41.1,41.1,0,0,1-.59-4.08q-.46-4-.46-4.77,0-.29.79-.46l1-.22-1.5-.19q.55-.41.55-2,0-.47-.76-.46a13.1,13.1,0,0,0-2.56.33,8.43,8.43,0,0,1-2.32.5,1,1,0,0,1-.28,0l-.79,1.43a4.42,4.42,0,0,1-.34.59q.89.14,1.7.22c.31.06.46.21.46.46a16.86,16.86,0,0,1-.26,1.77q-.47,2.81-1.14,5.47a2.22,2.22,0,0,0,.6.21,6.21,6.21,0,0,0,.84.07.64.64,0,0,0,.65-.52,25.82,25.82,0,0,0,.24-4.49,20.09,20.09,0,0,0-.24-3.91,1.31,1.31,0,0,0-.38-.81h2q.5,0,.64.81a27.19,27.19,0,0,1,.21,3.91q0,5.09-.62,6a2,2,0,0,1-1.84.78,4.88,4.88,0,0,1-1.2-.17.71.71,0,0,1-.57-.48q-.21-.53-.41-1.19c0,.22-.1.42-.16.6q-.29,1-.57,1a2.21,2.21,0,0,1-.57-.14l-1.21-.29q.33-.14.48-1,.65-2.67,1.19-5.7.31-1.87.31-2.24,0-.14-.22-.34-.48.74-.86.74a4.75,4.75,0,0,1-1.15-.46q.07,1.69.1,3.6,0,4.7-.14,5.54-.09.57-.81.57h-1.72a1.55,1.55,0,0,0,.36-1.07q0-2.17,0-5,0-.52,0-1.39c-.11.13-.21.19-.29.19a7.66,7.66,0,0,1-2.08-1.17q.41,0,1-1.15,1.2-2.2,2.29-4.65a6,6,0,0,0,.45-1.5A1.27,1.27,0,0,0,175.16,336.66Z"/><path class="cls-20" d="M190.18,337a.92.92,0,0,0,.65.34,22.27,22.27,0,0,0,2.46.14,17.82,17.82,0,0,0,2.56-.14,1,1,0,0,0,.52-.34v.62h1.43q.53,0,.6.38.74-.33,1.62-.81a.47.47,0,0,0,.29-.4,19.2,19.2,0,0,1,.88,2.08c0,.08-.06.16-.19.24a9.87,9.87,0,0,1-1,.46l.6,0q.57,0,.57.79,0,4.23-.46,10.76-.1,1.7-.5,1.7l-1.81-.14a3.17,3.17,0,0,0,.38-1.51h-.31a1.87,1.87,0,0,1-1.55-.62,4.25,4.25,0,0,1-.36-2V338a.36.36,0,0,0-.15-.29v1a.68.68,0,0,1-.33.69,1.23,1.23,0,0,1-.31.05q.14,2.43.14,6,0,5.77-.1,6.8a.55.55,0,0,1-.53.43h-1.67a3.6,3.6,0,0,0,.34-1.81q-.95.38-2.27.86a3.33,3.33,0,0,1-.64.19q-.36,0-.57-.5l-.59-1.77a.74.74,0,0,0,.33.14,1.65,1.65,0,0,0,.45-.1l.31-.09V339.55l-.41-.07a.75.75,0,0,1-.34-.72Zm2.7,4.39.45,0,.53,0q0-.62-.05-1.26c0-.2,0-.36,0-.5h-.9Zm0,3.87.45,0,.62,0q0-.9,0-1.81l-.58,0h-.45Zm0,3.8q.59-.21,1-.41,0-.7,0-1.34l-.62,0h-.45Zm6,.16q.38-5,.38-9.11a.68.68,0,0,0,0-.24,5.93,5.93,0,0,1-.72.28l-.07,0v8.33Q198.44,349.1,198.89,349.21Zm4.61,1.91q0,.88,0,1.22a.54.54,0,0,1-.55.43H201.2a3.74,3.74,0,0,0,.4-2.08q0-3,0-5.28,0-2.86-.15-6.32a4.3,4.3,0,0,0-.33-1.88h1.65a.52.52,0,0,1,.58.43,1.72,1.72,0,0,0,.33-.12,4.29,4.29,0,0,1,1.08-.17,1,1,0,0,1,1,.64q.4.86.4,6.27a36.37,36.37,0,0,1-.24,5.13,4.12,4.12,0,0,1-.4,1.36,1.3,1.3,0,0,1-1.17.45A4.58,4.58,0,0,1,203.5,351.12Zm0-11.53q.07,2.31.07,5.4,0,2.7,0,4.41a3.28,3.28,0,0,0,.52.05q.17,0,.26-.65t.07-4.54q0-4.18-.09-4.54c0-.2-.13-.29-.24-.29A1.69,1.69,0,0,0,203.47,339.59Z"/><path class="cls-20" d="M210.12,337.21a3.44,3.44,0,0,0,1.45.33q2.77.14,5.54.14,3.77,0,5.75-.14a3.89,3.89,0,0,0,1.17-.33v1.74a.69.69,0,0,1-.29.67,46.26,46.26,0,0,1-5.52.19,15.75,15.75,0,0,1-.93,2.34l-.31.76H217q4.11,0,6.27-.14a4.29,4.29,0,0,0,1.26-.33v1.79q0,.53-.33.67-.71.1-4.06.12l.34.5a61.21,61.21,0,0,0,3.84,5.11.9.9,0,0,0,.69.19l-.74.67q-1.08,1.21-1.58,1.21-.26,0-.95-.88-1.24-1.6-3.08-4.42a6.71,6.71,0,0,1-1.33-2.36H216q-1.29,2.65-3.32,6.21-.74,1.45-1.41,1.45a14.92,14.92,0,0,1-2.41-1.19q.69,0,1.26-.95,1.62-2.67,3-5.54-2.56,0-3.36-.12a.72.72,0,0,1-.33-.71v-1.76a4,4,0,0,0,1.57.33q1.57.07,3.1.1l.48-1.1q.55-1.22.83-2a49.17,49.17,0,0,1-5-.19.82.82,0,0,1-.26-.71Z"/><path class="cls-20" d="M227.55,338h1.88a.58.58,0,0,1,.65.5l.34-.09a8.86,8.86,0,0,1,1.41-.28,2.61,2.61,0,0,1,.83.12,1.35,1.35,0,0,1,.62.62,3.48,3.48,0,0,1,.38,1.34q.09.67.09,3.86,0,1.94-.09,3.89-.05.95-.09,1.45h0a.73.73,0,0,0,.38-.26,110.5,110.5,0,0,0,.69-11.65.65.65,0,0,0-.36-.62l1.89.05a.61.61,0,0,1,.6.48q.71-.07,1.69-.21a19.76,19.76,0,0,1,2.72-.26,2.37,2.37,0,0,1,1.29.29,1.63,1.63,0,0,1,.55,1.36v.76a8.2,8.2,0,0,1-.12,1.38,1.7,1.7,0,0,0,.48-.28v1.65q0,.48-.29.62a23.58,23.58,0,0,1-3.61.14q-1.84,0-2.81-.05-.21,3.53-.67,7.87-.21,2-1,2l-1.84-.14a2.14,2.14,0,0,0,.45-1.08,8,8,0,0,1-2.17.17q-.79,0-1.29,0a.33.33,0,0,0,0,.1.63.63,0,0,1-.62.48h-1.94q.38-.28.45-1.89,0-2.75,0-4.84,0-2.62-.17-5.78Q227.84,338.21,227.55,338Zm2.72,11.5c.38,0,.74.05,1.08.05q.07-.91.12-2.5.07-1.95.07-3a26.92,26.92,0,0,0-.12-3.1,1.46,1.46,0,0,0-.21-.77.52.52,0,0,0-.43-.14,2,2,0,0,0-.53.21l0,0q.09,2,.09,4.73T230.27,349.47Zm6.52-8.66q1.36.12,2.7.12l1.38,0c0-.24,0-.49,0-.76s0-.41,0-.64q0-.71-.45-.72a15.38,15.38,0,0,0-2.29.19q-.93.15-1.31.19Q236.82,340,236.79,340.81Zm.6,2.58,1.95.24q.55,0,.55.52a13,13,0,0,1-.26,1.55l.6-.14a7.29,7.29,0,0,0,1.93-.59,1,1,0,0,0,.76-.83,20.68,20.68,0,0,1,.48,2.08q0,.41-.53.69a9.56,9.56,0,0,1-2.15.74q-.86.17-1.41.24l-.1.74a9.62,9.62,0,0,0-.14,1.29q0,.76,1.22.76a6.06,6.06,0,0,0,1.67-.26,4.46,4.46,0,0,0,1.65-.83l-.65,2a1.18,1.18,0,0,1-.79.64q-1,.21-1.6.29a9,9,0,0,1-1,.07,4.56,4.56,0,0,1-1.57-.33,1.89,1.89,0,0,1-1-1,2.28,2.28,0,0,1-.19-.9,20.7,20.7,0,0,1,.16-2.1q.27-2,.57-3.44a9.44,9.44,0,0,0,.17-1Q237.68,343.63,237.39,343.39Z"/></g></svg>