<?xml version="1.0" encoding="utf-8"?>
<!-- Generator: Adobe Illustrator 16.0.3, SVG Export Plug-In . SVG Version: 6.00 Build 0)  -->
<!DOCTYPE svg PUBLIC "-//W3C//DTD SVG 1.1//EN" "http://www.w3.org/Graphics/SVG/1.1/DTD/svg11.dtd">
<svg version="1.1" xmlns="http://www.w3.org/2000/svg" xmlns:xlink="http://www.w3.org/1999/xlink" x="0px" y="0px" width="940px"
	 height="480px" viewBox="0 0 940 480" enable-background="new 0 0 940 480" xml:space="preserve">
<g id="圖層_1">
</g>
<g id="圖層_2">
	<g>
		<g>
			<circle fill="#FFFFFF" stroke="#F5A214" stroke-width="7.2184" stroke-miterlimit="10" cx="167.3" cy="241.882" r="92.047"/>
			<path fill="#F7FCFE" d="M207.079,258.894c0,36.607-18.206,48.082-40.817,48.082c-22.615,0-41.075-11.475-41.075-48.082
				s18.332-66.281,40.945-66.281C188.745,192.612,207.079,222.286,207.079,258.894z"/>
			
				<path fill="none" stroke="#1D2539" stroke-width="1.7151" stroke-linecap="round" stroke-linejoin="round" stroke-miterlimit="10" d="
				M199.24,291.604c-7.411,11.232-19.401,15.371-32.979,15.371c-22.615,0-41.075-11.475-41.075-48.082s18.332-66.281,40.945-66.281
				c22.614,0,40.948,29.674,40.948,66.281c0,0.699-0.009,1.387-0.02,2.068"/>
			
				<path fill="none" stroke="#1D2539" stroke-width="1.7151" stroke-linecap="round" stroke-linejoin="round" stroke-miterlimit="10" d="
				M206.579,268.833c-0.416,3.916-1.089,7.471-1.989,10.691"/>
			<path opacity="0.2" fill="#DBDAD6" d="M128.396,245.276c0-20.979,11.124-39.734,27.691-50.65
				c-17.758,7.254-30.901,33.27-30.901,64.268c0,36.607,18.46,48.082,41.075,48.082c4.897,0,9.587-0.539,13.929-1.76
				C151.206,300.845,128.396,275.329,128.396,245.276z"/>
			<path fill="#EACC2C" d="M193.476,236.013c0,14.713-11.93,26.645-26.639,26.645c-14.712,0-26.643-11.932-26.643-26.645
				c0-14.711,11.931-26.643,26.643-26.643C181.546,209.37,193.476,221.302,193.476,236.013z"/>
			<g>
				<path fill="#FFFFFF" d="M165.007,228.315c0,4.246-3.438,7.689-7.68,7.689c-4.244,0-7.685-3.443-7.685-7.689
					c0-4.238,3.44-7.68,7.685-7.68C161.569,220.636,165.007,224.077,165.007,228.315z"/>
				<path fill="#424042" d="M161.343,228.315c0,2.225-1.799,4.018-4.016,4.018c-2.221,0-4.021-1.793-4.021-4.018
					c0-2.217,1.8-4.018,4.021-4.018C159.544,224.298,161.343,226.099,161.343,228.315z"/>
				<path fill="#FFFFFF" d="M157.328,225.745c0,1.33-1.085,2.41-2.415,2.41c-1.334,0-2.416-1.08-2.416-2.41
					c0-1.338,1.082-2.414,2.416-2.414C156.243,223.331,157.328,224.407,157.328,225.745z"/>
				<path fill="#FFFFFF" d="M168.662,228.335c0,4.24,3.439,7.678,7.683,7.678c4.243,0,7.683-3.438,7.683-7.678
					c0-4.244-3.44-7.686-7.683-7.686C172.101,220.649,168.662,224.091,168.662,228.335z"/>
				<path fill="#424042" d="M172.325,228.335c0,2.217,1.8,4.018,4.019,4.018c2.218,0,4.018-1.801,4.018-4.018
					c0-2.225-1.799-4.021-4.018-4.021C174.125,224.313,172.325,226.11,172.325,228.335z"/>
				<path fill="#FFFFFF" d="M176.344,225.761c0,1.33,1.079,2.412,2.413,2.412s2.415-1.082,2.415-2.412
					c0-1.334-1.081-2.42-2.415-2.42S176.344,224.427,176.344,225.761z"/>
			</g>
			<g>
				<circle fill="#40A9A3" cx="176.344" cy="228.155" r="6.507"/>
				<circle fill="#39375A" cx="176.344" cy="228.155" r="4.932"/>
				<circle fill="#FFFFFF" cx="178.646" cy="225.812" r="0.999"/>
			</g>
			<g>
				<circle fill="#40A9A3" cx="157.328" cy="228.155" r="6.507"/>
				<circle fill="#39375A" cx="157.328" cy="228.155" r="4.931"/>
				<circle fill="#FFFFFF" cx="155.026" cy="225.812" r="0.999"/>
			</g>
			<g>
				<path fill="#39375A" d="M161.375,246.329h10.918v3.486c0,3.014-2.444,5.457-5.459,5.457l0,0c-3.014,0-5.459-2.443-5.459-5.457
					V246.329z"/>
				<rect x="161.375" y="246.329" fill="#FFFFFF" width="10.918" height="2.961"/>
			</g>
			<g>
				
					<polyline fill="none" stroke="#F1D01F" stroke-width="0.7218" stroke-linecap="round" stroke-linejoin="round" stroke-miterlimit="10" points="
					150.363,183.229 157.337,183.229 162.434,176.792 166.593,189.739 170.083,178.997 172.5,183.263 185.109,183.263 				"/>
				<g>
					<path fill="#F1D01F" d="M152.125,180.817c-1.229-1.867-3.741-2.381-5.61-1.152c-1.864,1.234-2.382,3.742-1.149,5.609
						c1.132,1.719,3.335,2.275,5.137,1.398c2.979,4.523,5.96,9.049,8.941,13.566c0.378,0.572,1.263-0.012,0.885-0.578
						c-2.981-4.523-5.961-9.047-8.943-13.57C152.898,184.78,153.256,182.536,152.125,180.817z"/>
					<path fill="#F1D01F" d="M180.14,180.817c1.229-1.867,3.741-2.381,5.608-1.152c1.866,1.234,2.382,3.742,1.148,5.609
						c-1.129,1.719-3.334,2.275-5.135,1.398c-2.981,4.523-5.962,9.049-8.941,13.566c-0.376,0.572-1.262-0.012-0.887-0.578
						c2.981-4.523,5.962-9.047,8.944-13.57C179.366,184.78,179.007,182.536,180.14,180.817z"/>
				</g>
			</g>
			<g>
				<path fill="#DC4E3B" d="M122.043,262.229c-3.09,0-5.595-2.506-5.595-5.596l0,0v-25.012h5.363v25.012h2.896v5.596H122.043z"/>
				<g>
					<path fill="#F1D01F" d="M124.676,220.587l-2.74,2.672c0.72,0.74,1.116,1.711,1.116,2.742c0,2.162-1.76,3.924-3.924,3.924
						c-2.163,0-3.923-1.762-3.923-3.924c0-0.852,0.268-1.66,0.774-2.342l-3.066-2.285c-1.004,1.344-1.534,2.947-1.534,4.627
						c0,4.275,3.477,7.752,7.749,7.752c4.274,0,7.751-3.477,7.751-7.752C126.879,223.968,126.098,222.042,124.676,220.587z"/>
				</g>
			</g>
			<g>
				<path fill="#DC4E3B" d="M208.712,245.136c3.072-0.332,5.83,1.895,6.16,4.971l0,0l2.665,24.867l-5.333,0.572l-2.666-24.871
					l-2.88,0.311l-0.595-5.564L208.712,245.136z"/>
				<g>
					<path fill="#F1D01F" d="M210.53,286.821l2.44-2.949c-0.796-0.658-1.293-1.582-1.402-2.609c-0.23-2.146,1.332-4.086,3.483-4.313
						c2.151-0.232,4.088,1.328,4.319,3.477c0.09,0.852-0.093,1.684-0.523,2.414l3.296,1.947c0.853-1.443,1.21-3.094,1.032-4.766
						c-0.455-4.25-4.282-7.338-8.532-6.885c-4.249,0.455-7.335,4.287-6.878,8.533C207.981,283.698,208.96,285.526,210.53,286.821z"
						/>
				</g>
			</g>
			<g>
				<g>
					<path fill="#40A9A3" d="M188.362,271.085c0.206-0.322,0.328-0.701,0.328-1.111c0-1.141-0.926-2.063-2.065-2.063
						c-0.408,0-0.79,0.121-1.11,0.326L188.362,271.085z"/>
					<path fill="#40A9A3" d="M184.89,268.86c-0.205,0.322-0.328,0.703-0.328,1.113c0,1.143,0.924,2.064,2.063,2.064
						c0.412,0,0.792-0.125,1.11-0.332L184.89,268.86z"/>
				</g>
				<g>
					<path fill="#40A9A3" d="M188.362,295.14c0.206-0.322,0.328-0.699,0.328-1.109c0-1.143-0.926-2.063-2.065-2.063
						c-0.408,0-0.79,0.119-1.11,0.326L188.362,295.14z"/>
					<path fill="#40A9A3" d="M184.89,292.919c-0.205,0.318-0.328,0.699-0.328,1.111c0,1.141,0.924,2.063,2.063,2.063
						c0.412,0,0.792-0.119,1.11-0.326L184.89,292.919z"/>
				</g>
				<g>
					<path fill="#40A9A3" d="M149.989,295.14c0.207-0.322,0.329-0.699,0.329-1.109c0-1.143-0.925-2.063-2.062-2.063
						c-0.413,0-0.791,0.119-1.113,0.326L149.989,295.14z"/>
					<path fill="#40A9A3" d="M146.519,292.919c-0.207,0.318-0.33,0.699-0.33,1.111c0,1.141,0.923,2.063,2.066,2.063
						c0.408,0,0.789-0.119,1.108-0.326L146.519,292.919z"/>
				</g>
				<g>
					<path fill="#40A9A3" d="M149.989,271.56c0.207-0.322,0.329-0.701,0.329-1.109c0-1.143-0.925-2.064-2.062-2.064
						c-0.413,0-0.791,0.125-1.113,0.326L149.989,271.56z"/>
					<path fill="#40A9A3" d="M146.519,269.337c-0.207,0.324-0.33,0.701-0.33,1.113c0,1.141,0.923,2.063,2.066,2.063
						c0.408,0,0.789-0.121,1.108-0.328L146.519,269.337z"/>
				</g>
				<g>
					<g>
						<rect x="149.572" y="285.747" fill="#DC4E3B" width="5.792" height="5.098"/>
						<rect x="156.988" y="285.747" fill="#F2DB59" width="5.793" height="5.098"/>
						<rect x="164.402" y="285.747" fill="#DC4E3B" width="5.794" height="5.098"/>
						<rect x="171.817" y="285.747" fill="#F2DB59" width="5.795" height="5.098"/>
						<rect x="179.236" y="285.747" fill="#F2DB59" width="5.791" height="5.098"/>
					</g>
					<g>
						<path fill="#004643" d="M184.401,283.231h-34.203c-0.346,0-0.626-0.281-0.626-0.625v-8.928c0-0.348,0.28-0.625,0.626-0.625
							h34.203c0.346,0,0.626,0.277,0.626,0.625v8.928C185.027,282.95,184.747,283.231,184.401,283.231z"/>
						<g>
							<g>
								<rect x="151.034" y="273.054" fill="#006661" width="2.263" height="10.178"/>
								<rect x="151.034" y="281.554" fill="#DC4E3B" width="2.263" height="1.678"/>
							</g>
							<g>
								<rect x="154.398" y="273.054" fill="#006661" width="2.261" height="10.178"/>
								<rect x="154.398" y="278.972" fill="#6DBBB2" width="2.261" height="4.26"/>
							</g>
							<g>
								<rect x="157.76" y="273.054" fill="#006661" width="2.264" height="10.178"/>
								<rect x="157.76" y="278.269" fill="#F5C732" width="2.264" height="4.963"/>
							</g>
							<g>
								<rect x="161.122" y="273.054" fill="#006661" width="2.266" height="10.178"/>
								<rect x="161.122" y="277.731" fill="#DC4E3B" width="2.266" height="5.5"/>
							</g>
							<g>
								<rect x="164.485" y="273.054" fill="#006661" width="2.264" height="10.178"/>
								<rect x="164.485" y="278.638" fill="#6DBBB2" width="2.264" height="4.594"/>
							</g>
							<g>
								<rect x="167.851" y="273.054" fill="#006661" width="2.261" height="10.178"/>
								<rect x="167.851" y="279.819" fill="#F5C732" width="2.261" height="3.412"/>
							</g>
							<g>
								<rect x="171.212" y="273.054" fill="#006661" width="2.263" height="10.178"/>
								<rect x="171.212" y="279.251" fill="#DC4E3B" width="2.263" height="3.98"/>
							</g>
							<g>
								<rect x="174.575" y="273.054" fill="#006661" width="2.264" height="10.178"/>
								<rect x="174.575" y="278.214" fill="#6DBBB2" width="2.264" height="5.018"/>
							</g>
							<g>
								<rect x="177.939" y="273.054" fill="#006661" width="2.264" height="10.178"/>
								<rect x="177.939" y="279.761" fill="#F5C732" width="2.264" height="3.471"/>
							</g>
							<g>
								<rect x="181.3" y="273.054" fill="#006661" width="2.267" height="10.178"/>
								<rect x="181.3" y="281.554" fill="#DC4E3B" width="2.267" height="1.678"/>
							</g>
						</g>
					</g>
				</g>
				<path fill="none" stroke="#40A9A3" stroke-width="1.0828" stroke-miterlimit="10" d="M190.709,292.642
					c0,2.918-2.362,5.279-5.278,5.279h-36.266c-2.912,0-5.274-2.361-5.274-5.279v-21.389c0-2.918,2.363-5.275,5.274-5.275h36.266
					c2.916,0,5.278,2.357,5.278,5.275V292.642z"/>
			</g>
			<g>
				<circle fill="#40A9A3" cx="194.375" cy="268.409" r="0.893"/>
				<circle fill="#40A9A3" cx="194.375" cy="271.704" r="0.893"/>
				<path fill="#40A9A3" d="M193.476,275.009c0-0.494,0.4-0.895,0.893-0.895c0.494,0,0.893,0.4,0.893,0.895
					c0,0.49-0.398,0.891-0.893,0.891C193.875,275.899,193.476,275.499,193.476,275.009z"/>
				<circle fill="#DC4E3B" cx="194.368" cy="278.304" r="0.893"/>
				<circle fill="#DC4E3B" cx="194.368" cy="281.597" r="0.893"/>
				<path fill="#DC4E3B" d="M193.476,284.892c0-0.49,0.4-0.891,0.893-0.891c0.494,0,0.893,0.4,0.893,0.891
					c0,0.498-0.398,0.896-0.893,0.896C193.875,285.788,193.476,285.39,193.476,284.892z"/>
			</g>
			<g>
				<path fill="#40A9A3" d="M141.124,284.892c0,0.498-0.398,0.896-0.893,0.896c-0.493,0-0.894-0.398-0.894-0.896
					c0-0.49,0.4-0.891,0.894-0.891C140.726,284.001,141.124,284.401,141.124,284.892z"/>
				<circle fill="#40A9A3" cx="140.23" cy="281.597" r="0.893"/>
				<path fill="#40A9A3" d="M141.132,278.294c0,0.496-0.402,0.896-0.895,0.896s-0.893-0.4-0.893-0.896
					c0-0.488,0.4-0.889,0.893-0.889S141.132,277.806,141.132,278.294z"/>
				<circle fill="#DC4E3B" cx="140.238" cy="275.001" r="0.894"/>
				<path fill="#DC4E3B" d="M141.132,271.704c0,0.494-0.402,0.895-0.895,0.895s-0.893-0.4-0.893-0.895c0-0.49,0.4-0.891,0.893-0.891
					S141.132,271.214,141.132,271.704z"/>
				<circle fill="#DC4E3B" cx="140.238" cy="268.409" r="0.894"/>
			</g>
		</g>
		<g>
			<path fill="#FFFFFF" d="M352.378,190.446c2.885,0.881,5.929,1.32,9.134,1.32c4.005,0,12.98-1.16,26.921-3.484
				c14.422-2.082,26.2-3.125,35.334-3.125c12.178,0,20.63,0.762,25.359,2.283c5.367,1.924,9.173,4.369,11.417,7.332
				c2.242,3.445,3.365,7.973,3.365,13.58c0,5.289-0.441,8.936-1.322,10.938c-0.802,2.484-1.803,3.725-3.004,3.725l-14.542-2.764
				c1.041-0.48,1.722-1.563,2.043-3.244c0.64-1.604,0.961-4.486,0.961-8.654c0-2.242-0.441-4.207-1.322-5.889
				c-1.202-1.924-3.446-3.203-6.73-3.846c-4.086-0.721-9.494-1.082-16.225-1.082c-1.923,0-3.767,0.041-5.528,0.121v7.811
				c2.563,0.24,5.047,0.361,7.451,0.361c5.688,0,10.015-0.279,12.98-0.842c0.8-0.24,1.641-0.961,2.524-2.162v10.094
				c0,2.004-0.441,3.287-1.322,3.848c-1.282,0.641-6.009,0.961-14.182,0.961c-3.046,0-5.528-0.039-7.451-0.121v2.645
				c0,1.123-0.081,2.084-0.241,2.885c6.25,1.041,12.098,1.965,17.547,2.764c14.341,1.924,22.794,2.885,25.359,2.885
				c0.961,0,1.962-0.48,3.005-1.441l-2.644,6.971c-1.363,4.729-2.764,7.09-4.207,7.09c-2.404,0-11.819-1.281-28.243-3.846
				c-13.461-2.082-28.204-4.887-44.228-8.412c-2.163-0.482-4.007-0.881-5.528-1.203c-2.004,3.768-4.047,7.172-6.129,10.217
				c-0.961,1.604-1.883,2.686-2.764,3.244h1.563c3.044,0,4.927,1.123,5.648,3.365c4.646-0.48,11.577-1.201,20.792-2.164
				c0.319,0,0.64-0.039,0.961-0.119c-0.402-3.365-1.243-5.328-2.524-5.889h12.98c2.723,0,4.285,1.281,4.687,3.846
				c0.079,0.402,0.12,0.801,0.12,1.201c8.653-0.48,15.583-0.721,20.792-0.721c4.886,0,8.612,0.402,11.177,1.201
				c3.846,1.123,6.689,2.605,8.533,4.447c2.164,1.844,3.245,4.768,3.245,8.773c0,2.164-0.041,4.086-0.12,5.77
				c0.881-0.32,1.683-0.641,2.404-0.963v10.096c0,1.924-0.441,3.166-1.322,3.727c-1.283,0.24-3.526,0.402-6.73,0.48
				c1.04,1.523,2.323,3.365,3.846,5.529c0,0.078,2.563,3.523,7.692,10.336c0.24,0.799,1.322,1.32,3.245,1.561l-6.37,2.885
				c-3.927,2.242-6.411,3.365-7.451,3.365c-1.604,0-3.605-1.563-6.009-4.688c-15.064,1.844-31.81,2.766-50.237,2.766
				c-13.862,0-26.561-0.361-38.098-1.082c-2.404-0.24-3.686-1.162-3.846-2.764c0-1.123,0.36-5.168,1.082-12.139
				c0.64,1.279,1.722,1.961,3.245,2.043c11.457,0.559,23.995,0.84,37.617,0.84h2.885v-0.359c0.079-2.807,0.12-5.408,0.12-7.813
				c-9.776-0.078-17.307-0.24-22.595-0.48c-0.642,2.564-2.003,3.846-4.086,3.846h-14.903c2.323-0.881,3.485-3.084,3.485-6.609
				v-22.234c0-4.086-1.162-6.77-3.485-8.053h7.332c-0.402-0.16-0.682-0.279-0.841-0.361l-11.778-5.889
				c1.762-0.078,3.324-1.121,4.688-3.125c4.246-5.688,8.572-12.818,12.98-21.393c1.442-2.563,2.163-4.326,2.163-5.287
				c0-0.16-0.12-0.4-0.36-0.721c-3.927,1.041-6.411,1.563-7.452,1.563c-2.163,0-4.647-2.363-7.451-7.092L352.378,190.446z
				 M377.858,262.075h0.36c7.371,0.32,14.702,0.561,21.994,0.721c0-2.963-0.081-5.967-0.24-9.014
				c-10.576,1.201-17.949,1.965-22.114,2.283V262.075z M384.828,217.126c6.088,1.201,11.938,2.324,17.547,3.365V200.54
				c0-0.721-0.042-1.361-0.121-1.922c-5.93,0.561-11.658,1.363-17.186,2.404c-2.565,0.801-4.928,1.482-7.091,2.043l6.73,0.84
				c2.723,0.322,4.086,1.404,4.086,3.246c0,0.721-0.721,2.844-2.163,6.369C385.989,214.804,385.388,216.005,384.828,217.126z
				 M439.392,281.546c-0.961-1.924-1.442-3.285-1.442-4.088c0-0.721,0.641-1.602,1.923-2.643c-6.57,0.08-14.704,0.119-24.397,0.119
				c-0.081,3.287-0.201,5.928-0.36,7.932C423.688,282.626,431.779,282.185,439.392,281.546z M415.475,252.821
				c0.079,2.725,0.121,5.57,0.121,8.533v1.563c10.174,0,18.869-0.08,26.08-0.24v-3.605c0-3.766-1.243-5.93-3.726-6.49
				c-1.604-0.16-4.567-0.24-8.894-0.24C426.091,252.341,421.563,252.501,415.475,252.821z"/>
			<path fill="#FFFFFF" d="M482.831,190.446c2.885,0.881,5.929,1.32,9.134,1.32c4.005,0,12.98-1.16,26.921-3.484
				c14.422-2.082,26.2-3.125,35.334-3.125c12.178,0,20.63,0.762,25.359,2.283c5.367,1.924,9.173,4.369,11.417,7.332
				c2.242,3.445,3.365,7.973,3.365,13.58c0,5.289-0.441,8.936-1.322,10.938c-0.802,2.484-1.803,3.725-3.004,3.725l-14.542-2.764
				c1.041-0.48,1.722-1.563,2.043-3.244c0.64-1.604,0.961-4.486,0.961-8.654c0-2.242-0.441-4.207-1.322-5.889
				c-1.202-1.924-3.446-3.203-6.73-3.846c-4.086-0.721-9.494-1.082-16.225-1.082c-1.923,0-3.767,0.041-5.528,0.121v7.811
				c2.563,0.24,5.047,0.361,7.451,0.361c5.688,0,10.015-0.279,12.98-0.842c0.8-0.24,1.641-0.961,2.524-2.162v10.094
				c0,2.004-0.441,3.287-1.322,3.848c-1.282,0.641-6.009,0.961-14.182,0.961c-3.046,0-5.528-0.039-7.451-0.121v2.645
				c0,1.123-0.081,2.084-0.241,2.885c6.25,1.041,12.098,1.965,17.547,2.764c14.341,1.924,22.794,2.885,25.359,2.885
				c0.961,0,1.962-0.48,3.005-1.441l-2.644,6.971c-1.363,4.729-2.764,7.09-4.207,7.09c-2.404,0-11.819-1.281-28.243-3.846
				c-13.461-2.082-28.204-4.887-44.228-8.412c-2.163-0.482-4.007-0.881-5.528-1.203c-2.004,3.768-4.047,7.172-6.129,10.217
				c-0.961,1.604-1.883,2.686-2.764,3.244h1.563c3.044,0,4.927,1.123,5.648,3.365c4.646-0.48,11.577-1.201,20.792-2.164
				c0.319,0,0.64-0.039,0.961-0.119c-0.402-3.365-1.243-5.328-2.524-5.889h12.98c2.723,0,4.285,1.281,4.687,3.846
				c0.079,0.402,0.12,0.801,0.12,1.201c8.653-0.48,15.583-0.721,20.792-0.721c4.886,0,8.612,0.402,11.177,1.201
				c3.846,1.123,6.689,2.605,8.533,4.447c2.164,1.844,3.245,4.768,3.245,8.773c0,2.164-0.041,4.086-0.12,5.77
				c0.881-0.32,1.683-0.641,2.404-0.963v10.096c0,1.924-0.441,3.166-1.322,3.727c-1.283,0.24-3.526,0.402-6.73,0.48
				c1.04,1.523,2.323,3.365,3.846,5.529c0,0.078,2.563,3.523,7.692,10.336c0.24,0.799,1.322,1.32,3.245,1.561l-6.37,2.885
				c-3.927,2.242-6.411,3.365-7.451,3.365c-1.604,0-3.605-1.563-6.009-4.688c-15.064,1.844-31.81,2.766-50.237,2.766
				c-13.862,0-26.561-0.361-38.098-1.082c-2.404-0.24-3.686-1.162-3.846-2.764c0-1.123,0.36-5.168,1.082-12.139
				c0.64,1.279,1.722,1.961,3.245,2.043c11.457,0.559,23.995,0.84,37.617,0.84h2.885v-0.359c0.079-2.807,0.12-5.408,0.12-7.813
				c-9.776-0.078-17.307-0.24-22.595-0.48c-0.642,2.564-2.003,3.846-4.086,3.846H488.96c2.323-0.881,3.485-3.084,3.485-6.609
				v-22.234c0-4.086-1.162-6.77-3.485-8.053h7.332c-0.402-0.16-0.682-0.279-0.841-0.361l-11.778-5.889
				c1.762-0.078,3.324-1.121,4.688-3.125c4.246-5.688,8.572-12.818,12.98-21.393c1.442-2.563,2.163-4.326,2.163-5.287
				c0-0.16-0.12-0.4-0.36-0.721c-3.927,1.041-6.411,1.563-7.452,1.563c-2.163,0-4.647-2.363-7.451-7.092L482.831,190.446z
				 M508.311,262.075h0.36c7.371,0.32,14.702,0.561,21.994,0.721c0-2.963-0.081-5.967-0.24-9.014
				c-10.576,1.201-17.949,1.965-22.114,2.283V262.075z M515.281,217.126c6.088,1.201,11.938,2.324,17.547,3.365V200.54
				c0-0.721-0.042-1.361-0.121-1.922c-5.93,0.561-11.658,1.363-17.186,2.404c-2.565,0.801-4.928,1.482-7.091,2.043l6.73,0.84
				c2.723,0.322,4.086,1.404,4.086,3.246c0,0.721-0.721,2.844-2.163,6.369C516.441,214.804,515.841,216.005,515.281,217.126z
				 M569.845,281.546c-0.961-1.924-1.442-3.285-1.442-4.088c0-0.721,0.641-1.602,1.923-2.643c-6.57,0.08-14.704,0.119-24.397,0.119
				c-0.081,3.287-0.201,5.928-0.36,7.932C554.14,282.626,562.232,282.185,569.845,281.546z M545.928,252.821
				c0.079,2.725,0.121,5.57,0.121,8.533v1.563c10.174,0,18.869-0.08,26.08-0.24v-3.605c0-3.766-1.243-5.93-3.726-6.49
				c-1.604-0.16-4.567-0.24-8.894-0.24C556.543,252.341,552.016,252.501,545.928,252.821z"/>
			<path fill="#FFFFFF" d="M684.313,260.032c0,8.734-3.485,15.424-10.456,20.07c-6.09,4.086-13.743,6.129-22.956,6.129
				c-5.449,0-11.297-0.883-17.547-2.643c-0.961,1.602-3.004,2.402-6.129,2.402h-13.821c1.361-0.721,2.323-1.322,2.884-1.803
				c0.881-0.643,1.401-1.521,1.563-2.643c0.319-1.924,0.68-6.25,1.082-12.98c0.48-9.375,0.721-18.027,0.721-25.961
				c0-11.135-0.721-23.514-2.164-37.137c-0.161-1.602-1.322-3.082-3.485-4.445h14.422c2.242,0,3.805,0.922,4.687,2.764
				c7.211-1.842,13.701-2.764,19.47-2.764c7.771,0,13.941,1.723,18.508,5.168c5.127,3.846,7.692,9.535,7.692,17.064
				c0,6.893-2.806,12.301-8.413,16.227c3.846,1.922,7.091,4.727,9.735,8.412C682.91,251.819,684.313,255.866,684.313,260.032z
				 M662.8,223.737c0-5.77-4.608-8.654-13.821-8.654c-3.046,0-7.853,0.883-14.422,2.645c0.48,5.768,0.76,11.658,0.841,17.666
				c2.083,0.082,3.925,0.121,5.528,0.121C655.508,235.515,662.8,231.589,662.8,223.737z M668.208,259.671
				c0-4.086-2.003-7.09-6.009-9.014c-2.965-1.682-6.73-2.523-11.297-2.523c-4.807,0-9.975,0.201-15.503,0.602
				c-0.081,6.248-0.282,13.262-0.601,21.031c5.688,1.523,11.057,2.283,16.104,2.283c4.086,0,7.852-1,11.297-3.004
				C666.205,266.724,668.208,263.599,668.208,259.671z"/>
			<path fill="#FFFFFF" d="M771.619,244.288c0,12.34-3.085,22.275-9.254,29.805c-6.73,8.092-16.104,12.139-28.123,12.139
				c-11.538,0-20.593-4.205-27.162-12.619c-6.171-7.691-9.254-17.465-9.254-29.324c0-11.057,3.245-20.832,9.735-29.324
				c7.05-9.295,15.943-13.941,26.681-13.941c10.174,0,18.869,3.244,26.08,9.734c0.961,1.041,2.443,2.604,4.447,4.688
				c1.521,1.521,3.564,2.203,6.129,2.043l-4.447,3.125C769.896,227.423,771.619,235.315,771.619,244.288z M755.635,244.288
				c0-6.65-1.403-12.02-4.207-16.105c-0.882-1.201-2.805-1.881-5.769-2.043l4.447-2.764c-5.128-4.727-10.417-7.092-15.864-7.092
				c-6.25,0-11.339,3.246-15.264,9.736c-3.365,5.609-5.047,11.699-5.047,18.268c0,6.73,1.683,12.74,5.047,18.027
				c3.765,6.01,8.853,9.014,15.264,9.014c6.73,0,12.097-2.924,16.104-8.773C753.872,257.509,755.635,251.421,755.635,244.288z"/>
			<path fill="#FFFFFF" d="M855.44,198.978c0,0.963-0.042,3.125-0.12,6.49c0,2.645,0,4.768,0,6.371c0,3.125-1.683,4.887-5.048,5.287
				c-3.686,0.402-10.738,0.762-21.152,1.082c0.64,11.297,0.961,20.953,0.961,28.965v1.803c-0.081,14.342-0.562,24.559-1.442,30.646
				c-0.562,3.846-2.604,5.77-6.129,5.77h-15.984c1.683-0.803,2.843-1.484,3.485-2.043c1.041-0.803,1.641-1.965,1.803-3.486
				c1.041-7.852,1.563-20.832,1.563-38.939c0-8.973-0.282-16.586-0.841-22.836c-8.094,0-15.584-0.318-22.475-0.961
				c-3.125-0.318-4.888-2.162-5.288-5.527c-0.161-1.363-0.24-5.449-0.24-12.26c1.683,1.764,3.245,2.725,4.687,2.885
				c8.333,1.043,18.749,1.563,31.248,1.563c6.49,0,13.46-0.24,20.912-0.721c2.002,0,4.967-0.16,8.894-0.482
				C852.034,202.425,853.758,201.222,855.44,198.978z"/>
		</g>
	</g>
</g>
</svg>
