<svg xmlns="http://www.w3.org/2000/svg" viewBox="0 0 230 64"><defs><style>.cls-1,.cls-6{fill:#fff;}.cls-1{stroke:#f5a214;stroke-width:1.81px;}.cls-1,.cls-18{stroke-miterlimit:10;}.cls-2{fill:#f7fcfe;}.cls-10,.cls-18,.cls-3{fill:none;}.cls-3{stroke:#1d2539;stroke-width:0.43px;}.cls-10,.cls-3{stroke-linecap:round;stroke-linejoin:round;}.cls-4{fill:#dbdad6;opacity:0.2;}.cls-5{fill:#eacc2c;}.cls-7{fill:#424042;}.cls-8{fill:#40a9a3;}.cls-9{fill:#39375a;}.cls-10{stroke:#f1d01f;stroke-width:0.18px;}.cls-11{fill:#f1d01f;}.cls-12{fill:#dc4e3b;}.cls-13{fill:#f2db59;}.cls-14{fill:#004643;}.cls-15{fill:#006661;}.cls-16{fill:#6dbbb2;}.cls-17{fill:#f5c732;}.cls-18{stroke:#40a9a3;stroke-width:0.27px;}.cls-19{fill:#1b2438;}</style></defs><title>專題網頁</title><g id="圖層_2" data-name="圖層 2"><circle class="cls-1" cx="31.31" cy="34.12" r="23.11"/><path class="cls-2" d="M41.3,38.39c0,9.19-4.57,12.07-10.25,12.07S20.73,47.59,20.73,38.39,25.34,21.75,31,21.75,41.3,29.2,41.3,38.39Z"/><path class="cls-3" d="M39.33,46.61c-1.86,2.82-4.87,3.86-8.28,3.86-5.68,0-10.31-2.88-10.31-12.07S25.34,21.75,31,21.75,41.3,29.2,41.3,38.39q0,.26,0,.52"/><path class="cls-3" d="M41.17,40.89a16.4,16.4,0,0,1-.5,2.68"/><path class="cls-4" d="M21.54,35a15.31,15.31,0,0,1,7-12.72c-4.46,1.82-7.76,8.35-7.76,16.14,0,9.19,4.64,12.07,10.31,12.07a13,13,0,0,0,3.5-.44A15.39,15.39,0,0,1,21.54,35Z"/><circle class="cls-5" cx="31.19" cy="32.65" r="6.69"/><circle class="cls-6" cx="28.81" cy="30.72" r="1.93"/><circle class="cls-7" cx="28.81" cy="30.72" r="1.01"/><circle class="cls-6" cx="28.2" cy="30.07" r="0.61"/><circle class="cls-6" cx="33.58" cy="30.72" r="1.93"/><circle class="cls-7" cx="33.58" cy="30.72" r="1.01"/><circle class="cls-6" cx="34.19" cy="30.07" r="0.61"/><circle class="cls-8" cx="33.58" cy="30.68" r="1.63"/><circle class="cls-9" cx="33.58" cy="30.68" r="1.24"/><circle class="cls-6" cx="34.16" cy="30.09" r="0.25"/><circle class="cls-8" cx="28.81" cy="30.68" r="1.63"/><circle class="cls-9" cx="28.81" cy="30.68" r="1.24"/><circle class="cls-6" cx="28.23" cy="30.09" r="0.25"/><path class="cls-9" d="M29.82,35.24h2.74v.88a1.37,1.37,0,0,1-1.37,1.37h0a1.37,1.37,0,0,1-1.37-1.37Z"/><rect class="cls-6" x="29.82" y="35.24" width="2.74" height="0.74"/><polyline class="cls-10" points="27.06 19.39 28.81 19.39 30.09 17.78 31.13 21.03 32.01 18.33 32.62 19.4 35.78 19.4"/><path class="cls-11" d="M27.5,18.79a1,1,0,1,0-.41,1.47l2.25,3.41a.13.13,0,0,0,.22-.15l-2.25-3.41A1,1,0,0,0,27.5,18.79Z"/><path class="cls-11" d="M34.53,18.79a1,1,0,1,1,.41,1.47L32.7,23.67a.13.13,0,0,1-.22-.15l2.25-3.41A1,1,0,0,1,34.53,18.79Z"/><path class="cls-12" d="M19.95,39.23a1.41,1.41,0,0,1-1.4-1.41h0V31.55h1.35v6.28h.73v1.41Z"/><path class="cls-11" d="M20.61,28.78l-.69.67a1,1,0,1,1-1.5.1L17.65,29a1.93,1.93,0,0,0-.39,1.16,1.95,1.95,0,1,0,3.34-1.36Z"/><path class="cls-12" d="M41.71,34.94a1.41,1.41,0,0,1,1.55,1.25h0l.67,6.24-1.34.14-.67-6.24-.72.08L41,35Z"/><path class="cls-11" d="M42.16,45.41l.61-.74a1,1,0,1,1,1.48-.26l.83.49a1.95,1.95,0,1,0-2.92.51Z"/><path class="cls-8" d="M36.6,41.46a.52.52,0,0,0-.71-.71Z"/><path class="cls-8" d="M35.73,40.9a.52.52,0,0,0,.71.71Z"/><path class="cls-8" d="M36.6,47.5a.52.52,0,0,0-.71-.71Z"/><path class="cls-8" d="M35.73,46.94a.52.52,0,0,0,.71.71Z"/><path class="cls-8" d="M27,47.5a.52.52,0,0,0-.71-.71Z"/><path class="cls-8" d="M26.09,46.94a.52.52,0,0,0,.71.71Z"/><path class="cls-8" d="M27,41.57a.52.52,0,0,0-.71-.71Z"/><path class="cls-8" d="M26.09,41a.52.52,0,0,0,.71.71Z"/><rect class="cls-12" x="26.86" y="45.14" width="1.45" height="1.28"/><rect class="cls-13" x="28.72" y="45.14" width="1.45" height="1.28"/><rect class="cls-12" x="30.58" y="45.14" width="1.45" height="1.28"/><rect class="cls-13" x="32.44" y="45.14" width="1.45" height="1.28"/><rect class="cls-13" x="34.31" y="45.14" width="1.45" height="1.28"/><rect class="cls-14" x="26.86" y="41.95" width="8.9" height="2.56" rx="0.16" ry="0.16"/><rect class="cls-15" x="27.23" y="41.95" width="0.57" height="2.56"/><rect class="cls-12" x="27.23" y="44.08" width="0.57" height="0.42"/><rect class="cls-15" x="28.07" y="41.95" width="0.57" height="2.56"/><rect class="cls-16" x="28.07" y="43.44" width="0.57" height="1.07"/><rect class="cls-15" x="28.91" y="41.95" width="0.57" height="2.56"/><rect class="cls-17" x="28.91" y="43.26" width="0.57" height="1.25"/><rect class="cls-15" x="29.76" y="41.95" width="0.57" height="2.56"/><rect class="cls-12" x="29.76" y="43.12" width="0.57" height="1.38"/><rect class="cls-15" x="30.6" y="41.95" width="0.57" height="2.56"/><rect class="cls-16" x="30.6" y="43.35" width="0.57" height="1.15"/><rect class="cls-15" x="31.45" y="41.95" width="0.57" height="2.56"/><rect class="cls-17" x="31.45" y="43.65" width="0.57" height="0.86"/><rect class="cls-15" x="32.29" y="41.95" width="0.57" height="2.56"/><rect class="cls-12" x="32.29" y="43.51" width="0.57" height="1"/><rect class="cls-15" x="33.14" y="41.95" width="0.57" height="2.56"/><rect class="cls-16" x="33.14" y="43.25" width="0.57" height="1.26"/><rect class="cls-15" x="33.98" y="41.95" width="0.57" height="2.56"/><rect class="cls-17" x="33.98" y="43.63" width="0.57" height="0.87"/><rect class="cls-15" x="34.83" y="41.95" width="0.57" height="2.56"/><rect class="cls-12" x="34.83" y="44.08" width="0.57" height="0.42"/><rect class="cls-18" x="25.43" y="40.17" width="11.76" height="8.02" rx="1.32" ry="1.32"/><circle class="cls-8" cx="38.11" cy="40.78" r="0.22"/><circle class="cls-8" cx="38.11" cy="41.61" r="0.22"/><circle class="cls-8" cx="38.11" cy="42.44" r="0.22"/><circle class="cls-12" cx="38.11" cy="43.27" r="0.22"/><circle class="cls-12" cx="38.11" cy="44.1" r="0.22"/><circle class="cls-12" cx="38.11" cy="44.92" r="0.22"/><circle class="cls-8" cx="24.51" cy="44.92" r="0.22"/><circle class="cls-8" cx="24.51" cy="44.1" r="0.22"/><circle class="cls-8" cx="24.51" cy="43.27" r="0.22"/><circle class="cls-12" cx="24.51" cy="42.44" r="0.22"/><circle class="cls-12" cx="24.51" cy="41.61" r="0.22"/><circle class="cls-12" cx="24.51" cy="40.78" r="0.22"/><path class="cls-19" d="M77.78,21.21a7.79,7.79,0,0,0,2.29.33,55.17,55.17,0,0,0,6.76-.87,64.62,64.62,0,0,1,8.87-.79,23.83,23.83,0,0,1,6.37.57,6.07,6.07,0,0,1,2.87,1.84,6.17,6.17,0,0,1,.85,3.41,7.71,7.71,0,0,1-.33,2.75q-.3.93-.75.93L101,28.69a1,1,0,0,0,.51-.82,6.63,6.63,0,0,0,.24-2.17,3.15,3.15,0,0,0-.33-1.48,2.42,2.42,0,0,0-1.69-1A24.46,24.46,0,0,0,95.71,23q-.72,0-1.39,0v2q1,.09,1.87.09a18.75,18.75,0,0,0,3.26-.21,1.37,1.37,0,0,0,.63-.54v2.54q0,.75-.33,1a13.37,13.37,0,0,1-3.56.24q-1.15,0-1.87,0v.66a3.75,3.75,0,0,1-.06.72q2.35.39,4.41.69,5.4.73,6.37.72a1.15,1.15,0,0,0,.75-.36l-.66,1.75Q104.61,34,104.07,34q-.91,0-7.09-1-5.07-.79-11.11-2.11l-1.39-.3a27.06,27.06,0,0,1-1.54,2.57,2.45,2.45,0,0,1-.69.82h.39a1.3,1.3,0,0,1,1.42.84l5.22-.54a1,1,0,0,0,.24,0q-.15-1.27-.63-1.48h3.26a1.05,1.05,0,0,1,1.18,1,1.55,1.55,0,0,1,0,.3q3.26-.18,5.22-.18a10,10,0,0,1,2.81.3,5,5,0,0,1,2.14,1.12,2.74,2.74,0,0,1,.81,2.2q0,.81,0,1.45l.6-.24v2.54q0,.72-.33.94a12.29,12.29,0,0,1-1.69.12l1,1.39s.64.88,1.93,2.6c.06.2.33.33.81.39l-1.6.72a5.88,5.88,0,0,1-1.87.84q-.6,0-1.51-1.18A104.46,104.46,0,0,1,89,47.76q-5.22,0-9.57-.27-.91-.09-1-.69,0-.42.27-3a.9.9,0,0,0,.81.51q4.31.21,9.45.21h.72v-.09q0-1.06,0-2-3.68,0-5.67-.12-.24,1-1,1H79.32q.88-.33.88-1.66V36a2.1,2.1,0,0,0-.88-2h1.84L81,33.91l-3-1.48a1.53,1.53,0,0,0,1.18-.79,38.35,38.35,0,0,0,3.26-5.37A3.53,3.53,0,0,0,83,24.95a.37.37,0,0,0-.09-.18,10.36,10.36,0,0,1-1.87.39q-.81,0-1.87-1.78Zm6.4,18h.09q2.78.12,5.52.18,0-1.12-.06-2.26-4,.45-5.55.57Zm1.75-11.29,4.41.85v-5a3.47,3.47,0,0,0,0-.48q-2.23.21-4.32.6-1,.3-1.78.51l1.69.21q1,.12,1,.81a7.19,7.19,0,0,1-.54,1.6Zm13.7,16.18a2.81,2.81,0,0,1-.36-1q0-.27.48-.66-2.47,0-6.13,0,0,1.24-.09,2Q96.76,44.32,99.63,44.08Zm-6-7.21q0,1,0,2.14v.39q3.83,0,6.55-.06v-.91q0-1.42-.94-1.63-.6-.06-2.23-.06Q95.92,36.75,93.63,36.87Z"/><path class="cls-19" d="M110.54,21.21a7.79,7.79,0,0,0,2.29.33,55.17,55.17,0,0,0,6.76-.87,64.62,64.62,0,0,1,8.87-.79,23.83,23.83,0,0,1,6.37.57,6.07,6.07,0,0,1,2.87,1.84,6.17,6.17,0,0,1,.85,3.41,7.71,7.71,0,0,1-.33,2.75q-.3.93-.75.93l-3.65-.69a1,1,0,0,0,.51-.82,6.63,6.63,0,0,0,.24-2.17,3.15,3.15,0,0,0-.33-1.48,2.42,2.42,0,0,0-1.69-1,24.46,24.46,0,0,0-4.07-.27q-.72,0-1.39,0v2q1,.09,1.87.09a18.75,18.75,0,0,0,3.26-.21,1.37,1.37,0,0,0,.63-.54v2.54q0,.75-.33,1a13.37,13.37,0,0,1-3.56.24q-1.15,0-1.87,0v.66a3.75,3.75,0,0,1-.06.72q2.35.39,4.41.69,5.4.73,6.37.72a1.15,1.15,0,0,0,.75-.36l-.66,1.75Q137.37,34,136.82,34q-.91,0-7.09-1-5.07-.79-11.11-2.11l-1.39-.3a27.06,27.06,0,0,1-1.54,2.57A2.45,2.45,0,0,1,115,34h.39a1.3,1.3,0,0,1,1.42.84L122,34.3a1,1,0,0,0,.24,0q-.15-1.27-.63-1.48h3.26a1.05,1.05,0,0,1,1.18,1,1.55,1.55,0,0,1,0,.3q3.26-.18,5.22-.18a10,10,0,0,1,2.81.3,5,5,0,0,1,2.14,1.12,2.74,2.74,0,0,1,.81,2.2q0,.81,0,1.45l.6-.24v2.54q0,.72-.33.94a12.29,12.29,0,0,1-1.69.12l1,1.39s.64.88,1.93,2.6c.06.2.33.33.81.39l-1.6.72a5.88,5.88,0,0,1-1.87.84q-.6,0-1.51-1.18a104.46,104.46,0,0,1-12.61.69q-5.22,0-9.57-.27-.91-.09-1-.69,0-.42.27-3a.9.9,0,0,0,.81.51q4.31.21,9.45.21h.72v-.09q0-1.06,0-2-3.68,0-5.67-.12-.24,1-1,1h-3.74q.88-.33.88-1.66V36a2.1,2.1,0,0,0-.88-2h1.84l-.21-.09-3-1.48a1.53,1.53,0,0,0,1.18-.79,38.35,38.35,0,0,0,3.26-5.37,3.53,3.53,0,0,0,.54-1.33.37.37,0,0,0-.09-.18,10.36,10.36,0,0,1-1.87.39q-.81,0-1.87-1.78Zm6.4,18H117q2.78.12,5.52.18,0-1.12-.06-2.26-4,.45-5.55.57Zm1.75-11.29,4.41.85v-5a3.47,3.47,0,0,0,0-.48q-2.23.21-4.32.6-1,.3-1.78.51l1.69.21q1,.12,1,.81a7.19,7.19,0,0,1-.54,1.6Zm13.7,16.18a2.81,2.81,0,0,1-.36-1q0-.27.48-.66-2.47,0-6.13,0,0,1.24-.09,2Q129.52,44.32,132.39,44.08Zm-6-7.21q0,1,0,2.14v.39q3.83,0,6.55-.06v-.91q0-1.42-.94-1.63-.6-.06-2.23-.06Q128.67,36.75,126.38,36.87Z"/><path class="cls-19" d="M161.13,38.68a5.69,5.69,0,0,1-2.63,5,10.13,10.13,0,0,1-5.76,1.54,16.29,16.29,0,0,1-4.41-.66,1.66,1.66,0,0,1-1.54.6h-3.47a4.27,4.27,0,0,0,.72-.45,1,1,0,0,0,.39-.66q.12-.73.27-3.26.18-3.53.18-6.52a89.19,89.19,0,0,0-.54-9.33,1.61,1.61,0,0,0-.87-1.12h3.62a1.19,1.19,0,0,1,1.18.69,20,20,0,0,1,4.89-.69,7.55,7.55,0,0,1,4.65,1.3,5,5,0,0,1,1.93,4.29,4.71,4.71,0,0,1-2.11,4.07,6.64,6.64,0,0,1,2.44,2.11A5.19,5.19,0,0,1,161.13,38.68Zm-5.4-9.11q0-2.17-3.47-2.17a15.84,15.84,0,0,0-3.62.66q.18,2.17.21,4.44l1.39,0Q155.73,32.52,155.73,29.57Zm1.36,9a2.38,2.38,0,0,0-1.51-2.26,5.69,5.69,0,0,0-2.84-.63q-1.81,0-3.89.15,0,2.35-.15,5.28a15.65,15.65,0,0,0,4,.57,5.55,5.55,0,0,0,2.84-.75A2.64,2.64,0,0,0,157.09,38.59Z"/><path class="cls-19" d="M183.05,34.73a11.44,11.44,0,0,1-2.32,7.48,8.68,8.68,0,0,1-7.06,3,8.18,8.18,0,0,1-6.82-3.17,11.39,11.39,0,0,1-2.32-7.36A11.8,11.8,0,0,1,167,27.36a8.09,8.09,0,0,1,6.7-3.5,9.45,9.45,0,0,1,6.55,2.44l1.12,1.18a1.9,1.9,0,0,0,1.54.51l-1.12.78A13,13,0,0,1,183.05,34.73Zm-4,0a7,7,0,0,0-1.06-4,1.88,1.88,0,0,0-1.45-.51l1.12-.69a5.87,5.87,0,0,0-4-1.78,4.38,4.38,0,0,0-3.83,2.44,8.76,8.76,0,0,0-1.27,4.59,8.25,8.25,0,0,0,1.27,4.53,4.34,4.34,0,0,0,3.83,2.26,4.67,4.67,0,0,0,4-2.2A7.81,7.81,0,0,0,179,34.73Z"/><path class="cls-19" d="M204.1,23.35q0,.36,0,1.63v1.6a1.24,1.24,0,0,1-1.27,1.33q-1.39.15-5.31.27.24,4.26.24,7.27v.45a63.78,63.78,0,0,1-.36,7.7A1.45,1.45,0,0,1,195.83,45h-4a4.16,4.16,0,0,0,.88-.51,1.21,1.21,0,0,0,.45-.87,84.33,84.33,0,0,0,.39-9.78q0-3.38-.21-5.73-3,0-5.64-.24a1.39,1.39,0,0,1-1.33-1.39q-.06-.51-.06-3.08a2.06,2.06,0,0,0,1.18.72,65,65,0,0,0,7.85.39q2.44,0,5.25-.18.75,0,2.23-.12A2,2,0,0,0,204.1,23.35Z"/></g></svg>