<svg xmlns="http://www.w3.org/2000/svg" viewBox="0 0 230 64"><defs><style>.cls-1,.cls-4{fill:#fff;}.cls-1{stroke:#f5a214;stroke-miterlimit:10;stroke-width:1.81px;}.cls-2{opacity:0.6;}.cls-3{fill:#333230;}.cls-5{fill:#6ac4c1;}.cls-6{fill:#c4e5e5;}.cls-7{fill:#cf4116;}.cls-8{fill:#f7fcfe;}.cls-20,.cls-23,.cls-9{fill:none;stroke-linecap:round;stroke-linejoin:round;}.cls-20,.cls-9{stroke:#1d2539;}.cls-9{stroke-width:0.43px;}.cls-10{fill:#dbdad6;opacity:0.2;}.cls-11{fill:#eacc2c;}.cls-12{fill:#3d3c3d;}.cls-13{fill:#e04830;}.cls-14{fill:#222a2b;}.cls-15{fill:#3f4e50;}.cls-16{fill:#2d333a;}.cls-17{fill:#64c2bd;}.cls-18{fill:#fbfbf5;}.cls-19{fill:#dcdcdc;}.cls-20{stroke-width:0.18px;}.cls-21{fill:#1d353d;}.cls-22{fill:#d11b1a;}.cls-23{stroke:#874222;stroke-width:0.73px;}.cls-24{fill:#1b2438;}</style></defs><title>專題網頁</title><g id="圖層_2" data-name="圖層 2"><circle class="cls-1" cx="31.31" cy="31.69" r="23.11"/><g class="cls-2"><path class="cls-3" d="M28.37,22.5H20.42v-.41a.33.33,0,0,0-.33-.33H16.53a.33.33,0,0,0-.33.33v.41H16a.33.33,0,0,0-.33.33v.55h13v-.55A.33.33,0,0,0,28.37,22.5Z"/><path class="cls-4" d="M15.67,23.38v8.76a.33.33,0,0,0,.33.33H28.37a.33.33,0,0,0,.33-.33V23.38Z"/><rect class="cls-5" x="16.2" y="23.84" width="12.03" height="8.13" rx="0.04" ry="0.04"/><circle class="cls-4" cx="18.12" cy="22.23" r="0.2"/><circle class="cls-6" cx="19.33" cy="22.23" r="0.2"/><rect class="cls-4" x="16.9" y="29.67" width="1.01" height="1.99"/><rect class="cls-4" x="18.48" y="29.06" width="1.01" height="2.6"/><rect class="cls-4" x="20.06" y="28.5" width="1.01" height="3.16"/><rect class="cls-4" x="21.64" y="30.08" width="1.01" height="1.58"/><rect class="cls-4" x="23.22" y="29.41" width="1.01" height="2.25"/><rect class="cls-4" x="24.8" y="27.37" width="1.01" height="4.29"/><polygon class="cls-4" points="23.19 28.39 21.25 26.43 17.54 27.81 17.43 27.51 21.34 26.06 23.21 27.95 26.9 24.72 27.11 24.96 23.19 28.39"/><circle class="cls-7" cx="17.49" cy="27.68" r="0.47"/><circle class="cls-7" cx="21.29" cy="26.34" r="0.47"/><circle class="cls-7" cx="23.2" cy="28.11" r="0.47"/><circle class="cls-7" cx="26.96" cy="24.87" r="0.47"/><circle class="cls-5" cx="16.86" cy="22.23" r="0.2"/><rect class="cls-4" x="26.46" y="26.34" width="1.01" height="5.33"/></g><path class="cls-8" d="M46.67,34C46.67,43.16,42.09,46,36.42,46S26.1,43.16,26.1,34s4.6-16.64,10.28-16.64S46.67,24.78,46.67,34Z"/><path class="cls-9" d="M26.57,38.5A20,20,0,0,1,26.1,34a26.17,26.17,0,0,1,.52-5.24"/><path class="cls-9" d="M28.64,23c1.88-3.49,4.66-5.69,7.74-5.69,5.68,0,10.28,7.45,10.28,16.64S42.09,46,36.42,46c-3.24,0-6.13-.94-8-3.44"/><path class="cls-10" d="M26.91,30.55a15.31,15.31,0,0,1,7-12.72C29.4,19.66,26.1,26.19,26.1,34,26.1,43.16,30.74,46,36.42,46a13,13,0,0,0,3.5-.44A15.39,15.39,0,0,1,26.91,30.55Z"/><circle class="cls-11" cx="36.56" cy="28.23" r="6.69"/><ellipse class="cls-12" cx="33.36" cy="26.55" rx="0.54" ry="0.85"/><ellipse class="cls-12" cx="39.57" cy="26.55" rx="0.54" ry="0.85"/><ellipse class="cls-13" cx="36.56" cy="31.94" rx="0.65" ry="0.92"/><rect class="cls-14" x="38.01" y="36.48" width="0.73" height="0.07"/><polygon class="cls-14" points="37.46 36.39 36.73 36.35 36.73 36.34 36.57 36.35 36.4 36.34 36.4 36.35 35.66 36.39 35.86 36.6 36.73 36.6 36.73 36.6 37.26 36.6 37.46 36.39"/><rect class="cls-15" x="35.66" y="35.9" width="1.79" height="0.5"/><path class="cls-15" d="M34.1,39.5a.18.18,0,0,0,.18.18h4.57A.18.18,0,0,0,39,39.5v-.93H34.1Z"/><path class="cls-15" d="M39,36.7a.18.18,0,0,0-.17-.18H34.28a.18.18,0,0,0-.18.18v.93H39Z"/><rect class="cls-16" x="34.1" y="37.63" width="4.92" height="0.94"/><circle class="cls-17" cx="36.56" cy="38.16" r="1.35"/><rect class="cls-17" x="36" y="36.01" width="1.13" height="0.26"/><rect class="cls-15" x="37.98" y="36.29" width="0.78" height="0.19"/><circle class="cls-17" cx="34.46" cy="36.86" r="0.17"/><path class="cls-18" d="M37.35,37.49,35.8,38.86a1,1,0,0,0,1.55-1.37Z"/><path class="cls-19" d="M36.56,37.12a1,1,0,0,0-.76,1.74l1.55-1.37A1,1,0,0,0,36.56,37.12Z"/><path class="cls-20" d="M26.21,31.56s4.09,5.54,7.89,6.07"/><path class="cls-20" d="M46.67,31.56s-4.09,5.54-7.89,6.07"/><path class="cls-21" d="M42.31,34.06l-.26.34-.52.69-.25.33a.12.12,0,0,0,0,.17l5.33,3.53a.12.12,0,0,0,.17,0h0l.53-.69h0a.12.12,0,0,0,0-.17L42.48,34A.12.12,0,0,0,42.31,34.06Z"/><circle class="cls-21" cx="39.66" cy="33.12" r="1.56" transform="translate(-10.72 44.58) rotate(-52.67)"/><path class="cls-22" d="M40.66,31.81a.11.11,0,0,1,0,.16l-1.86,2.44a.11.11,0,0,1-.16,0h0a.11.11,0,0,1,0-.16l1.86-2.44a.11.11,0,0,1,.16,0Z"/><path class="cls-22" d="M39.88,33.46h2.81a.18.18,0,0,1,.18.18v1.45a.18.18,0,0,1-.18.18H39.88a.18.18,0,0,1-.18-.18V33.63A.17.17,0,0,1,39.88,33.46Z" transform="translate(-11.07 46.35) rotate(-52.67)"/><path class="cls-4" d="M40.6,34.69l-.18.24-.17-.13.52-.68.17.13-.18.24.72.55-.15.2Z"/><path class="cls-4" d="M41.92,34.44l-1.1-.39.17-.22.46.18.38.16h0c-.09-.1-.17-.21-.25-.32l-.29-.4.16-.21.66,1Z"/><line class="cls-23" x1="23.44" y1="31.56" x2="27.11" y2="35.61"/><path class="cls-24" d="M60.82,18.77a7.79,7.79,0,0,0,2.29.33,55.15,55.15,0,0,0,6.76-.87,64.62,64.62,0,0,1,8.87-.79,23.83,23.83,0,0,1,6.37.57A6.07,6.07,0,0,1,88,19.86a6.17,6.17,0,0,1,.84,3.41A7.69,7.69,0,0,1,88.5,26q-.3.93-.75.93l-3.65-.69a1,1,0,0,0,.51-.82,6.65,6.65,0,0,0,.24-2.17,3.15,3.15,0,0,0-.33-1.48,2.42,2.42,0,0,0-1.69-1,24.46,24.46,0,0,0-4.07-.27q-.73,0-1.39,0v2q1,.09,1.87.09a18.76,18.76,0,0,0,3.26-.21,1.37,1.37,0,0,0,.63-.54v2.54q0,.75-.33,1a13.38,13.38,0,0,1-3.56.24q-1.15,0-1.87,0v.66a3.75,3.75,0,0,1-.06.72q2.35.39,4.41.69,5.4.73,6.37.72a1.14,1.14,0,0,0,.75-.36l-.66,1.75q-.51,1.78-1.06,1.78-.91,0-7.09-1-5.07-.79-11.11-2.11l-1.39-.3A26.86,26.86,0,0,1,66,30.75a2.44,2.44,0,0,1-.69.82h.39a1.3,1.3,0,0,1,1.42.84l5.22-.54a1,1,0,0,0,.24,0q-.15-1.27-.63-1.48h3.26a1.05,1.05,0,0,1,1.18,1,1.51,1.51,0,0,1,0,.3q3.26-.18,5.22-.18a10,10,0,0,1,2.81.3,5,5,0,0,1,2.14,1.12,2.74,2.74,0,0,1,.82,2.2q0,.81,0,1.45l.6-.24v2.54q0,.72-.33.94a12.31,12.31,0,0,1-1.69.12l1,1.39s.64.88,1.93,2.6c.06.2.33.33.81.39L88,45a5.89,5.89,0,0,1-1.87.84q-.6,0-1.51-1.18A104.46,104.46,0,0,1,72,45.33q-5.22,0-9.57-.27-.91-.09-1-.69,0-.42.27-3a.9.9,0,0,0,.81.51Q66.92,42,72,42h.72v-.09q0-1.06,0-2-3.68,0-5.67-.12-.24,1-1,1H62.36q.87-.33.88-1.66V33.59a2.1,2.1,0,0,0-.87-2H64.2L64,31.48,61,30a1.53,1.53,0,0,0,1.18-.79,38.35,38.35,0,0,0,3.26-5.37A3.53,3.53,0,0,0,66,22.51a.37.37,0,0,0-.09-.18,10.34,10.34,0,0,1-1.87.39q-.81,0-1.87-1.78Zm6.4,18h.09q2.78.12,5.52.18,0-1.12-.06-2.26-4,.45-5.55.57ZM69,25.47l4.41.85v-5a3.4,3.4,0,0,0,0-.48q-2.23.21-4.32.6-1,.3-1.78.51l1.69.21q1,.12,1,.81a7.17,7.17,0,0,1-.54,1.6Zm13.7,16.18a2.82,2.82,0,0,1-.36-1q0-.27.48-.66-2.48,0-6.13,0,0,1.24-.09,2Q79.8,41.89,82.67,41.65Zm-6-7.21q0,1,0,2.14V37q3.83,0,6.55-.06V36q0-1.42-.94-1.63-.6-.06-2.23-.06Q79,34.31,76.67,34.43Z"/><path class="cls-24" d="M93.58,18.77a7.8,7.8,0,0,0,2.29.33,55.18,55.18,0,0,0,6.76-.87,64.61,64.61,0,0,1,8.87-.79,23.84,23.84,0,0,1,6.37.57,6.07,6.07,0,0,1,2.87,1.84,6.16,6.16,0,0,1,.85,3.41,7.72,7.72,0,0,1-.33,2.75q-.3.93-.75.93l-3.65-.69a1,1,0,0,0,.51-.82,6.62,6.62,0,0,0,.24-2.17,3.15,3.15,0,0,0-.33-1.48,2.42,2.42,0,0,0-1.69-1,24.45,24.45,0,0,0-4.07-.27q-.72,0-1.39,0v2q1,.09,1.87.09a18.75,18.75,0,0,0,3.26-.21,1.37,1.37,0,0,0,.63-.54v2.54q0,.75-.33,1a13.37,13.37,0,0,1-3.56.24q-1.15,0-1.87,0v.66a3.75,3.75,0,0,1-.06.72q2.35.39,4.41.69,5.4.73,6.37.72a1.15,1.15,0,0,0,.75-.36l-.66,1.75q-.51,1.78-1.06,1.78-.91,0-7.09-1-5.07-.79-11.11-2.11l-1.39-.3a27.27,27.27,0,0,1-1.54,2.57,2.46,2.46,0,0,1-.69.82h.39a1.3,1.3,0,0,1,1.42.84l5.22-.54a1,1,0,0,0,.24,0q-.15-1.27-.63-1.48h3.26a1.05,1.05,0,0,1,1.18,1,1.59,1.59,0,0,1,0,.3q3.26-.18,5.22-.18a10,10,0,0,1,2.81.3,5,5,0,0,1,2.14,1.12,2.74,2.74,0,0,1,.81,2.2q0,.81,0,1.45l.6-.24v2.54q0,.72-.33.94a12.27,12.27,0,0,1-1.69.12l1,1.39s.64.88,1.93,2.6c.06.2.33.33.81.39l-1.6.72a5.88,5.88,0,0,1-1.87.84q-.6,0-1.51-1.18a104.45,104.45,0,0,1-12.61.69q-5.22,0-9.57-.27-.91-.09-1-.69,0-.42.27-3a.9.9,0,0,0,.82.51q4.31.21,9.45.21h.72v-.09q0-1.06,0-2-3.68,0-5.67-.12-.24,1-1,1H95.12q.88-.33.88-1.66V33.59a2.1,2.1,0,0,0-.88-2H97l-.21-.09-3-1.48A1.53,1.53,0,0,0,95,29.21a38.35,38.35,0,0,0,3.26-5.37,3.54,3.54,0,0,0,.54-1.33.37.37,0,0,0-.09-.18,10.37,10.37,0,0,1-1.87.39q-.81,0-1.87-1.78Zm6.4,18h.09q2.78.12,5.52.18,0-1.12-.06-2.26-4,.45-5.55.57Zm1.75-11.29,4.41.85v-5a3.55,3.55,0,0,0,0-.48q-2.23.21-4.32.6-1,.3-1.78.51l1.69.21q1,.12,1,.81a7.2,7.2,0,0,1-.54,1.6Zm13.7,16.18a2.81,2.81,0,0,1-.36-1c0-.18.16-.4.48-.66q-2.47,0-6.13,0,0,1.24-.09,2Q112.56,41.89,115.43,41.65Zm-6-7.21q0,1,0,2.14V37q3.83,0,6.55-.06V36q0-1.42-.94-1.63-.6-.06-2.23-.06Q111.71,34.31,109.42,34.43Z"/><path class="cls-24" d="M127.18,23a6.33,6.33,0,0,0,2.78.69q4,.21,7.88.27a22.17,22.17,0,0,0,1.51-5.79q0-.3-.57-.81l3.86,1.18q1.21.33,1.21,1.12a17.39,17.39,0,0,1-1,4.35q5.7-.06,8.9-.3a6.11,6.11,0,0,0,2.23-.69v3.59q0,1.06-.57,1.36a73.65,73.65,0,0,1-9.08.36,164.59,164.59,0,0,0,9.17,14.12,1.42,1.42,0,0,0,1.24.63q-2.08,1.21-2.11,1.21A7,7,0,0,1,150,45.45q-.57,0-2.05-2.32-2.14-3.11-5.82-9.84-1-1.69-1.6-2.9a78.58,78.58,0,0,1-7,13q-1.39,2.17-2.29,2.17-.75,0-4.5-2.2a2.7,2.7,0,0,0,2.08-1.45,65.46,65.46,0,0,0,7.45-13.67,80.51,80.51,0,0,1-8.45-.33,1.52,1.52,0,0,1-.57-1.39Z"/><path class="cls-24" d="M159.94,18.41a8.86,8.86,0,0,0,2.78.48q4.4.18,8.75.18a2.7,2.7,0,0,0-.57-1.3h3.59q.69,0,1,1.33,5.76,0,9-.21a8.53,8.53,0,0,0,2.23-.48v2.54q0,.72-.36.94-1.51.24-10.56.27l.06.79q2.35-.09,3.92-.09a9.7,9.7,0,0,1,2.87.33,5,5,0,0,1,2.17,1.12,2.69,2.69,0,0,1,.84,2.2v.39l.57-.18v2.2q0,.63-.33.81-1.42.15-9.93.15v.91q3.8-.09,6.07-.09a4.34,4.34,0,0,1,1.63.24,3,3,0,0,1,1.63.94,3.89,3.89,0,0,1,.6,2.38v.36a7.93,7.93,0,0,0,1.33-.3v2.2a.8.8,0,0,1-.39.82q-.36,0-1.09,0c0,.36-.09.69-.15,1a3.29,3.29,0,0,0,.63-.18v2.2q0,.63-.33.81-1.48.12-10.35.12a9.45,9.45,0,0,1-.6,2.72,3,3,0,0,1-3,1.87,21.52,21.52,0,0,1-3-.24q-1.21-.15-1.45-.75-.57-.94-1.27-2.23a9.62,9.62,0,0,0,2.08.39q1.42.09,2.5.09.66,0,.88-1.42l.06-.42q-8.45,0-10.44-.12a.87.87,0,0,1-.39-.84V38.18a8.47,8.47,0,0,0,2.66.42q4.22.15,8.33.15c0-.4,0-.83,0-1.3q-9.72,0-12-.12a.87.87,0,0,1-.39-.84V34.31a10.06,10.06,0,0,0,2.9.42q4.8.15,9.51.21,0-.75,0-1.54-1.15,0-2.32.09-6.34.36-7.57.36-.54,0-1.3-1.42l-.84-1.63a3.65,3.65,0,0,0,1.33.27q3.38,0,10-.18.42,0,.78,0v-1q-4.59,0-6.85-.06a1,1,0,0,1-.91.63h-3.74q.87-.33.88-1.66V24.93a2.26,2.26,0,0,0-.87-2.08h3.32a1.36,1.36,0,0,1,1.39.75q1.78-.12,4.95-.39l1.72-.09c0-.36,0-.68-.06-1q-9.36,0-11.53-.27a1.18,1.18,0,0,1-.36-1Zm5.43,8.72q3.35.15,6.64.18,0-1,0-1.84l-.88,0q-3.86.3-5.73.42Zm10.44,10.32q0,.73-.06,1.36l5.64-.12a11.68,11.68,0,0,0,.21-1.27Q179.19,37.45,175.81,37.45Zm.12-4.16q0,.88,0,1.66l6-.12q0-.33,0-.57a1.17,1.17,0,0,0-.24-.75,1,1,0,0,0-.72-.27Q178.71,33.23,175.93,33.29Zm0-8q0,1,0,2,3.26,0,5.55-.06-.06-1.69-.88-1.93a17.17,17.17,0,0,0-2.17-.09Q177.56,25.26,175.93,25.32Z"/><path class="cls-24" d="M197.88,17.44,201,19.19q.75.51.75.91a4.17,4.17,0,0,1-.42,1.57q-1.18,2.47-2.29,4.53.18,9.23.18,16.84,0,2.05-.51,2.5-.18.36-1.18.36h-2.93q.48-.3.48-1.33,0-6-.06-12.92a21.78,21.78,0,0,1-3.8-2.17q.75,0,1.78-1.81a74.2,74.2,0,0,0,4.17-7.24,7.72,7.72,0,0,0,.84-2.29A1.73,1.73,0,0,0,197.88,17.44Zm5.76,1.33,2.84,1.6q.69.45.69.81a5.36,5.36,0,0,1-.27,1.45q-.21.57-.39,1.15l2.84.15q-.09-1.42-.15-2.84-.15-2.9-.69-3.44H212a1.18,1.18,0,0,1,1.3,1q.12,2.32.21,5.28a40.82,40.82,0,0,0,4.5-.24,2.63,2.63,0,0,0,1.3-.6v3.17a1.23,1.23,0,0,1-.57,1.21,34.14,34.14,0,0,1-5.16.24q0,1.87,0,4v2.87q3.14,0,5-.21a3.88,3.88,0,0,0,1.63-.57v3.14a1.2,1.2,0,0,1-.57,1.21,56.75,56.75,0,0,1-6.13.21q0,5.22-.15,6.52a1.22,1.22,0,0,1-1.18,1h-3.65q.73-.57.85-3.77,0-2,0-3.74-6.58,0-8.15-.21a1.33,1.33,0,0,1-.57-1.27V33.74a4,4,0,0,0,2,.57q3.38.21,6.73.21v-2q0-2.29-.06-4.8-3,0-4.32-.15-.6,1.54-1.21,2.84t-.88,1.39q-.57,0-3.62-2.05.45,0,1.12-1.63Q202,25,203.25,21.55a9.93,9.93,0,0,0,.51-2.05A1.82,1.82,0,0,0,203.65,18.77Z"/></g></svg>