<svg xmlns="http://www.w3.org/2000/svg" viewBox="0 0 307.48 397.48"><defs><style>.cls-1{fill:#515151;}.cls-10,.cls-2,.cls-21,.cls-24{fill:none;}.cls-2{stroke:#f5a214;stroke-miterlimit:10;stroke-width:6.53px;}.cls-3{opacity:0.6;}.cls-4{fill:#333230;}.cls-5{fill:#fff;}.cls-6{fill:#6ac4c1;}.cls-7{fill:#c4e5e5;}.cls-8{fill:#cf4116;}.cls-9{fill:#f7fcfe;}.cls-10,.cls-21{stroke:#1d2539;}.cls-10,.cls-21,.cls-24{stroke-linecap:round;stroke-linejoin:round;}.cls-10{stroke-width:1.55px;}.cls-11{fill:#dbdad6;opacity:0.2;}.cls-12{fill:#eacc2c;}.cls-13{fill:#3d3c3d;}.cls-14{fill:#e04830;}.cls-15{fill:#222a2b;}.cls-16{fill:#3f4e50;}.cls-17{fill:#2d333a;}.cls-18{fill:#64c2bd;}.cls-19{fill:#fbfbf5;}.cls-20{fill:#dcdcdc;}.cls-21{stroke-width:0.65px;}.cls-22{fill:#1d353d;}.cls-23{fill:#d11b1a;}.cls-24{stroke:#874222;stroke-width:2.61px;}.cls-25{fill:#231815;}</style></defs><title>專題網頁</title><g id="圖層_2" data-name="圖層 2"><path class="cls-1" d="M106.41,311.55a6.11,6.11,0,0,1-.76.12q-.5,0-.93-.91l-.65-1.22a1.4,1.4,0,0,0,.76.29,19.11,19.11,0,0,0,2.51-.33,25.17,25.17,0,0,1,2.86-.24,1.91,1.91,0,0,1,1,.28,2.65,2.65,0,0,1,.71,1.1,5.84,5.84,0,0,1,.29,1.34,24.46,24.46,0,0,1,.38,4.77,37.82,37.82,0,0,1-.31,6.4,3.94,3.94,0,0,1-.55,1.69.85.85,0,0,1-.74.41,12,12,0,0,1-2.65-.19q-.34-.07-.79-.91l-.45-.84q-.07.31-.14.57-.38,1.31-.77,1.31-.15,0-2-.5.58-.21.95-2.12.29-1.2.48-2.39a9.15,9.15,0,0,1-1.07-.09.74.74,0,0,1-.29-.67v-1.67a1.19,1.19,0,0,0,.74.33c.31,0,.61.06.89.07q.14-1.14.24-2.15a10,10,0,0,1-1.58-.12.67.67,0,0,1-.29-.65V313.6a1.15,1.15,0,0,0,.74.34,12.19,12.19,0,0,0,1.29.1Q106.4,312.68,106.41,311.55Zm.81,11.38a7.24,7.24,0,0,0,2.51.45.47.47,0,0,0,.38-.19,3.21,3.21,0,0,0,.22-1.29q0-.72.05-1.72-.86,0-2.5,0h-.12Q107.53,321.65,107.22,322.93Zm.84-4.72q1.45,0,2.36-.09V316q-.72,0-2.12.05c0,.24,0,.47-.05.69Q108.17,317.49,108.07,318.21Zm.38-4.11q1.2,0,2-.09a6.29,6.29,0,0,0-.33-2.34q-.19-.46-.89-.46l-.64,0v0Q108.55,312.44,108.44,314.1Zm7.11,10.09c0,.25,0,.44,0,.57a.63.63,0,0,1-.62.5H113q.38-.35.45-2.12,0-3.06,0-5.37,0-2.91-.17-6.44a3.89,3.89,0,0,0-.38-1.93h1.88a.59.59,0,0,1,.65.5q.34-.09.76-.22a5.74,5.74,0,0,1,1.82-.28,2.52,2.52,0,0,1,1.65.41,1.17,1.17,0,0,1,.48,1,15.42,15.42,0,0,1-1.29,4.42,3.27,3.27,0,0,1-.17.43,1.88,1.88,0,0,1,.67.28,2.35,2.35,0,0,1,.59,1.91,28.3,28.3,0,0,1-.31,4.48,3.14,3.14,0,0,1-.67,1.79,1.94,1.94,0,0,1-1.45.41A3.81,3.81,0,0,1,115.55,324.18Zm0-12.69q.09,1.93.1,4.42a3.07,3.07,0,0,0,.67-.12,9.91,9.91,0,0,0,.52-1.26,14.49,14.49,0,0,0,1-3.27q0-.21-.5-.21a4.2,4.2,0,0,0-1.5.31Zm.1,6.2q0,3.25,0,5a8.1,8.1,0,0,0,1.36.12.42.42,0,0,0,.43-.31,14.84,14.84,0,0,0,.4-4.46q0-.74-.62-.76a3.16,3.16,0,0,0-1.22.28Z"/><path class="cls-1" d="M123,322.15a4.44,4.44,0,0,0,1.64.33q3.15.14,6.25.14,4.23,0,6.45-.14a4.77,4.77,0,0,0,1.31-.33v1.79q0,.53-.36.67-1,.14-7.4.14-6.18,0-7.52-.14a.7.7,0,0,1-.36-.71Zm3.39-12.89h1.82a.79.79,0,0,1,.86.83v1.7a10.43,10.43,0,0,0,1.26-.48q.36-.12.4-.33l.65,1.67a1.06,1.06,0,0,1,.1.4c0,.09-.08.17-.24.24a13.89,13.89,0,0,1-2,.72l-.14,0v2.38a7.39,7.39,0,0,0,2.53-1l-.69,2.22a1.31,1.31,0,0,1-.88.67,19.55,19.55,0,0,1-2.69.5,14.24,14.24,0,0,1-1.6.12,3.85,3.85,0,0,1-1.45-.34,2.16,2.16,0,0,1-1-1.27,3.29,3.29,0,0,1-.17-1q0-.57.05-1.69.12-1.58.22-2.74.05-.69.05-.83a.77.77,0,0,0-.26-.46l2,.24a.54.54,0,0,1,.57.58q0,.21-.1,1.48-.05.71-.12,1.95,0,.69,0,1,0,1,.88,1l.36,0v-6.3A1.41,1.41,0,0,0,126.42,309.26Zm-2.27,9.86a3.14,3.14,0,0,0,1.36.33q2.63.14,5.25.14,3.58,0,5.42-.14a3.12,3.12,0,0,0,1.12-.33v1.79a.67.67,0,0,1-.36.69q-.83.12-6.18.12-5.15,0-6.28-.12a.76.76,0,0,1-.33-.72Zm7.85-9.79h1.79q.88,0,.88.62,0,.09-.36,1.84c0,.19,0,.37-.05.53a20.63,20.63,0,0,0,3.17-1q.65-.21.71-.52l.65,1.67a1.18,1.18,0,0,1,.1.4c0,.14-.14.26-.43.38a26.66,26.66,0,0,1-3.6,1.12q-.45.12-.74.17v.14a5.67,5.67,0,0,0,.12,1.63.66.66,0,0,0,.31.34,1.63,1.63,0,0,0,.48.07,9.34,9.34,0,0,0,1.77-.22,7.42,7.42,0,0,0,2.2-.74l-1,2.2a1,1,0,0,1-.71.57,29.75,29.75,0,0,1-3.1.33,2.89,2.89,0,0,1-1.17-.28,2.21,2.21,0,0,1-.86-1,8,8,0,0,1-.33-2.93,19,19,0,0,1,.29-3.56q.19-1.27.19-1.39C132.33,309.6,132.22,309.45,132,309.33Z"/><path class="cls-1" d="M143.92,308.78l1.89.72q.53.22.53.59a1.65,1.65,0,0,1-.12.43q2.32.14,4.63.14,3.44,0,5.23-.15a2.53,2.53,0,0,0,1-.34v1.76a.73.73,0,0,1-.28.67,34,34,0,0,1-4.68.21q.07,1.05.09,2.32,2.15,0,3.41-.14a2.47,2.47,0,0,0,1-.34v1.75a.71.71,0,0,1-.29.67,25.93,25.93,0,0,1-4.08.21v2.88q2.38,0,3.86-.16a3.85,3.85,0,0,0,1.34-.4v1.86a.7.7,0,0,1-.36.71,37,37,0,0,1-4.85.19q0,1.95-.09,2.48a.69.69,0,0,1-.67.55h-2.08q.4-.28.48-1.84,0-.6,0-1.17h-.31q-6.27,0-7.62-.21a.78.78,0,0,1-.36-.74v-1.82a4,4,0,0,0,1.65.4l.69,0v-4.65q-.31.57-.53.57a8.16,8.16,0,0,1-2.07-.88q.24,0,.52-.52a26.76,26.76,0,0,0,1.76-3.77,9.55,9.55,0,0,0,.55-1.58Q144.21,309.05,143.92,308.78Zm5.94,6.32q0-.93-.09-1.89,0-.24,0-.41-3.13,0-4.39-.14-.36.81-.79,1.65h.86a.76.76,0,0,1,.84.67Q148.08,315.08,149.85,315.09Zm.1,5.06v-1.33q0-.77,0-1.57-2.44,0-3.67-.09v2.93q1.7.05,3.36.05Z"/><path class="cls-1" d="M162.46,311.55a6.11,6.11,0,0,1-.76.12q-.5,0-.93-.91l-.65-1.22a1.4,1.4,0,0,0,.76.29,19.11,19.11,0,0,0,2.51-.33,25.17,25.17,0,0,1,2.86-.24,1.91,1.91,0,0,1,1,.28,2.65,2.65,0,0,1,.71,1.1,5.84,5.84,0,0,1,.29,1.34,24.46,24.46,0,0,1,.38,4.77,37.81,37.81,0,0,1-.31,6.4,3.94,3.94,0,0,1-.55,1.69.85.85,0,0,1-.74.41,12,12,0,0,1-2.65-.19q-.34-.07-.79-.91l-.45-.84q-.07.31-.14.57-.38,1.31-.77,1.31-.15,0-2-.5.58-.21.95-2.12.29-1.2.48-2.39a9.15,9.15,0,0,1-1.07-.09.74.74,0,0,1-.29-.67v-1.67a1.19,1.19,0,0,0,.74.33c.31,0,.61.06.89.07q.14-1.14.24-2.15a10,10,0,0,1-1.58-.12.67.67,0,0,1-.29-.65V313.6a1.15,1.15,0,0,0,.74.34,12.19,12.19,0,0,0,1.29.1Q162.44,312.68,162.46,311.55Zm.81,11.38a7.24,7.24,0,0,0,2.51.45.47.47,0,0,0,.38-.19,3.21,3.21,0,0,0,.22-1.29q0-.72.05-1.72-.86,0-2.5,0h-.12Q163.58,321.65,163.27,322.93Zm.84-4.72q1.45,0,2.36-.09V316q-.72,0-2.12.05c0,.24,0,.47-.05.69Q164.22,317.49,164.11,318.21Zm.38-4.11q1.2,0,2-.09a6.29,6.29,0,0,0-.33-2.34q-.19-.46-.9-.46l-.64,0v0Q164.6,312.44,164.49,314.1Zm7.11,10.09c0,.25,0,.44,0,.57a.63.63,0,0,1-.62.5H169q.38-.35.45-2.12,0-3.06,0-5.37,0-2.91-.17-6.44a3.89,3.89,0,0,0-.38-1.93h1.88a.59.59,0,0,1,.65.5q.34-.09.76-.22a5.74,5.74,0,0,1,1.82-.28,2.52,2.52,0,0,1,1.65.41,1.17,1.17,0,0,1,.48,1,15.42,15.42,0,0,1-1.29,4.42,3.27,3.27,0,0,1-.17.43,1.88,1.88,0,0,1,.67.28,2.35,2.35,0,0,1,.59,1.91,28.31,28.31,0,0,1-.31,4.48,3.14,3.14,0,0,1-.67,1.79,1.94,1.94,0,0,1-1.45.41A3.81,3.81,0,0,1,171.6,324.18Zm0-12.69q.09,1.93.1,4.42a3.07,3.07,0,0,0,.67-.12,9.94,9.94,0,0,0,.52-1.26,14.49,14.49,0,0,0,1-3.27q0-.21-.5-.21a4.2,4.2,0,0,0-1.5.31Zm.1,6.2q0,3.25,0,5a8.1,8.1,0,0,0,1.36.12.42.42,0,0,0,.43-.31,14.84,14.84,0,0,0,.4-4.46q0-.74-.62-.76a3.16,3.16,0,0,0-1.22.28Z"/><path class="cls-1" d="M179.08,322.15a4.44,4.44,0,0,0,1.64.33q3.15.14,6.25.14,4.23,0,6.45-.14a4.77,4.77,0,0,0,1.31-.33v1.79q0,.53-.36.67-1,.14-7.4.14-6.18,0-7.52-.14a.7.7,0,0,1-.36-.71Zm3.39-12.89h1.82a.79.79,0,0,1,.86.83v1.7a10.43,10.43,0,0,0,1.26-.48q.36-.12.4-.33l.65,1.67a1.06,1.06,0,0,1,.1.4c0,.09-.08.17-.24.24a13.9,13.9,0,0,1-2,.72l-.14,0v2.38a7.39,7.39,0,0,0,2.53-1l-.69,2.22a1.31,1.31,0,0,1-.88.67,19.55,19.55,0,0,1-2.69.5,14.25,14.25,0,0,1-1.6.12,3.85,3.85,0,0,1-1.45-.34,2.16,2.16,0,0,1-1-1.27,3.29,3.29,0,0,1-.17-1q0-.57.05-1.69.12-1.58.22-2.74.05-.69.05-.83a.77.77,0,0,0-.26-.46l2,.24a.54.54,0,0,1,.57.58q0,.21-.1,1.48-.05.71-.12,1.95,0,.69,0,1,0,1,.88,1l.36,0v-6.3A1.41,1.41,0,0,0,182.47,309.26Zm-2.27,9.86a3.14,3.14,0,0,0,1.36.33q2.63.14,5.25.14,3.58,0,5.42-.14a3.12,3.12,0,0,0,1.12-.33v1.79a.67.67,0,0,1-.36.69q-.83.12-6.18.12-5.15,0-6.28-.12a.76.76,0,0,1-.33-.72Zm7.85-9.79h1.79q.88,0,.88.62,0,.09-.36,1.84c0,.19,0,.37-.05.53a20.63,20.63,0,0,0,3.17-1q.65-.21.71-.52l.65,1.67a1.18,1.18,0,0,1,.1.4c0,.14-.14.26-.43.38a26.66,26.66,0,0,1-3.6,1.12q-.45.12-.74.17v.14a5.66,5.66,0,0,0,.12,1.63.66.66,0,0,0,.31.34,1.63,1.63,0,0,0,.48.07,9.34,9.34,0,0,0,1.77-.22,7.42,7.42,0,0,0,2.2-.74l-1,2.2a1,1,0,0,1-.71.57,29.75,29.75,0,0,1-3.1.33,2.89,2.89,0,0,1-1.17-.28,2.21,2.21,0,0,1-.86-1,8,8,0,0,1-.33-2.93,19,19,0,0,1,.29-3.56q.19-1.27.19-1.39C188.37,309.6,188.27,309.45,188,309.33Z"/><path class="cls-1" d="M197.92,309.69a5,5,0,0,0,1.58.28q2.51.1,5,.1a1.54,1.54,0,0,0-.33-.74h2q.4,0,.57.76,3.29,0,5.13-.12a4.84,4.84,0,0,0,1.27-.28v1.45q0,.41-.21.53-.86.14-6,.16l0,.45q1.34-.05,2.24-.05a5.55,5.55,0,0,1,1.64.19,2.85,2.85,0,0,1,1.24.64,1.54,1.54,0,0,1,.48,1.26v.22l.33-.1v1.26c0,.24-.06.4-.19.46q-.81.09-5.66.09v.52q2.17-.05,3.46-.05a2.48,2.48,0,0,1,.93.14,1.7,1.7,0,0,1,.93.53,2.22,2.22,0,0,1,.34,1.36v.21a4.52,4.52,0,0,0,.76-.17V320q0,.36-.22.46l-.62,0c0,.21-.05.4-.09.57a1.91,1.91,0,0,0,.36-.1v1.26c0,.24-.06.4-.19.46q-.84.07-5.9.07a5.41,5.41,0,0,1-.34,1.55,1.69,1.69,0,0,1-1.74,1.07,12.21,12.21,0,0,1-1.7-.14q-.69-.09-.83-.43-.33-.53-.72-1.27a5.46,5.46,0,0,0,1.19.22q.81.05,1.43.05.38,0,.5-.81l0-.24q-4.82,0-6-.07a.49.49,0,0,1-.22-.48V321a4.84,4.84,0,0,0,1.51.24q2.41.09,4.75.09,0-.34,0-.74-5.54,0-6.82-.07a.49.49,0,0,1-.22-.48v-1.24a5.75,5.75,0,0,0,1.65.24q2.74.08,5.42.12c0-.29,0-.58,0-.88l-1.33.05q-3.61.21-4.32.21-.31,0-.74-.81l-.48-.93a2.07,2.07,0,0,0,.76.16q1.93,0,5.68-.1l.45,0v-.57q-2.62,0-3.91,0a.55.55,0,0,1-.52.36h-2.13q.5-.19.5-.95v-2.2a1.29,1.29,0,0,0-.5-1.19h1.89a.77.77,0,0,1,.79.43l2.82-.22,1-.05c0-.21,0-.39,0-.55q-5.34,0-6.58-.16a.67.67,0,0,1-.21-.57Zm3.1,5q1.91.09,3.79.1,0-.57,0-1l-.5,0L201,314Zm6,5.89q0,.41,0,.77l3.22-.07a6.62,6.62,0,0,0,.12-.72Zm.07-2.37c0,.33,0,.65,0,.95l3.41-.07c0-.13,0-.23,0-.33a.67.67,0,0,0-.14-.43.56.56,0,0,0-.41-.16Q208.62,318.14,207,318.18Zm0-4.54q0,.55,0,1.15,1.86,0,3.17,0,0-1-.5-1.1a9.86,9.86,0,0,0-1.24-.05Z"/><path class="cls-1" d="M91.17,339.49h1.72a.54.54,0,0,1,.58.38,6.31,6.31,0,0,0,.65-.1,17,17,0,0,1,2.25-.21,3,3,0,0,1,1.33.26,1.69,1.69,0,0,1,.95.72,2.87,2.87,0,0,1,.24,1.39q0,.48-.09,1.5c0,.14,0,.24,0,.31a1.81,1.81,0,0,0,.33-.17v1.24a.51.51,0,0,1-.21.48q-.34,0-2.1.05a.52.52,0,0,1,.1.28.6.6,0,0,1-.31.45q-1.08.74-1.08.86t.21.14l.36,0q.33-.24.65-.45a4.2,4.2,0,0,0,.91-.62,1,1,0,0,0-.05-.28l1.17.72a1,1,0,0,1,.26.21.41.41,0,0,1,.07-.1,5.49,5.49,0,0,1,1.19-1h-1q.43-.17.43-.83v-4.27a1.11,1.11,0,0,0-.43-1h1.65a.66.66,0,0,1,.69.38l.83-.12a14.63,14.63,0,0,1,2.12-.19,2.28,2.28,0,0,1,1.14.22,1.59,1.59,0,0,1,.74.71,6.23,6.23,0,0,1,.38,1.93,49.5,49.5,0,0,1,.26,5.39q0,4.56-.12,5.89a2,2,0,0,1-.52,1.41,2,2,0,0,1-1.43.45,1,1,0,0,1-1-.53l-.45-.86a5.44,5.44,0,0,1-1.43.14,3.88,3.88,0,0,1-.69-.07v.9c0,.29-.18.43-.53.43H99.43a.46.46,0,0,0,.15-.36v-3.92a.58.58,0,0,0-.29-.41h1.57q.48,0,.5.36v1.5h.07l.74,0q.31-.07.31-.29a2.23,2.23,0,0,0-.22-1.22.47.47,0,0,0-.33-.24h1.58q.41,0,.52.24a3.24,3.24,0,0,1,.17,1.22,2.34,2.34,0,0,1-.36,1.55l.29,0q.52,0,.65-.28a15.53,15.53,0,0,0,.21-3.51l-.57.24a2.92,2.92,0,0,1-.86.36q-.14,0-.34-.38a7.11,7.11,0,0,1-1.86.31,2.44,2.44,0,0,1-1.7-.5l-.07-.07s0-.07-.05-.07a1.18,1.18,0,0,1-.31-.74q0-.26.71-.95l.05-.05a1.69,1.69,0,0,1-.93-.31.76.76,0,0,1-.29-.67.86.86,0,0,1,0-.17l-.33.17a19,19,0,0,0-2.29,1.36c-.19.16-.29.28-.29.34a.18.18,0,0,0,.21.21,4.19,4.19,0,0,0,1-.12,1.42,1.42,0,0,1-.16-.5q0-.19.76-.57l.62-.33a.72.72,0,0,0-.07.29,3.05,3.05,0,0,0,.45.84s.21.34.64,1c0,.09.1.15.24.19l.12,0-.07.05-.62.26a3.2,3.2,0,0,1-.83.31q-.19,0-.48-.46h0a6.9,6.9,0,0,1-1.86.33,2,2,0,0,1-1.48-.46,1.09,1.09,0,0,1-.36-.77q0-.26.67-.95l.14-.12a1.87,1.87,0,0,1-.91-.31.54.54,0,0,1-.17-.19q0,6.3-.09,7.42-.14.48-.55.48H91.24a3.87,3.87,0,0,0,.4-2.13q0-3.11,0-5.47,0-3-.15-6.54A4.15,4.15,0,0,0,91.17,339.49Zm2.41,2.27q.86.07,1.69.07,1,0,1.62,0a.83.83,0,0,0-.26-.65A1.26,1.26,0,0,0,96,341a9.13,9.13,0,0,0-1.65.19l-.76.17C93.57,341.5,93.57,341.63,93.58,341.76Zm.07,2.07q1.07.07,2.13.07h.91l.09-.64-1.52,0-1.63,0C93.63,343.46,93.64,343.65,93.65,343.82Zm0,2.89.15-.22a5.69,5.69,0,0,1,1.43-1.15l-1.58,0Zm.4,4.22h1.43c.37,0,.56.13.59.4v.76c0,.37.21.55.62.55l.33,0q.07-.88.07-1.48a.68.68,0,0,0-.19-.43l1.53.07q.53,0,.53.41,0,1-.28,3.56a.81.81,0,0,1-.91.79L96,355.34q.74-.22.79-.76c0-.18,0-.36.07-.52q-.53,0-.93,0a1.52,1.52,0,0,1-1.27-.48,2.86,2.86,0,0,1-.31-1.53v-.76A.43.43,0,0,0,94.06,350.93Zm8.61-1.74a2.38,2.38,0,0,1-.19-.69q0-.19.77-.57l.59-.33a1.52,1.52,0,0,0-.07.29,3.8,3.8,0,0,0,.41.91s.19.37.57,1.07c0,.06.1.1.24.12q0-1,0-2.27t0-2.41l-1.72,0h-1a.16.16,0,0,1,0,.07.74.74,0,0,1-.33.53q-1.26.83-1.26,1t.21.14l.59,0,.67-.45a4.35,4.35,0,0,0,.95-.62.8.8,0,0,0-.07-.28l1.19.72q.33.21.33.43t-.67.46a21.24,21.24,0,0,0-2.38,1.43c-.21.17-.31.3-.31.38s.06.22.19.22a5.71,5.71,0,0,0,1.21-.14Zm-1-7.5q.81.07,1.58.07t1.46,0a1.79,1.79,0,0,0-.19-.65.64.64,0,0,0-.46-.14,16,16,0,0,0-1.74.1,6.61,6.61,0,0,1-.65.12Zm0,2.15q.83.05,1.62.05,1,0,1.64,0c0-.23,0-.45-.05-.67l-1.62,0-1.58,0Z"/><path class="cls-1" d="M112.42,339.36h1.7q.9,0,1,.76v1.36a16.51,16.51,0,0,0,1.84-.14,1.3,1.3,0,0,0,.65-.34v1.75a.67.67,0,0,1-.29.65,13.09,13.09,0,0,1-3.41.22q0,.5-.17,1.34a5.08,5.08,0,0,1,1.31-.19,4,4,0,0,1,.84.09,1.64,1.64,0,0,1,1.08.84,6,6,0,0,0,.33-.76,34.82,34.82,0,0,0,1.69-5.2,1.41,1.41,0,0,0-.09-.34l1.67.83a1.19,1.19,0,0,1,.24.21,6.39,6.39,0,0,1,1.74-.33,1.38,1.38,0,0,1,1.12.81,21.39,21.39,0,0,1,1.57,3.68q.52,1.36.76,1.36a10.27,10.27,0,0,1-2.32,1.17q-.16,0-.31-.59-.55-2.39-1-3.72-.26-.79-.48-.79a3.15,3.15,0,0,0-1.21.4l-.15.07q-.4,1.17-1.1,3.08-.52,1.62-.91,1.62a5.22,5.22,0,0,1-1.34-.58q.09,1,.09,3a23.81,23.81,0,0,1-.24,4.3q-.22,1.07-.77,1.29a2.64,2.64,0,0,1-1.12.22h-1a1.81,1.81,0,0,1-1-.16,1.53,1.53,0,0,1-.4-.62q-.17-.48-.36-.93a2.58,2.58,0,0,1-.09.34q-.29,1.43-.59,1.43a2.57,2.57,0,0,1-.65-.14q-.65-.16-1.41-.29.34-.19.52-1.41.65-3.7,1.2-7.92.17-1.34.28-2.12a5.6,5.6,0,0,1-1.45-.19.71.71,0,0,1-.29-.67V341a1.28,1.28,0,0,0,.81.34q1.08.1,2.08.14V340A.77.77,0,0,0,112.42,339.36Zm0,13.82a5.19,5.19,0,0,0,1.91.34.66.66,0,0,0,.4-.09,2.19,2.19,0,0,0,.22-1.14,26.29,26.29,0,0,0,.14-2.72,6.67,6.67,0,0,0-.29-2.67q-.12-.19-.79-.19a1.47,1.47,0,0,0-.5.17l-.05,0Q113,350.17,112.42,353.19ZM120,350a6.45,6.45,0,0,1,2.22,1.34,7.75,7.75,0,0,1,2.25,2.46.68.68,0,0,1-.31.53l-1.76,1.24c.15-.13.22-.24.22-.33a9.77,9.77,0,0,0-2.43-2.51,3.76,3.76,0,0,0-2.34-1.21,13.51,13.51,0,0,1,1.33-1.14A1.82,1.82,0,0,1,120,350Zm1-4.11q.36,0,1.79,1.24a7.22,7.22,0,0,1,1.79,2.27.63.63,0,0,1-.29.5q-.84.58-1.69,1.22a.69.69,0,0,0,.14-.36,9.48,9.48,0,0,0-1.91-2.36,2.77,2.77,0,0,0-1.81-1.14,15,15,0,0,1,1.22-1A1.77,1.77,0,0,1,121.08,345.91Z"/><path class="cls-1" d="M132.77,341.77a6.24,6.24,0,0,0,.29.71,4,4,0,0,0,.62,1.05.75.75,0,0,0,.31.1l-1,.19-.55.12a.6.6,0,0,1,.29.45c0,.06-.11.15-.34.29a8.09,8.09,0,0,0-1.15.95.56.56,0,0,0-.15.28c0,.13.07.19.21.19l.22,0q.86-.62,1.93-1.24.67-.34.67-.52V344l1.07,1.31a1,1,0,0,1,.15.5q0,.24-.64.59a17.68,17.68,0,0,0-2.69,1.51c-.4.25-.6.42-.6.5s.17.14.5.14a8.24,8.24,0,0,0,2-.29h0a3.36,3.36,0,0,1-.22-.74q0-.26.84-.64l1.1-.45a.55.55,0,0,0-.14.15.24.24,0,0,0-.07.17,2.91,2.91,0,0,0,.07.31q.29,1,.69,2a.66.66,0,0,0,.53.21q-.86.52-.89.52a2.93,2.93,0,0,1-1.08.53s-.12-.13-.22-.38l-.15-.38-1.1.29.15.05q.5.21.5.53a1,1,0,0,1-.14.41,17.39,17.39,0,0,0,2.22-.14,1.45,1.45,0,0,0,.65-.33V352q0,.48-.26.62a4.75,4.75,0,0,1-.95.1q.31.58.67,1.15a.76.76,0,0,0,.6.26l-1,.6a3.34,3.34,0,0,1-1.27.59q-.09,0-.29-.41a18,18,0,0,1-.83-1.65c-.09-.21-.17-.37-.24-.5h-.31a25.11,25.11,0,0,1-1.57,2.34q-.21.29-.41.29a.88.88,0,0,1-.4-.16l-1.81-.89a.58.58,0,0,0,.45-.26q.57-.71,1-1.38a8,8,0,0,1-1-.09.68.68,0,0,1-.28-.65v-1.6a1.33,1.33,0,0,0,.81.33l1.64.12q.21-.41.31-.65a6.46,6.46,0,0,1-.91.07,2.16,2.16,0,0,1-1.41-.38,1,1,0,0,1-.36-.74,2.73,2.73,0,0,1,.79-1.55.43.43,0,0,1,.1-.1,1.1,1.1,0,0,1-.67-.36,1.17,1.17,0,0,1-.29-.74,2.19,2.19,0,0,1,.4-.88,9.39,9.39,0,0,1,1.08-1.33h0a6.14,6.14,0,0,1-.71.15.23.23,0,0,1-.21-.1,2.86,2.86,0,0,1-.48-1,3.14,3.14,0,0,1-.29-.81q0-.31.45-.43l.14-.05q-.52,0-.52-.5v-1.55a.64.64,0,0,0,.48.26q1.12,0,2.62-.12,1.69-.1,3.12-.33,1.14-.15,1.24-.43.4,1.55.4,1.7c0,.15-.28.28-.83.4l-.22,0,.69.28q.36.16.36.41a1.62,1.62,0,0,1-.15.36,10.58,10.58,0,0,1-.77,1.34c-.08.14-.16.21-.24.21a9.54,9.54,0,0,1-1.58-.76.28.28,0,0,0,.21-.14,8.88,8.88,0,0,0,.71-1.26c.09-.17.15-.29.17-.34Q133.84,341.67,132.77,341.77ZM131,343.08c.29.17.52.32.71.45q-.15-.26-.31-.57a2.91,2.91,0,0,1-.33-.77.43.43,0,0,1,.14-.31l-1,.05v0a3.66,3.66,0,0,0,.29.83,5.7,5.7,0,0,0,.34.79.93.93,0,0,0,.19-.24A.67.67,0,0,0,131,343.08Zm7-3.46,1.62.93c.26.17.4.32.4.45a2.83,2.83,0,0,1-.17.86l0,.14c.31,0,.62,0,.93,0a2.18,2.18,0,0,1,0-.28q-.07-1.46-.38-1.7h1.88a.62.62,0,0,1,.69.55q.05.65.07,1.39l.84-.1a1.29,1.29,0,0,0,.53-.33v1.74a.67.67,0,0,1-.29.65,2.77,2.77,0,0,1-1,.16q0,.76,0,1.58l.52-.09a1,1,0,0,0,.46-.33V347a.68.68,0,0,1-.28.65,1.68,1.68,0,0,1-.71.14v1.53l.52-.09a1.12,1.12,0,0,0,.46-.33v1.74a.69.69,0,0,1-.28.65,1.88,1.88,0,0,1-.72.15q0,1.09-.05,1.67a8.3,8.3,0,0,0,.95-.1,1.12,1.12,0,0,0,.53-.34v1.81a.65.65,0,0,1-.36.67,11.75,11.75,0,0,1-2.69.16q-1.38,0-2.07-.05a.72.72,0,0,1-.69.31h-1.64a1.47,1.47,0,0,0,.33-1.07q0-2.22,0-5.18,0-.71,0-2.08l-.07,0a7,7,0,0,1-1.84-1q.28,0,.67-1,.86-1.87,1.62-3.94a6.52,6.52,0,0,0,.31-1.26A1.16,1.16,0,0,0,138,339.62Zm1.46,6a11.76,11.76,0,0,0,1.39.09q0-.79,0-1.58-.88,0-1.41-.05Q139.49,344.87,139.5,345.66Zm.09,3.65a10.64,10.64,0,0,0,1.33.09v-1.5q-.83,0-1.34-.07Q139.57,348.57,139.59,349.31Zm0,3.8q.62.05,1.24.07.05-.4.07-.91t0-.72l-1.31-.07Q139.59,352.43,139.57,353.12Z"/><path class="cls-1" d="M147,340.12a4.46,4.46,0,0,0,1.31.19,31.56,31.56,0,0,0,3.86-.5,36.94,36.94,0,0,1,5.06-.45,13.59,13.59,0,0,1,3.63.33,3.46,3.46,0,0,1,1.64,1,3.52,3.52,0,0,1,.48,1.95,4.4,4.4,0,0,1-.19,1.57q-.17.53-.43.53l-2.08-.4a.59.59,0,0,0,.29-.46,3.79,3.79,0,0,0,.14-1.24,1.8,1.8,0,0,0-.19-.84,1.38,1.38,0,0,0-1-.55,14,14,0,0,0-2.32-.15l-.79,0v1.12q.55.05,1.07.05a10.66,10.66,0,0,0,1.86-.12.78.78,0,0,0,.36-.31v1.45q0,.43-.19.55a7.63,7.63,0,0,1-2,.14l-1.07,0v.38a2.14,2.14,0,0,1,0,.41l2.51.4q3.08.41,3.63.41a.65.65,0,0,0,.43-.21l-.38,1q-.29,1-.6,1-.52,0-4-.55-2.89-.45-6.33-1.21l-.79-.17A15.41,15.41,0,0,1,150,347a1.4,1.4,0,0,1-.4.46h.22a.74.74,0,0,1,.81.48l3-.31.14,0q-.09-.72-.36-.84h1.86a.6.6,0,0,1,.67.55.89.89,0,0,1,0,.17q1.86-.1,3-.1a5.65,5.65,0,0,1,1.6.17,2.83,2.83,0,0,1,1.22.64,1.56,1.56,0,0,1,.46,1.26q0,.47,0,.83l.34-.14v1.45q0,.41-.19.53a6.9,6.9,0,0,1-1,.07l.55.79s.37.5,1.1,1.48c0,.12.19.19.46.22l-.91.41a3.38,3.38,0,0,1-1.07.48q-.34,0-.86-.67a59.65,59.65,0,0,1-7.19.4q-3,0-5.46-.16-.52-.05-.55-.4t.15-1.74a.51.51,0,0,0,.46.29q2.46.12,5.39.12h.41v-.05q0-.6,0-1.12-2.1,0-3.24-.07-.14.55-.59.55h-2.13q.5-.19.5-.95v-3.18a1.2,1.2,0,0,0-.5-1.15h1l-.12-.05-1.69-.84a.87.87,0,0,0,.67-.45,21.94,21.94,0,0,0,1.86-3.06,2,2,0,0,0,.31-.76.21.21,0,0,0-.05-.1,6,6,0,0,1-1.07.22q-.47,0-1.07-1Zm3.65,10.26h.05q1.58.07,3.15.1,0-.64,0-1.29-2.27.26-3.17.33Zm1-6.44,2.51.48v-2.86a2,2,0,0,0,0-.28q-1.27.12-2.46.34l-1,.29,1,.12q.59.07.59.46a4.13,4.13,0,0,1-.31.91Zm7.81,9.23a1.6,1.6,0,0,1-.21-.59c0-.1.09-.23.28-.38l-3.49,0q0,.71-.05,1.14Q157.86,353.31,159.49,353.17Zm-3.43-4.11q0,.59,0,1.22v.22q2.19,0,3.73,0V350q0-.81-.53-.93-.34,0-1.27,0Q157.38,349,156.07,349.05Z"/><path class="cls-1" d="M168.54,339.49q1,.07,1.79.17.48.05.48.46a7.55,7.55,0,0,1-.4,1.36l-.05.17c.25,0,.5,0,.76,0a2.2,2.2,0,0,1,1,.19,1.77,1.77,0,0,1,.76.72,3.31,3.31,0,0,1,.43,1.38,14.46,14.46,0,0,1,.09,1.45.69.69,0,0,0,.05-.14q.65-1.81,1.17-3.86a9.77,9.77,0,0,0,.33-1.51q0-.17-.28-.43l2,.24q.5.09.5.52a8.38,8.38,0,0,1-.26,1.2.3.3,0,0,0,0,.09l.26-.07a10.29,10.29,0,0,1,1.82-.4,2.73,2.73,0,0,1,1.2.26,1.83,1.83,0,0,1,1,.77,4.48,4.48,0,0,1,.43,1.91,38.06,38.06,0,0,1,.16,4q0,3.86-.12,5.23a2.69,2.69,0,0,1-1,1.88,2.31,2.31,0,0,1-1.34.43h-1.58a2.2,2.2,0,0,1-2.08-1q-.34-.4-1.34-1.72a13.67,13.67,0,0,0,4.48.69.6.6,0,0,0,.46-.19q.19-.17.22-1.31v-4a26.6,26.6,0,0,0-.22-4,1.22,1.22,0,0,0-.26-.79,1.45,1.45,0,0,0-.76-.15,4.06,4.06,0,0,0-1,.28,2.63,2.63,0,0,1-.95.4q-.29,1-.67,1.93-.26.69-.53.69a2.86,2.86,0,0,1-.65-.12l-1-.19q0,.74,0,1.6,0,2.6-.07,4.37l0,.5a1.12,1.12,0,0,0,.4-.31V354a.67.67,0,0,1-.36.69,13.9,13.9,0,0,1-2.75.14q-1.38,0-2.1-.05a1.31,1.31,0,0,1,0,.24.62.62,0,0,1-.6.5H166q.38-.31.45-1.89,0-2.74,0-4.79,0-2.6-.17-5.73-.07-1.46-.38-1.7h1.82a.58.58,0,0,1,.52.21,5.8,5.8,0,0,0,.22-.67,8.13,8.13,0,0,0,.26-1A.59.59,0,0,0,168.54,339.49Zm.05,7.23a13.15,13.15,0,0,0,1.34.07q.79,0,1.36-.05,0-1.55-.05-2a1.67,1.67,0,0,0-.17-.76.55.55,0,0,0-.5-.19,4,4,0,0,0-1.12.16,4.82,4.82,0,0,0-.86.34l-.05,0Q168.57,345.42,168.59,346.71Zm0,5.82a19.7,19.7,0,0,0,2,.1h.5c0-.14,0-.29.05-.46q.1-1.27.15-3.27-.53,0-1.36,0t-1.34,0Q168.59,351.12,168.57,352.53Zm7.33-6.3q.24,0,1.33,1.24a7.07,7.07,0,0,1,1.34,2.22.68.68,0,0,1-.31.53l-1.74,1.24c.14-.14.21-.25.21-.33a9.29,9.29,0,0,0-1.48-2.32q-.81-1.14-1.41-1.14.62-.57,1.27-1.07A1.67,1.67,0,0,1,175.9,346.23Z"/><path class="cls-1" d="M194.59,351.09q-.29.67-.91,2a1.56,1.56,0,0,1-.41.46,1.72,1.72,0,0,1-.64.16,29.59,29.59,0,0,1-3.3.14h-1.58q-2.17,0-2.17-1.33,0-.67,1.5-2.17l2.77-2.72q1.51-1.57,1.51-2.37,0-1.43-1.5-1.43a2,2,0,0,0-1.29.52,12.61,12.61,0,0,0-.91,1q-.45.52-.76.52a8.77,8.77,0,0,1-2-1.41,1.49,1.49,0,0,0,1-.57,4.47,4.47,0,0,1,.6-.69,4.91,4.91,0,0,1,3.44-1.48,4.1,4.1,0,0,1,2.56.86,2.82,2.82,0,0,1,1.24,2.34,5.3,5.3,0,0,1-1.26,3,19.43,19.43,0,0,1-2.31,2.48,7.52,7.52,0,0,0-1.24,1.27c0,.06.12.09.36.09A24.06,24.06,0,0,0,194.59,351.09Z"/><path class="cls-1" d="M207.38,350.26a3.14,3.14,0,0,1-1.41,2.6,4.76,4.76,0,0,1-2.93,1,4.39,4.39,0,0,1-4.58-3,2.14,2.14,0,0,1-.14-.69q0-.36.53-.57.14-.05,1.69-.43a1.41,1.41,0,0,0-.17.62.84.84,0,0,0,.07.31,3,3,0,0,0,1,1.21,2.4,2.4,0,0,0,1.46.55,2.27,2.27,0,0,0,1.39-.46,1.46,1.46,0,0,0,.69-1.24q0-1.67-2.56-1.74-.29,0-.83,0c-.37,0-.55-.2-.55-.48v-1.76a.87.87,0,0,0,.77.33,5.06,5.06,0,0,0,1.67-.21,1.2,1.2,0,0,0,.9-1.22,1.26,1.26,0,0,0-.45-1,1.62,1.62,0,0,0-1-.38,2,2,0,0,0-1.31.5,4.73,4.73,0,0,0-.83.89c-.25.32-.45.48-.58.48a9.94,9.94,0,0,1-2.08-.91,2.61,2.61,0,0,0,1-.95,6.12,6.12,0,0,1,1.29-1.38,4.47,4.47,0,0,1,5.18.26,3.19,3.19,0,0,1,1.26,2.53,2.91,2.91,0,0,1-1.1,2.12A3.55,3.55,0,0,1,207.38,350.26Z"/><path class="cls-1" d="M211,339.91a5,5,0,0,0,1.58.28q2.51.1,5,.1a1.54,1.54,0,0,0-.33-.74h2q.4,0,.57.76,3.29,0,5.13-.12a4.84,4.84,0,0,0,1.27-.28v1.45q0,.41-.21.53-.86.14-6,.16l0,.45q1.34-.05,2.24-.05a5.55,5.55,0,0,1,1.64.19,2.85,2.85,0,0,1,1.24.64,1.54,1.54,0,0,1,.48,1.26v.22l.33-.1v1.26c0,.24-.06.4-.19.46q-.81.09-5.66.09V347q2.17-.05,3.46-.05a2.48,2.48,0,0,1,.93.14,1.7,1.7,0,0,1,.93.53,2.22,2.22,0,0,1,.34,1.36v.21a4.52,4.52,0,0,0,.76-.17v1.26q0,.36-.22.46l-.62,0c0,.21-.05.4-.09.57a1.91,1.91,0,0,0,.36-.1v1.26c0,.24-.06.4-.19.46q-.84.07-5.9.07a5.4,5.4,0,0,1-.34,1.55,1.69,1.69,0,0,1-1.74,1.07,12.21,12.21,0,0,1-1.7-.14q-.69-.09-.83-.43-.33-.53-.72-1.27a5.46,5.46,0,0,0,1.19.22q.81.05,1.43.05.38,0,.5-.81l0-.24q-4.82,0-6-.07a.49.49,0,0,1-.22-.48v-1.24a4.84,4.84,0,0,0,1.51.24q2.41.09,4.75.09,0-.34,0-.74-5.54,0-6.82-.07a.49.49,0,0,1-.22-.48V349a5.75,5.75,0,0,0,1.65.24q2.74.08,5.42.12c0-.29,0-.58,0-.88l-1.33.05q-3.61.21-4.32.21-.31,0-.74-.81L211,347a2.07,2.07,0,0,0,.76.16q1.93,0,5.68-.1l.45,0v-.57q-2.62,0-3.91,0a.55.55,0,0,1-.52.36h-2.13q.5-.19.5-.95v-2.2a1.29,1.29,0,0,0-.5-1.19h1.89a.77.77,0,0,1,.79.43l2.82-.22,1-.05c0-.21,0-.39,0-.55q-5.34,0-6.58-.16a.67.67,0,0,1-.21-.57Zm3.1,5q1.91.09,3.79.1,0-.57,0-1l-.5,0-3.27.24Zm6,5.89q0,.41,0,.77l3.22-.07a6.62,6.62,0,0,0,.12-.72Zm.07-2.37c0,.33,0,.65,0,.95l3.41-.07c0-.13,0-.23,0-.33a.67.67,0,0,0-.14-.43.56.56,0,0,0-.41-.16Q221.66,348.37,220.08,348.4Zm0-4.54q0,.55,0,1.15,1.86,0,3.17,0,0-1-.5-1.1a9.86,9.86,0,0,0-1.24-.05Z"/><circle class="cls-2" cx="161.99" cy="130.51" r="83.23"/><g class="cls-3"><path class="cls-4" d="M151.41,97.41H122.78V95.94a1.17,1.17,0,0,0-1.17-1.17H108.76a1.17,1.17,0,0,0-1.17,1.17v1.48h-.74a1.18,1.18,0,0,0-1.18,1.17v2h46.91v-2A1.17,1.17,0,0,0,151.41,97.41Z"/><path class="cls-5" d="M105.67,100.58v31.54a1.17,1.17,0,0,0,1.18,1.17h44.57a1.17,1.17,0,0,0,1.17-1.17V100.58Z"/><rect class="cls-6" x="107.56" y="102.27" width="43.33" height="29.28" rx="0.14" ry="0.14"/><circle class="cls-5" cx="114.48" cy="96.44" r="0.74"/><circle class="cls-7" cx="118.86" cy="96.44" r="0.74"/><rect class="cls-5" x="110.1" y="123.26" width="3.65" height="7.16"/><rect class="cls-5" x="115.79" y="121.05" width="3.65" height="9.36"/><rect class="cls-5" x="121.48" y="119.05" width="3.65" height="11.37"/><rect class="cls-5" x="127.17" y="124.73" width="3.65" height="5.68"/><rect class="cls-5" x="132.86" y="122.33" width="3.65" height="8.09"/><rect class="cls-5" x="138.56" y="114.97" width="3.65" height="15.45"/><polygon class="cls-5" points="132.75 118.64 125.77 111.58 112.41 116.53 112.01 115.45 126.07 110.25 132.81 117.06 146.11 105.41 146.87 106.27 132.75 118.64"/><circle class="cls-8" cx="112.21" cy="116.1" r="1.69"/><circle class="cls-8" cx="125.92" cy="111.24" r="1.69"/><circle class="cls-8" cx="132.78" cy="117.61" r="1.69"/><circle class="cls-8" cx="146.34" cy="105.94" r="1.69"/><circle class="cls-6" cx="109.95" cy="96.44" r="0.74"/><rect class="cls-5" x="144.52" y="111.24" width="3.64" height="19.18"/></g><path class="cls-9" d="M217.29,138.74c0,33.1-16.46,43.48-36.91,43.48s-37.14-10.38-37.14-43.48,16.58-59.93,37-59.93S217.29,105.64,217.29,138.74Z"/><path class="cls-10" d="M144.91,155a72.09,72.09,0,0,1-1.68-16.3,94.25,94.25,0,0,1,1.87-18.86"/><path class="cls-10" d="M152.38,99.31c6.79-12.57,16.77-20.51,27.89-20.51,20.45,0,37,26.83,37,59.93s-16.46,43.48-36.91,43.48c-11.65,0-22.08-3.37-28.9-12.39"/><path class="cls-11" d="M146.14,126.43a55.14,55.14,0,0,1,25-45.8c-16.06,6.56-27.94,30.08-27.94,58.11,0,33.1,16.69,43.48,37.14,43.48a46.69,46.69,0,0,0,12.6-1.59C166.77,176.68,146.14,153.6,146.14,126.43Z"/><circle class="cls-12" cx="180.9" cy="118.05" r="24.09"/><ellipse class="cls-13" cx="169.37" cy="112" rx="1.95" ry="3.05"/><ellipse class="cls-13" cx="191.73" cy="112" rx="1.94" ry="3.05"/><ellipse class="cls-14" cx="180.9" cy="131.42" rx="2.34" ry="3.32"/><rect class="cls-15" x="186.11" y="147.76" width="2.64" height="0.26"/><polygon class="cls-15" points="184.13 147.45 181.49 147.31 181.49 147.26 180.92 147.28 180.31 147.25 180.31 147.31 177.67 147.45 178.39 148.19 181.49 148.19 181.49 148.19 183.41 148.19 184.13 147.45"/><rect class="cls-16" x="177.67" y="145.67" width="6.46" height="1.78"/><path class="cls-16" d="M172,158.66a.63.63,0,0,0,.63.63h16.45a.63.63,0,0,0,.63-.63V155.3H172Z"/><path class="cls-16" d="M189.75,148.55a.63.63,0,0,0-.63-.63H172.68a.63.63,0,0,0-.63.63v3.35h17.71Z"/><rect class="cls-17" x="172.04" y="151.91" width="17.71" height="3.4"/><circle class="cls-18" cx="180.9" cy="153.82" r="4.85"/><rect class="cls-18" x="178.87" y="146.09" width="4.06" height="0.93"/><rect class="cls-16" x="186.01" y="147.07" width="2.82" height="0.68"/><circle class="cls-18" cx="173.34" cy="149.15" r="0.61"/><path class="cls-19" d="M183.74,151.4l-5.58,4.94a3.73,3.73,0,0,0,5.58-4.94Z"/><path class="cls-20" d="M180.9,150.08a3.73,3.73,0,0,0-2.74,6.26l5.58-4.94A3.71,3.71,0,0,0,180.9,150.08Z"/><path class="cls-21" d="M143.62,130S158.34,150,172,151.91"/><path class="cls-21" d="M217.31,130S202.59,150,188.89,151.91"/><path class="cls-22" d="M201.59,139l-.92,1.21-1.89,2.48-.92,1.2a.44.44,0,0,0,.08.62l19.18,12.73a.44.44,0,0,0,.62-.08h0l1.89-2.48h0a.44.44,0,0,0-.08-.62L202.21,139A.45.45,0,0,0,201.59,139Z"/><circle class="cls-22" cx="192.07" cy="135.66" r="5.61" transform="translate(-32.27 206.13) rotate(-52.67)"/><path class="cls-23" d="M195.67,130.95a.4.4,0,0,1,.08.56L189,140.3a.4.4,0,0,1-.56.08h0a.41.41,0,0,1-.07-.56l6.71-8.79a.4.4,0,0,1,.56-.07Z"/><path class="cls-23" d="M203.44,137.18a.63.63,0,0,1,.12.88l-6.14,8a.63.63,0,0,1-.89.12l-4.15-3.16a.63.63,0,0,1-.12-.89l6.13-8a.64.64,0,0,1,.89-.12Z"/><path class="cls-5" d="M195.43,141.33l-.65.86-.6-.46,1.87-2.45.61.46-.67.87,2.58,2-.55.72Z"/><path class="cls-5" d="M200.2,140.43l-4-1.41.61-.79,1.64.64c.46.18.9.36,1.35.59h0c-.33-.37-.62-.76-.91-1.15l-1.05-1.45.59-.76,2.37,3.51Z"/><line class="cls-24" x1="133.65" y1="130.05" x2="146.87" y2="144.65"/></g><g id="圖層_2_拷貝" data-name="圖層 2 拷貝"><path class="cls-1" d="M106.41,311.55a6.11,6.11,0,0,1-.76.12q-.5,0-.93-.91l-.65-1.22a1.4,1.4,0,0,0,.76.29,19.11,19.11,0,0,0,2.51-.33,25.17,25.17,0,0,1,2.86-.24,1.91,1.91,0,0,1,1,.28,2.65,2.65,0,0,1,.71,1.1,5.84,5.84,0,0,1,.29,1.34,24.46,24.46,0,0,1,.38,4.77,37.82,37.82,0,0,1-.31,6.4,3.94,3.94,0,0,1-.55,1.69.85.85,0,0,1-.74.41,12,12,0,0,1-2.65-.19q-.34-.07-.79-.91l-.45-.84q-.07.31-.14.57-.38,1.31-.77,1.31-.15,0-2-.5.58-.21.95-2.12.29-1.2.48-2.39a9.15,9.15,0,0,1-1.07-.09.74.74,0,0,1-.29-.67v-1.67a1.19,1.19,0,0,0,.74.33c.31,0,.61.06.89.07q.14-1.14.24-2.15a10,10,0,0,1-1.58-.12.67.67,0,0,1-.29-.65V313.6a1.15,1.15,0,0,0,.74.34,12.19,12.19,0,0,0,1.29.1Q106.4,312.68,106.41,311.55Zm.81,11.38a7.24,7.24,0,0,0,2.51.45.47.47,0,0,0,.38-.19,3.21,3.21,0,0,0,.22-1.29q0-.72.05-1.72-.86,0-2.5,0h-.12Q107.53,321.65,107.22,322.93Zm.84-4.72q1.45,0,2.36-.09V316q-.72,0-2.12.05c0,.24,0,.47-.05.69Q108.17,317.49,108.07,318.21Zm.38-4.11q1.2,0,2-.09a6.29,6.29,0,0,0-.33-2.34q-.19-.46-.89-.46l-.64,0v0Q108.55,312.44,108.44,314.1Zm7.11,10.09c0,.25,0,.44,0,.57a.63.63,0,0,1-.62.5H113q.38-.35.45-2.12,0-3.06,0-5.37,0-2.91-.17-6.44a3.89,3.89,0,0,0-.38-1.93h1.88a.59.59,0,0,1,.65.5q.34-.09.76-.22a5.74,5.74,0,0,1,1.82-.28,2.52,2.52,0,0,1,1.65.41,1.17,1.17,0,0,1,.48,1,15.42,15.42,0,0,1-1.29,4.42,3.27,3.27,0,0,1-.17.43,1.88,1.88,0,0,1,.67.28,2.35,2.35,0,0,1,.59,1.91,28.3,28.3,0,0,1-.31,4.48,3.14,3.14,0,0,1-.67,1.79,1.94,1.94,0,0,1-1.45.41A3.81,3.81,0,0,1,115.55,324.18Zm0-12.69q.09,1.93.1,4.42a3.07,3.07,0,0,0,.67-.12,9.91,9.91,0,0,0,.52-1.26,14.49,14.49,0,0,0,1-3.27q0-.21-.5-.21a4.2,4.2,0,0,0-1.5.31Zm.1,6.2q0,3.25,0,5a8.1,8.1,0,0,0,1.36.12.42.42,0,0,0,.43-.31,14.84,14.84,0,0,0,.4-4.46q0-.74-.62-.76a3.16,3.16,0,0,0-1.22.28Z"/><path class="cls-1" d="M123,322.15a4.44,4.44,0,0,0,1.64.33q3.15.14,6.25.14,4.23,0,6.45-.14a4.77,4.77,0,0,0,1.31-.33v1.79q0,.53-.36.67-1,.14-7.4.14-6.18,0-7.52-.14a.7.7,0,0,1-.36-.71Zm3.39-12.89h1.82a.79.79,0,0,1,.86.83v1.7a10.43,10.43,0,0,0,1.26-.48q.36-.12.4-.33l.65,1.67a1.06,1.06,0,0,1,.1.4c0,.09-.08.17-.24.24a13.89,13.89,0,0,1-2,.72l-.14,0v2.38a7.39,7.39,0,0,0,2.53-1l-.69,2.22a1.31,1.31,0,0,1-.88.67,19.55,19.55,0,0,1-2.69.5,14.24,14.24,0,0,1-1.6.12,3.85,3.85,0,0,1-1.45-.34,2.16,2.16,0,0,1-1-1.27,3.29,3.29,0,0,1-.17-1q0-.57.05-1.69.12-1.58.22-2.74.05-.69.05-.83a.77.77,0,0,0-.26-.46l2,.24a.54.54,0,0,1,.57.58q0,.21-.1,1.48-.05.71-.12,1.95,0,.69,0,1,0,1,.88,1l.36,0v-6.3A1.41,1.41,0,0,0,126.42,309.26Zm-2.27,9.86a3.14,3.14,0,0,0,1.36.33q2.63.14,5.25.14,3.58,0,5.42-.14a3.12,3.12,0,0,0,1.12-.33v1.79a.67.67,0,0,1-.36.69q-.83.12-6.18.12-5.15,0-6.28-.12a.76.76,0,0,1-.33-.72Zm7.85-9.79h1.79q.88,0,.88.62,0,.09-.36,1.84c0,.19,0,.37-.05.53a20.63,20.63,0,0,0,3.17-1q.65-.21.71-.52l.65,1.67a1.18,1.18,0,0,1,.1.4c0,.14-.14.26-.43.38a26.66,26.66,0,0,1-3.6,1.12q-.45.12-.74.17v.14a5.67,5.67,0,0,0,.12,1.63.66.66,0,0,0,.31.34,1.63,1.63,0,0,0,.48.07,9.34,9.34,0,0,0,1.77-.22,7.42,7.42,0,0,0,2.2-.74l-1,2.2a1,1,0,0,1-.71.57,29.75,29.75,0,0,1-3.1.33,2.89,2.89,0,0,1-1.17-.28,2.21,2.21,0,0,1-.86-1,8,8,0,0,1-.33-2.93,19,19,0,0,1,.29-3.56q.19-1.27.19-1.39C132.33,309.6,132.22,309.45,132,309.33Z"/><path class="cls-1" d="M143.92,308.78l1.89.72q.53.22.53.59a1.65,1.65,0,0,1-.12.43q2.32.14,4.63.14,3.44,0,5.23-.15a2.53,2.53,0,0,0,1-.34v1.76a.73.73,0,0,1-.28.67,34,34,0,0,1-4.68.21q.07,1.05.09,2.32,2.15,0,3.41-.14a2.47,2.47,0,0,0,1-.34v1.75a.71.71,0,0,1-.29.67,25.93,25.93,0,0,1-4.08.21v2.88q2.38,0,3.86-.16a3.85,3.85,0,0,0,1.34-.4v1.86a.7.7,0,0,1-.36.71,37,37,0,0,1-4.85.19q0,1.95-.09,2.48a.69.69,0,0,1-.67.55h-2.08q.4-.28.48-1.84,0-.6,0-1.17h-.31q-6.27,0-7.62-.21a.78.78,0,0,1-.36-.74v-1.82a4,4,0,0,0,1.65.4l.69,0v-4.65q-.31.57-.53.57a8.16,8.16,0,0,1-2.07-.88q.24,0,.52-.52a26.76,26.76,0,0,0,1.76-3.77,9.55,9.55,0,0,0,.55-1.58Q144.21,309.05,143.92,308.78Zm5.94,6.32q0-.93-.09-1.89,0-.24,0-.41-3.13,0-4.39-.14-.36.81-.79,1.65h.86a.76.76,0,0,1,.84.67Q148.08,315.08,149.85,315.09Zm.1,5.06v-1.33q0-.77,0-1.57-2.44,0-3.67-.09v2.93q1.7.05,3.36.05Z"/><path class="cls-1" d="M162.46,311.55a6.11,6.11,0,0,1-.76.12q-.5,0-.93-.91l-.65-1.22a1.4,1.4,0,0,0,.76.29,19.11,19.11,0,0,0,2.51-.33,25.17,25.17,0,0,1,2.86-.24,1.91,1.91,0,0,1,1,.28,2.65,2.65,0,0,1,.71,1.1,5.84,5.84,0,0,1,.29,1.34,24.46,24.46,0,0,1,.38,4.77,37.81,37.81,0,0,1-.31,6.4,3.94,3.94,0,0,1-.55,1.69.85.85,0,0,1-.74.41,12,12,0,0,1-2.65-.19q-.34-.07-.79-.91l-.45-.84q-.07.31-.14.57-.38,1.31-.77,1.31-.15,0-2-.5.58-.21.95-2.12.29-1.2.48-2.39a9.15,9.15,0,0,1-1.07-.09.74.74,0,0,1-.29-.67v-1.67a1.19,1.19,0,0,0,.74.33c.31,0,.61.06.89.07q.14-1.14.24-2.15a10,10,0,0,1-1.58-.12.67.67,0,0,1-.29-.65V313.6a1.15,1.15,0,0,0,.74.34,12.19,12.19,0,0,0,1.29.1Q162.44,312.68,162.46,311.55Zm.81,11.38a7.24,7.24,0,0,0,2.51.45.47.47,0,0,0,.38-.19,3.21,3.21,0,0,0,.22-1.29q0-.72.05-1.72-.86,0-2.5,0h-.12Q163.58,321.65,163.27,322.93Zm.84-4.72q1.45,0,2.36-.09V316q-.72,0-2.12.05c0,.24,0,.47-.05.69Q164.22,317.49,164.11,318.21Zm.38-4.11q1.2,0,2-.09a6.29,6.29,0,0,0-.33-2.34q-.19-.46-.9-.46l-.64,0v0Q164.6,312.44,164.49,314.1Zm7.11,10.09c0,.25,0,.44,0,.57a.63.63,0,0,1-.62.5H169q.38-.35.45-2.12,0-3.06,0-5.37,0-2.91-.17-6.44a3.89,3.89,0,0,0-.38-1.93h1.88a.59.59,0,0,1,.65.5q.34-.09.76-.22a5.74,5.74,0,0,1,1.82-.28,2.52,2.52,0,0,1,1.65.41,1.17,1.17,0,0,1,.48,1,15.42,15.42,0,0,1-1.29,4.42,3.27,3.27,0,0,1-.17.43,1.88,1.88,0,0,1,.67.28,2.35,2.35,0,0,1,.59,1.91,28.31,28.31,0,0,1-.31,4.48,3.14,3.14,0,0,1-.67,1.79,1.94,1.94,0,0,1-1.45.41A3.81,3.81,0,0,1,171.6,324.18Zm0-12.69q.09,1.93.1,4.42a3.07,3.07,0,0,0,.67-.12,9.94,9.94,0,0,0,.52-1.26,14.49,14.49,0,0,0,1-3.27q0-.21-.5-.21a4.2,4.2,0,0,0-1.5.31Zm.1,6.2q0,3.25,0,5a8.1,8.1,0,0,0,1.36.12.42.42,0,0,0,.43-.31,14.84,14.84,0,0,0,.4-4.46q0-.74-.62-.76a3.16,3.16,0,0,0-1.22.28Z"/><path class="cls-1" d="M179.08,322.15a4.44,4.44,0,0,0,1.64.33q3.15.14,6.25.14,4.23,0,6.45-.14a4.77,4.77,0,0,0,1.31-.33v1.79q0,.53-.36.67-1,.14-7.4.14-6.18,0-7.52-.14a.7.7,0,0,1-.36-.71Zm3.39-12.89h1.82a.79.79,0,0,1,.86.83v1.7a10.43,10.43,0,0,0,1.26-.48q.36-.12.4-.33l.65,1.67a1.06,1.06,0,0,1,.1.4c0,.09-.08.17-.24.24a13.9,13.9,0,0,1-2,.72l-.14,0v2.38a7.39,7.39,0,0,0,2.53-1l-.69,2.22a1.31,1.31,0,0,1-.88.67,19.55,19.55,0,0,1-2.69.5,14.25,14.25,0,0,1-1.6.12,3.85,3.85,0,0,1-1.45-.34,2.16,2.16,0,0,1-1-1.27,3.29,3.29,0,0,1-.17-1q0-.57.05-1.69.12-1.58.22-2.74.05-.69.05-.83a.77.77,0,0,0-.26-.46l2,.24a.54.54,0,0,1,.57.58q0,.21-.1,1.48-.05.71-.12,1.95,0,.69,0,1,0,1,.88,1l.36,0v-6.3A1.41,1.41,0,0,0,182.47,309.26Zm-2.27,9.86a3.14,3.14,0,0,0,1.36.33q2.63.14,5.25.14,3.58,0,5.42-.14a3.12,3.12,0,0,0,1.12-.33v1.79a.67.67,0,0,1-.36.69q-.83.12-6.18.12-5.15,0-6.28-.12a.76.76,0,0,1-.33-.72Zm7.85-9.79h1.79q.88,0,.88.62,0,.09-.36,1.84c0,.19,0,.37-.05.53a20.63,20.63,0,0,0,3.17-1q.65-.21.71-.52l.65,1.67a1.18,1.18,0,0,1,.1.4c0,.14-.14.26-.43.38a26.66,26.66,0,0,1-3.6,1.12q-.45.12-.74.17v.14a5.66,5.66,0,0,0,.12,1.63.66.66,0,0,0,.31.34,1.63,1.63,0,0,0,.48.07,9.34,9.34,0,0,0,1.77-.22,7.42,7.42,0,0,0,2.2-.74l-1,2.2a1,1,0,0,1-.71.57,29.75,29.75,0,0,1-3.1.33,2.89,2.89,0,0,1-1.17-.28,2.21,2.21,0,0,1-.86-1,8,8,0,0,1-.33-2.93,19,19,0,0,1,.29-3.56q.19-1.27.19-1.39C188.37,309.6,188.27,309.45,188,309.33Z"/><path class="cls-1" d="M197.92,309.69a5,5,0,0,0,1.58.28q2.51.1,5,.1a1.54,1.54,0,0,0-.33-.74h2q.4,0,.57.76,3.29,0,5.13-.12a4.84,4.84,0,0,0,1.27-.28v1.45q0,.41-.21.53-.86.14-6,.16l0,.45q1.34-.05,2.24-.05a5.55,5.55,0,0,1,1.64.19,2.85,2.85,0,0,1,1.24.64,1.54,1.54,0,0,1,.48,1.26v.22l.33-.1v1.26c0,.24-.06.4-.19.46q-.81.09-5.66.09v.52q2.17-.05,3.46-.05a2.48,2.48,0,0,1,.93.14,1.7,1.7,0,0,1,.93.53,2.22,2.22,0,0,1,.34,1.36v.21a4.52,4.52,0,0,0,.76-.17V320q0,.36-.22.46l-.62,0c0,.21-.05.4-.09.57a1.91,1.91,0,0,0,.36-.1v1.26c0,.24-.06.4-.19.46q-.84.07-5.9.07a5.41,5.41,0,0,1-.34,1.55,1.69,1.69,0,0,1-1.74,1.07,12.21,12.21,0,0,1-1.7-.14q-.69-.09-.83-.43-.33-.53-.72-1.27a5.46,5.46,0,0,0,1.19.22q.81.05,1.43.05.38,0,.5-.81l0-.24q-4.82,0-6-.07a.49.49,0,0,1-.22-.48V321a4.84,4.84,0,0,0,1.51.24q2.41.09,4.75.09,0-.34,0-.74-5.54,0-6.82-.07a.49.49,0,0,1-.22-.48v-1.24a5.75,5.75,0,0,0,1.65.24q2.74.08,5.42.12c0-.29,0-.58,0-.88l-1.33.05q-3.61.21-4.32.21-.31,0-.74-.81l-.48-.93a2.07,2.07,0,0,0,.76.16q1.93,0,5.68-.1l.45,0v-.57q-2.62,0-3.91,0a.55.55,0,0,1-.52.36h-2.13q.5-.19.5-.95v-2.2a1.29,1.29,0,0,0-.5-1.19h1.89a.77.77,0,0,1,.79.43l2.82-.22,1-.05c0-.21,0-.39,0-.55q-5.34,0-6.58-.16a.67.67,0,0,1-.21-.57Zm3.1,5q1.91.09,3.79.1,0-.57,0-1l-.5,0L201,314Zm6,5.89q0,.41,0,.77l3.22-.07a6.62,6.62,0,0,0,.12-.72Zm.07-2.37c0,.33,0,.65,0,.95l3.41-.07c0-.13,0-.23,0-.33a.67.67,0,0,0-.14-.43.56.56,0,0,0-.41-.16Q208.62,318.14,207,318.18Zm0-4.54q0,.55,0,1.15,1.86,0,3.17,0,0-1-.5-1.1a9.86,9.86,0,0,0-1.24-.05Z"/><path class="cls-1" d="M91.17,339.49h1.72a.54.54,0,0,1,.58.38,6.31,6.31,0,0,0,.65-.1,17,17,0,0,1,2.25-.21,3,3,0,0,1,1.33.26,1.69,1.69,0,0,1,.95.72,2.87,2.87,0,0,1,.24,1.39q0,.48-.09,1.5c0,.14,0,.24,0,.31a1.81,1.81,0,0,0,.33-.17v1.24a.51.51,0,0,1-.21.48q-.34,0-2.1.05a.52.52,0,0,1,.1.28.6.6,0,0,1-.31.45q-1.08.74-1.08.86t.21.14l.36,0q.33-.24.65-.45a4.2,4.2,0,0,0,.91-.62,1,1,0,0,0-.05-.28l1.17.72a1,1,0,0,1,.26.21.41.41,0,0,1,.07-.1,5.49,5.49,0,0,1,1.19-1h-1q.43-.17.43-.83v-4.27a1.11,1.11,0,0,0-.43-1h1.65a.66.66,0,0,1,.69.38l.83-.12a14.63,14.63,0,0,1,2.12-.19,2.28,2.28,0,0,1,1.14.22,1.59,1.59,0,0,1,.74.71,6.23,6.23,0,0,1,.38,1.93,49.5,49.5,0,0,1,.26,5.39q0,4.56-.12,5.89a2,2,0,0,1-.52,1.41,2,2,0,0,1-1.43.45,1,1,0,0,1-1-.53l-.45-.86a5.44,5.44,0,0,1-1.43.14,3.88,3.88,0,0,1-.69-.07v.9c0,.29-.18.43-.53.43H99.43a.46.46,0,0,0,.15-.36v-3.92a.58.58,0,0,0-.29-.41h1.57q.48,0,.5.36v1.5h.07l.74,0q.31-.07.31-.29a2.23,2.23,0,0,0-.22-1.22.47.47,0,0,0-.33-.24h1.58q.41,0,.52.24a3.24,3.24,0,0,1,.17,1.22,2.34,2.34,0,0,1-.36,1.55l.29,0q.52,0,.65-.28a15.53,15.53,0,0,0,.21-3.51l-.57.24a2.92,2.92,0,0,1-.86.36q-.14,0-.34-.38a7.11,7.11,0,0,1-1.86.31,2.44,2.44,0,0,1-1.7-.5l-.07-.07s0-.07-.05-.07a1.18,1.18,0,0,1-.31-.74q0-.26.71-.95l.05-.05a1.69,1.69,0,0,1-.93-.31.76.76,0,0,1-.29-.67.86.86,0,0,1,0-.17l-.33.17a19,19,0,0,0-2.29,1.36c-.19.16-.29.28-.29.34a.18.18,0,0,0,.21.21,4.19,4.19,0,0,0,1-.12,1.42,1.42,0,0,1-.16-.5q0-.19.76-.57l.62-.33a.72.72,0,0,0-.07.29,3.05,3.05,0,0,0,.45.84s.21.34.64,1c0,.09.1.15.24.19l.12,0-.07.05-.62.26a3.2,3.2,0,0,1-.83.31q-.19,0-.48-.46h0a6.9,6.9,0,0,1-1.86.33,2,2,0,0,1-1.48-.46,1.09,1.09,0,0,1-.36-.77q0-.26.67-.95l.14-.12a1.87,1.87,0,0,1-.91-.31.54.54,0,0,1-.17-.19q0,6.3-.09,7.42-.14.48-.55.48H91.24a3.87,3.87,0,0,0,.4-2.13q0-3.11,0-5.47,0-3-.15-6.54A4.15,4.15,0,0,0,91.17,339.49Zm2.41,2.27q.86.07,1.69.07,1,0,1.62,0a.83.83,0,0,0-.26-.65A1.26,1.26,0,0,0,96,341a9.13,9.13,0,0,0-1.65.19l-.76.17C93.57,341.5,93.57,341.63,93.58,341.76Zm.07,2.07q1.07.07,2.13.07h.91l.09-.64-1.52,0-1.63,0C93.63,343.46,93.64,343.65,93.65,343.82Zm0,2.89.15-.22a5.69,5.69,0,0,1,1.43-1.15l-1.58,0Zm.4,4.22h1.43c.37,0,.56.13.59.4v.76c0,.37.21.55.62.55l.33,0q.07-.88.07-1.48a.68.68,0,0,0-.19-.43l1.53.07q.53,0,.53.41,0,1-.28,3.56a.81.81,0,0,1-.91.79L96,355.34q.74-.22.79-.76c0-.18,0-.36.07-.52q-.53,0-.93,0a1.52,1.52,0,0,1-1.27-.48,2.86,2.86,0,0,1-.31-1.53v-.76A.43.43,0,0,0,94.06,350.93Zm8.61-1.74a2.38,2.38,0,0,1-.19-.69q0-.19.77-.57l.59-.33a1.52,1.52,0,0,0-.07.29,3.8,3.8,0,0,0,.41.91s.19.37.57,1.07c0,.06.1.1.24.12q0-1,0-2.27t0-2.41l-1.72,0h-1a.16.16,0,0,1,0,.07.74.74,0,0,1-.33.53q-1.26.83-1.26,1t.21.14l.59,0,.67-.45a4.35,4.35,0,0,0,.95-.62.8.8,0,0,0-.07-.28l1.19.72q.33.21.33.43t-.67.46a21.24,21.24,0,0,0-2.38,1.43c-.21.17-.31.3-.31.38s.06.22.19.22a5.71,5.71,0,0,0,1.21-.14Zm-1-7.5q.81.07,1.58.07t1.46,0a1.79,1.79,0,0,0-.19-.65.64.64,0,0,0-.46-.14,16,16,0,0,0-1.74.1,6.61,6.61,0,0,1-.65.12Zm0,2.15q.83.05,1.62.05,1,0,1.64,0c0-.23,0-.45-.05-.67l-1.62,0-1.58,0Z"/><path class="cls-1" d="M112.42,339.36h1.7q.9,0,1,.76v1.36a16.51,16.51,0,0,0,1.84-.14,1.3,1.3,0,0,0,.65-.34v1.75a.67.67,0,0,1-.29.65,13.09,13.09,0,0,1-3.41.22q0,.5-.17,1.34a5.08,5.08,0,0,1,1.31-.19,4,4,0,0,1,.84.09,1.64,1.64,0,0,1,1.08.84,6,6,0,0,0,.33-.76,34.82,34.82,0,0,0,1.69-5.2,1.41,1.41,0,0,0-.09-.34l1.67.83a1.19,1.19,0,0,1,.24.21,6.39,6.39,0,0,1,1.74-.33,1.38,1.38,0,0,1,1.12.81,21.39,21.39,0,0,1,1.57,3.68q.52,1.36.76,1.36a10.27,10.27,0,0,1-2.32,1.17q-.16,0-.31-.59-.55-2.39-1-3.72-.26-.79-.48-.79a3.15,3.15,0,0,0-1.21.4l-.15.07q-.4,1.17-1.1,3.08-.52,1.62-.91,1.62a5.22,5.22,0,0,1-1.34-.58q.09,1,.09,3a23.81,23.81,0,0,1-.24,4.3q-.22,1.07-.77,1.29a2.64,2.64,0,0,1-1.12.22h-1a1.81,1.81,0,0,1-1-.16,1.53,1.53,0,0,1-.4-.62q-.17-.48-.36-.93a2.58,2.58,0,0,1-.09.34q-.29,1.43-.59,1.43a2.57,2.57,0,0,1-.65-.14q-.65-.16-1.41-.29.34-.19.52-1.41.65-3.7,1.2-7.92.17-1.34.28-2.12a5.6,5.6,0,0,1-1.45-.19.71.71,0,0,1-.29-.67V341a1.28,1.28,0,0,0,.81.34q1.08.1,2.08.14V340A.77.77,0,0,0,112.42,339.36Zm0,13.82a5.19,5.19,0,0,0,1.91.34.66.66,0,0,0,.4-.09,2.19,2.19,0,0,0,.22-1.14,26.29,26.29,0,0,0,.14-2.72,6.67,6.67,0,0,0-.29-2.67q-.12-.19-.79-.19a1.47,1.47,0,0,0-.5.17l-.05,0Q113,350.17,112.42,353.19ZM120,350a6.45,6.45,0,0,1,2.22,1.34,7.75,7.75,0,0,1,2.25,2.46.68.68,0,0,1-.31.53l-1.76,1.24c.15-.13.22-.24.22-.33a9.77,9.77,0,0,0-2.43-2.51,3.76,3.76,0,0,0-2.34-1.21,13.51,13.51,0,0,1,1.33-1.14A1.82,1.82,0,0,1,120,350Zm1-4.11q.36,0,1.79,1.24a7.22,7.22,0,0,1,1.79,2.27.63.63,0,0,1-.29.5q-.84.58-1.69,1.22a.69.69,0,0,0,.14-.36,9.48,9.48,0,0,0-1.91-2.36,2.77,2.77,0,0,0-1.81-1.14,15,15,0,0,1,1.22-1A1.77,1.77,0,0,1,121.08,345.91Z"/><path class="cls-1" d="M132.77,341.77a6.24,6.24,0,0,0,.29.71,4,4,0,0,0,.62,1.05.75.75,0,0,0,.31.1l-1,.19-.55.12a.6.6,0,0,1,.29.45c0,.06-.11.15-.34.29a8.09,8.09,0,0,0-1.15.95.56.56,0,0,0-.15.28c0,.13.07.19.21.19l.22,0q.86-.62,1.93-1.24.67-.34.67-.52V344l1.07,1.31a1,1,0,0,1,.15.5q0,.24-.64.59a17.68,17.68,0,0,0-2.69,1.51c-.4.25-.6.42-.6.5s.17.14.5.14a8.24,8.24,0,0,0,2-.29h0a3.36,3.36,0,0,1-.22-.74q0-.26.84-.64l1.1-.45a.55.55,0,0,0-.14.15.24.24,0,0,0-.07.17,2.91,2.91,0,0,0,.07.31q.29,1,.69,2a.66.66,0,0,0,.53.21q-.86.52-.89.52a2.93,2.93,0,0,1-1.08.53s-.12-.13-.22-.38l-.15-.38-1.1.29.15.05q.5.21.5.53a1,1,0,0,1-.14.41,17.39,17.39,0,0,0,2.22-.14,1.45,1.45,0,0,0,.65-.33V352q0,.48-.26.62a4.75,4.75,0,0,1-.95.1q.31.58.67,1.15a.76.76,0,0,0,.6.26l-1,.6a3.34,3.34,0,0,1-1.27.59q-.09,0-.29-.41a18,18,0,0,1-.83-1.65c-.09-.21-.17-.37-.24-.5h-.31a25.11,25.11,0,0,1-1.57,2.34q-.21.29-.41.29a.88.88,0,0,1-.4-.16l-1.81-.89a.58.58,0,0,0,.45-.26q.57-.71,1-1.38a8,8,0,0,1-1-.09.68.68,0,0,1-.28-.65v-1.6a1.33,1.33,0,0,0,.81.33l1.64.12q.21-.41.31-.65a6.46,6.46,0,0,1-.91.07,2.16,2.16,0,0,1-1.41-.38,1,1,0,0,1-.36-.74,2.73,2.73,0,0,1,.79-1.55.43.43,0,0,1,.1-.1,1.1,1.1,0,0,1-.67-.36,1.17,1.17,0,0,1-.29-.74,2.19,2.19,0,0,1,.4-.88,9.39,9.39,0,0,1,1.08-1.33h0a6.14,6.14,0,0,1-.71.15.23.23,0,0,1-.21-.1,2.86,2.86,0,0,1-.48-1,3.14,3.14,0,0,1-.29-.81q0-.31.45-.43l.14-.05q-.52,0-.52-.5v-1.55a.64.64,0,0,0,.48.26q1.12,0,2.62-.12,1.69-.1,3.12-.33,1.14-.15,1.24-.43.4,1.55.4,1.7c0,.15-.28.28-.83.4l-.22,0,.69.28q.36.16.36.41a1.62,1.62,0,0,1-.15.36,10.58,10.58,0,0,1-.77,1.34c-.08.14-.16.21-.24.21a9.54,9.54,0,0,1-1.58-.76.28.28,0,0,0,.21-.14,8.88,8.88,0,0,0,.71-1.26c.09-.17.15-.29.17-.34Q133.84,341.67,132.77,341.77ZM131,343.08c.29.17.52.32.71.45q-.15-.26-.31-.57a2.91,2.91,0,0,1-.33-.77.43.43,0,0,1,.14-.31l-1,.05v0a3.66,3.66,0,0,0,.29.83,5.7,5.7,0,0,0,.34.79.93.93,0,0,0,.19-.24A.67.67,0,0,0,131,343.08Zm7-3.46,1.62.93c.26.17.4.32.4.45a2.83,2.83,0,0,1-.17.86l0,.14c.31,0,.62,0,.93,0a2.18,2.18,0,0,1,0-.28q-.07-1.46-.38-1.7h1.88a.62.62,0,0,1,.69.55q.05.65.07,1.39l.84-.1a1.29,1.29,0,0,0,.53-.33v1.74a.67.67,0,0,1-.29.65,2.77,2.77,0,0,1-1,.16q0,.76,0,1.58l.52-.09a1,1,0,0,0,.46-.33V347a.68.68,0,0,1-.28.65,1.68,1.68,0,0,1-.71.14v1.53l.52-.09a1.12,1.12,0,0,0,.46-.33v1.74a.69.69,0,0,1-.28.65,1.88,1.88,0,0,1-.72.15q0,1.09-.05,1.67a8.3,8.3,0,0,0,.95-.1,1.12,1.12,0,0,0,.53-.34v1.81a.65.65,0,0,1-.36.67,11.75,11.75,0,0,1-2.69.16q-1.38,0-2.07-.05a.72.72,0,0,1-.69.31h-1.64a1.47,1.47,0,0,0,.33-1.07q0-2.22,0-5.18,0-.71,0-2.08l-.07,0a7,7,0,0,1-1.84-1q.28,0,.67-1,.86-1.87,1.62-3.94a6.52,6.52,0,0,0,.31-1.26A1.16,1.16,0,0,0,138,339.62Zm1.46,6a11.76,11.76,0,0,0,1.39.09q0-.79,0-1.58-.88,0-1.41-.05Q139.49,344.87,139.5,345.66Zm.09,3.65a10.64,10.64,0,0,0,1.33.09v-1.5q-.83,0-1.34-.07Q139.57,348.57,139.59,349.31Zm0,3.8q.62.05,1.24.07.05-.4.07-.91t0-.72l-1.31-.07Q139.59,352.43,139.57,353.12Z"/><path class="cls-1" d="M147,340.12a4.46,4.46,0,0,0,1.31.19,31.56,31.56,0,0,0,3.86-.5,36.94,36.94,0,0,1,5.06-.45,13.59,13.59,0,0,1,3.63.33,3.46,3.46,0,0,1,1.64,1,3.52,3.52,0,0,1,.48,1.95,4.4,4.4,0,0,1-.19,1.57q-.17.53-.43.53l-2.08-.4a.59.59,0,0,0,.29-.46,3.79,3.79,0,0,0,.14-1.24,1.8,1.8,0,0,0-.19-.84,1.38,1.38,0,0,0-1-.55,14,14,0,0,0-2.32-.15l-.79,0v1.12q.55.05,1.07.05a10.66,10.66,0,0,0,1.86-.12.78.78,0,0,0,.36-.31v1.45q0,.43-.19.55a7.63,7.63,0,0,1-2,.14l-1.07,0v.38a2.14,2.14,0,0,1,0,.41l2.51.4q3.08.41,3.63.41a.65.65,0,0,0,.43-.21l-.38,1q-.29,1-.6,1-.52,0-4-.55-2.89-.45-6.33-1.21l-.79-.17A15.41,15.41,0,0,1,150,347a1.4,1.4,0,0,1-.4.46h.22a.74.74,0,0,1,.81.48l3-.31.14,0q-.09-.72-.36-.84h1.86a.6.6,0,0,1,.67.55.89.89,0,0,1,0,.17q1.86-.1,3-.1a5.65,5.65,0,0,1,1.6.17,2.83,2.83,0,0,1,1.22.64,1.56,1.56,0,0,1,.46,1.26q0,.47,0,.83l.34-.14v1.45q0,.41-.19.53a6.9,6.9,0,0,1-1,.07l.55.79s.37.5,1.1,1.48c0,.12.19.19.46.22l-.91.41a3.38,3.38,0,0,1-1.07.48q-.34,0-.86-.67a59.65,59.65,0,0,1-7.19.4q-3,0-5.46-.16-.52-.05-.55-.4t.15-1.74a.51.51,0,0,0,.46.29q2.46.12,5.39.12h.41v-.05q0-.6,0-1.12-2.1,0-3.24-.07-.14.55-.59.55h-2.13q.5-.19.5-.95v-3.18a1.2,1.2,0,0,0-.5-1.15h1l-.12-.05-1.69-.84a.87.87,0,0,0,.67-.45,21.94,21.94,0,0,0,1.86-3.06,2,2,0,0,0,.31-.76.21.21,0,0,0-.05-.1,6,6,0,0,1-1.07.22q-.47,0-1.07-1Zm3.65,10.26h.05q1.58.07,3.15.1,0-.64,0-1.29-2.27.26-3.17.33Zm1-6.44,2.51.48v-2.86a2,2,0,0,0,0-.28q-1.27.12-2.46.34l-1,.29,1,.12q.59.07.59.46a4.13,4.13,0,0,1-.31.91Zm7.81,9.23a1.6,1.6,0,0,1-.21-.59c0-.1.09-.23.28-.38l-3.49,0q0,.71-.05,1.14Q157.86,353.31,159.49,353.17Zm-3.43-4.11q0,.59,0,1.22v.22q2.19,0,3.73,0V350q0-.81-.53-.93-.34,0-1.27,0Q157.38,349,156.07,349.05Z"/><path class="cls-1" d="M168.54,339.49q1,.07,1.79.17.48.05.48.46a7.55,7.55,0,0,1-.4,1.36l-.05.17c.25,0,.5,0,.76,0a2.2,2.2,0,0,1,1,.19,1.77,1.77,0,0,1,.76.72,3.31,3.31,0,0,1,.43,1.38,14.46,14.46,0,0,1,.09,1.45.69.69,0,0,0,.05-.14q.65-1.81,1.17-3.86a9.77,9.77,0,0,0,.33-1.51q0-.17-.28-.43l2,.24q.5.09.5.52a8.38,8.38,0,0,1-.26,1.2.3.3,0,0,0,0,.09l.26-.07a10.29,10.29,0,0,1,1.82-.4,2.73,2.73,0,0,1,1.2.26,1.83,1.83,0,0,1,1,.77,4.48,4.48,0,0,1,.43,1.91,38.06,38.06,0,0,1,.16,4q0,3.86-.12,5.23a2.69,2.69,0,0,1-1,1.88,2.31,2.31,0,0,1-1.34.43h-1.58a2.2,2.2,0,0,1-2.08-1q-.34-.4-1.34-1.72a13.67,13.67,0,0,0,4.48.69.6.6,0,0,0,.46-.19q.19-.17.22-1.31v-4a26.6,26.6,0,0,0-.22-4,1.22,1.22,0,0,0-.26-.79,1.45,1.45,0,0,0-.76-.15,4.06,4.06,0,0,0-1,.28,2.63,2.63,0,0,1-.95.4q-.29,1-.67,1.93-.26.69-.53.69a2.86,2.86,0,0,1-.65-.12l-1-.19q0,.74,0,1.6,0,2.6-.07,4.37l0,.5a1.12,1.12,0,0,0,.4-.31V354a.67.67,0,0,1-.36.69,13.9,13.9,0,0,1-2.75.14q-1.38,0-2.1-.05a1.31,1.31,0,0,1,0,.24.62.62,0,0,1-.6.5H166q.38-.31.45-1.89,0-2.74,0-4.79,0-2.6-.17-5.73-.07-1.46-.38-1.7h1.82a.58.58,0,0,1,.52.21,5.8,5.8,0,0,0,.22-.67,8.13,8.13,0,0,0,.26-1A.59.59,0,0,0,168.54,339.49Zm.05,7.23a13.15,13.15,0,0,0,1.34.07q.79,0,1.36-.05,0-1.55-.05-2a1.67,1.67,0,0,0-.17-.76.55.55,0,0,0-.5-.19,4,4,0,0,0-1.12.16,4.82,4.82,0,0,0-.86.34l-.05,0Q168.57,345.42,168.59,346.71Zm0,5.82a19.7,19.7,0,0,0,2,.1h.5c0-.14,0-.29.05-.46q.1-1.27.15-3.27-.53,0-1.36,0t-1.34,0Q168.59,351.12,168.57,352.53Zm7.33-6.3q.24,0,1.33,1.24a7.07,7.07,0,0,1,1.34,2.22.68.68,0,0,1-.31.53l-1.74,1.24c.14-.14.21-.25.21-.33a9.29,9.29,0,0,0-1.48-2.32q-.81-1.14-1.41-1.14.62-.57,1.27-1.07A1.67,1.67,0,0,1,175.9,346.23Z"/><path class="cls-1" d="M194.59,351.09q-.29.67-.91,2a1.56,1.56,0,0,1-.41.46,1.72,1.72,0,0,1-.64.16,29.59,29.59,0,0,1-3.3.14h-1.58q-2.17,0-2.17-1.33,0-.67,1.5-2.17l2.77-2.72q1.51-1.57,1.51-2.37,0-1.43-1.5-1.43a2,2,0,0,0-1.29.52,12.61,12.61,0,0,0-.91,1q-.45.52-.76.52a8.77,8.77,0,0,1-2-1.41,1.49,1.49,0,0,0,1-.57,4.47,4.47,0,0,1,.6-.69,4.91,4.91,0,0,1,3.44-1.48,4.1,4.1,0,0,1,2.56.86,2.82,2.82,0,0,1,1.24,2.34,5.3,5.3,0,0,1-1.26,3,19.43,19.43,0,0,1-2.31,2.48,7.52,7.52,0,0,0-1.24,1.27c0,.06.12.09.36.09A24.06,24.06,0,0,0,194.59,351.09Z"/><path class="cls-1" d="M207.38,350.26a3.14,3.14,0,0,1-1.41,2.6,4.76,4.76,0,0,1-2.93,1,4.39,4.39,0,0,1-4.58-3,2.14,2.14,0,0,1-.14-.69q0-.36.53-.57.14-.05,1.69-.43a1.41,1.41,0,0,0-.17.62.84.84,0,0,0,.07.31,3,3,0,0,0,1,1.21,2.4,2.4,0,0,0,1.46.55,2.27,2.27,0,0,0,1.39-.46,1.46,1.46,0,0,0,.69-1.24q0-1.67-2.56-1.74-.29,0-.83,0c-.37,0-.55-.2-.55-.48v-1.76a.87.87,0,0,0,.77.33,5.06,5.06,0,0,0,1.67-.21,1.2,1.2,0,0,0,.9-1.22,1.26,1.26,0,0,0-.45-1,1.62,1.62,0,0,0-1-.38,2,2,0,0,0-1.31.5,4.73,4.73,0,0,0-.83.89c-.25.32-.45.48-.58.48a9.94,9.94,0,0,1-2.08-.91,2.61,2.61,0,0,0,1-.95,6.12,6.12,0,0,1,1.29-1.38,4.47,4.47,0,0,1,5.18.26,3.19,3.19,0,0,1,1.26,2.53,2.91,2.91,0,0,1-1.1,2.12A3.55,3.55,0,0,1,207.38,350.26Z"/><path class="cls-1" d="M211,339.91a5,5,0,0,0,1.58.28q2.51.1,5,.1a1.54,1.54,0,0,0-.33-.74h2q.4,0,.57.76,3.29,0,5.13-.12a4.84,4.84,0,0,0,1.27-.28v1.45q0,.41-.21.53-.86.14-6,.16l0,.45q1.34-.05,2.24-.05a5.55,5.55,0,0,1,1.64.19,2.85,2.85,0,0,1,1.24.64,1.54,1.54,0,0,1,.48,1.26v.22l.33-.1v1.26c0,.24-.06.4-.19.46q-.81.09-5.66.09V347q2.17-.05,3.46-.05a2.48,2.48,0,0,1,.93.14,1.7,1.7,0,0,1,.93.53,2.22,2.22,0,0,1,.34,1.36v.21a4.52,4.52,0,0,0,.76-.17v1.26q0,.36-.22.46l-.62,0c0,.21-.05.4-.09.57a1.91,1.91,0,0,0,.36-.1v1.26c0,.24-.06.4-.19.46q-.84.07-5.9.07a5.4,5.4,0,0,1-.34,1.55,1.69,1.69,0,0,1-1.74,1.07,12.21,12.21,0,0,1-1.7-.14q-.69-.09-.83-.43-.33-.53-.72-1.27a5.46,5.46,0,0,0,1.19.22q.81.05,1.43.05.38,0,.5-.81l0-.24q-4.82,0-6-.07a.49.49,0,0,1-.22-.48v-1.24a4.84,4.84,0,0,0,1.51.24q2.41.09,4.75.09,0-.34,0-.74-5.54,0-6.82-.07a.49.49,0,0,1-.22-.48V349a5.75,5.75,0,0,0,1.65.24q2.74.08,5.42.12c0-.29,0-.58,0-.88l-1.33.05q-3.61.21-4.32.21-.31,0-.74-.81L211,347a2.07,2.07,0,0,0,.76.16q1.93,0,5.68-.1l.45,0v-.57q-2.62,0-3.91,0a.55.55,0,0,1-.52.36h-2.13q.5-.19.5-.95v-2.2a1.29,1.29,0,0,0-.5-1.19h1.89a.77.77,0,0,1,.79.43l2.82-.22,1-.05c0-.21,0-.39,0-.55q-5.34,0-6.58-.16a.67.67,0,0,1-.21-.57Zm3.1,5q1.91.09,3.79.1,0-.57,0-1l-.5,0-3.27.24Zm6,5.89q0,.41,0,.77l3.22-.07a6.62,6.62,0,0,0,.12-.72Zm.07-2.37c0,.33,0,.65,0,.95l3.41-.07c0-.13,0-.23,0-.33a.67.67,0,0,0-.14-.43.56.56,0,0,0-.41-.16Q221.66,348.37,220.08,348.4Zm0-4.54q0,.55,0,1.15,1.86,0,3.17,0,0-1-.5-1.1a9.86,9.86,0,0,0-1.24-.05Z"/><circle class="cls-2" cx="161.99" cy="130.51" r="83.23"/><g class="cls-3"><path class="cls-4" d="M151.41,97.41H122.78V95.94a1.17,1.17,0,0,0-1.17-1.17H108.76a1.17,1.17,0,0,0-1.17,1.17v1.48h-.74a1.18,1.18,0,0,0-1.18,1.17v2h46.91v-2A1.17,1.17,0,0,0,151.41,97.41Z"/><path class="cls-5" d="M105.67,100.58v31.54a1.17,1.17,0,0,0,1.18,1.17h44.57a1.17,1.17,0,0,0,1.17-1.17V100.58Z"/><rect class="cls-6" x="107.56" y="102.27" width="43.33" height="29.28" rx="0.14" ry="0.14"/><circle class="cls-5" cx="114.48" cy="96.44" r="0.74"/><circle class="cls-7" cx="118.86" cy="96.44" r="0.74"/><rect class="cls-5" x="110.1" y="123.26" width="3.65" height="7.16"/><rect class="cls-5" x="115.79" y="121.05" width="3.65" height="9.36"/><rect class="cls-5" x="121.48" y="119.05" width="3.65" height="11.37"/><rect class="cls-5" x="127.17" y="124.73" width="3.65" height="5.68"/><rect class="cls-5" x="132.86" y="122.33" width="3.65" height="8.09"/><rect class="cls-5" x="138.56" y="114.97" width="3.65" height="15.45"/><polygon class="cls-5" points="132.75 118.64 125.77 111.58 112.41 116.53 112.01 115.45 126.07 110.25 132.81 117.06 146.11 105.41 146.87 106.27 132.75 118.64"/><circle class="cls-8" cx="112.21" cy="116.1" r="1.69"/><circle class="cls-8" cx="125.92" cy="111.24" r="1.69"/><circle class="cls-8" cx="132.78" cy="117.61" r="1.69"/><circle class="cls-8" cx="146.34" cy="105.94" r="1.69"/><circle class="cls-6" cx="109.95" cy="96.44" r="0.74"/><rect class="cls-5" x="144.52" y="111.24" width="3.64" height="19.18"/></g><path class="cls-9" d="M217.29,138.74c0,33.1-16.46,43.48-36.91,43.48s-37.14-10.38-37.14-43.48,16.58-59.93,37-59.93S217.29,105.64,217.29,138.74Z"/><path class="cls-10" d="M144.91,155a72.09,72.09,0,0,1-1.68-16.3,94.25,94.25,0,0,1,1.87-18.86"/><path class="cls-10" d="M152.38,99.31c6.79-12.57,16.77-20.51,27.89-20.51,20.45,0,37,26.83,37,59.93s-16.46,43.48-36.91,43.48c-11.65,0-22.08-3.37-28.9-12.39"/><path class="cls-11" d="M146.14,126.43a55.14,55.14,0,0,1,25-45.8c-16.06,6.56-27.94,30.08-27.94,58.11,0,33.1,16.69,43.48,37.14,43.48a46.69,46.69,0,0,0,12.6-1.59C166.77,176.68,146.14,153.6,146.14,126.43Z"/><circle class="cls-12" cx="180.9" cy="118.05" r="24.09"/><ellipse class="cls-13" cx="169.37" cy="112" rx="1.95" ry="3.05"/><ellipse class="cls-13" cx="191.73" cy="112" rx="1.94" ry="3.05"/><ellipse class="cls-14" cx="180.9" cy="131.42" rx="2.34" ry="3.32"/><rect class="cls-15" x="186.11" y="147.76" width="2.64" height="0.26"/><polygon class="cls-15" points="184.13 147.45 181.49 147.31 181.49 147.26 180.92 147.28 180.31 147.25 180.31 147.31 177.67 147.45 178.39 148.19 181.49 148.19 181.49 148.19 183.41 148.19 184.13 147.45"/><rect class="cls-16" x="177.67" y="145.67" width="6.46" height="1.78"/><path class="cls-16" d="M172,158.66a.63.63,0,0,0,.63.63h16.45a.63.63,0,0,0,.63-.63V155.3H172Z"/><path class="cls-16" d="M189.75,148.55a.63.63,0,0,0-.63-.63H172.68a.63.63,0,0,0-.63.63v3.35h17.71Z"/><rect class="cls-17" x="172.04" y="151.91" width="17.71" height="3.4"/><circle class="cls-18" cx="180.9" cy="153.82" r="4.85"/><rect class="cls-18" x="178.87" y="146.09" width="4.06" height="0.93"/><rect class="cls-16" x="186.01" y="147.07" width="2.82" height="0.68"/><circle class="cls-18" cx="173.34" cy="149.15" r="0.61"/><path class="cls-19" d="M183.74,151.4l-5.58,4.94a3.73,3.73,0,0,0,5.58-4.94Z"/><path class="cls-20" d="M180.9,150.08a3.73,3.73,0,0,0-2.74,6.26l5.58-4.94A3.71,3.71,0,0,0,180.9,150.08Z"/><path class="cls-21" d="M143.62,130S158.34,150,172,151.91"/><path class="cls-21" d="M217.31,130S202.59,150,188.89,151.91"/><path class="cls-22" d="M201.59,139l-.92,1.21-1.89,2.48-.92,1.2a.44.44,0,0,0,.08.62l19.18,12.73a.44.44,0,0,0,.62-.08h0l1.89-2.48h0a.44.44,0,0,0-.08-.62L202.21,139A.45.45,0,0,0,201.59,139Z"/><circle class="cls-22" cx="192.07" cy="135.66" r="5.61" transform="translate(-32.27 206.13) rotate(-52.67)"/><path class="cls-23" d="M195.67,130.95a.4.4,0,0,1,.08.56L189,140.3a.4.4,0,0,1-.56.08h0a.41.41,0,0,1-.07-.56l6.71-8.79a.4.4,0,0,1,.56-.07Z"/><path class="cls-23" d="M203.44,137.18a.63.63,0,0,1,.12.88l-6.14,8a.63.63,0,0,1-.89.12l-4.15-3.16a.63.63,0,0,1-.12-.89l6.13-8a.64.64,0,0,1,.89-.12Z"/><path class="cls-5" d="M195.43,141.33l-.65.86-.6-.46,1.87-2.45.61.46-.67.87,2.58,2-.55.72Z"/><path class="cls-5" d="M200.2,140.43l-4-1.41.61-.79,1.64.64c.46.18.9.36,1.35.59h0c-.33-.37-.62-.76-.91-1.15l-1.05-1.45.59-.76,2.37,3.51Z"/><line class="cls-24" x1="133.65" y1="130.05" x2="146.87" y2="144.65"/><path class="cls-25" d="M104.2,248.83l3.06,1.72a2.19,2.19,0,0,1,.58.49q5.08-1.84,6.89-1.84a4.44,4.44,0,0,1,2.76,1.13,98.62,98.62,0,0,1,7.26,7.5,2.1,2.1,0,0,0,1.62.89q-3,2.24-3.55,2.24a1.36,1.36,0,0,1-.67-.21q0,.43,0,.89a50.07,50.07,0,0,1-.25,5.36,6,6,0,0,0,.64-.31v2.11l2.21,1.1q.73.43.73,1,0,.37-3.71,3.22l-.15.12.52.21a12.76,12.76,0,0,0,3.22,1.07,1.4,1.4,0,0,0,.7-.21q-1,1.26-2.3,2.63a1.31,1.31,0,0,1-1,.52q-1,0-5.7-2.48-1.1-.55-2.08-1.07l-.55,1.32a1.48,1.48,0,0,1-1,1q-3.34.52-5.91.73-2.33.12-3.12.12a8.52,8.52,0,0,1-2.66-.49,4.32,4.32,0,0,1-2.05-1.75,10.65,10.65,0,0,1-.58-4.23,83.92,83.92,0,0,1,.95-10.72,29.69,29.69,0,0,1-3.64-2.17q.83,0,2-1.47a64.08,64.08,0,0,0,4.84-5.85,5.8,5.8,0,0,0,1-1.87A1.76,1.76,0,0,0,104.2,248.83ZM113,273.76q-2.57-1.44-4.59-2.79-3.49,0-5.18-.15v.8q0,2.24.58,2.63a4,4,0,0,0,2.36.55,24.91,24.91,0,0,0,5.18-.64Q112.22,274,113,273.76Zm-9.34-8.18q-.12.86-.18,1.68l.31,0q4.23.28,8.39.28,3.31,0,5.67-.09.09-.8.15-1.84-2.17.09-6.86.09Q105.89,265.74,103.65,265.58Zm.4-8q2-.06,4.9-.25v-2a1.25,1.25,0,0,0-.46-1h2.88q1.53,0,1.62,1.35v1.38q2.69-.15,4.32-.15a7,7,0,0,1,1,.06q-1.59-1.65-2.76-2.79-1.59-1.44-2.3-1.44a22.37,22.37,0,0,0-4.9,1.19,13.48,13.48,0,0,1-2,.52Q105.18,256.15,104,257.59Zm.37,3.37-.25,1.35q3.46.22,7,.21,4.47,0,7-.21v-.67a1.43,1.43,0,0,0-.49-1.13,2.89,2.89,0,0,0-1.68-.43q-3,0-7.63.43Q105.73,260.84,104.42,261Zm14.15,11.91.06-.06q1.13-1.13,1.87-1.93-2,.09-6,.12Q116.54,272,118.56,272.87Z"/><path class="cls-25" d="M141.61,249.29h3.34q1.78,0,1.93,1.47v1.5l1.84,0a22.1,22.1,0,0,1,6.19.58,4.39,4.39,0,0,1,3.61,4.9,3.93,3.93,0,0,1-.61,2.57,1.69,1.69,0,0,1-1.5.89l-3.71-.64q.06,1.07.12,2.3,2.33-.06,4.35-.18a1.45,1.45,0,0,0,1.35-1v3.71a1.29,1.29,0,0,1-1.47,1.44q-1.81.18-4.17.25v5q2.45-.43,5.39-1l-2,4.26a1.58,1.58,0,0,1-1,.73q-1.35.12-2.51.18c0,.37,0,.63-.06.8q-.31,1-1.16,1H148q.49-.31.67-1.59-4.56.24-6.71.25a16.34,16.34,0,0,1-4.07-.55,6.47,6.47,0,0,1-3.46-2.39,5,5,0,0,1-.77-2.82,28.89,28.89,0,0,1,.4-3.83q-1.26,0-2.27-.09-1.47-.09-1.47-1.41v-3.49q.37.7,1.87.7l3.09.12q.49-1.47,1.07-2.79a6.11,6.11,0,0,0,.46-1.26q0-.52-.83-.95l3.74.34q1.65.15,1.65,1.13a15.73,15.73,0,0,1-1,2.36l-.58,1.23q2.17,0,4.66,0,2.27,0,4.29,0-.06-1.2-.15-2.42-.15-2.05-.67-2.39h3.49a1.13,1.13,0,0,1,1.26,1q.06.61.09,1.22a1.21,1.21,0,0,0,.89-.61,3.11,3.11,0,0,0,.49-2,2.11,2.11,0,0,0-.28-1.1,2.07,2.07,0,0,0-1.5-.77,33.35,33.35,0,0,0-3.58-.15,68.2,68.2,0,0,0-9.16.58q-3.31.7-4.32.83v1.29q0,2.08-1.16,2.08h-3.89q.89-.37.89-1.75v-4.26a2.48,2.48,0,0,0-.89-2.24h3.46a1.34,1.34,0,0,1,1.5,1q1.81-.12,5.18-.49l1.87-.18v-2.17A1.45,1.45,0,0,0,141.61,249.29Zm7.2,23.37q0-2.24,0-4.07v-1.44q-2.08,0-4.44,0-3.37,0-6.06,0a19.5,19.5,0,0,0-.43,3.22,2.06,2.06,0,0,0,1.35,2.17,10.29,10.29,0,0,0,3.71.52A56.5,56.5,0,0,0,148.8,272.66Z"/><path class="cls-25" d="M164.07,252.23l3.06.09q1.1,0,1.1,1.38,0,1.72,0,3.58l.74-1a1.25,1.25,0,0,0,.52,1q-.06-2.18-.18-4.38-.15-2.91-.7-3.46H172a1.16,1.16,0,0,1,1.26,1q.31,4.14.37,10.41.55.46,1.1.89a11.15,11.15,0,0,0,1.81,1.32,4.32,4.32,0,0,0,1-.15l-2,2.14-.52.61a4,4,0,0,0,1.32.31l1.47.09q.89-4.38,1.65-9v0a23.83,23.83,0,0,1-2.6.61,1.49,1.49,0,0,1-1.26-.92q-.61-1-1.68-2.88a2,2,0,0,0,1,.28,31.8,31.8,0,0,0,4.5-.67l.64-.12a28,28,0,0,0,.34-3q.06-.34-.46-.89,1.93.28,3.68.49.95.15.95,1a16.62,16.62,0,0,1-.21,1.9l.7,0a7,7,0,0,1,3.31.7,4.37,4.37,0,0,1,2.39,2.24,11.62,11.62,0,0,1,.55,4.26q0,1.47-.25,4.63-.12.7-.21,1.26a2.77,2.77,0,0,0,1-.49v3.12a1.27,1.27,0,0,1-.52,1.19,23.53,23.53,0,0,1-3.4.21q1.5,2.63,3.28,5.3a1.47,1.47,0,0,0,1.1.46q-1.78,1.1-1.84,1.1a6.08,6.08,0,0,1-2.33,1.13q-.25,0-1-1.19-1-1.56-2.76-5l-.92-1.78h-2.36q-.61,2.54-1.23,5-.83,3.09-1.68,3.09a4.53,4.53,0,0,1-1.13-.25l-2.51-.52q1-.43,1.47-3.06.49-2.14,1-4.35a19.57,19.57,0,0,1-2-.15,1.43,1.43,0,0,1-.46-1.23V266.1a1.28,1.28,0,0,1-.64.34.75.75,0,0,1-.34-.12q0,8.79-.25,10.54a1.14,1.14,0,0,1-1.13.89h-3.55q.73-.61.83-3.77.06-5.51.06-9.62v-1.1l0,0q-.89-.67-1.5-1.19-.15,4.1-.46,9-.15,2.76-.7,2.76-.28,0-3.58-.25a7.58,7.58,0,0,0,.61-3.37q.74-9.43.74-17A1,1,0,0,0,164.07,252.23Zm19.78,4q-.83,5.08-1.87,9.92l1.29,0q1.87,0,3.31,0,.15-.86.31-2.17a30.11,30.11,0,0,0,.43-4.07,2.88,2.88,0,0,0-3.31-3.67Z"/><path class="cls-25" d="M196.45,266.44h3.31a1.37,1.37,0,0,1,1.47.86l1.1-.21a13.09,13.09,0,0,1,2.66-.4,4.64,4.64,0,0,1,2.39.49,2.62,2.62,0,0,1,1,2.3v1.26a18.62,18.62,0,0,1-.12,2.11,2.13,2.13,0,0,0,.61-.49v3a1.22,1.22,0,0,1-.49,1.16,23.89,23.89,0,0,1-4.53.21q-1.62,0-2.66,0-.28.92-1,.92h-3.77q.86-.37.86-1.75v-7.32A2.33,2.33,0,0,0,196.45,266.44Zm3.92-17h2.88q1.53,0,1.62,1.35V252a27.29,27.29,0,0,0,2.82-.21,1.37,1.37,0,0,0,.58-.25l-.06-.09.12.06a1.31,1.31,0,0,0,.34-.34v.43a2.69,2.69,0,0,0,.64.09,15.44,15.44,0,0,0,3.09-.52,36.18,36.18,0,0,1,7.2-1.07,4.06,4.06,0,0,1,2.88.92,3.28,3.28,0,0,1,.77,2.36q0,1-.95,8.85a107,107,0,0,0-.64,11.39q0,1.07.77,1.07a9.18,9.18,0,0,0,3.28-.58l-1.35,2.88q-.52.92-2.94.92a4.19,4.19,0,0,1-2.7-.64,3.4,3.4,0,0,1-1-2.7q0-5.6.73-13,.86-7,.86-7.47,0-1-.83-1a20.67,20.67,0,0,0-2.85.21,1.37,1.37,0,0,1,0,.25v8a12.1,12.1,0,0,0,1.44-.18,1.69,1.69,0,0,0,.73-.58v3.09q0,.92-.46,1.16a4.62,4.62,0,0,1-1.71.31v10.23q0,2-1.1,2h-3.68q.74-.37.74-1.75V265.43a6.7,6.7,0,0,1-2.21-.34,1.3,1.3,0,0,1-.52-1.23v-3a1.33,1.33,0,0,0,.92.58q.92.12,1.81.18v-7.41a5.93,5.93,0,0,1-1.1.15q-.31,0-.74-.64l-1.13-1.62v2.08a1.25,1.25,0,0,1-.46,1.16,30.31,30.31,0,0,1-5.42.25,33.35,33.35,0,0,1-5.48-.25,1.31,1.31,0,0,1-.52-1.19v-3a1.86,1.86,0,0,0,1.23.61q1.44.15,2.82.18v-1.5A1.34,1.34,0,0,0,200.37,249.41Zm-3.06,6.74a1.59,1.59,0,0,0,1.1.61,36.29,36.29,0,0,0,4.44.28,28,28,0,0,0,4.53-.28,1.6,1.6,0,0,0,.92-.61v3q0,.89-.46,1.13a23.18,23.18,0,0,1-5,.28,25.39,25.39,0,0,1-5.05-.28,1.26,1.26,0,0,1-.49-1.16Zm0,5a1.75,1.75,0,0,0,1.1.61,36.29,36.29,0,0,0,4.44.28,28,28,0,0,0,4.53-.28,1.83,1.83,0,0,0,.92-.61v3q0,.89-.46,1.13a26,26,0,0,1-5,.25,28.51,28.51,0,0,1-5.05-.25,1.3,1.3,0,0,1-.49-1.19Zm4,11.91q1.29.09,2.54.09h.46q0-.43,0-.95t0-1.13q0-1.29-.83-1.32a4.22,4.22,0,0,0-1.59.37,5.67,5.67,0,0,1-.58.21Z"/></g></svg>