<svg xmlns="http://www.w3.org/2000/svg" viewBox="0 0 1114.11 132"><defs><style>.cls-1{fill:#1b923b;}.cls-2{fill:#fff;}</style></defs><title>2</title><g id="圖層_2" data-name="圖層 2"><path class="cls-1" d="M555.39,33.45c-296.06,0-536.06,37.3-536.06,83.3H1091.46C1091.46,70.75,851.45,33.45,555.39,33.45Z"/></g><g id="圖層_2_拷貝" data-name="圖層 2 拷貝"><path class="cls-2" d="M290.15,56.49l3.11,3.58a2.58,2.58,0,0,1,.42,1.35q0,.62-1.88,1.46a59.93,59.93,0,0,0-7.92,3.88q-1.73.92-1.73,1.27,0,.58,1.23.58a71.87,71.87,0,0,0,12-1.15q2.84-.54,5.07-1.19a11.52,11.52,0,0,1-1.5-3.15q0-.81,2.31-1.81L304.33,60a1.63,1.63,0,0,0-.31.38.77.77,0,0,0-.15.5,8.36,8.36,0,0,0,.65,1.31A99.06,99.06,0,0,0,310,70.76a2,2,0,0,0,1.54.65q-2.46,1.46-2.5,1.46a9,9,0,0,1-3.15,1.46q-.38,0-1.38-1.46-.69-1-1.69-2.61a5.74,5.74,0,0,1-.61.19Q289,73.68,280.61,73.68a5.35,5.35,0,0,1-4.11-1.38,4.25,4.25,0,0,1-1.12-2.88q0-1.54,2.35-3.92a49.23,49.23,0,0,1,10.53-6.92q1.88-.88,1.88-1.35Zm-13.07,19h4.61q1.38,0,1.65,1.08,2.11-.23,6.42-.81,7.42-.69,11.15-.69a10.77,10.77,0,0,1,3.38.42,5.76,5.76,0,0,1,2.58,1.58,4.15,4.15,0,0,1,1,3q0,4.31-.19,6.38a9,9,0,0,0,1.31-.5V89.9a1.54,1.54,0,0,1-.65,1.5q-1.77.42-13.34.42-8.11,0-11.57-.23v.08a1.48,1.48,0,0,1-1.5,1.27h-4.65q1-.38,1.08-2.34.08-3.38.08-5.88,0-3.19-.38-7.07Q277.8,75.83,277.07,75.52Zm6.65,11.23q5.69.31,11.23.31,4,0,6.92-.08.15-1.61.15-5.42,0-1.46-1.12-1.65-.69,0-2.65,0t-7.57.42q-5.23.77-7,.92,0,1.12,0,2.38Q283.76,85.37,283.72,86.75Z"/><path class="cls-2" d="M323.71,57.38H328a1.4,1.4,0,0,1,1.54,1.27q.5,6.23.5,16.34,0,14.15-.35,16.68a1.37,1.37,0,0,1-1.38,1.12h-4.42q.84-.77,1-4.65-3.15,1.54-6.54,2.88a4.24,4.24,0,0,1-1.23.38q-.77,0-1.23-1.23l-1.42-3.69a1.6,1.6,0,0,0,.81.42,4.84,4.84,0,0,0,1-.19q4.65-1.61,8.53-3.34l.12-.08V76.06q0-2,0-4-1.35.08-3.46.08a27.54,27.54,0,0,1-5.54-.31,1.57,1.57,0,0,1-.81-1.58V66.34a2,2,0,0,0,1.31.73,41.82,41.82,0,0,0,5,.31q2,0,3.34-.12-.08-2.69-.19-5.57Q324.36,58.07,323.71,57.38Zm9.84,0,4.54.61q1.27.12,1.27,1.23,0,1.35-.35,8.84,0,.54,0,1.15a51,51,0,0,0,5-3.77q1.73-1.54,1.73-1.88v-1l3.77,3.23q.73.62.73,1.08t-1.61,1.73a65.84,65.84,0,0,1-9,6.15,3.52,3.52,0,0,1-.77.38q-.08,2.08-.15,4.5-.15,4.11-.15,5.84,0,3.08,3.38,3.08A18.26,18.26,0,0,0,346.2,88a12.52,12.52,0,0,0,4.38-1.84l-1.35,4.31a2.54,2.54,0,0,1-1.73,1.35,34.24,34.24,0,0,1-4.5.88,21.67,21.67,0,0,1-2.69.23,11.54,11.54,0,0,1-4-.88A5.08,5.08,0,0,1,333.59,89a6,6,0,0,1-.54-2.5q0-3,.23-9,.35-8.42.65-14.65.19-3.73.19-4.34A1.86,1.86,0,0,0,333.55,57.38Z"/><path class="cls-2" d="M368.8,64.3a8.88,8.88,0,0,1-.77,1.34q2.08,0,3.38-.19a2.78,2.78,0,0,0,1.19-.5v1.42a6,6,0,0,0,1.19.12,28.51,28.51,0,0,0,5.34-.81,36.23,36.23,0,0,1,4.27-.38,2.48,2.48,0,0,1-.81-2,7,7,0,0,1,.15-1,12.07,12.07,0,0,0,.31-1.23q0-1-1.27-1a6,6,0,0,0-1.65.46,10.42,10.42,0,0,0-1.54.85,27.1,27.1,0,0,1-.73,3.15,1.08,1.08,0,0,1-1.15.88q-.27,0-4-.27a1.48,1.48,0,0,0,1-1.19,16.61,16.61,0,0,0,1.19-5.73,1.16,1.16,0,0,0-.81-1.11l3.58.12a1.09,1.09,0,0,1,1.11,1,6.15,6.15,0,0,0,1.54-.46,10.51,10.51,0,0,1,3-.73,3.43,3.43,0,0,1,2.42.73,3.26,3.26,0,0,1,.69,2.19,6.61,6.61,0,0,1-.23,1,8.7,8.7,0,0,0-.23,1q0,.73.88.73a7.82,7.82,0,0,0,1.73-.23,5,5,0,0,0,1.65-.65l-1.54,3.15a1.45,1.45,0,0,1-1,.65l-.88.08a3,3,0,0,1,.69.38,2.59,2.59,0,0,1,1.08,2q-.15,1-3.31,3.15,1,.39,1.73.62a11.29,11.29,0,0,0,2.08.5,3.3,3.3,0,0,0,.73-.15L387.95,74a4.22,4.22,0,0,1-1.27,1.08,13.81,13.81,0,0,0,2.54-.46v2.77a1,1,0,0,1-.5,1q-1.88.12-12.26.15v1h.77a28.06,28.06,0,0,1,6,.54,8.78,8.78,0,0,1,4.34,1.69,4.53,4.53,0,0,1,1,3.27q0,1.12-.15,3.5-.08.69-.12,1.15l.77-.15v2.54a1,1,0,0,1-.5,1q-2,.12-15,.12-10,0-13.57-.08a1.29,1.29,0,0,1-1.12.54h-4.15q.81-.31.92-1.88.08-2.81.08-4.88a53.13,53.13,0,0,0-.35-5.77q-.15-1.5-.81-1.73h4q1.15,0,1.42.85l4.61-.23c.13-.31.24-.6.35-.88a2.83,2.83,0,0,0,.19-.54q-8.46,0-10.8-.15a1.18,1.18,0,0,1-.46-1.12V74.64a14,14,0,0,0,3.69.5q7.07.23,14.07.23h3.69a1.53,1.53,0,0,0-.23-.19l-2.42-1.88-.08.27a1.53,1.53,0,0,1-.88.77q-4.27.08-7.57.08-4.42.08-5.77.08a10,10,0,0,1-2.54-.42,3.76,3.76,0,0,1-1.65-1.31,4,4,0,0,1-.46-2q0-1.88.15-4.31.19-3.42.58-7,.23-2,.23-2.34t-.5-.58l3.54.65q.81.15.88.65,3.11.23,6.19.23,4.46,0,6.8-.23a4.12,4.12,0,0,0,1.38-.42v2.38c0,.44-.1.72-.31.85q-1.08.16-7.88.15h-.65q-.08.15-.15.35a2.79,2.79,0,0,1-.23.54q1.46.08,2.88.08a39,39,0,0,0,4.5-.19,1.74,1.74,0,0,0,.88-.46v2.27a.89.89,0,0,1-.31.81A21.59,21.59,0,0,1,368.8,64.3Zm-10.26-3.61q-.27,2.88-.54,6.5-.15,2.15-.15,3.11,0,1.27,2.31,1.27h.38q-.69-.38-1.65-1a2.11,2.11,0,0,0,1.5-.58l1.35-1.46a15.55,15.55,0,0,1-2.54-.23,1.06,1.06,0,0,1-.46-1V65a2.53,2.53,0,0,0,1.46.5q1.92.15,3.84.19a12.78,12.78,0,0,0,.85-1.15.89.89,0,0,1,.12-.19l-2.58-.08-.15.31q-.38.58-.73.58a4.32,4.32,0,0,1-1-.19q-.88-.23-2-.42a.92.92,0,0,0,.65-.58,19.93,19.93,0,0,0,1.54-3,.41.41,0,0,1,.08-.15Q359.46,60.72,358.54,60.68Zm2,25.37a4.11,4.11,0,0,0,.58,0q5.46.23,10.88.23,7.38,0,11.23-.23l.38-.08c0-.41,0-.73,0-1V85a48.62,48.62,0,0,1-6.61.54,8.79,8.79,0,0,1-3.92-.65,2.52,2.52,0,0,1-1-2.23v-.42q-2,0-4.31.15-.54,1.35-1.08,2.58-.46.92-.92.92a4.55,4.55,0,0,1-1.23-.31q-1.27-.31-2.73-.62a1.48,1.48,0,0,0,1-.92,9.29,9.29,0,0,0,.65-1.35q-2,.15-3,.19.11,1.46.12,3.15Zm0,3.84a6.68,6.68,0,0,0,.73,0q6.19.19,12.38.19,5.8,0,9.65-.08a7.67,7.67,0,0,0,.12-1q-3.15.15-11.38.15t-11.5-.15Zm7.57-18.65q-.62-.58-1.38-1.38c-.44-.46-.73-.79-.88-1q-1.08,1.46-2.11,2.61,1.15,0,2.38-.12Q367.11,71.33,368.07,71.26Zm4,8.42V78.6H369q-.11.39-.23.81c-.05.15-.1.29-.15.42Zm.73-6.77a18.23,18.23,0,0,0,4.61-1.38q-3-1.54-3.23-2l-.27,0a1.16,1.16,0,0,1-1.12-.81,4.66,4.66,0,0,0-.38-.81.74.74,0,0,1-.35.38,9.48,9.48,0,0,1-2.19.19,12,12,0,0,0,1,1,1.69,1.69,0,0,0,.58.35,1.19,1.19,0,0,0,.42-.15l-1.35,1.35,2.73-.31Zm3.61,9.23v.31q0,.92,1.54.92a35.81,35.81,0,0,0,4.65-.27,6.94,6.94,0,0,0-1.08-.5,20.78,20.78,0,0,0-5.07-.46Zm1.35-6.77q4.84-.08,7.92-.19a14.74,14.74,0,0,1-2.46-.73q-.85-.35-1.92-.85A24.68,24.68,0,0,1,377.8,75.37Zm1.35-6.8.08,0,2.31,1q1.92-1,2-1.31t-.58-.31A20.21,20.21,0,0,0,379.14,68.56Z"/><path class="cls-2" d="M405.17,56.49q.73,1.46,1,2.23c.18-.2.36-.42.54-.65l.92-1.12a1.28,1.28,0,0,0,.27.73q1.46,1,3.23,2.12Q414,57.92,414,57.38V56.8l2.42,2.11a.92.92,0,0,1,.31.65q0,.54-1.61,1.69l-.65.5a1.92,1.92,0,0,0,.31.19,14.64,14.64,0,0,0,2.46,1.31V61.88a1.06,1.06,0,0,0,.77.5,20.63,20.63,0,0,0,3.08.23c.49,0,.91,0,1.27,0a5.16,5.16,0,0,0-.12-.85,1.62,1.62,0,0,0-.38-1,1.54,1.54,0,0,0-.81-.15,5.88,5.88,0,0,0-1.11.31,4,4,0,0,1-1,.35q-.77,0-1.61-1.81l-.88-1.77a2.91,2.91,0,0,0,1.38.35,12,12,0,0,0,2.35-.46,19.29,19.29,0,0,1,2.73-.5,7.42,7.42,0,0,1,1.85.19,2.9,2.9,0,0,1,1.42.88A3.33,3.33,0,0,1,427,60a40.75,40.75,0,0,1,.19,5.38q0,2.73-.23,5.46-.11,1.54-.19,2.27a4.17,4.17,0,0,1,1.23,1,5.77,5.77,0,0,1,1,3.61,8.17,8.17,0,0,1-.35,2.92q-.35,1-.92,1l-4.46-.73a1.19,1.19,0,0,0,.69-.88,7.62,7.62,0,0,0,.23-2.31,3.14,3.14,0,0,0-.38-1.61,2.91,2.91,0,0,0-2.08-1.08,39.59,39.59,0,0,0-5.15-.27,92.78,92.78,0,0,0-12.3.77q-4.15.92-5.61,1.12v2.88q0,2.27-1.27,2.27H393q1-.38,1-2V74.33a2.76,2.76,0,0,0-1-2.5h2.69q.08-3.15.08-5.5,0-3.23-.38-7.15-.19-1.81-.81-2.11h4a1.3,1.3,0,0,1,1.42,1q2.27-.5,4.19-1Q405,56.92,405.17,56.49ZM400.1,77.37a8.92,8.92,0,0,0,2.5.35,52.37,52.37,0,0,0,5.23-.65q4.81-.62,8.73-.73a8.89,8.89,0,0,1,4.08.88,2.73,2.73,0,0,1,1.5,2.65,3,3,0,0,1-.85,1.73,19.21,19.21,0,0,1-1.61,1.73q4.23-.08,7.69-.23a1.33,1.33,0,0,0,1.23-.81v3.23q0,1.23-1.38,1.23-3.92.23-10,.31v1.69q0,2.88-1.27,3.61a12,12,0,0,1-5,.73,38.36,38.36,0,0,1-8.15-.62q-1.08-.23-1.27-.85l-1.69-3.46a20.49,20.49,0,0,0,3,1,33.1,33.1,0,0,0,6.31.5,9.76,9.76,0,0,0,2.23-.15q.69-.15.69-1.15V87.09h-1.35q-10.34,0-15.76-.19-1.38,0-1.38-1.19V82.64q.31.62,1.54.62,5.5.15,15.61.15h1c0-.21-.05-.37-.08-.5a1.83,1.83,0,0,0-.81-1.34h4.61q1.19-.77,1.19-1,0-.58-1.54-.58a27.82,27.82,0,0,0-6.84.85q-3.65.81-3.88.81a1.32,1.32,0,0,1-1.11-.5Q401.67,79.41,400.1,77.37Zm.27-4.5q2.08-.19,5.19-.62l.88-.08-1.31-1.5c-.05.05-.09.08-.12.08a19.07,19.07,0,0,1-3.42.15h-1.11Q400.44,72.18,400.37,72.87Zm8-11.15a13.89,13.89,0,0,1-2-1.54,1.4,1.4,0,0,1-.65.31q-2.54.81-5.19,1.42,0,.42,0,.81.61,0,1.15,0a17.63,17.63,0,0,0,3.31-.23,1.49,1.49,0,0,0,.69-.54v1.23A9.27,9.27,0,0,0,408.36,61.72Zm-2.88,8.46a9.77,9.77,0,0,0,3-1.65q-2.54-1.46-2.54-2a3.1,3.1,0,0,1,.73-1.12q-.23-.23-1-1.23v.65q0,.81-.5,1a19.81,19.81,0,0,1-3.5.15h-1.11v1.65q.58,0,1,0a16.71,16.71,0,0,0,3.23-.23,1.28,1.28,0,0,0,.69-.54v2.81A2.45,2.45,0,0,1,405.48,70.18ZM409,65.3q1.11.65,2.38,1.35A17.41,17.41,0,0,0,413.67,65q-.92-.5-2.15-1.31l-2,1.31A3.75,3.75,0,0,1,409,65.3Zm0,6.65q2.92-.23,5.11-.35a25.46,25.46,0,0,1-2.42-1.27q-1.08.69-2.42,1.46A1,1,0,0,1,409,71.95Zm5.73-3.54.27.15a23.24,23.24,0,0,0,2.23,1.08,1.28,1.28,0,0,1,0-.31V66.64a1.06,1.06,0,0,0,.77.5,20.76,20.76,0,0,0,3.08.23q.81,0,1.31,0,.08-.88.08-1.5H421a21,21,0,0,1-3.42-.15,1.18,1.18,0,0,1-.42-1.08v-.73a9.6,9.6,0,0,0-.73.85q-.31.35-.54.58l.62.54a.88.88,0,0,1,.35.65q0,.5-1.77,1.65A3.45,3.45,0,0,1,414.74,68.41Zm1.69,3.15h.19a52.86,52.86,0,0,1,5.5.23q0-.54.08-1.19H421a20.79,20.79,0,0,1-3.42-.15c-.08-.05-.12-.09-.12-.12a8.5,8.5,0,0,1-.77.85Z"/><path class="cls-2" d="M433.35,64a8.06,8.06,0,0,0,3.54.88q5.07.27,10,.35,1.92-5.46,1.92-7.38,0-.38-.73-1L453,58.3q1.54.42,1.54,1.42a22.23,22.23,0,0,1-1.31,5.54q7.27-.08,11.34-.38a7.79,7.79,0,0,0,2.85-.88v4.57q0,1.35-.73,1.73-1.77.39-11.57.46a209.85,209.85,0,0,0,11.69,18,1.81,1.81,0,0,0,1.58.81q-2.65,1.54-2.69,1.54a8.89,8.89,0,0,1-3.34,1.54q-.73,0-2.61-3-2.73-4-7.42-12.53-1.27-2.15-2-3.69a100.16,100.16,0,0,1-9,16.57q-1.77,2.77-2.92,2.77-1,0-5.73-2.81,1.38,0,2.65-1.85a83.41,83.41,0,0,0,9.5-17.42,102.79,102.79,0,0,1-10.76-.42,1.93,1.93,0,0,1-.73-1.77Z"/><path class="cls-2" d="M483.91,56.49q.73,1.46,1,2.23c.18-.2.36-.42.54-.65l.92-1.12a1.28,1.28,0,0,0,.27.73q1.46,1,3.23,2.12,2.81-1.88,2.81-2.42V56.8l2.42,2.11a.92.92,0,0,1,.31.65q0,.54-1.61,1.69l-.65.5a1.92,1.92,0,0,0,.31.19,14.64,14.64,0,0,0,2.46,1.31V61.88a1.06,1.06,0,0,0,.77.5,20.63,20.63,0,0,0,3.08.23c.49,0,.91,0,1.27,0a5.16,5.16,0,0,0-.12-.85,1.62,1.62,0,0,0-.38-1,1.54,1.54,0,0,0-.81-.15,5.88,5.88,0,0,0-1.11.31,4,4,0,0,1-1,.35q-.77,0-1.61-1.81l-.88-1.77a2.91,2.91,0,0,0,1.38.35,12,12,0,0,0,2.35-.46,19.29,19.29,0,0,1,2.73-.5,7.42,7.42,0,0,1,1.85.19,2.9,2.9,0,0,1,1.42.88,3.33,3.33,0,0,1,.88,1.88,40.75,40.75,0,0,1,.19,5.38q0,2.73-.23,5.46-.11,1.54-.19,2.27a4.17,4.17,0,0,1,1.23,1,5.77,5.77,0,0,1,1,3.61,8.17,8.17,0,0,1-.35,2.92q-.35,1-.92,1l-4.46-.73a1.19,1.19,0,0,0,.69-.88,7.62,7.62,0,0,0,.23-2.31,3.14,3.14,0,0,0-.38-1.61,2.91,2.91,0,0,0-2.08-1.08,39.59,39.59,0,0,0-5.15-.27,92.78,92.78,0,0,0-12.3.77q-4.15.92-5.61,1.12v2.88q0,2.27-1.27,2.27h-4.42q1-.38,1-2V74.33a2.76,2.76,0,0,0-1-2.5h2.69q.08-3.15.08-5.5,0-3.23-.38-7.15-.19-1.81-.81-2.11h4a1.3,1.3,0,0,1,1.42,1q2.27-.5,4.19-1Q483.75,56.92,483.91,56.49Zm-5.07,20.88a8.92,8.92,0,0,0,2.5.35,52.37,52.37,0,0,0,5.23-.65q4.81-.62,8.73-.73a8.89,8.89,0,0,1,4.08.88,2.73,2.73,0,0,1,1.5,2.65A3,3,0,0,1,500,81.6a19.21,19.21,0,0,1-1.61,1.73q4.23-.08,7.69-.23a1.33,1.33,0,0,0,1.23-.81v3.23q0,1.23-1.38,1.23-3.92.23-10,.31v1.69q0,2.88-1.27,3.61a12,12,0,0,1-5,.73,38.36,38.36,0,0,1-8.15-.62q-1.08-.23-1.27-.85l-1.69-3.46a20.49,20.49,0,0,0,3,1,33.1,33.1,0,0,0,6.31.5,9.76,9.76,0,0,0,2.23-.15q.69-.15.69-1.15V87.09h-1.35q-10.34,0-15.76-.19-1.38,0-1.38-1.19V82.64q.31.62,1.54.62,5.5.15,15.61.15h1c0-.21-.05-.37-.08-.5a1.83,1.83,0,0,0-.81-1.34h4.61q1.19-.77,1.19-1,0-.58-1.54-.58a27.82,27.82,0,0,0-6.84.85q-3.65.81-3.88.81a1.32,1.32,0,0,1-1.11-.5Q480.41,79.41,478.83,77.37Zm.27-4.5q2.08-.19,5.19-.62l.88-.08-1.31-1.5c-.05.05-.09.08-.12.08a19.07,19.07,0,0,1-3.42.15h-1.11Q479.18,72.18,479.1,72.87Zm8-11.15a13.89,13.89,0,0,1-2-1.54,1.4,1.4,0,0,1-.65.31q-2.54.81-5.19,1.42,0,.42,0,.81.61,0,1.15,0a17.63,17.63,0,0,0,3.31-.23,1.49,1.49,0,0,0,.69-.54v1.23A9.27,9.27,0,0,0,487.1,61.72Zm-2.88,8.46a9.77,9.77,0,0,0,3-1.65q-2.54-1.46-2.54-2a3.1,3.1,0,0,1,.73-1.12q-.23-.23-1-1.23v.65q0,.81-.5,1a19.81,19.81,0,0,1-3.5.15h-1.11v1.65q.58,0,1,0a16.71,16.71,0,0,0,3.23-.23,1.28,1.28,0,0,0,.69-.54v2.81A2.45,2.45,0,0,1,484.21,70.18Zm3.5-4.88q1.11.65,2.38,1.35A17.41,17.41,0,0,0,492.4,65q-.92-.5-2.15-1.31l-2,1.31A3.75,3.75,0,0,1,487.71,65.3Zm0,6.65q2.92-.23,5.11-.35a25.46,25.46,0,0,1-2.42-1.27q-1.08.69-2.42,1.46A1,1,0,0,1,487.75,71.95Zm5.73-3.54.27.15A23.24,23.24,0,0,0,496,69.64a1.28,1.28,0,0,1,0-.31V66.64a1.06,1.06,0,0,0,.77.5,20.76,20.76,0,0,0,3.08.23q.81,0,1.31,0,.08-.88.08-1.5h-1.38a21,21,0,0,1-3.42-.15,1.18,1.18,0,0,1-.42-1.08v-.73a9.6,9.6,0,0,0-.73.85q-.31.35-.54.58l.62.54a.88.88,0,0,1,.35.65q0,.5-1.77,1.65A3.45,3.45,0,0,1,493.48,68.41Zm1.69,3.15h.19a52.86,52.86,0,0,1,5.5.23q0-.54.08-1.19h-1.15a20.79,20.79,0,0,1-3.42-.15c-.08-.05-.12-.09-.12-.12a8.5,8.5,0,0,1-.77.85Z"/><path class="cls-2" d="M525.2,64a8.06,8.06,0,0,0,3.54.88q5.07.27,10,.35,1.92-5.46,1.92-7.38,0-.38-.73-1l4.92,1.5q1.54.42,1.54,1.42a22.23,22.23,0,0,1-1.31,5.54q7.27-.08,11.34-.38A7.79,7.79,0,0,0,559.3,64v4.57q0,1.35-.73,1.73-1.77.39-11.57.46a209.85,209.85,0,0,0,11.69,18,1.81,1.81,0,0,0,1.58.81q-2.65,1.54-2.69,1.54a8.89,8.89,0,0,1-3.34,1.54q-.73,0-2.61-3-2.73-4-7.42-12.53-1.27-2.15-2-3.69a100.16,100.16,0,0,1-9,16.57q-1.77,2.77-2.92,2.77-1,0-5.73-2.81,1.38,0,2.65-1.85a83.41,83.41,0,0,0,9.5-17.42,102.79,102.79,0,0,1-10.76-.42,1.93,1.93,0,0,1-.73-1.77Z"/><path class="cls-2" d="M565.45,58.49h3.38q1.15,0,1.42.81,1-.08,2.27-.23a2.31,2.31,0,0,0-.73-1.85h3.34a1.4,1.4,0,0,1,1.58,1.42q1.85-.15,3.08-.15a4.17,4.17,0,0,1,2.42.58,3.78,3.78,0,0,1,1.08,3v1a3.79,3.79,0,0,0,1-.5V65.3a1,1,0,0,1-.5,1l-.62.08a14.5,14.5,0,0,1-.23,1.46,2.2,2.2,0,0,0,.69-.35V70.1a1.09,1.09,0,0,1-.42,1q-.92.15-6.46.15v1.08q2.11-.19,3.5-.19a5.93,5.93,0,0,1,2.5.42,2.07,2.07,0,0,1,.5.42q1.38-5,2.42-10.61A33.93,33.93,0,0,0,586.4,58q0-.31-.46-.81l3.88.5q1,.19,1,1a23.24,23.24,0,0,1-.5,2.84q1.5.12,3,.12a27.83,27.83,0,0,0,5.07-.35,2,2,0,0,0,1.08-.77v3.81q0,1.11-.65,1.42a3.54,3.54,0,0,1-.69.15,34.32,34.32,0,0,1-1.23,6.34q-.81,2.88-2.38,7.07a5,5,0,0,1-.27.65,95,95,0,0,0,4.65,9.53,1.24,1.24,0,0,0,1.15.69q-1.73,1.08-3.11,1.88a2.8,2.8,0,0,1-1.31.62q-.54,0-1.81-2.84-1.08-2.15-2-4.34-1.23,2.54-2.65,5Q588,92.94,587,92.94a15.28,15.28,0,0,1-3.84-2,4.14,4.14,0,0,1-.58.27.52.52,0,0,0-.23,0q-.15,1.65-1.19,1.65h-4.31a1.55,1.55,0,0,0,.85-1.08q-1.23.15-2.27.23-2.69.19-4.23.19a9.46,9.46,0,0,1-3-.58,3.62,3.62,0,0,1-2-2,4.06,4.06,0,0,1-.38-1.69,9.48,9.48,0,0,1,.12-1.27q-1-.08-1.5-.15a1.38,1.38,0,0,1-.46-1.23V82.29a4.11,4.11,0,0,0,2.19.65c.28,0,.54,0,.77,0a2.83,2.83,0,0,0,.12-.54.72.72,0,0,0-.19-.46h-2.42q.92-.35.92-1.85V74.49a2.38,2.38,0,0,0-.92-2.19h3.58q1.27,0,1.58.88,1.27-.11,3-.31V71.26l-2.35-.08a.94.94,0,0,1-.92.65h-3.81q.81-.31.81-1.65V66.49q-1.19-.08-1.69-.15a1.16,1.16,0,0,1-.5-1.08V62.61a3.83,3.83,0,0,0,2.11.65h.08V60.61A2.31,2.31,0,0,0,565.45,58.49Zm18.38,31.72A6,6,0,0,0,585,88.59q2.69-5,4.42-9.07-.85-2.34-1.46-4.73-.23-.85-.42-1.5-.15.58-.35,1.15-.65,2-1.27,2a4.48,4.48,0,0,1-1.27-.31c-.31-.08-.62-.14-.92-.19a10.23,10.23,0,0,1-.15,1.31,6.08,6.08,0,0,0,.65-.38v2.92a1.15,1.15,0,0,1-.5,1.12,51,51,0,0,1-7.92.31q-4.31,0-6.34-.12a1.25,1.25,0,0,1-.58.73l1.81.19q1.19.12,1.19,1.15,1.27,0,2.5,0,1.81,0,3.31,0a2,2,0,0,0-.88-1.38h3.77q1.5,0,1.73,1.19a4.1,4.1,0,0,0,2.38-.73V85.4c0,.64-.15,1-.46,1.19a13.46,13.46,0,0,1-1.88.19v1.15a14.09,14.09,0,0,0,2.5-.88Q583.82,90.25,583.82,90.21ZM569.64,77.6l2.88.19V76.06l-2.88.38Zm.73-14.11q1.11,0,2.15,0V62q-1.38.15-2.15.27Zm0,4.54q1.11.08,2.15.08V66.64q-1.15,0-2.15,0Zm7.42,20.8V86.9h-6.88a2.06,2.06,0,0,0-.08.46,1.66,1.66,0,0,0,1.88,1.88A32.34,32.34,0,0,0,577.79,88.83Zm-1.08-27.37v2.12l2.38-.08v0q0-2-.85-2C577.74,61.41,577.22,61.43,576.71,61.45Zm0,6.73q1.27,0,2.19,0a9.77,9.77,0,0,0,.19-1.54q-1.08,0-2.38,0Zm0,9.69q1.61,0,2.88-.08a6.34,6.34,0,0,0,0-.69,3.74,3.74,0,0,0-.08-.73q.08-.81-.88-.85t-2,.08Zm13.57-11.73q.19,1.46.65,3.61.35,1.65.85,3.31a.64.64,0,0,0,0-.15,40.67,40.67,0,0,0,1.61-6.73h-.12Q591.47,66.18,590.28,66.14Z"/><path class="cls-2" d="M603.28,62a1.68,1.68,0,0,0,1.23.77q1.15.19,2.23.27a28.12,28.12,0,0,0-.31-3.11,5.12,5.12,0,0,0-.81-2.54H610q1.11,0,1.38,2.54.15,1.35.27,3.11a15.87,15.87,0,0,0,2.31-.27,2,2,0,0,0,1-.77v4a1.49,1.49,0,0,1-.73,1.5,7.48,7.48,0,0,1-2.38.31q0,2,0,4.15v1c.41-.21.78-.41,1.11-.62a1.89,1.89,0,0,0,1.23-1.5L615.39,74l0,.08q.35-5.88.35-11.11a1.24,1.24,0,0,0-.81-1.23l3.88.08a1.32,1.32,0,0,1,1.31,1.38q1.42-.15,3.77-.54V58.34a1.6,1.6,0,0,0-.65-1.27h3.42q1.58,0,1.92,1.15,1.46.11,2.84.12a38.73,38.73,0,0,0,4.46-.19,2,2,0,0,0,.92-.46v2.58a1,1,0,0,1-.5,1,38.31,38.31,0,0,1-4.88.15q-1.69,0-2.77,0v.85q1.15-.08,2.08-.08a17.44,17.44,0,0,1,5.07.5,4.58,4.58,0,0,1,2.31,1.5,5.12,5.12,0,0,1,.69,2.81,6.44,6.44,0,0,1-.27,2.27q-.27.81-.69.81l-1.42-.31-1.08,2a1.09,1.09,0,0,1-1,.69,31.87,31.87,0,0,1-7.5,1.08,3.54,3.54,0,0,1-2.73-.92,4.15,4.15,0,0,1-.58-1.92q-1.08.08-1.81.08a.78.78,0,0,1-.88-.88V67.07q.31.62.73.62.88,0,1.85-.08V66.22a31.4,31.4,0,0,1-3.27.81q-.15,5.81-.69,13a.89.89,0,0,0,.23-.15q1.81-1.42,3-2.42-1.27,0-1.81-.08a1.29,1.29,0,0,1-.46-1.15v-3a3.6,3.6,0,0,0,1.81.5q3.5.23,7,.23,4.77,0,7.23-.23a3.42,3.42,0,0,0,1.46-.5v3a1.19,1.19,0,0,1-.46,1.12q-.54.08-2.69.12a31.64,31.64,0,0,0,.73,3.46q.77-.73,1.42-1.38a2.42,2.42,0,0,0,.42-1.23,18,18,0,0,1,1.54,3.81,1,1,0,0,1-.46.81q-1,.69-2,1.31A45.6,45.6,0,0,0,639,90.59a1.11,1.11,0,0,0,.73.92l-2.81.62a6.68,6.68,0,0,1-1,.15,1.12,1.12,0,0,1-1.12-.69q-1.42-2.42-2.73-8.65,0,1.27,0,2.88,0,3.88-.65,5.15a2.53,2.53,0,0,1-1.77,1.42,12.15,12.15,0,0,1-3.46.38h-.65q-.85,0-1.38-1.31l-.27-.65a6.46,6.46,0,0,1-2.61,1.46,1.59,1.59,0,0,1-.88-.42l-1.92-1.46Q618,92.94,617,92.94q-.31,0-4-.31,1-1,1.31-4.88.65-6.27,1-11.88a2.75,2.75,0,0,1-.77.77q-1.19.62-2.69,1.34-.23,10.3-1.15,12.42A3.66,3.66,0,0,1,607,92.79a8.23,8.23,0,0,1-2.27-.38,1.35,1.35,0,0,1-1.08-1q-.42-1.31-.92-3.11a2.45,2.45,0,0,0,1.23.5,11.58,11.58,0,0,0,1.54.12q.81,0,1.08-1.73.23-2.11.35-6.92l-.42.19a7,7,0,0,1-1.65.65q-.77,0-1.19-1.08l-1.23-3.69q.38.42.58.42a4.27,4.27,0,0,0,1.15-.27q1.54-.61,2.84-1.19V72q0-2.34,0-4.15a9.39,9.39,0,0,1-2.84-.31,1.61,1.61,0,0,1-.81-1.58ZM618.5,90.29a6.09,6.09,0,0,0,3.11-1.54q5.07-4.27,6.54-5.84,0-1-.08-1.34a45.36,45.36,0,0,1-3.15,3.27q-3.5,3-4.23,3a1.61,1.61,0,0,1-.92-.42l-.88-.73q-.08,1.15-.19,2.19A12.09,12.09,0,0,1,618.5,90.29Zm.5-4.77a6.63,6.63,0,0,0,1.58-.88q2.42-1.85,3.88-3a11.67,11.67,0,0,1-1.81.35,5.29,5.29,0,0,1-2,1.27,1.82,1.82,0,0,1-1.08-.5l-.35-.31Q619.15,84,619,85.52ZM628.19,87q-.81.85-1.69,1.65l-1.27,1.12a11.91,11.91,0,0,0,1.61.12,1.15,1.15,0,0,0,1-.42A5.87,5.87,0,0,0,628.19,87Zm3.15-7.42q-.19-1.23-.31-2h-3.92q-.42.54-1.11,1.27a20,20,0,0,1,3.27-.35,2.5,2.5,0,0,1,1.65.58A2.65,2.65,0,0,1,631.34,79.56Zm-3.61-13.92v1.62q1.81-.19,3.34-.46,1.88-.31,2-1,.65,2.65.65,2.92,0,.5-1.38.81a32.93,32.93,0,0,1-4.31.73,2.11,2.11,0,0,0,1.19.31,17.51,17.51,0,0,0,6.5-1l-1.58-.35a.76.76,0,0,0,.46-.62A5.76,5.76,0,0,0,634.8,67a1.56,1.56,0,0,0-.19-.77,1.83,1.83,0,0,0-1.11-.54,26,26,0,0,0-2.73-.12Q629.19,65.53,627.73,65.64Z"/><path class="cls-2" d="M654.49,56.49q.73,1.46,1,2.23c.18-.2.36-.42.54-.65L657,57a1.28,1.28,0,0,0,.27.73q1.46,1,3.23,2.12,2.81-1.88,2.81-2.42V56.8l2.42,2.11a.92.92,0,0,1,.31.65q0,.54-1.61,1.69l-.65.5a1.92,1.92,0,0,0,.31.19,14.64,14.64,0,0,0,2.46,1.31V61.88a1.06,1.06,0,0,0,.77.5,20.63,20.63,0,0,0,3.08.23c.49,0,.91,0,1.27,0a5.16,5.16,0,0,0-.12-.85,1.62,1.62,0,0,0-.38-1,1.54,1.54,0,0,0-.81-.15,5.88,5.88,0,0,0-1.11.31,4,4,0,0,1-1,.35q-.77,0-1.61-1.81l-.88-1.77a2.91,2.91,0,0,0,1.38.35,12,12,0,0,0,2.35-.46,19.29,19.29,0,0,1,2.73-.5,7.42,7.42,0,0,1,1.85.19,2.9,2.9,0,0,1,1.42.88,3.33,3.33,0,0,1,.88,1.88,40.75,40.75,0,0,1,.19,5.38q0,2.73-.23,5.46-.11,1.54-.19,2.27a4.17,4.17,0,0,1,1.23,1,5.77,5.77,0,0,1,1,3.61,8.17,8.17,0,0,1-.35,2.92q-.35,1-.92,1l-4.46-.73a1.19,1.19,0,0,0,.69-.88,7.62,7.62,0,0,0,.23-2.31,3.14,3.14,0,0,0-.38-1.61,2.91,2.91,0,0,0-2.08-1.08,39.59,39.59,0,0,0-5.15-.27,92.78,92.78,0,0,0-12.3.77q-4.15.92-5.61,1.12v2.88q0,2.27-1.27,2.27h-4.42q1-.38,1-2V74.33a2.76,2.76,0,0,0-1-2.5H645q.08-3.15.08-5.5,0-3.23-.38-7.15-.19-1.81-.81-2.11h4a1.3,1.3,0,0,1,1.42,1q2.27-.5,4.19-1Q654.33,56.92,654.49,56.49Zm-5.07,20.88a8.92,8.92,0,0,0,2.5.35,52.37,52.37,0,0,0,5.23-.65q4.81-.62,8.73-.73a8.89,8.89,0,0,1,4.08.88,2.73,2.73,0,0,1,1.5,2.65,3,3,0,0,1-.85,1.73A19.21,19.21,0,0,1,669,83.33q4.23-.08,7.69-.23a1.33,1.33,0,0,0,1.23-.81v3.23q0,1.23-1.38,1.23-3.92.23-10,.31v1.69q0,2.88-1.27,3.61a12,12,0,0,1-5,.73,38.36,38.36,0,0,1-8.15-.62q-1.08-.23-1.27-.85l-1.69-3.46a20.49,20.49,0,0,0,3,1,33.1,33.1,0,0,0,6.31.5,9.76,9.76,0,0,0,2.23-.15q.69-.15.69-1.15V87.09h-1.35q-10.34,0-15.76-.19-1.38,0-1.38-1.19V82.64q.31.62,1.54.62,5.5.15,15.61.15h1c0-.21-.05-.37-.08-.5a1.83,1.83,0,0,0-.81-1.34h4.61q1.19-.77,1.19-1,0-.58-1.54-.58a27.82,27.82,0,0,0-6.84.85q-3.65.81-3.88.81a1.32,1.32,0,0,1-1.11-.5Q651,79.41,649.41,77.37Zm.27-4.5q2.08-.19,5.19-.62l.88-.08-1.31-1.5c-.05.05-.09.08-.12.08a19.07,19.07,0,0,1-3.42.15H649.8Q649.76,72.18,649.68,72.87Zm8-11.15a13.89,13.89,0,0,1-2-1.54,1.4,1.4,0,0,1-.65.31q-2.54.81-5.19,1.42,0,.42,0,.81.61,0,1.15,0a17.63,17.63,0,0,0,3.31-.23A1.49,1.49,0,0,0,655,62v1.23A9.27,9.27,0,0,0,657.68,61.72Zm-2.88,8.46a9.77,9.77,0,0,0,3-1.65q-2.54-1.46-2.54-2a3.1,3.1,0,0,1,.73-1.12q-.23-.23-1-1.23v.65q0,.81-.5,1A19.81,19.81,0,0,1,651,66h-1.11v1.65q.58,0,1,0a16.71,16.71,0,0,0,3.23-.23,1.28,1.28,0,0,0,.69-.54v2.81A2.45,2.45,0,0,1,654.79,70.18Zm3.5-4.88q1.11.65,2.38,1.35A17.41,17.41,0,0,0,663,65q-.92-.5-2.15-1.31l-2,1.31A3.75,3.75,0,0,1,658.29,65.3Zm0,6.65q2.92-.23,5.11-.35A25.46,25.46,0,0,1,661,70.33q-1.08.69-2.42,1.46A1,1,0,0,1,658.33,71.95Zm5.73-3.54.27.15a23.24,23.24,0,0,0,2.23,1.08,1.28,1.28,0,0,1,0-.31V66.64a1.06,1.06,0,0,0,.77.5,20.76,20.76,0,0,0,3.08.23q.81,0,1.31,0,.08-.88.08-1.5h-1.38a21,21,0,0,1-3.42-.15,1.18,1.18,0,0,1-.42-1.08v-.73a9.6,9.6,0,0,0-.73.85q-.31.35-.54.58l.62.54a.88.88,0,0,1,.35.65q0,.5-1.77,1.65A3.45,3.45,0,0,1,664.06,68.41Zm1.69,3.15h.19a52.86,52.86,0,0,1,5.5.23q0-.54.08-1.19h-1.15a20.79,20.79,0,0,1-3.42-.15c-.08-.05-.12-.09-.12-.12a8.5,8.5,0,0,1-.77.85Z"/><path class="cls-2" d="M696,57.38h4.46a1.47,1.47,0,0,1,1.65,1.27q.31,4,.38,9.88,7.53-.12,13.19-.5a1.68,1.68,0,0,0,1.54-1.11v4.46q0,1.73-1.85,1.73-4.69.46-12.84.54,0,9.73-.15,13.19,6.92-.12,12.07-.5A1.63,1.63,0,0,0,716,85.21v4.46q0,1.73-1.85,1.73-5.07.54-14.53.54t-14.57-.42q-1.81,0-1.81-1.65V85.67q.42.92,2.11.92,4.34.23,11.73.27.08-.69.12-1.5.12-6.27.12-11v-.77q-8.61,0-13.34-.38-1.85-.08-1.85-1.65V67.37q.5,1,2.19,1,4.69.19,12.88.23-.11-3.5-.31-7.27Q696.73,58,696,57.38Z"/><path class="cls-2" d="M730.64,66l3.73,2.08a3.33,3.33,0,0,1,.81.69q.35-.35.77-.69.27-.19.5-.38a4.73,4.73,0,0,1-2.42-1,2.56,2.56,0,0,1-1-2.23,3,3,0,0,1,1.31-2.19q2.69-2.23,9.65-4.92.38-.23.42-1l2,2.5a1.72,1.72,0,0,1,.5,1.19q0,.5-1.69,1.15-6.15,1.88-6.15,2.23t.73.42a27.53,27.53,0,0,0,4.11-.35q1.81-.85,3.77-1.65,2.15-.81,2.15-1.23V60l2.81,3.23a2.29,2.29,0,0,1,.42,1.23q0,.62-2.27,1.35a77.12,77.12,0,0,0-9.23,3.61q-2.08.88-2.08,1.15,0,.65,1.23.65a35.77,35.77,0,0,0,7.07-.81l1.5-.35a5.5,5.5,0,0,1-.54-1.5q0-.65,2.11-1.62l2.81-1.15a1.79,1.79,0,0,0-.31.46.78.78,0,0,0-.15.5s.09.27.27.73A54.92,54.92,0,0,0,756,72.45a1.71,1.71,0,0,0,1.38.65q-2.11,1.23-2.15,1.23a7.69,7.69,0,0,1-2.77,1.19q-.19,0-.69-.88l-.62-1a.6.6,0,0,1-.23.08,59.89,59.89,0,0,1-9.73,1.73q-.15.42-.65,1.42l1.61-.27a44.25,44.25,0,0,1,8-.73,7.33,7.33,0,0,1,3.88.88,2.93,2.93,0,0,1,1.61,2.69q0,1.77-4.38,4.81-1.08.85-2.15,1.61l.58.27q5.77,2.65,6.57,2.65a2.83,2.83,0,0,0,1.23-.46l-1.27,2.5q-1.15,2.58-2,2.58t-6.42-2.81q-1.73-.77-3.38-1.69-2.15,1.38-4.38,2.58-3.61,1.77-4.84,1.77a4.77,4.77,0,0,1-2.92-1.54,17.45,17.45,0,0,1-1.85-1.81q3,0,9.92-3.27-1.58-1-3.15-2a11,11,0,0,1-1.27-.77,14.4,14.4,0,0,1-1,1.34q-.77,1.12-1.38,1.12a12.19,12.19,0,0,1-3.42-1.42q0,2.11,0,4,0,2.77-.69,3.34-.23.54-1.58.54H724a1.79,1.79,0,0,0,.73-1.69q0-5.19-.23-11.23a35.33,35.33,0,0,1-4.19-2.5q1.11,0,2.69-1.69A75.29,75.29,0,0,0,729.49,69a5.7,5.7,0,0,0,1.31-2.11A2.49,2.49,0,0,0,730.64,66Zm-2.35-8.77,3.77,2.08q.85.58.85,1a2.41,2.41,0,0,1-.46,1.15,50.21,50.21,0,0,1-5.77,6.3q-1.15,1.12-1.77,1.12t-4.42-2.42q.85,0,2.08-1.35a68.42,68.42,0,0,0,4.92-5.31,4.64,4.64,0,0,0,1-1.65A2.15,2.15,0,0,0,728.3,57.22ZM730.14,84a2.33,2.33,0,0,0,.46-.54,44.44,44.44,0,0,0,4.73-7.11q.38-.77.65-1.23a4.18,4.18,0,0,1-1.46-.92,3.73,3.73,0,0,1-1.08-2.11q-1.81,2.31-3.58,4.19Q730,80.41,730.14,84Zm9.46-3q2.73,1.54,5.5,2.88,4.11-2.54,4.11-3.34t-1-.73a42.45,42.45,0,0,0-6.54.77Q740.45,80.91,739.6,81.06Z"/><path class="cls-2" d="M762.44,57q1.81.19,3.42.42a.9.9,0,0,1,.92,1,1.63,1.63,0,0,1-.08.38l2.81.15q-.23-1.61-.77-1.92h4.08A1.31,1.31,0,0,1,774.28,58a5.82,5.82,0,0,0,.15.88q3.46,0,5.46-.23a4,4,0,0,0,1.5-.5v3a1.15,1.15,0,0,1-.5,1.12q-.92.11-6.23.15,0,.77,0,1.5,3.46,0,5.54-.19a4.75,4.75,0,0,0,1.73-.5v3a1.23,1.23,0,0,1-.42,1.12q-1.08.12-6.8.15v1.12q2.5-.15,4.31-.15a6.68,6.68,0,0,1,2.11.31,1.85,1.85,0,0,1,1.15,1.15,10.86,10.86,0,0,1,.31,3,5.48,5.48,0,0,1-.58,3,1.72,1.72,0,0,1-1,.73,1.63,1.63,0,0,1,.77,1.42v.42q6.92,0,10.84-.23a10,10,0,0,0,2.85-.65v3.34a1.2,1.2,0,0,1-.62,1.23l-1,.08,1.35,1.12a1.27,1.27,0,0,1,.38.85q0,.46-1.08,1.46-.77.73-2.35,2.08a15.66,15.66,0,0,0,3.42,1.38,2.18,2.18,0,0,0,.92-.35l-1.11,2.19q-1,2.27-1.65,2.27t-5.73-2.65q-1.61-.81-3.23-1.77l-.42,1.88a1.51,1.51,0,0,1-1,1,55.7,55.7,0,0,1-5.57.88q-2.35.23-2.88.23a6.67,6.67,0,0,1-4.5-1.42,3.91,3.91,0,0,1-1.23-2.92A9,9,0,0,1,769.4,87l-.31.31q-3.77,3.65-4.65,3.65a1.94,1.94,0,0,1-1.23-.65L760.32,88a4.89,4.89,0,0,0,2.88-1.54l4-3.92q-3.81-.12-5.23-.27A1.37,1.37,0,0,1,761.4,81V77.71a10,10,0,0,0,3.54.62q6,.23,11.84.27v-.88a1.39,1.39,0,0,0-.15-.69,1.89,1.89,0,0,1-1.38-1.15l-.61-1.19q-.08,1.46-.15,2a1.38,1.38,0,0,1-1.35,1.08H768.9q.85-.46,1-2.77,0-1.46,0-2.77-2.31.27-3.46.35v2.11q0,2.12-1.19,2.12h-4.08q.92-.35.92-1.81v-4.5a2.19,2.19,0,0,0-.92-2.11h3.58q1.5,0,1.65,1.23,1.58-.15,3.54-.46V67.53q-6.8,0-8.42-.15a1.24,1.24,0,0,1-.5-1.15v-3a5.41,5.41,0,0,0,2.19.5q3.31.19,6.61.19,0-.73-.08-1.5l-4.34-.08-.15.46q-.27.58-.5.58a5.35,5.35,0,0,1-1.23-.23l-2.65-.58a.91.91,0,0,0,.54-.54q.61-1.46,1.15-3.15a5.85,5.85,0,0,0,.35-1.23Q763,57.42,762.44,57Zm20.45,30.83q-2.19-1.31-4.34-2.81a15.17,15.17,0,0,1-2.73-1.92,16.64,16.64,0,0,0-1.69,4.5q0,1.34,2.35,1.35a23.32,23.32,0,0,0,4.73-.58A13.09,13.09,0,0,0,782.89,87.79ZM774.7,71.72q0,1.35,0,2.34a10.51,10.51,0,0,0,2.23.27,3.42,3.42,0,0,0,1.19-.15q.38-.12.38-1.19t-.35-1.27a2,2,0,0,0-.92-.15Q776.43,71.56,774.7,71.72Zm7.5,10.92q2.81,1.65,5.57,3,.65-.5,1.54-1.27,1.5-1.23,2.11-1.84Q788.12,82.6,782.2,82.64Zm.42-24.14h4a1.63,1.63,0,0,1,1.85,1.69v9.38q0,2.42-1.31,2.42h-4.5q.88-.38.88-2V60.91A2.72,2.72,0,0,0,782.62,58.49ZM789,57.38h4.46q1.11,0,1.38,1.42a38.21,38.21,0,0,1,.46,6.92q0,9-1.46,10.5-1.08,1.31-4.34,1.31a13.69,13.69,0,0,1-3-.38q-1.23-.19-1.46-1-.58-1.31-1.27-3.08a5.6,5.6,0,0,0,1.88.62q1.27.11,2.31.12a1.77,1.77,0,0,0,1.73-.81q.69-1.69.69-7.3a28.23,28.23,0,0,0-.54-6.92A2.12,2.12,0,0,0,789,57.38Z"/><path class="cls-2" d="M807.38,57l4.08,2.23q1,.65,1,1.15a5,5,0,0,1-.58,2q-1.31,2.69-2.65,5,.11,2,.19,4a9.14,9.14,0,0,0,1.42-1.88q2.81-4.27,5.31-9a10,10,0,0,0,1.08-2.88,2.19,2.19,0,0,0-.15-.88l3.84,2.11q.88.62.88,1.11a5.34,5.34,0,0,1-.5,2l-.12.23q2.84.23,5.61.23A63.59,63.59,0,0,0,834,62a3.26,3.26,0,0,0,1.5-.73v3.88a1.54,1.54,0,0,1-.65,1.5q-1,.42-8.07.42-2.5,0-4.19,0,.12,1.84.19,4,2.31.19,4.54.19a41,41,0,0,0,6.15-.35,2.58,2.58,0,0,0,1.23-.73v3.88a1.58,1.58,0,0,1-.58,1.46q-.92.5-6.8.5-2.77,0-4.42-.15v4.08q2.27.19,4.5.19a47.29,47.29,0,0,0,6.23-.31,2.35,2.35,0,0,0,1.23-.77V83a1.63,1.63,0,0,1-.62,1.5q-.92.46-6.84.46-2.85,0-4.54-.12-.08,5.73-.27,7.15a1.46,1.46,0,0,1-1.46,1.12h-4.42q.92-.62,1-3.92.08-5.69.08-9.92,0-4.77-.31-10.46-1.15,1.92-2.31,3.58-1.27,2-1.88,2t-3.88-2.08q.11,3.31.19,6.88,0,10.65-.27,12.53-.19,1.27-1.81,1.27h-3.92a3.2,3.2,0,0,0,.85-2.42q.08-4.88.08-11.38,0-1.46-.12-4.54a1.24,1.24,0,0,1-.81.5q-.65,0-4.42-2.5.88,0,2.15-2.34a106.25,106.25,0,0,0,5.11-9.42,10.73,10.73,0,0,0,1-3A2.2,2.2,0,0,0,807.38,57Z"/></g></svg>