<svg xmlns="http://www.w3.org/2000/svg" viewBox="0 0 135 144"><defs><style>.cls-1{fill:none;stroke:#231815;stroke-miterlimit:10;stroke-width:3.38px;}.cls-2{fill:#ed8f38;}.cls-3,.cls-5{fill:#fff;}.cls-4{fill:#1f2020;}.cls-5{opacity:0.8;}.cls-6{opacity:0.6;}</style></defs><title>5</title><g id="圖層_2" data-name="圖層 2"><polygon class="cls-1" points="67.62 101.03 61.99 101.03 59.23 133.58 67.62 133.58 76.01 133.58 73.25 101.03 67.62 101.03"/><circle class="cls-1" cx="67.62" cy="61.72" r="49.76"/><path class="cls-1" d="M86.31,134.46a1,1,0,0,0,.9-1.37c-2.34-5.52-10.23-9.58-19.6-9.58s-17.25,4.06-19.6,9.58a1,1,0,0,0,.9,1.37Z"/><polygon class="cls-2" points="67.62 101.03 61.99 101.03 59.23 133.58 67.62 133.58 76.01 133.58 73.25 101.03 67.62 101.03"/><circle class="cls-3" cx="67.62" cy="61.72" r="49.76"/><circle class="cls-2" cx="67.62" cy="61.72" r="45.26"/><path class="cls-4" d="M103.23,81.3,67.32,59.48l6.22,43.14A41.7,41.7,0,0,0,103.23,81.3Z"/><path class="cls-5" d="M89.72,96.16a41.54,41.54,0,0,0,9.22-8.42L67.32,59.48h0Z"/><path class="cls-4" d="M26.17,51a41.7,41.7,0,0,0,7.18,35.75L67.2,59.43Z"/><path class="cls-5" d="M26,71.44,67,59.56l.11-.09L24.9,59A41.55,41.55,0,0,0,26,71.44Z"/><path class="cls-4" d="M96.22,32.23A41.79,41.79,0,0,0,64.67,19.85l2.65,39.63Z"/><path class="cls-5" d="M67.32,59.48l21.77-33a41.84,41.84,0,0,0-7.34-3.75q-1.57-.62-3.15-1.1L67.32,59.48Z"/><g class="cls-6"><rect class="cls-3" x="66.98" y="13.34" width="1.28" height="96.76"/><rect class="cls-3" x="19.24" y="61.08" width="96.76" height="1.28"/><rect class="cls-3" x="19.24" y="61.08" width="96.76" height="1.28" transform="translate(-23.84 65.89) rotate(-45)"/><rect class="cls-3" x="66.98" y="13.34" width="1.28" height="96.76" transform="translate(-23.84 65.89) rotate(-45)"/><rect class="cls-3" x="19.24" y="61.08" width="96.76" height="1.28" transform="translate(-15.03 101.1) rotate(-67.86)"/><rect class="cls-3" x="66.98" y="13.34" width="1.28" height="96.76" transform="translate(-15.03 101.1) rotate(-67.87)"/><rect class="cls-3" x="19.24" y="61.08" width="96.76" height="1.28" transform="translate(-18.67 31.13) rotate(-22.87)"/><rect class="cls-3" x="66.98" y="13.34" width="1.28" height="96.76" transform="translate(-18.67 31.13) rotate(-22.87)"/></g><g class="cls-6"><path class="cls-3" d="M29.73,53.81a1.19,1.19,0,0,1-1.16-1.47,40.22,40.22,0,0,1,9-17.19,1.19,1.19,0,0,1,1.78,1.57,37.84,37.84,0,0,0-8.43,16.17A1.19,1.19,0,0,1,29.73,53.81Z"/><path class="cls-3" d="M32.4,79.63A1.19,1.19,0,0,1,31.33,79a39.81,39.81,0,0,1-3.86-17.2,40.69,40.69,0,0,1,.34-5.23,1.19,1.19,0,1,1,2.36.31,38.26,38.26,0,0,0-.32,4.93,37.45,37.45,0,0,0,3.63,16.18,1.19,1.19,0,0,1-1.07,1.7Z"/><path class="cls-3" d="M39,89.38a1.18,1.18,0,0,1-.87-.38,40.47,40.47,0,0,1-4-5.12,1.19,1.19,0,1,1,2-1.31,38.06,38.06,0,0,0,3.78,4.82,1.19,1.19,0,0,1-.87,2Z"/><path class="cls-3" d="M64.07,101.76H64A39.81,39.81,0,0,1,41,91.84a1.19,1.19,0,0,1,1.57-1.78,37.45,37.45,0,0,0,21.58,9.32,1.19,1.19,0,0,1-.11,2.37Z"/><path class="cls-3" d="M69.84,101.86a1.19,1.19,0,0,1-.07-2.37,37.84,37.84,0,0,0,7.3-1.13,1.19,1.19,0,1,1,.59,2.3,40.19,40.19,0,0,1-7.76,1.2Z"/><path class="cls-3" d="M87,96.78a1.19,1.19,0,0,1-.59-2.22,37.87,37.87,0,0,0,18.83-28.95,1.19,1.19,0,0,1,2.36.24,40.25,40.25,0,0,1-20,30.77A1.18,1.18,0,0,1,87,96.78Z"/><path class="cls-3" d="M106.58,61.41a1.19,1.19,0,0,1-1.19-1.14,38.08,38.08,0,0,0-.39-4.15,1.19,1.19,0,0,1,2.35-.35,40.51,40.51,0,0,1,.41,4.41,1.19,1.19,0,0,1-1.14,1.23Z"/><path class="cls-3" d="M104.93,51.58a1.19,1.19,0,0,1-1.14-.84A37.63,37.63,0,0,0,74.61,24.6,1.19,1.19,0,0,1,75,22.27a40.23,40.23,0,0,1,31,27.79,1.19,1.19,0,0,1-1.14,1.53Z"/><path class="cls-3" d="M61.2,24.48A1.19,1.19,0,0,1,61,22.13a40.82,40.82,0,0,1,9.34-.45A1.19,1.19,0,0,1,70.2,24a38.46,38.46,0,0,0-8.8.43Z"/><path class="cls-3" d="M42.27,33.34a1.19,1.19,0,0,1-.77-2.09A39.94,39.94,0,0,1,54.73,23.7a1.19,1.19,0,0,1,.76,2.25A37.57,37.57,0,0,0,43,33.05,1.18,1.18,0,0,1,42.27,33.34Z"/><path class="cls-3" d="M41,80.32a1.19,1.19,0,0,1-1-.54,33.08,33.08,0,0,1-5.22-15.06,1.19,1.19,0,1,1,2.37-.21,30.7,30.7,0,0,0,4.85,14,1.19,1.19,0,0,1-1,1.84Z"/><path class="cls-3" d="M57.81,93.22a1.2,1.2,0,0,1-.37-.06A32.75,32.75,0,0,1,45,85.76,33.56,33.56,0,0,1,42,82.6a1.19,1.19,0,0,1,1.84-1.5A31.14,31.14,0,0,0,46.6,84,30.38,30.38,0,0,0,58.17,90.9a1.19,1.19,0,0,1-.37,2.32Z"/><path class="cls-3" d="M67.3,94.76h0A33.33,33.33,0,0,1,62,94.27a1.19,1.19,0,1,1,.41-2.34,31,31,0,0,0,5,.45,1.19,1.19,0,0,1,0,2.38Z"/><path class="cls-3" d="M70.52,94.64a1.19,1.19,0,0,1-.11-2.37,30.39,30.39,0,0,0,17.52-7.54A1.19,1.19,0,0,1,89.5,86.5a32.75,32.75,0,0,1-18.88,8.13Z"/><path class="cls-3" d="M92,83.43a1.19,1.19,0,0,1-.91-2,30.66,30.66,0,0,0,3.4-4.93,1.19,1.19,0,0,1,2.08,1.15A33,33,0,0,1,92.92,83,1.18,1.18,0,0,1,92,83.43Z"/><path class="cls-3" d="M98.61,70.39a1.2,1.2,0,0,1-.28,0,1.19,1.19,0,0,1-.88-1.43A30.72,30.72,0,0,0,90.86,41.7a1.19,1.19,0,0,1,1.8-1.55,33.11,33.11,0,0,1,7.11,29.34A1.19,1.19,0,0,1,98.61,70.39Z"/><path class="cls-3" d="M88.58,38.91a1.18,1.18,0,0,1-.78-.29,31,31,0,0,0-2.67-2.08,1.19,1.19,0,0,1,1.36-1.95,33.44,33.44,0,0,1,2.87,2.24,1.19,1.19,0,0,1-.78,2.08Z"/><path class="cls-3" d="M48.91,37.15a1.19,1.19,0,0,1-.7-2.15,32.9,32.9,0,0,1,34.13-2.87,1.19,1.19,0,0,1-1.06,2.13,30.53,30.53,0,0,0-31.68,2.66A1.18,1.18,0,0,1,48.91,37.15Z"/><path class="cls-3" d="M41.19,45.17a1.19,1.19,0,0,1-1-1.85,33.39,33.39,0,0,1,3.41-4.27c.51-.54,1-1.07,1.59-1.58a1.19,1.19,0,0,1,1.61,1.74c-.5.47-1,1-1.48,1.46a31,31,0,0,0-3.17,4A1.19,1.19,0,0,1,41.19,45.17Z"/><path class="cls-3" d="M35.83,61.39h-.06a1.19,1.19,0,0,1-1.13-1.24A32.85,32.85,0,0,1,37.6,48a1.19,1.19,0,1,1,2.16,1A30.49,30.49,0,0,0,37,60.26,1.19,1.19,0,0,1,35.83,61.39Z"/><path class="cls-3" d="M49.86,76.13a1,1,0,0,1-.81-.4,23.31,23.31,0,0,1-4.39-10.34,1,1,0,0,1,2-.32,21.26,21.26,0,0,0,4,9.43,1,1,0,0,1-.81,1.63Z"/><path class="cls-3" d="M62.21,84.33a1,1,0,0,1-.25,0,23.07,23.07,0,0,1-9.12-4.61,23.55,23.55,0,0,1-2.22-2.08,1,1,0,1,1,1.49-1.39,21.58,21.58,0,0,0,2,1.9,21,21,0,0,0,8.32,4.21,1,1,0,0,1-.25,2Z"/><path class="cls-3" d="M67.63,85a23.38,23.38,0,0,1-2.44-.13,1,1,0,1,1,.21-2,21.41,21.41,0,0,0,3.44.08A1,1,0,1,1,69,85C68.51,85,68.07,85,67.63,85Z"/><path class="cls-3" d="M71.13,84.72a1,1,0,0,1-.16-2,21,21,0,0,0,11.75-6,1,1,0,1,1,1.45,1.43A23.07,23.07,0,0,1,71.3,84.71Z"/><path class="cls-3" d="M85.59,75.89a1,1,0,0,1-.82-1.62,21.29,21.29,0,0,0,2.12-3.57,1,1,0,0,1,1.84.86,23.32,23.32,0,0,1-2.32,3.91A1,1,0,0,1,85.59,75.89Z"/><path class="cls-3" d="M89.58,66.49h-.17a1,1,0,0,1-.83-1.17A21.28,21.28,0,0,0,82.75,46.8a1,1,0,0,1,1.45-1.43,23.32,23.32,0,0,1,6.39,20.28A1,1,0,0,1,89.58,66.49Z"/><path class="cls-3" d="M81.1,45a1,1,0,0,1-.62-.21,21.4,21.4,0,0,0-1.94-1.32,1,1,0,1,1,1-1.75,23.47,23.47,0,0,1,2.13,1.44A1,1,0,0,1,81.1,45Z"/><path class="cls-3" d="M53.36,45.66a1,1,0,0,1-.65-1.8,23.18,23.18,0,0,1,23.85-3.64,1,1,0,1,1-.78,1.88A21.15,21.15,0,0,0,54,45.42,1,1,0,0,1,53.36,45.66Z"/><path class="cls-3" d="M48.36,51.62a1,1,0,0,1-.88-1.53,23.56,23.56,0,0,1,2.2-3.16c.34-.41.69-.81,1-1.18a1,1,0,0,1,1.48,1.4c-.32.34-.64.71-1,1.08a21.5,21.5,0,0,0-2,2.89A1,1,0,0,1,48.36,51.62Z"/><path class="cls-3" d="M45.39,63.18a1,1,0,0,1-1-1,23.14,23.14,0,0,1,1.5-8.7,1,1,0,1,1,1.9.72,21.12,21.12,0,0,0-1.37,7.94,1,1,0,0,1-1,1Z"/><path class="cls-3" d="M73.73,51.28a.51.51,0,0,1-.25-.06,12.06,12.06,0,0,0-5.6-1.53.51.51,0,0,1,0-1h0A13.08,13.08,0,0,1,74,50.33a.51.51,0,0,1-.25,1Z"/><path class="cls-3" d="M60,52.29a.51.51,0,0,1-.31-.91A12.93,12.93,0,0,1,64.84,49a13.23,13.23,0,0,1,1.69-.25.52.52,0,0,1,.55.46.51.51,0,0,1-.46.55,12.15,12.15,0,0,0-1.55.23,11.93,11.93,0,0,0-4.79,2.22A.51.51,0,0,1,60,52.29Z"/><path class="cls-3" d="M57.33,55a.51.51,0,0,1-.42-.8,13.13,13.13,0,0,1,1.35-1.63.51.51,0,0,1,.73.71,12.1,12.1,0,0,0-1.25,1.5A.51.51,0,0,1,57.33,55Z"/><path class="cls-3" d="M55.16,63.77a.51.51,0,0,1-.5-.45,12.94,12.94,0,0,1,1.56-8,.51.51,0,0,1,.89.5,11.93,11.93,0,0,0-1.44,7.35.51.51,0,0,1-.44.57Z"/><path class="cls-3" d="M56.4,67.88a.51.51,0,0,1-.45-.28A13,13,0,0,1,55,65.22a.51.51,0,0,1,1-.27,12.05,12.05,0,0,0,.84,2.19.51.51,0,0,1-.23.68A.5.5,0,0,1,56.4,67.88Z"/><path class="cls-3" d="M67.61,74.78a13.1,13.1,0,0,1-9.7-4.31.51.51,0,0,1,.76-.68A12.06,12.06,0,0,0,69,73.69a.51.51,0,0,1,.11,1A12.94,12.94,0,0,1,67.61,74.78Z"/><path class="cls-3" d="M70.75,74.38a.51.51,0,0,1-.13-1,12.21,12.21,0,0,0,1.27-.4.51.51,0,0,1,.36,1,13.1,13.1,0,0,1-1.37.44Z"/><path class="cls-3" d="M73.73,73.19a.51.51,0,0,1-.25-1,12,12,0,0,0,6.16-10.85.51.51,0,0,1,.49-.52.5.5,0,0,1,.52.49A13,13,0,0,1,74,73.13.51.51,0,0,1,73.73,73.19Z"/><path class="cls-3" d="M80,60.41a.51.51,0,0,1-.5-.43c0-.26-.09-.54-.15-.8a12.19,12.19,0,0,0-.58-1.91.51.51,0,1,1,.95-.38A13.19,13.19,0,0,1,80.37,59c.06.29.12.58.16.87a.51.51,0,0,1-.43.58Z"/><path class="cls-3" d="M78.37,55.77a.51.51,0,0,1-.44-.25,12,12,0,0,0-3.05-3.4.51.51,0,0,1,.61-.81A13,13,0,0,1,78.8,55a.51.51,0,0,1-.44.77Z"/></g><path class="cls-3" d="M86.31,134.46a1,1,0,0,0,.9-1.37c-2.34-5.52-10.23-9.58-19.6-9.58s-17.25,4.06-19.6,9.58a1,1,0,0,0,.9,1.37Z"/><rect class="cls-4" x="64.45" y="131.1" width="6.34" height="1.55" rx="0.56" ry="0.56"/><rect class="cls-4" x="64.65" y="129.01" width="5.94" height="1.45" rx="0.53" ry="0.53"/><rect class="cls-4" x="64.96" y="126.94" width="5.32" height="1.3" rx="0.47" ry="0.47"/><rect class="cls-4" x="65.2" y="124.86" width="4.84" height="1.19" rx="0.43" ry="0.43"/><circle class="cls-3" cx="67.62" cy="61.72" r="6.79"/></g></svg>