<?xml version="1.0" encoding="utf-8"?>
<!-- Generator: Adobe Illustrator 16.0.3, SVG Export Plug-In . SVG Version: 6.00 Build 0)  -->
<!DOCTYPE svg PUBLIC "-//W3C//DTD SVG 1.1//EN" "http://www.w3.org/Graphics/SVG/1.1/DTD/svg11.dtd">
<svg version="1.1" xmlns="http://www.w3.org/2000/svg" xmlns:xlink="http://www.w3.org/1999/xlink" x="0px" y="0px" width="940px"
	 height="480px" viewBox="0 0 940 480" enable-background="new 0 0 940 480" xml:space="preserve">
<g id="圖層_1">
</g>
<g id="圖層_2">
	<g>
		<g>
			<path fill="#FFFFFF" stroke="#F5A214" stroke-width="7.2184" stroke-miterlimit="10" d="M225.573,239.999
				c0,50.836-41.21,92.051-92.046,92.051s-92.047-41.215-92.047-92.051c0-50.834,41.211-92.049,92.047-92.049
				S225.573,189.165,225.573,239.999z"/>
			<path fill="#F7FCFE" d="M174.475,258.356c0,36.605-18.208,48.082-40.817,48.082c-22.617,0-41.075-11.477-41.075-48.082
				c0-36.609,18.329-66.279,40.944-66.279C156.139,192.077,174.475,221.747,174.475,258.356z"/>
			<g>
				
					<path fill="none" stroke="#1D2539" stroke-width="1.7151" stroke-linecap="round" stroke-linejoin="round" stroke-miterlimit="10" d="
					M172.619,276.388c1.208-5.189,1.854-11.166,1.854-18.031c0-7.285-0.728-14.297-2.069-20.854"/>
				
					<path fill="none" stroke="#1D2539" stroke-width="1.7151" stroke-linecap="round" stroke-linejoin="round" stroke-miterlimit="10" d="
					M164.366,214.755c-7.503-13.898-18.54-22.678-30.839-22.678c-22.611,0-40.946,29.67-40.946,66.279
					c0,36.605,18.207,48.082,40.816,48.082c12.887,0,24.422-3.727,31.963-13.701"/>
			</g>
			<path opacity="0.2" fill="#DBDAD6" d="M95.79,244.741c0-20.979,11.125-39.736,27.692-50.65c-17.758,7.25-30.9,33.27-30.9,64.266
				c0,36.605,18.458,48.082,41.075,48.082c4.895,0,9.587-0.541,13.929-1.758C118.6,300.31,95.79,274.792,95.79,244.741z"/>
			<circle fill="#EACC2C" cx="134.23" cy="235.478" r="26.64"/>
			<path fill="#3D3C3D" d="M123.631,228.788c0,1.861-0.967,3.371-2.156,3.371c-1.187,0-2.151-1.51-2.151-3.371
				c0-1.863,0.965-3.373,2.151-3.373C122.664,225.415,123.631,226.925,123.631,228.788z"/>
			<path fill="#3D3C3D" d="M148.353,228.788c0,1.861-0.958,3.371-2.148,3.371c-1.19,0-2.149-1.51-2.149-3.371
				c0-1.863,0.959-3.373,2.149-3.373C147.394,225.415,148.353,226.925,148.353,228.788z"/>
			<g>
				<g>
					<path fill="#939498" d="M104.739,267.454c0.658,2.85,3.504,4.629,6.355,3.965c2.847-0.656,4.621-3.504,3.961-6.354
						c-0.66-2.855-3.506-4.629-6.357-3.971C105.852,261.755,104.076,264.603,104.739,267.454z"/>
				</g>
				<g>
					<path fill="#E0E0E0" d="M107.059,266.913c0.364,1.572,1.927,2.547,3.497,2.186c1.563-0.361,2.54-1.93,2.175-3.496
						c-0.361-1.568-1.925-2.545-3.493-2.186C107.67,263.786,106.695,265.347,107.059,266.913z"/>
				</g>
				<g>
					<path fill="#594A42" d="M110.175,267.081c-0.36,0.119-0.773-0.004-0.997-0.334c-0.11-0.164-11.138-16.484-15.581-25.307
						c-0.214-0.43-0.043-0.951,0.386-1.168c0.43-0.215,0.945-0.043,1.162,0.385c4.393,8.727,15.356,24.953,15.469,25.117
						c0.266,0.395,0.164,0.938-0.232,1.201C110.316,267.021,110.246,267.054,110.175,267.081z"/>
				</g>
			</g>
			<g>
				<g>
					<path fill="#939498" d="M165.041,269.298c0,0,2.986-5.375-2.37-9.471c-5.358-4.096-10.363,1.666-10.363,1.666l0.297-0.803
						c0,0,4.75-5.434,10.259-1.393c5.338,3.916,2.981,8.648,2.981,8.648L165.041,269.298z"/>
				</g>
				<g>
					<path fill="#594A42" d="M166.273,256.392l-1.163-0.727c-1.38-0.938-6.429-3.414-13.087,4.563
						c-6.928,8.297-1.139,12.256-1.139,12.256l0.664-0.756c0,0-4.881-2.518,1.373-10.785c6.253-8.268,11.93-3.854,11.93-3.854
						s5.056,2.637,0.53,11.322c-4.527,8.684-9.81,5.906-9.81,5.906l-0.604,0.74c2.262,1.369,6.907,1.979,11.24-5.955
						C170.741,260.8,167.823,257.47,166.273,256.392z"/>
				</g>
				<g>
					<path fill="#939498" d="M155.876,275.044c0.345-0.539,0.35-1.018-0.157-1.316c-0.51-0.301-0.865-0.502-1.345,0.131
						c-0.482,0.639-0.407,0.98-0.035,1.252C154.716,275.384,155.396,275.792,155.876,275.044z"/>
				</g>
				<g>
					<path fill="#939498" d="M152.195,271.567c0.511,0.387,0.682,0.834,0.311,1.289c-0.374,0.457-0.638,0.77-1.307,0.342
						c-0.671-0.428-0.717-0.779-0.465-1.162C150.991,271.649,151.491,271.026,152.195,271.567z"/>
				</g>
				<g>
					<path fill="#594A42" d="M165.076,256.935c-0.051-0.021-0.1-0.049-0.15-0.074c-0.344-0.23-0.441-0.689-0.215-1.035
						c0.048-0.074,4.952-7.658,7.141-14.721c0.122-0.395,0.54-0.611,0.933-0.49c0.397,0.109,0.612,0.537,0.492,0.934
						c-2.25,7.262-7.111,14.775-7.317,15.09C165.767,256.937,165.396,257.05,165.076,256.935z"/>
				</g>
			</g>
			<path fill="#00A499" stroke="#646464" stroke-width="0.3927" stroke-miterlimit="10" d="M104.261,211.931
				c0,0,21.688-10.057,58.346-0.236l0.716,1.379c0,0-32.394-3.441-59.688,0L104.261,211.931z"/>
			
				<ellipse fill="#E4F3F4" stroke="#646464" stroke-width="0.5891" stroke-miterlimit="10" cx="132.353" cy="190.743" rx="18.555" ry="17.18"/>
			<path fill="#97D3D3" stroke="#646464" stroke-width="0.5891" stroke-miterlimit="10" d="M142.661,190.743
				c0,5.27-4.615,9.543-10.307,9.543c-5.695,0-10.31-4.273-10.31-9.543c0-5.273,4.615-9.543,10.31-9.543
				C138.046,181.2,142.661,185.47,142.661,190.743z"/>
			<path fill="#C1E4E6" stroke="#646464" stroke-width="0.4073" stroke-miterlimit="10" d="M139.481,190.743
				c0,3.645-3.191,6.6-7.127,6.6c-3.938,0-7.131-2.955-7.131-6.6c0-3.648,3.193-6.6,7.131-6.6
				C136.29,184.144,139.481,187.095,139.481,190.743z"/>
			<path fill="none" stroke="#E6610E" stroke-width="1.0828" stroke-linecap="round" stroke-miterlimit="10" d="M127.234,252.392
				c0,0,6.711,4.486,13.992-0.662"/>
			<path fill="#282828" d="M159.417,223.575c0.011-0.145-0.302-0.719-0.413-0.785c-1.304-0.85-2.084-1.742-3.932-1.746
				c-1.76-0.012-3.525-0.066-5.286-0.016c-4.331,0.133-8.661,0.328-12.993,0.475c-0.86,0.027-1.744,0.066-2.588,0.082
				c-0.841-0.016-1.702-0.055-2.565-0.082c-4.329-0.146-8.649-0.342-12.978-0.475c-1.762-0.051-3.519,0.004-5.28,0.016
				c-1.849,0.004-2.627,0.896-3.93,1.746c-0.111,0.066-0.42,0.641-0.408,0.785c0.113,1.549-0.633,3.061,1.1,4.217
				c0.512,0.605,0.512,1.832,0.681,2.609c0.591,2.727,2.614,4.201,5.523,4.611c3.456,0.686,8.661,0.469,9.722,0.27
				c1.321-0.145,2.49-0.957,3.151-1.867c0.902-1.24,1.692-2.555,2.47-3.869c0.437-0.744,0.731-1.533,1.092-2.307
				c0.269-0.574,0.689-0.818,1.422-0.818c0.739,0,1.176,0.244,1.45,0.818c0.361,0.773,0.679,1.563,1.117,2.307
				c0.776,1.314,1.565,2.629,2.47,3.869c0.657,0.91,1.829,1.723,3.148,1.867c1.062,0.199,6.267,0.416,9.721-0.27
				c2.908-0.41,4.931-1.885,5.524-4.611c0.167-0.777,0.167-2.004,0.679-2.609C160.05,226.636,159.305,225.124,159.417,223.575z
				 M131.141,226.87c-0.32,1.932-1.227,3.676-2.488,5.266c-0.876,1.104-2.123,1.727-3.66,1.996c-2.856,0.48-5.684,0.244-8.507-0.109
				c-1.832-0.23-3.065-1.215-3.585-2.789c-0.771-2.322-0.933-4.678-0.504-7.078c0.167-0.953,0.699-1.607,1.79-1.707
				c1.995-0.188,4.742-0.266,5.952-0.301c1.127,0,2.331-0.016,3.444,0.098c1.704,0.176,3.442,0.338,5.063,0.799
				C130.621,223.595,131.438,225.062,131.141,226.87z M155.563,231.233c-0.525,1.574-1.751,2.559-3.583,2.789
				c-2.824,0.354-5.653,0.59-8.508,0.109c-1.542-0.27-2.785-0.893-3.666-1.996c-1.26-1.59-2.162-3.334-2.483-5.266
				c-0.299-1.809,0.517-3.275,2.495-3.826c1.622-0.461,3.359-0.623,5.063-0.799c1.11-0.113,2.317-0.098,3.444-0.098
				c1.211,0.035,3.96,0.113,5.95,0.301c1.091,0.1,1.622,0.754,1.793,1.707C156.492,226.556,156.33,228.911,155.563,231.233z"/>
		</g>
		<g>
			<path fill="#FFFFFF" d="M251.065,188.56c2.885,0.883,5.929,1.322,9.134,1.322c4.005,0,12.98-1.16,26.921-3.486
				c14.422-2.082,26.2-3.123,35.334-3.123c12.178,0,20.63,0.762,25.359,2.283c5.367,1.922,9.173,4.367,11.417,7.33
				c2.242,3.447,3.365,7.975,3.365,13.582c0,5.287-0.441,8.934-1.322,10.936c-0.802,2.484-1.803,3.727-3.004,3.727l-14.542-2.764
				c1.041-0.482,1.722-1.563,2.043-3.246c0.64-1.602,0.961-4.486,0.961-8.652c0-2.242-0.441-4.207-1.322-5.891
				c-1.202-1.922-3.446-3.203-6.73-3.846c-4.086-0.721-9.494-1.08-16.225-1.08c-1.923,0-3.767,0.041-5.528,0.119v7.813
				c2.563,0.24,5.047,0.359,7.451,0.359c5.688,0,10.015-0.279,12.98-0.84c0.8-0.24,1.641-0.963,2.524-2.164v10.096
				c0,2.004-0.441,3.287-1.322,3.846c-1.282,0.643-6.009,0.961-14.182,0.961c-3.046,0-5.528-0.039-7.451-0.119v2.645
				c0,1.121-0.081,2.084-0.241,2.883c6.25,1.043,12.098,1.965,17.547,2.766c14.341,1.922,22.794,2.883,25.359,2.883
				c0.961,0,1.962-0.48,3.005-1.441l-2.644,6.971c-1.363,4.729-2.764,7.092-4.207,7.092c-2.404,0-11.819-1.281-28.243-3.848
				c-13.461-2.082-28.204-4.885-44.228-8.412c-2.163-0.48-4.007-0.881-5.528-1.201c-2.004,3.766-4.047,7.172-6.129,10.215
				c-0.961,1.604-1.883,2.686-2.764,3.246h1.563c3.044,0,4.927,1.123,5.648,3.365c4.646-0.482,11.577-1.203,20.792-2.164
				c0.319,0,0.64-0.039,0.961-0.121c-0.402-3.365-1.243-5.326-2.524-5.889h12.98c2.723,0,4.285,1.283,4.687,3.846
				c0.079,0.402,0.12,0.803,0.12,1.203c8.653-0.482,15.583-0.723,20.792-0.723c4.886,0,8.612,0.402,11.177,1.203
				c3.846,1.123,6.689,2.604,8.533,4.447c2.164,1.844,3.245,4.768,3.245,8.773c0,2.162-0.041,4.086-0.12,5.768
				c0.881-0.318,1.683-0.641,2.404-0.961v10.096c0,1.922-0.441,3.166-1.322,3.725c-1.283,0.24-3.526,0.402-6.73,0.48
				c1.04,1.523,2.323,3.365,3.846,5.529c0,0.078,2.563,3.525,7.692,10.336c0.24,0.801,1.322,1.322,3.245,1.563l-6.37,2.885
				c-3.927,2.242-6.411,3.365-7.451,3.365c-1.604,0-3.605-1.563-6.009-4.688c-15.064,1.842-31.81,2.764-50.237,2.764
				c-13.862,0-26.561-0.359-38.098-1.082c-2.404-0.24-3.686-1.162-3.846-2.764c0-1.123,0.36-5.168,1.082-12.139
				c0.64,1.281,1.722,1.963,3.245,2.043c11.457,0.561,23.995,0.842,37.617,0.842h2.885v-0.361c0.079-2.805,0.12-5.408,0.12-7.811
				c-9.776-0.08-17.307-0.24-22.595-0.482c-0.642,2.566-2.003,3.848-4.086,3.848h-14.903c2.323-0.881,3.485-3.084,3.485-6.611
				v-22.234c0-4.086-1.162-6.77-3.485-8.051h7.332c-0.402-0.16-0.682-0.281-0.841-0.361l-11.778-5.889
				c1.762-0.08,3.324-1.121,4.688-3.125c4.246-5.688,8.572-12.818,12.98-21.393c1.442-2.564,2.163-4.326,2.163-5.289
				c0-0.158-0.12-0.4-0.36-0.721c-3.927,1.043-6.411,1.563-7.452,1.563c-2.163,0-4.647-2.363-7.451-7.092L251.065,188.56z
				 M276.544,260.188h0.36c7.371,0.322,14.702,0.563,21.994,0.723c0-2.965-0.081-5.969-0.24-9.014
				c-10.576,1.201-17.949,1.963-22.114,2.283V260.188z M283.515,215.241c6.088,1.201,11.938,2.324,17.547,3.365v-19.951
				c0-0.721-0.042-1.361-0.121-1.924c-5.93,0.563-11.658,1.363-17.186,2.404c-2.565,0.803-4.928,1.484-7.091,2.043l6.73,0.842
				c2.723,0.32,4.086,1.402,4.086,3.244c0,0.721-0.721,2.846-2.163,6.371C284.675,212.917,284.075,214.12,283.515,215.241z
				 M338.079,279.659c-0.961-1.924-1.442-3.285-1.442-4.086c0-0.721,0.641-1.602,1.923-2.645c-6.57,0.08-14.704,0.121-24.397,0.121
				c-0.081,3.285-0.201,5.928-0.36,7.932C322.374,280.741,330.466,280.3,338.079,279.659z M314.162,250.935
				c0.079,2.725,0.121,5.57,0.121,8.533v1.563c10.174,0,18.869-0.078,26.08-0.24v-3.605c0-3.766-1.243-5.928-3.726-6.49
				c-1.604-0.158-4.567-0.24-8.894-0.24C324.777,250.454,320.25,250.616,314.162,250.935z"/>
			<path fill="#FFFFFF" d="M381.518,188.56c2.885,0.883,5.929,1.322,9.134,1.322c4.005,0,12.98-1.16,26.921-3.486
				c14.422-2.082,26.2-3.123,35.334-3.123c12.178,0,20.63,0.762,25.359,2.283c5.367,1.922,9.173,4.367,11.417,7.33
				c2.242,3.447,3.365,7.975,3.365,13.582c0,5.287-0.441,8.934-1.322,10.936c-0.802,2.484-1.803,3.727-3.004,3.727l-14.542-2.764
				c1.041-0.482,1.722-1.563,2.043-3.246c0.64-1.602,0.961-4.486,0.961-8.652c0-2.242-0.441-4.207-1.322-5.891
				c-1.202-1.922-3.446-3.203-6.73-3.846c-4.086-0.721-9.494-1.08-16.225-1.08c-1.923,0-3.767,0.041-5.528,0.119v7.813
				c2.563,0.24,5.047,0.359,7.451,0.359c5.688,0,10.015-0.279,12.98-0.84c0.8-0.24,1.641-0.963,2.524-2.164v10.096
				c0,2.004-0.441,3.287-1.322,3.846c-1.282,0.643-6.009,0.961-14.182,0.961c-3.046,0-5.528-0.039-7.451-0.119v2.645
				c0,1.121-0.081,2.084-0.241,2.883c6.25,1.043,12.098,1.965,17.547,2.766c14.341,1.922,22.794,2.883,25.359,2.883
				c0.961,0,1.962-0.48,3.005-1.441l-2.644,6.971c-1.363,4.729-2.764,7.092-4.207,7.092c-2.404,0-11.819-1.281-28.243-3.848
				c-13.461-2.082-28.204-4.885-44.228-8.412c-2.163-0.48-4.007-0.881-5.528-1.201c-2.004,3.766-4.047,7.172-6.129,10.215
				c-0.961,1.604-1.883,2.686-2.764,3.246h1.563c3.044,0,4.927,1.123,5.648,3.365c4.646-0.482,11.577-1.203,20.792-2.164
				c0.319,0,0.64-0.039,0.961-0.121c-0.402-3.365-1.243-5.326-2.524-5.889h12.98c2.723,0,4.285,1.283,4.687,3.846
				c0.079,0.402,0.12,0.803,0.12,1.203c8.653-0.482,15.583-0.723,20.792-0.723c4.886,0,8.612,0.402,11.177,1.203
				c3.846,1.123,6.689,2.604,8.533,4.447c2.164,1.844,3.245,4.768,3.245,8.773c0,2.162-0.041,4.086-0.12,5.768
				c0.881-0.318,1.683-0.641,2.404-0.961v10.096c0,1.922-0.441,3.166-1.322,3.725c-1.283,0.24-3.526,0.402-6.73,0.48
				c1.04,1.523,2.323,3.365,3.846,5.529c0,0.078,2.563,3.525,7.692,10.336c0.24,0.801,1.322,1.322,3.245,1.563l-6.37,2.885
				c-3.927,2.242-6.411,3.365-7.451,3.365c-1.604,0-3.605-1.563-6.009-4.688c-15.064,1.842-31.81,2.764-50.237,2.764
				c-13.862,0-26.561-0.359-38.098-1.082c-2.404-0.24-3.686-1.162-3.846-2.764c0-1.123,0.36-5.168,1.082-12.139
				c0.64,1.281,1.722,1.963,3.245,2.043c11.457,0.561,23.995,0.842,37.617,0.842h2.885v-0.361c0.079-2.805,0.12-5.408,0.12-7.811
				c-9.776-0.08-17.307-0.24-22.595-0.482c-0.642,2.566-2.003,3.848-4.086,3.848h-14.903c2.323-0.881,3.485-3.084,3.485-6.611
				v-22.234c0-4.086-1.162-6.77-3.485-8.051h7.332c-0.402-0.16-0.682-0.281-0.841-0.361l-11.778-5.889
				c1.762-0.08,3.324-1.121,4.688-3.125c4.246-5.688,8.572-12.818,12.98-21.393c1.442-2.564,2.163-4.326,2.163-5.289
				c0-0.158-0.12-0.4-0.36-0.721c-3.927,1.043-6.411,1.563-7.452,1.563c-2.163,0-4.647-2.363-7.451-7.092L381.518,188.56z
				 M406.997,260.188h0.36c7.371,0.322,14.702,0.563,21.994,0.723c0-2.965-0.081-5.969-0.24-9.014
				c-10.576,1.201-17.949,1.963-22.114,2.283V260.188z M413.967,215.241c6.088,1.201,11.938,2.324,17.547,3.365v-19.951
				c0-0.721-0.042-1.361-0.121-1.924c-5.93,0.563-11.658,1.363-17.186,2.404c-2.565,0.803-4.928,1.484-7.091,2.043l6.73,0.842
				c2.723,0.32,4.086,1.402,4.086,3.244c0,0.721-0.721,2.846-2.163,6.371C415.128,212.917,414.527,214.12,413.967,215.241z
				 M468.531,279.659c-0.961-1.924-1.442-3.285-1.442-4.086c0-0.721,0.641-1.602,1.923-2.645c-6.57,0.08-14.704,0.121-24.397,0.121
				c-0.081,3.285-0.201,5.928-0.36,7.932C452.827,280.741,460.918,280.3,468.531,279.659z M444.614,250.935
				c0.079,2.725,0.121,5.57,0.121,8.533v1.563c10.174,0,18.869-0.078,26.08-0.24v-3.605c0-3.766-1.243-5.928-3.726-6.49
				c-1.604-0.158-4.567-0.24-8.894-0.24C455.23,250.454,450.703,250.616,444.614,250.935z"/>
			<path fill="#FFFFFF" d="M544.18,202.14c-0.081,1.443-0.201,3.006-0.36,4.688c10.015,0.643,19.909,0.963,29.686,0.963
				c13.941,0,24.557-0.281,31.849-0.842c2.242-0.32,4.405-1.041,6.49-2.164v10.457c0,2.084-0.642,3.445-1.923,4.086
				c-3.206,0.561-15.344,0.842-36.416,0.842c-13.941,0-24.157-0.121-30.647-0.361v0.721c-0.081,1.283-0.12,2.484-0.12,3.605
				c10.335,0.563,20.591,0.842,30.767,0.842c13.941,0,24.557-0.24,31.849-0.721c2.242-0.24,4.405-0.92,6.49-2.043v10.455
				c0,2.004-0.642,3.287-1.923,3.846c-3.206,0.721-15.344,1.082-36.416,1.082c-14.422,0-24.839-0.199-31.248-0.602
				c-0.081,1.924-0.12,3.688-0.12,5.289c8.813,0.402,17.625,0.602,26.44,0.602c19.068,0,33.61-0.361,43.627-1.082
				c2.963-0.32,5.889-1.082,8.773-2.283v11.416c0,2.244-0.601,3.727-1.803,4.447c-1.283,0.162-3.287,0.281-6.009,0.361l6.49,5.768
				c0.881,0.963,1.322,1.965,1.322,3.006c0,0.883-1.243,2.244-3.726,4.086c-2.084,1.682-5.649,4.248-10.697,7.691
				c4.886,3.125,9.855,6.25,14.903,9.375c0.8,1.039,2.242,1.641,4.327,1.803c-4.647,2.885-7.051,4.326-7.211,4.326
				c-4.567,2.963-7.572,4.447-9.014,4.447c-2.164,0-5.889-1.844-11.177-5.529c-3.125-2.004-6.691-4.527-10.696-7.572l-2.764,6.01
				c-0.961,2.002-2.565,3.203-4.808,3.605c-14.824,1.684-24.559,2.523-29.205,2.523c-4.086,0-8.374-0.6-12.86-1.803
				c-3.927-1.201-7.132-3.084-9.615-5.648c-2.403-2.564-3.605-8.252-3.605-17.066c0-5.207,0.04-10.215,0.12-15.021
				c-3.526-0.08-6.09-0.199-7.691-0.361c-1.283-0.801-1.923-2.361-1.923-4.688v-11.176c2.404,1.201,5.728,1.922,9.976,2.162
				c0.24-11.135,0.68-21.393,1.322-30.768c0.721-14.1,1.082-21.873,1.082-23.314c0-1.121-0.961-2.123-2.884-3.006h13.701
				c4.327,0,6.49,1.443,6.49,4.328v0.119c10.015,0.563,19.99,0.842,29.926,0.842c14.501,0,25.558-0.32,33.171-0.961
				c2.242-0.24,4.486-1.002,6.73-2.285v10.818c0,2.002-0.642,3.324-1.923,3.965c-3.365,0.721-16.026,1.082-37.979,1.082
				C561.084,202.501,550.83,202.38,544.18,202.14z M580.716,277.978c-4.248-3.285-8.815-6.93-13.701-10.938
				c-6.411-4.967-10.657-8.572-12.739-10.816c-4.567,0-8.695-0.039-12.379-0.121c-0.081,5.209-0.121,10.096-0.121,14.662
				c0,4.809,0.521,7.611,1.563,8.414c1.121,0.799,2.885,1.4,5.288,1.803c2.404,0.16,4.928,0.24,7.572,0.24
				c4.005,0,9.293-0.48,15.864-1.441C575.106,279.298,577.991,278.698,580.716,277.978z M577.471,256.224
				c4.967,3.686,10.135,7.33,15.504,10.936c1.683-1.039,3.765-2.643,6.25-4.807c3.925-2.803,6.529-4.928,7.812-6.369
				C599.825,256.144,589.97,256.224,577.471,256.224z"/>
			<path fill="#FFFFFF" d="M650.596,184.112c4.486,0.563,8.773,1.082,12.859,1.563c2.323,0.402,3.485,1.484,3.485,3.246
				c0,0.641-0.281,2.402-0.841,5.287c3.925,0.322,7.771,0.48,11.538,0.48c7.932,0,13.98-0.318,18.147-0.961
				c1.281-0.24,2.524-1,3.726-2.283v12.498c0,2.484-0.763,4.088-2.284,4.809c-1.202,0.402-4.368,0.643-9.495,0.721
				c-0.642,3.445-2.163,9.176-4.567,17.186c-0.642,2.404-1.363,4.729-2.164,6.971c7.371-0.078,13.221-0.439,17.547-1.08
				c1.602-0.32,3.245-1.242,4.927-2.766v13.701c0,2.566-0.841,4.287-2.524,5.168c-1.844,0.803-7.652,1.283-17.427,1.443
				c0.319,0.48,0.56,0.922,0.721,1.32c4.567,9.297,9.654,18.629,15.264,28.004c0.721,1.201,2.323,1.803,4.807,1.803l-4.807,4.326
				c-4.808,5.127-8.334,7.691-10.576,7.691c-0.643,0-1.923-1.643-3.846-4.928c-3.286-6.008-7.373-14.379-12.259-25.117
				c-0.402-0.801-0.721-1.482-0.961-2.043c-2.965,8.012-6.171,16.344-9.615,24.998c-2.244,5.768-4.207,8.652-5.889,8.652
				c-1.604,0-6.411-2.123-14.422-6.369c1.842,0,3.726-2.484,5.648-7.451c4.327-10.576,8.212-20.951,11.658-31.127
				c-6.171-0.242-10.176-0.641-12.019-1.203c-1.683-1.039-2.524-2.844-2.524-5.408v-13.461c1.521,1.523,3.564,2.445,6.129,2.766
				c4.646,0.48,9.173,0.801,13.581,0.961c1.04-3.125,1.962-6.209,2.764-9.254c1.683-6.01,3.044-10.896,4.086-14.662
				c-3.686-0.08-6.57-0.199-8.653-0.361c-1.042,4.248-2.244,8.412-3.606,12.498c-0.882,2.807-1.763,4.207-2.644,4.207
				c-0.882,0-2.325-0.279-4.327-0.842c-2.805-0.639-5.889-1.279-9.254-1.922c1.121-0.4,1.923-1.762,2.404-4.086
				c2.083-7.211,4.005-14.904,5.769-23.076c1.041-4.967,1.563-7.932,1.563-8.893C652.598,186.317,651.957,185.315,650.596,184.112z
				 M702.034,189.401h13.341c2.804,0,4.405,1.322,4.807,3.965c0,0.322,0.04,0.643,0.12,0.963c1.842-0.32,3.885-0.801,6.129-1.443
				c5.769-1.682,10.294-2.523,13.581-2.523c4.005,0,7.13,1.803,9.375,5.408c2.563,4.488,3.924,12.82,4.086,24.998v13.941
				c0,12.902-1.123,26.361-3.365,40.383c0.4-0.08,0.641-0.121,0.721-0.121c1.202-0.24,2.404-1.039,3.605-2.404v12.26
				c0,2.322-0.682,3.885-2.043,4.688c-1.604,0.961-7.772,1.441-18.508,1.441c-5.69,0-10.096-0.119-13.22-0.359
				c0,0.158,0,0.279,0,0.359c-0.721,2.242-2.205,3.365-4.447,3.365h-13.701c1.761-1.523,2.804-6.209,3.125-14.061
				c0.159-13.541,0.24-25.398,0.24-35.574c0-12.818-0.402-27.002-1.202-42.547C704.276,195.011,703.396,190.765,702.034,189.401z
				 M721.504,275.333c4.246,0.402,8.372,0.6,12.379,0.6c0.48,0,0.92,0,1.322,0c1.521-9.053,2.284-20.869,2.284-35.453
				c0-4.887-0.042-10.457-0.12-16.705c0.079-12.5-0.961-18.99-3.125-19.471c-2.806,0-5.85,0.842-9.134,2.523
				c-1.683,0.803-3.005,1.363-3.966,1.684c0.4,9.535,0.601,20.473,0.601,32.811C721.745,255.743,721.664,267.081,721.504,275.333z"
				/>
			<path fill="#FFFFFF" d="M784.774,184.112h11.417c4.005,0,6.169,1.764,6.49,5.289v5.527c3.285-0.158,5.968-0.398,8.053-0.721
				c1.202-0.24,2.362-1,3.485-2.283v10.816c0,2.004-0.643,3.365-1.923,4.086c-1.682,0.643-7.853,0.963-18.508,0.963
				c-10.176,0-16.386-0.32-18.628-0.963c-1.283-0.799-1.923-2.242-1.923-4.326v-10.576c1.041,1.283,2.482,2.043,4.327,2.283
				c3.204,0.402,6.289,0.643,9.254,0.721v-6.85C786.817,186.558,786.135,185.235,784.774,184.112z M773.236,250.454h11.177
				c2.242,0,3.684,0.602,4.327,1.803c0.4-0.078,0.8-0.16,1.202-0.24c4.327-1.041,7.692-1.563,10.095-1.563
				c2.563,0,4.688,0.563,6.37,1.684c2.242,1.201,3.805,2.926,4.687,5.168c0.8,2.004,1.202,5.328,1.202,9.975
				c0,2.324-0.161,5.85-0.48,10.576c0.881-0.402,1.683-1.041,2.404-1.924v10.457c0,2.082-0.643,3.443-1.923,4.086
				c-1.363,0.561-6.129,0.842-14.302,0.842c-3.526,0-6.411-0.041-8.653-0.121c-0.402,2.723-1.563,4.086-3.485,4.086h-12.619
				c2.002-0.801,3.004-2.725,3.004-5.768v-32.33C776.241,253.819,775.238,251.577,773.236,250.454z M776.241,211.034
				c0.8,1.363,1.962,2.164,3.485,2.404c4.646,0.641,9.294,0.961,13.941,0.961c6.25,0,10.976-0.32,14.182-0.961
				c0.961-0.24,1.923-1.041,2.885-2.404v11.537c0,2.244-0.601,3.688-1.803,4.326c-1.364,0.723-6.451,1.082-15.264,1.082
				c-8.574,0-13.742-0.359-15.503-1.082c-1.283-0.799-1.923-2.283-1.923-4.445V211.034z M776.241,230.263
				c0.8,1.283,1.962,2.086,3.485,2.404c4.646,0.721,9.294,1.082,13.941,1.082c6.25,0,10.976-0.361,14.182-1.082
				c0.961-0.318,1.923-1.121,2.885-2.404v11.539c0,2.244-0.601,3.686-1.803,4.326c-1.364,0.643-6.451,0.961-15.264,0.961
				c-8.574,0-13.742-0.318-15.503-0.961c-1.283-0.721-1.923-2.242-1.923-4.566V230.263z M789.582,278.577
				c2.803,0.24,5.607,0.361,8.413,0.361h0.361c0.079-0.803,0.159-1.563,0.24-2.283c0.4-4.328,0.601-7.451,0.601-9.375
				s-0.282-3.244-0.841-3.967c-0.481-0.559-1.202-0.84-2.164-0.84c-1.202,0-2.604,0.441-4.207,1.32
				c-1.042,0.563-1.844,0.963-2.403,1.203V278.577z M824.675,185.075h11.417c4.005,0,6.168,1.762,6.49,5.287v4.688
				c2.963-0.16,5.448-0.4,7.452-0.721c0.961-0.24,2.001-0.881,3.125-1.924v10.096c0,1.924-0.522,3.166-1.563,3.727
				c-0.321,0.16-0.841,0.281-1.562,0.359c-0.321,4.408-0.883,10.258-1.683,17.547h8.292c-1.683-16.344-2.524-28.363-2.524-36.055
				c0-1.762,0.841-2.844,2.524-3.246c3.846-0.559,8.131-1.08,12.86-1.561c-1.363,1.201-2.043,2.643-2.043,4.326
				c0,1.523,0.079,3.406,0.241,5.648c0.88-0.721,1.722-1.4,2.524-2.043c1.842-1.203,3.204-1.803,4.086-1.803
				c0.8,0,2.924,2.523,6.37,7.57c3.685,6.01,5.848,10.537,6.49,13.582c0,1.123-0.481,2.084-1.442,2.885
				c-2.884,2.004-5.769,4.086-8.653,6.248c0.319-0.559,0.481-1,0.481-1.32c-1.202-4.166-3.527-9.016-6.971-14.543
				c-0.802-1.443-1.563-2.645-2.284-3.605c0.56,6.17,1.401,13.982,2.524,23.436c3.125-0.16,5.769-0.361,7.932-0.602
				c2.002-0.24,4.045-1.039,6.129-2.402v10.816c0,2.162-0.682,3.525-2.043,4.086c-1.442,0.32-4.888,0.561-10.336,0.721
				c0.641,4.326,1.281,8.373,1.923,12.139c2.404-4.406,3.605-7.09,3.605-8.053c0-0.559-0.161-1.16-0.48-1.803l8.773,5.648
				c1.202,0.883,1.803,1.684,1.803,2.404c0,2.164-3.485,8.975-10.456,20.432c1.761,8.494,3.485,15.822,5.168,21.994
				c0.8,1.201,2.083,1.961,3.846,2.283c-3.686,1.281-7.451,2.482-11.297,3.605c-2.003,0.559-3.526,0.842-4.567,0.842
				c-0.961,0-2.484-3.967-4.567-11.898c-4.567,5.928-7.532,8.893-8.894,8.893c-0.802,0-1.763-0.441-2.884-1.322
				c-0.162,0.16-0.282,0.281-0.361,0.361c-1.442,0.318-6.45,0.48-15.023,0.48c-3.927,0-7.091-0.041-9.495-0.119v0.6
				c-0.642,2.002-1.844,3.006-3.605,3.006h-10.937c1.442-0.803,2.242-3.326,2.403-7.572c0.16-7.291,0.241-13.66,0.241-19.109
				c0-6.891-0.361-14.502-1.082-22.836c-0.24-3.846-0.922-6.088-2.043-6.729h10.576c2.242,0,3.564,0.922,3.966,2.764v0.119
				c1.121-0.318,2.323-0.68,3.605-1.08c4.246-1.203,7.53-1.803,9.855-1.803c3.444,0,6.088,0.881,7.932,2.643
				c2.242,2.244,3.444,6.49,3.605,12.74v6.971c0,6.09-0.682,12.379-2.043,18.869c0.24-0.082,0.4-0.121,0.48-0.121
				c1.041-0.24,1.923-0.721,2.644-1.441c0.481-0.721,0.92-1.402,1.322-2.043c2.323-3.525,4.405-6.811,6.25-9.855
				c-1.604-9.135-3.125-19.389-4.567-30.768h-9.375c-18.989,0-30.527-0.318-34.613-0.961c-1.283-0.721-1.923-2.123-1.923-4.207
				v-10.695c1.762,1.363,4.246,2.162,7.452,2.402c0.56,0.082,1.082,0.121,1.563,0.121c-0.562-2.885-1.082-6.209-1.563-9.975
				c-0.321-2.645-0.522-4.848-0.601-6.611c-0.642-0.078-1.162-0.199-1.563-0.359c-1.042-0.723-1.562-2.045-1.562-3.967v-9.855
				c0.961,1.043,2.242,1.684,3.846,1.924c2.323,0.24,4.567,0.441,6.73,0.6v-6.008C826.598,187.56,825.956,186.276,824.675,185.075z
				 M830.083,261.392c1.683,0.08,3.284,0.119,4.807,0.119c2.164,0,4.006-0.039,5.529-0.119v-1.684
				c0.079-5.607-0.802-8.533-2.644-8.773c-1.844,0-3.887,0.563-6.129,1.684c-0.802,0.48-1.403,0.801-1.803,0.961
				C829.922,256.063,830.002,258.669,830.083,261.392z M829.963,280.86c3.125,0.24,6.168,0.361,9.134,0.361h0.601
				c0.319-2.564,0.56-5.447,0.721-8.654h-10.336C830.083,275.692,830.042,278.458,829.963,280.86z M832.607,223.774
				c1.442,0.08,2.884,0.119,4.327,0.119c0.079-0.16,0.12-0.279,0.12-0.361c0.8-6.488,1.281-11.896,1.442-16.225h-8.292
				c0.16,1.363,0.319,3.047,0.48,5.049C831.325,217.085,831.965,220.89,832.607,223.774z"/>
		</g>
	</g>
</g>
</svg>
