<svg xmlns="http://www.w3.org/2000/svg" viewBox="0 0 307.48 397.48"><defs><style>.cls-1{fill:#231815;}.cls-2{fill:#fff;stroke:#f5a214;stroke-width:6.48px;}.cls-11,.cls-12,.cls-13,.cls-14,.cls-15,.cls-2{stroke-miterlimit:10;}.cls-3{fill:#f7fcfe;}.cls-15,.cls-4{fill:none;stroke-linecap:round;}.cls-4{stroke:#1d2539;stroke-linejoin:round;stroke-width:1.54px;}.cls-5{fill:#dbdad6;opacity:0.2;}.cls-6{fill:#eacc2c;}.cls-7{fill:#3d3c3d;}.cls-8{fill:#939498;}.cls-9{fill:#e0e0e0;}.cls-10{fill:#594a42;}.cls-11{fill:#00a499;stroke-width:0.35px;}.cls-11,.cls-12,.cls-13,.cls-14{stroke:#646464;}.cls-12{fill:#e4f3f4;}.cls-12,.cls-13{stroke-width:0.53px;}.cls-13{fill:#97d3d3;}.cls-14{fill:#c1e4e6;stroke-width:0.37px;}.cls-15{stroke:#e6610e;stroke-width:0.97px;}.cls-16{fill:#282828;}.cls-17{fill:#515151;}</style></defs><title>專題網頁</title><g id="圖層_2" data-name="圖層 2"><path class="cls-1" d="M73.67,251.6a7.92,7.92,0,0,0,2.33.34,56,56,0,0,0,6.86-.89,65.69,65.69,0,0,1,9-.8,24.17,24.17,0,0,1,6.46.58,6.14,6.14,0,0,1,2.91,1.87,6.25,6.25,0,0,1,.86,3.46,7.81,7.81,0,0,1-.34,2.79q-.31.95-.77.95l-3.71-.7a1,1,0,0,0,.52-.83,6.73,6.73,0,0,0,.25-2.21,3.19,3.19,0,0,0-.34-1.5,2.45,2.45,0,0,0-1.71-1,24.79,24.79,0,0,0-4.13-.28q-.73,0-1.41,0v2q1,.09,1.9.09a19,19,0,0,0,3.31-.21,1.39,1.39,0,0,0,.64-.55v2.57q0,.77-.34,1a13.61,13.61,0,0,1-3.61.24q-1.16,0-1.9,0v.67a3.83,3.83,0,0,1-.06.74q2.39.4,4.47.7,5.48.74,6.46.74a1.16,1.16,0,0,0,.77-.37l-.67,1.78q-.52,1.81-1.07,1.81-.92,0-7.2-1-5.15-.8-11.27-2.14l-1.41-.31a27.51,27.51,0,0,1-1.56,2.6,2.49,2.49,0,0,1-.7.83h.4a1.32,1.32,0,0,1,1.44.86l5.3-.55a1,1,0,0,0,.24,0q-.15-1.29-.64-1.5h3.31a1.07,1.07,0,0,1,1.19,1,1.58,1.58,0,0,1,0,.31q3.31-.18,5.3-.18a10.1,10.1,0,0,1,2.85.31,5,5,0,0,1,2.17,1.13,2.78,2.78,0,0,1,.83,2.24q0,.83,0,1.47l.61-.25v2.57q0,.74-.34.95a12.4,12.4,0,0,1-1.71.12l1,1.41s.65.9,2,2.63q.09.31.83.4l-1.62.74a6,6,0,0,1-1.9.86q-.61,0-1.53-1.19a106.22,106.22,0,0,1-12.8.7q-5.3,0-9.71-.28-.92-.09-1-.71,0-.43.28-3.09a.91.91,0,0,0,.83.52q4.38.21,9.59.21h.73v-.09q0-1.07,0-2-3.74,0-5.76-.12-.25,1-1,1h-3.8q.89-.34.89-1.68v-5.67a2.14,2.14,0,0,0-.89-2.05H77.1l-.21-.09-3-1.5a1.55,1.55,0,0,0,1.19-.8,38.9,38.9,0,0,0,3.31-5.45,3.57,3.57,0,0,0,.55-1.35.38.38,0,0,0-.09-.18,10.51,10.51,0,0,1-1.9.4q-.83,0-1.9-1.81Zm6.49,18.25h.09q2.82.12,5.6.18,0-1.13-.06-2.3-4,.46-5.63.58Zm1.78-11.45,4.47.86v-5.08a3.57,3.57,0,0,0,0-.49q-2.27.22-4.38.61-1,.31-1.81.52l1.72.21q1,.12,1,.83a7.31,7.31,0,0,1-.55,1.62Zm13.9,16.42a2.85,2.85,0,0,1-.37-1q0-.28.49-.67-2.51,0-6.22,0,0,1.26-.09,2Q92.93,275.06,95.84,274.81Zm-6.09-7.32q0,1,0,2.17v.4q3.89,0,6.65-.06v-.92q0-1.44-.95-1.65-.61-.06-2.27-.06Q92.07,267.37,89.74,267.49Z"/><path class="cls-1" d="M106.91,251.6a7.92,7.92,0,0,0,2.33.34,56,56,0,0,0,6.86-.89,65.69,65.69,0,0,1,9-.8,24.17,24.17,0,0,1,6.46.58,6.14,6.14,0,0,1,2.91,1.87,6.25,6.25,0,0,1,.86,3.46,7.81,7.81,0,0,1-.34,2.79q-.31.95-.77.95l-3.71-.7a1,1,0,0,0,.52-.83,6.73,6.73,0,0,0,.25-2.21,3.19,3.19,0,0,0-.34-1.5,2.45,2.45,0,0,0-1.71-1,24.79,24.79,0,0,0-4.13-.28q-.73,0-1.41,0v2q1,.09,1.9.09a19,19,0,0,0,3.31-.21,1.39,1.39,0,0,0,.64-.55v2.57q0,.77-.34,1a13.61,13.61,0,0,1-3.61.24q-1.16,0-1.9,0v.67a3.83,3.83,0,0,1-.06.74q2.39.4,4.47.7,5.48.74,6.46.74a1.16,1.16,0,0,0,.77-.37l-.67,1.78q-.52,1.81-1.07,1.81-.92,0-7.2-1-5.15-.8-11.27-2.14l-1.41-.31a27.51,27.51,0,0,1-1.56,2.6,2.49,2.49,0,0,1-.7.83h.4a1.32,1.32,0,0,1,1.44.86l5.3-.55a1,1,0,0,0,.24,0q-.15-1.29-.64-1.5h3.31a1.07,1.07,0,0,1,1.19,1,1.58,1.58,0,0,1,0,.31q3.31-.18,5.3-.18a10.1,10.1,0,0,1,2.85.31A5,5,0,0,1,133,265.9a2.78,2.78,0,0,1,.83,2.24q0,.83,0,1.47l.61-.25v2.57q0,.74-.34.95a12.4,12.4,0,0,1-1.71.12l1,1.41s.65.9,2,2.63q.09.31.83.4l-1.62.74a6,6,0,0,1-1.9.86q-.61,0-1.53-1.19a106.22,106.22,0,0,1-12.8.7q-5.3,0-9.71-.28-.92-.09-1-.71,0-.43.28-3.09a.91.91,0,0,0,.83.52q4.38.21,9.59.21H119v-.09q0-1.07,0-2-3.74,0-5.76-.12-.25,1-1,1h-3.8q.89-.34.89-1.68v-5.67a2.14,2.14,0,0,0-.89-2.05h1.87l-.21-.09-3-1.5a1.55,1.55,0,0,0,1.19-.8,38.9,38.9,0,0,0,3.31-5.45,3.57,3.57,0,0,0,.55-1.35.38.38,0,0,0-.09-.18,10.51,10.51,0,0,1-1.9.4q-.83,0-1.9-1.81Zm6.49,18.25h.09q2.82.12,5.6.18,0-1.13-.06-2.3-4,.46-5.63.58Zm1.78-11.45,4.47.86v-5.08a3.57,3.57,0,0,0,0-.49q-2.27.22-4.38.61-1,.31-1.81.52l1.72.21q1,.12,1,.83a7.31,7.31,0,0,1-.55,1.62Zm13.9,16.42a2.85,2.85,0,0,1-.37-1q0-.28.49-.67-2.51,0-6.22,0,0,1.26-.09,2Q126.17,275.06,129.08,274.81ZM123,267.49q0,1,0,2.17v.4q3.89,0,6.65-.06v-.92q0-1.44-.95-1.65-.61-.06-2.27-.06Q125.31,267.37,123,267.49Z"/><path class="cls-1" d="M148.36,255.06q0,.55-.09,1.19,3.83.25,7.56.25,5.33,0,8.12-.21a5,5,0,0,0,1.65-.55v2.67a1,1,0,0,1-.49,1q-1.23.21-9.28.21-5.33,0-7.81-.09v.18c0,.33,0,.63,0,.92q4,.22,7.84.21,5.33,0,8.12-.18a4.47,4.47,0,0,0,1.65-.52v2.66a1,1,0,0,1-.49,1,77.75,77.75,0,0,1-9.28.28q-5.51,0-8-.15,0,.74,0,1.35,3.37.15,6.74.15,7.29,0,11.12-.28a8,8,0,0,0,2.24-.58v2.91a1.22,1.22,0,0,1-.46,1.13q-.49.06-1.53.09l1.65,1.47a1.13,1.13,0,0,1,.34.77q0,.34-.95,1-.8.64-2.73,2,1.87,1.19,3.8,2.39a1.47,1.47,0,0,0,1.1.46q-1.78,1.1-1.84,1.1A6.17,6.17,0,0,1,165,279a6.5,6.5,0,0,1-2.85-1.41q-1.19-.77-2.73-1.93l-.7,1.53a1.59,1.59,0,0,1-1.23.92q-5.67.64-7.44.64a12.65,12.65,0,0,1-3.28-.46,5.62,5.62,0,0,1-2.45-1.44q-.92-1-.92-4.35,0-2,0-3.83-1.35,0-2-.09a1.3,1.3,0,0,1-.49-1.19v-2.85a6.62,6.62,0,0,0,2.54.55q.09-4.26.34-7.84.28-5.39.28-5.94t-.73-.77h3.49q1.65,0,1.65,1.1v0q3.83.22,7.63.21,5.54,0,8.45-.25a4.41,4.41,0,0,0,1.71-.58v2.76a1,1,0,0,1-.49,1,85.08,85.08,0,0,1-9.68.28Q150.9,255.15,148.36,255.06Zm9.31,19.33q-1.62-1.26-3.49-2.79a31.09,31.09,0,0,1-3.25-2.76q-1.75,0-3.15,0,0,2,0,3.74t.4,2.14a3.32,3.32,0,0,0,1.35.46q.92.06,1.93.06a29.29,29.29,0,0,0,4-.37A22,22,0,0,0,157.67,274.38Zm-.83-5.54q1.9,1.41,4,2.79a13,13,0,0,0,1.59-1.22,13.44,13.44,0,0,0,2-1.62Q161.62,268.84,156.84,268.84Z"/><path class="cls-1" d="M175.47,250.46l3.28.4q.89.15.89.83a10.93,10.93,0,0,1-.21,1.35q1.5.12,2.94.12a32.56,32.56,0,0,0,4.62-.25,1.78,1.78,0,0,0,.95-.58v3.19a1.21,1.21,0,0,1-.58,1.22,11.26,11.26,0,0,1-2.42.18q-.25,1.32-1.16,4.38-.25.92-.55,1.78a34.67,34.67,0,0,0,4.47-.28,2.71,2.71,0,0,0,1.26-.71v3.49a1.35,1.35,0,0,1-.64,1.32,17.85,17.85,0,0,1-4.44.37,2,2,0,0,1,.18.34q1.75,3.55,3.89,7.14.28.46,1.23.46l-1.23,1.1q-1.84,2-2.69,2-.25,0-1-1.26-1.26-2.3-3.12-6.4-.15-.31-.24-.52-1.13,3.06-2.45,6.37-.86,2.21-1.5,2.21a14.26,14.26,0,0,1-3.68-1.62q.7,0,1.44-1.9,1.65-4,3-7.93a15.39,15.39,0,0,1-3.06-.31,1.49,1.49,0,0,1-.64-1.38V262.1a2.58,2.58,0,0,0,1.56.71q1.78.18,3.46.24.4-1.19.7-2.36l1-3.74q-1.41,0-2.21-.09-.4,1.62-.92,3.18-.34,1.07-.67,1.07a4.68,4.68,0,0,1-1.1-.21q-1.07-.24-2.36-.49.43-.15.61-1,.8-2.76,1.47-5.88a18.42,18.42,0,0,0,.4-2.27Q176,250.92,175.47,250.46Zm13.11,1.35H192a1.1,1.1,0,0,1,1.23,1,1,1,0,0,0,0,.25,15.15,15.15,0,0,0,1.56-.37,13.26,13.26,0,0,1,3.46-.64,2.68,2.68,0,0,1,2.39,1.38q1,1.72,1,6.37v3.55a65.2,65.2,0,0,1-.86,10.29l.18,0a1.74,1.74,0,0,0,.92-.61v3.12a1.27,1.27,0,0,1-.52,1.2q-.61.37-4.72.37-2.18,0-3.37-.09v.09a1.1,1.1,0,0,1-1.13.86H188.7q.67-.58.8-3.58.06-5.18.06-9.07,0-4.9-.31-10.84Q189.1,252.33,188.58,251.81Zm5,21.9q1.62.15,3.15.15H197a56.63,56.63,0,0,0,.58-9q0-1.87,0-4.26,0-4.78-.8-5a5.15,5.15,0,0,0-2.33.64,9.26,9.26,0,0,1-1,.43q.15,3.65.15,8.36Q193.61,270.55,193.54,273.71Z"/><path class="cls-1" d="M209.67,250.46h2.91q1.53,0,1.65,1.35v1.41q1.26-.06,2.05-.18a1.65,1.65,0,0,0,.89-.58v2.76a1.09,1.09,0,0,1-.49,1,23,23,0,0,1-4.72.25,25.32,25.32,0,0,1-4.75-.25,1.19,1.19,0,0,1-.49-1.1v-2.69a1.63,1.63,0,0,0,1.1.58q1.22.15,2.36.18v-1.75A1.28,1.28,0,0,0,209.67,250.46Zm-2.94,16.91h2.85q.86,0,1.1.46l.31-.06a11.87,11.87,0,0,1,2.57-.4,2.87,2.87,0,0,1,1.62.43,2.51,2.51,0,0,1,1.19,1.32,7.5,7.5,0,0,1,.31,2.54q0,.89-.12,2.7a1.72,1.72,0,0,0,.61-.49v2.66a1,1,0,0,1-.49,1,16,16,0,0,1-3.64.21q-1.35,0-2.21,0-.15,1-.89,1h-3.22q.77-.31.77-1.47v-8.24A1.79,1.79,0,0,0,206.73,267.37Zm.77-10a1.2,1.2,0,0,0,.89.61,25.85,25.85,0,0,0,3.55.25,19.77,19.77,0,0,0,3.61-.25,1.4,1.4,0,0,0,.73-.61v2.94q0,.86-.46,1.1a14,14,0,0,1-3.89.28,15.45,15.45,0,0,1-4-.28,1.23,1.23,0,0,1-.49-1.13Zm0,4.9a1.32,1.32,0,0,0,.89.61,23.15,23.15,0,0,0,3.55.28,17.69,17.69,0,0,0,3.61-.28,1.63,1.63,0,0,0,.73-.61v2.94q0,.86-.46,1.1a15.59,15.59,0,0,1-3.89.25,17.26,17.26,0,0,1-4-.25,1.22,1.22,0,0,1-.49-1.16Zm3.4,12.31q1.07.09,2.14.09h.09q0-.31.06-.58.15-1.65.15-2.39a1.73,1.73,0,0,0-.21-1,.69.69,0,0,0-.55-.21,2.31,2.31,0,0,0-1.07.34c-.27.14-.47.25-.61.31Zm8.94-23.83h2.91q1.53,0,1.65,1.35v1.19a18.69,18.69,0,0,0,1.9-.18,1.92,1.92,0,0,0,.8-.49v2.57q0,.74-.4,1a1.26,1.26,0,0,1-.4.09q-.12,1.68-.43,4.47H228q-.64-6.25-.64-9.19a.77.77,0,0,1,.64-.83q1.47-.21,3.28-.4a1.42,1.42,0,0,0-.52,1.1q0,.58.06,1.44l.64-.52a2.29,2.29,0,0,1,1-.46q.31,0,1.62,1.93a12.67,12.67,0,0,1,1.65,3.46.93.93,0,0,1-.37.73q-1.1.77-2.21,1.59a.75.75,0,0,0,.12-.34,15.32,15.32,0,0,0-1.78-3.71,8.07,8.07,0,0,0-.58-.92q.21,2.36.64,6,1.19-.06,2-.15a3.66,3.66,0,0,0,1.56-.61v2.76q0,.83-.52,1a19.23,19.23,0,0,1-2.63.18q.24,1.65.49,3.09a7.41,7.41,0,0,0,.92-2.05,1,1,0,0,0-.12-.46l2.24,1.44q.46.34.46.61,0,.83-2.66,5.21.67,3.25,1.32,5.6a1.41,1.41,0,0,0,1,.58q-1.41.49-2.88.92a4.75,4.75,0,0,1-1.16.21q-.37,0-1.16-3-1.75,2.27-2.27,2.27a1.28,1.28,0,0,1-.73-.34l-.09.09a30.47,30.47,0,0,1-3.83.12q-1.5,0-2.42,0v.15a.93.93,0,0,1-.92.77h-2.79q.55-.31.61-1.93.06-2.79.06-4.87,0-2.63-.28-5.82-.09-1.47-.52-1.72H220a.89.89,0,0,1,1,.71v0l.92-.28a10,10,0,0,1,2.51-.46,2.82,2.82,0,0,1,2,.67,4.81,4.81,0,0,1,.92,3.25v1.78a23.37,23.37,0,0,1-.52,4.81l.12,0a1.36,1.36,0,0,0,.67-.37l.34-.52q.89-1.35,1.59-2.51-.61-3.49-1.16-7.84H226a86.81,86.81,0,0,1-8.82-.24,1.12,1.12,0,0,1-.49-1.07v-2.73a3.49,3.49,0,0,0,1.9.61l.4,0q-.22-1.1-.4-2.54-.12-1-.15-1.68a1.63,1.63,0,0,1-.4-.09,1.15,1.15,0,0,1-.4-1v-2.51a1.61,1.61,0,0,0,1,.49l1.71.15v-1.53A1.34,1.34,0,0,0,219.83,250.71Zm1.38,19.45,1.23,0q.83,0,1.41,0v-.43q0-2.14-.67-2.24a3.53,3.53,0,0,0-1.56.43,3.8,3.8,0,0,1-.46.25Q221.18,269.12,221.21,270.16Zm0,5q1.19.09,2.33.09h.15q.12-1,.18-2.21h-2.63Q221.21,274.2,221.18,275.12Zm.67-14.55q.55,0,1.1,0a.24.24,0,0,0,0-.09q.31-2.48.37-4.13h-2.11q.06.52.12,1.29Q221.61,259.47,221.86,260.57Z"/><circle class="cls-2" cx="155.55" cy="133.23" r="82.58"/><path class="cls-3" d="M192.28,149.69c0,32.84-16.33,43.14-36.62,43.14s-36.85-10.3-36.85-43.14,16.44-59.46,36.73-59.46S192.28,116.85,192.28,149.69Z"/><path class="cls-4" d="M190.62,165.87a71.53,71.53,0,0,0,1.66-16.17A93.51,93.51,0,0,0,190.42,131"/><path class="cls-4" d="M183.21,110.58c-6.73-12.47-16.63-20.35-27.67-20.35-20.29,0-36.73,26.62-36.73,59.46s16.33,43.14,36.62,43.14c11.56,0,21.91-3.34,28.67-12.29"/><path class="cls-5" d="M121.69,137.48A54.71,54.71,0,0,1,146.54,92c-15.93,6.51-27.72,29.85-27.72,57.65,0,32.84,16.56,43.14,36.85,43.14a46.32,46.32,0,0,0,12.5-1.58C142.16,187.33,121.69,164.44,121.69,137.48Z"/><circle class="cls-6" cx="156.18" cy="129.17" r="23.9"/><ellipse class="cls-7" cx="144.74" cy="123.17" rx="1.93" ry="3.03"/><ellipse class="cls-7" cx="166.92" cy="123.17" rx="1.93" ry="3.03"/><ellipse class="cls-8" cx="134.35" cy="156.78" rx="4.75" ry="4.75" transform="translate(-31.91 34.36) rotate(-13.04)"/><circle class="cls-9" cx="134.35" cy="156.78" r="2.61" transform="translate(-31.88 34.32) rotate(-13.03)"/><path class="cls-10" d="M134.6,157.52a.78.78,0,0,1-.89-.3c-.1-.15-10-14.79-14-22.7a.78.78,0,1,1,1.39-.7c3.94,7.83,13.78,22.39,13.88,22.53a.78.78,0,0,1-.21,1.08A.73.73,0,0,1,134.6,157.52Z"/><path class="cls-8" d="M183.82,159.51a6.62,6.62,0,0,0-2.13-8.5c-4.81-3.67-9.3,1.49-9.3,1.49l.27-.72s4.26-4.87,9.21-1.25c4.79,3.51,2.67,7.76,2.67,7.76Z"/><path class="cls-10" d="M184.92,147.93l-1-.65c-1.24-.84-5.77-3.07-11.74,4.09-6.22,7.44-1,11-1,11l.59-.67s-4.38-2.26,1.23-9.68,10.7-3.46,10.7-3.46,4.54,2.37.48,10.15-8.8,5.3-8.8,5.3l-.54.66c2,1.23,6.2,1.78,10.08-5.34C188.93,151.89,186.31,148.9,184.92,147.93Z"/><path class="cls-8" d="M175.6,164.66c.31-.48.31-.91-.14-1.18s-.78-.45-1.21.12-.36.88,0,1.12S175.17,165.33,175.6,164.66Z"/><path class="cls-8" d="M172.29,161.55c.46.35.61.75.28,1.16s-.57.69-1.17.31-.64-.7-.42-1S171.66,161.06,172.29,161.55Z"/><path class="cls-10" d="M183.85,148.42l-.13-.07a.67.67,0,0,1-.19-.93,63.5,63.5,0,0,0,6.41-13.21.67.67,0,0,1,.84-.44.66.66,0,0,1,.44.84,63.73,63.73,0,0,1-6.56,13.54A.67.67,0,0,1,183.85,148.42Z"/><path class="cls-11" d="M129.29,108s19.46-9,52.34-.21l.64,1.24s-29.06-3.09-53.55,0Z"/><ellipse class="cls-12" cx="154.49" cy="89.04" rx="16.65" ry="15.41"/><ellipse class="cls-13" cx="154.49" cy="89.04" rx="9.25" ry="8.56"/><ellipse class="cls-14" cx="154.49" cy="89.04" rx="6.39" ry="5.92"/><path class="cls-15" d="M149.9,144.34a11.34,11.34,0,0,0,12.55-.59"/><path class="cls-16" d="M178.77,118.49a1.66,1.66,0,0,0-.37-.7c-1.17-.77-1.87-1.56-3.53-1.57s-3.16-.06-4.74,0c-3.89.12-7.77.29-11.66.42l-2.32.07c-.75,0-1.53,0-2.3-.07-3.88-.13-7.76-.3-11.64-.42-1.58,0-3.15,0-4.74,0s-2.36.8-3.53,1.57a1.66,1.66,0,0,0-.37.7c.1,1.39-.57,2.75,1,3.78a5.87,5.87,0,0,1,.61,2.34c.53,2.45,2.34,3.77,5,4.14a33.53,33.53,0,0,0,8.72.24,4.19,4.19,0,0,0,2.83-1.67c.81-1.12,1.52-2.29,2.22-3.47.39-.66.66-1.37,1-2.07a1.22,1.22,0,0,1,1.28-.74,1.26,1.26,0,0,1,1.3.74c.32.7.61,1.4,1,2.07.7,1.18,1.4,2.36,2.22,3.47A4.18,4.18,0,0,0,163.5,129a33.53,33.53,0,0,0,8.72-.24c2.61-.37,4.42-1.69,5-4.14a5.87,5.87,0,0,1,.61-2.34C179.34,121.24,178.67,119.88,178.77,118.49Zm-25.37,3a10.34,10.34,0,0,1-2.23,4.73,5.1,5.1,0,0,1-3.28,1.79,26,26,0,0,1-7.63-.1,3.61,3.61,0,0,1-3.22-2.5,12.71,12.71,0,0,1-.45-6.35,1.67,1.67,0,0,1,1.61-1.53c1.79-.17,4.25-.24,5.34-.27s2.09,0,3.09.09a26.91,26.91,0,0,1,4.54.71A2.84,2.84,0,0,1,153.41,121.45Zm21.91,3.92a3.62,3.62,0,0,1-3.22,2.5,26,26,0,0,1-7.63.1,5.12,5.12,0,0,1-3.29-1.79,10.35,10.35,0,0,1-2.23-4.73,2.84,2.84,0,0,1,2.24-3.43,26.88,26.88,0,0,1,4.54-.71c1-.1,2.08-.09,3.09-.09s3.55.1,5.34.27a1.68,1.68,0,0,1,1.61,1.53A12.8,12.8,0,0,1,175.32,125.36Z"/><path class="cls-17" d="M118.54,307.49l1.82,1c.29.2.43.37.43.52a3,3,0,0,1-.22,1q-.6,1.34-1.19,2.51c0,.25,0,.52,0,.79a3.23,3.23,0,0,0,.52-.78,26,26,0,0,0,2-4.56.92.92,0,0,0-.09-.29l1.62.79q.38.26.38.53a3.38,3.38,0,0,1-.38,1,9.21,9.21,0,0,0,2.13-.38,17.57,17.57,0,0,1,3.08-.28,3.19,3.19,0,0,1,1.77.4,1.56,1.56,0,0,1,.5,1.34,4.26,4.26,0,0,1-.36,2.17.84.84,0,0,1-.6.36l-.26,0a.39.39,0,0,0-.1.26q.47,5.3,1,8.81,0,.12.43.28l-1.19.24a4,4,0,0,1-.83.16c-.08,0-.17-.08-.26-.24a41.1,41.1,0,0,1-.59-4.08q-.46-4-.46-4.77,0-.29.79-.46l1-.22-1.5-.19q.55-.41.55-2,0-.47-.76-.46a13.1,13.1,0,0,0-2.56.33,8.43,8.43,0,0,1-2.32.5,1,1,0,0,1-.28,0l-.79,1.43a4.42,4.42,0,0,1-.34.59q.89.14,1.7.22c.31.06.46.21.46.46a16.86,16.86,0,0,1-.26,1.77q-.47,2.81-1.14,5.47a2.22,2.22,0,0,0,.6.21,6.21,6.21,0,0,0,.84.07.64.64,0,0,0,.65-.52,25.82,25.82,0,0,0,.24-4.49,20.09,20.09,0,0,0-.24-3.91,1.31,1.31,0,0,0-.38-.81h2q.5,0,.64.81a27.19,27.19,0,0,1,.21,3.91q0,5.09-.62,6a2,2,0,0,1-1.84.78,4.88,4.88,0,0,1-1.2-.17.71.71,0,0,1-.57-.48q-.21-.53-.41-1.19c0,.22-.1.42-.16.6q-.29,1-.57,1a2.21,2.21,0,0,1-.57-.14l-1.21-.29q.33-.14.48-1,.65-2.67,1.19-5.7.31-1.87.31-2.24,0-.14-.22-.34-.48.74-.86.74a4.75,4.75,0,0,1-1.15-.46q.07,1.69.1,3.6,0,4.7-.14,5.54-.09.57-.81.57h-1.72a1.55,1.55,0,0,0,.36-1.07q0-2.17,0-5,0-.52,0-1.39c-.11.13-.21.19-.29.19a7.66,7.66,0,0,1-2.08-1.17q.41,0,1-1.15,1.2-2.2,2.29-4.65a6,6,0,0,0,.45-1.5A1.27,1.27,0,0,0,118.54,307.49Z"/><path class="cls-17" d="M134.67,307.61l1.84.22c.33.06.5.21.5.46a6.05,6.05,0,0,1-.12.76q.84.07,1.65.07a18.36,18.36,0,0,0,2.6-.14,1,1,0,0,0,.53-.33v1.79a.68.68,0,0,1-.33.69,6.37,6.37,0,0,1-1.36.1q-.14.74-.65,2.46-.14.52-.31,1a19.33,19.33,0,0,0,2.51-.15,1.52,1.52,0,0,0,.71-.4v2a.75.75,0,0,1-.36.74,10,10,0,0,1-2.5.21,1.06,1.06,0,0,1,.1.19q1,2,2.19,4,.16.26.69.26l-.69.62q-1,1.1-1.51,1.1-.14,0-.55-.71-.71-1.29-1.76-3.6l-.14-.29q-.64,1.72-1.38,3.58-.48,1.24-.84,1.24a8,8,0,0,1-2.07-.91q.4,0,.81-1.07.93-2.27,1.67-4.46a8.64,8.64,0,0,1-1.72-.17.84.84,0,0,1-.36-.77v-1.93a1.45,1.45,0,0,0,.88.4q1,.1,1.94.14.22-.67.4-1.33l.58-2.1q-.79,0-1.24-.05-.22.91-.52,1.79c-.13.4-.25.6-.38.6a2.65,2.65,0,0,1-.62-.12l-1.33-.28c.16-.06.28-.25.34-.58q.45-1.55.83-3.3a10.39,10.39,0,0,0,.22-1.27Q135,307.86,134.67,307.61Zm7.37.76H144a.62.62,0,0,1,.69.57.58.58,0,0,0,0,.14,8.57,8.57,0,0,0,.88-.21,7.44,7.44,0,0,1,1.95-.36,1.51,1.51,0,0,1,1.34.77,8.2,8.2,0,0,1,.59,3.58v2a36.68,36.68,0,0,1-.48,5.78l.1,0a1,1,0,0,0,.52-.34V322a.71.71,0,0,1-.29.67,8.6,8.6,0,0,1-2.65.21q-1.22,0-1.89-.05v.05a.62.62,0,0,1-.64.48h-2q.38-.33.45-2,0-2.91,0-5.09,0-2.75-.17-6.09A3.52,3.52,0,0,0,142,308.36Zm2.79,12.31q.91.09,1.77.09h.19a31.79,31.79,0,0,0,.33-5.08q0-1.05,0-2.39,0-2.69-.45-2.79a2.89,2.89,0,0,0-1.31.36,5.53,5.53,0,0,1-.57.24q.09,2,.09,4.7Q144.86,318.9,144.83,320.67Z"/><path class="cls-17" d="M160.31,307.06a1,1,0,0,0-.14.36,4.06,4.06,0,0,0,.71,1.07s.22.29.65.83l1.1,0h1a9.88,9.88,0,0,0,1.05-1.84,1.15,1.15,0,0,0-.07-.28l1.48.74c.24.16.36.32.36.48a3,3,0,0,1-.43.83l.93-.07a2.26,2.26,0,0,0,.88-.33v1.6c0,.31-.09.51-.26.6a38.33,38.33,0,0,1-4.56.14q-.07.24-.19.59a.19.19,0,0,0,0,.09q.84-.05,1.53-.05a6.44,6.44,0,0,1,1.5.14,2.09,2.09,0,0,1,1.21.81,7.51,7.51,0,0,1,.4,3.22q0,1-.16,2.7a4.94,4.94,0,0,1-.05.52,1.59,1.59,0,0,0,.6-.31v1.62a.6.6,0,0,1-.26.58,28.4,28.4,0,0,1-4.18.16q-2.38,0-3.44-.07a.27.27,0,0,0,0,.07l0,0q1.14.24,2.44.45a38.91,38.91,0,0,0,5.63.48.45.45,0,0,0,.36-.21l-.09.91q-.05.74-.19.84a.39.39,0,0,1-.29.15,40.32,40.32,0,0,1-4.8-.34,36,36,0,0,1-6-1.19,2.84,2.84,0,0,0-1-.31,6.49,6.49,0,0,0-.77.79q-.79.79-1.22.79a2.27,2.27,0,0,1-.91-.52l-1-.74a.9.9,0,0,0,.69-.33l1.07-1a6,6,0,0,1,.77-.67,23.44,23.44,0,0,0,.14-2.79v-1.88q0-.86-.14-.86a.86.86,0,0,0-.59.28,1,1,0,0,1-.5.15.67.67,0,0,1-.62-.36l-1-1.63a4.7,4.7,0,0,0,2-.41,4.12,4.12,0,0,1,1.69-.41,1,1,0,0,1,.91.46,6.74,6.74,0,0,1,.31,2.62v2a26.44,26.44,0,0,1-.1,2.69l.12.07,1,.34,0-.38q0-1.95,0-3.41,0-1.87-.17-4.13-.09-1-.36-1.21h1.84a.59.59,0,0,1,.67.5l.24,0,.55-.07a7.13,7.13,0,0,0,.22-.74.29.29,0,0,0,0-.09q-2.6,0-3.29-.14a.71.71,0,0,1-.26-.64v-1.57a2.09,2.09,0,0,0,1.08.33l.46,0a2.12,2.12,0,0,1-.53-.91q0-.26,1.1-.79Zm-6.06.83a5.18,5.18,0,0,1,2.2,1.33,1.42,1.42,0,0,1,.62,1,.65.65,0,0,1-.21.43l-1.24,1.55a.53.53,0,0,0,.07-.21q0-.36-.84-.89a10.83,10.83,0,0,0-2.12-1.36h-.29l1.2-1.43A.92.92,0,0,1,154.25,307.88Zm5.8,6.35q1.38.12,2.72.12t2.41-.07a1,1,0,0,0-.05-.26.78.78,0,0,0-.52-.52,2.75,2.75,0,0,0-.86-.1q-.52,0-1.48.1t-1.57.24a6.63,6.63,0,0,1-.67.14C160,314,160.05,314.12,160.05,314.23Zm0,5q1.69.12,3.36.12l1.62,0a2.61,2.61,0,0,0,.07-.46,2,2,0,0,0,0-.24q-.91,0-2.39,0-1.77,0-2.67-.05Zm0-2.46q1.34.12,2.65.12,1.53,0,2.51-.09c0-.26,0-.5,0-.71q-.88,0-2.5,0-1.81,0-2.69-.05Z"/><path class="cls-17" d="M171,308.72h1.77a.56.56,0,0,1,.64.46,1.87,1.87,0,0,1,0,.26,3.1,3.1,0,0,0,.41-.14,7.45,7.45,0,0,1,1.38-.31,2.31,2.31,0,0,1,.79.12,1.3,1.3,0,0,1,.6.58A3.49,3.49,0,0,1,177,311q.09.64.09,3.68,0,1.84-.17,3.72-.07.74-.12,1.19h0a.94.94,0,0,0,.41-.33V321a.67.67,0,0,1-.29.65,8.19,8.19,0,0,1-2.12.14q-.83,0-1.33,0v0a.58.58,0,0,1-.57.48h-1.84q.36-.28.41-1.79,0-2.65,0-4.61,0-2.48-.15-5.51Q171.26,309,171,308.72Zm2.56,10.95a9.15,9.15,0,0,0,1.1.07q.1-.88.19-2.2.15-1.87.15-2.86a20.6,20.6,0,0,0-.14-2.89,1.38,1.38,0,0,0-.22-.74.7.7,0,0,0-.48-.12,1.82,1.82,0,0,0-.5.24l-.14.09q.05,1.86.05,4.2Q173.57,318.09,173.55,319.67Zm3.72-.41,1.27.05q.45,0,.45.36,0,.79-.22,2.86a.65.65,0,0,1-.74.64l-1.45-.14q.6-.17.64-.62a22,22,0,0,0,.26-2.82A.43.43,0,0,0,177.27,319.26Zm6.61-2.84a4.13,4.13,0,0,1,1.51.22,2.18,2.18,0,0,1,1.2.77,4.92,4.92,0,0,1,.38,2.5,9.19,9.19,0,0,1-.26,2.75,1.76,1.76,0,0,1-1,.84,4.13,4.13,0,0,1-1.43.21,9.09,9.09,0,0,1-1.53-.1q-.28-.05-.46-.67t-.46-1.36a2.47,2.47,0,0,0,1,.41,2.78,2.78,0,0,0,1,.22,1.1,1.1,0,0,0,.72-.17,1.54,1.54,0,0,0,.26-.89l-.1,0a3.43,3.43,0,0,1-.55.09.48.48,0,0,1-.24-.07,4,4,0,0,1-.55-1.07,4.87,4.87,0,0,1-.45-1.22q0-.19.48-.29l.83-.17a.24.24,0,0,0-.12.19,10.31,10.31,0,0,0,.76,1.63v-.34q0-1.34-.41-1.58a2.46,2.46,0,0,0-1.21-.19q-.65,0-2.07.12l-1.55.17a.58.58,0,0,1-.55.33H177.2q.36-.22.41-1.46,0-2.13,0-3.74,0-2-.15-4.48-.07-1.14-.38-1.34h1.82a.57.57,0,0,1,.64.43q1.48.12,2.91.12a28.89,28.89,0,0,0,3.27-.14,1.22,1.22,0,0,0,.65-.34v1.65q0,.48-.26.62a12.27,12.27,0,0,1-2.27.15v.95a16.72,16.72,0,0,0,1.81-.14,1.22,1.22,0,0,0,.65-.34v1.62a.6.6,0,0,1-.26.58,12.94,12.94,0,0,1-2.2.12v.91a16.72,16.72,0,0,0,1.81-.14,1.4,1.4,0,0,0,.65-.34v1.6q0,.48-.26.6a12.94,12.94,0,0,1-2.2.12Zm-3.18,2.63a.35.35,0,0,0-.14.26q.34,1.7.69,2.84,0,.1.36.26l-1,.19a3.78,3.78,0,0,1-.67.1.24.24,0,0,1-.15-.09,12.27,12.27,0,0,1-.33-1.39,12.63,12.63,0,0,1-.28-1.63q0-.21.55-.33Zm-1-8.86,0,.9q.93.09,1.89.1c0-.36,0-.67,0-.95Q180.44,310.22,179.73,310.19Zm0,5.56c0,.37,0,.67,0,.91q.6,0,1.45-.09l.48,0v-.74Q180.47,315.78,179.77,315.75Zm0-2.75v.84q.95.09,1.89.1v-.88Zm2.58,5.7a.25.25,0,0,0-.15.21,11.35,11.35,0,0,0,1.12,2.13c0,.07.12.14.33.22l-.9.17a4,4,0,0,1-.62.09.5.5,0,0,1-.22-.05,4.58,4.58,0,0,1-.53-1,6.14,6.14,0,0,1-.4-1.22c0-.13.16-.23.48-.31Z"/><path class="cls-17" d="M195.54,312.75a3.55,3.55,0,0,1-.58,1.91,10.34,10.34,0,0,1-1.29,1.51,2.4,2.4,0,0,0-.65,1,3.41,3.41,0,0,0-.15,1.15H191v-.1a5.37,5.37,0,0,1,.22-1.77,5.14,5.14,0,0,1,1.08-1.41q1.45-1.46,1.45-2.25,0-1.1-1.19-1.1a3,3,0,0,0-1.77.46.85.85,0,0,1-.36.17q-.22,0-1.22-1.58a2.2,2.2,0,0,0,.65-.28,5.58,5.58,0,0,1,2.7-.67,3,3,0,0,1,2.19.81A3,3,0,0,1,195.54,312.75Zm-2.15,7.78A1.44,1.44,0,0,1,192,322a1.33,1.33,0,0,1-1-.43,1.37,1.37,0,0,1-.43-1,1.41,1.41,0,0,1,1.43-1.41,1.45,1.45,0,0,1,1,.4A1.42,1.42,0,0,1,193.39,320.53Z"/><path class="cls-17" d="M83.9,340.12a6.11,6.11,0,0,1-.76.12q-.5,0-.93-.91l-.65-1.22a1.4,1.4,0,0,0,.76.29,19.1,19.1,0,0,0,2.51-.33,25.18,25.18,0,0,1,2.86-.24,1.91,1.91,0,0,1,1,.28,2.65,2.65,0,0,1,.71,1.1,5.84,5.84,0,0,1,.29,1.34,24.46,24.46,0,0,1,.38,4.77,37.81,37.81,0,0,1-.31,6.4,3.94,3.94,0,0,1-.55,1.69.85.85,0,0,1-.74.41,12,12,0,0,1-2.65-.19q-.34-.07-.79-.91l-.45-.84q-.07.31-.14.57-.38,1.31-.77,1.31-.15,0-2-.5.58-.21.95-2.12.29-1.2.48-2.39a9.16,9.16,0,0,1-1.07-.09.74.74,0,0,1-.29-.67v-1.67a1.19,1.19,0,0,0,.74.33c.31,0,.61.06.9.07q.14-1.14.24-2.15a10,10,0,0,1-1.58-.12.67.67,0,0,1-.29-.65v-1.62a1.15,1.15,0,0,0,.74.34,12.2,12.2,0,0,0,1.29.1Q83.88,341.26,83.9,340.12Zm.81,11.38a7.24,7.24,0,0,0,2.51.45.47.47,0,0,0,.38-.19,3.21,3.21,0,0,0,.22-1.29q0-.72.05-1.72-.86,0-2.5,0h-.12Q85,350.22,84.71,351.5Zm.84-4.72q1.45,0,2.36-.09v-2.17q-.72,0-2.12.05c0,.24,0,.47-.05.69Q85.65,346.06,85.55,346.78Zm.38-4.11q1.2,0,2-.09a6.29,6.29,0,0,0-.33-2.34q-.19-.46-.9-.46l-.64,0v0Q86,341,85.93,342.67ZM93,352.75q0,.38,0,.57a.63.63,0,0,1-.62.5H90.44q.38-.35.45-2.12,0-3.06,0-5.37,0-2.91-.17-6.44a3.89,3.89,0,0,0-.38-1.93h1.88a.59.59,0,0,1,.65.5q.34-.09.76-.22a5.74,5.74,0,0,1,1.82-.28,2.52,2.52,0,0,1,1.65.41,1.17,1.17,0,0,1,.48,1,15.42,15.42,0,0,1-1.29,4.42,3.27,3.27,0,0,1-.17.43,1.88,1.88,0,0,1,.67.28,2.35,2.35,0,0,1,.59,1.91,28.31,28.31,0,0,1-.31,4.48,3.14,3.14,0,0,1-.67,1.79,1.94,1.94,0,0,1-1.45.41A3.81,3.81,0,0,1,93,352.75Zm0-12.69q.09,1.93.1,4.42a3.07,3.07,0,0,0,.67-.12,9.92,9.92,0,0,0,.52-1.26,14.49,14.49,0,0,0,1-3.27q0-.21-.5-.21a4.2,4.2,0,0,0-1.5.31Zm.1,6.2q0,3.25,0,5a8.1,8.1,0,0,0,1.36.12.42.42,0,0,0,.43-.31,14.84,14.84,0,0,0,.4-4.46q0-.74-.62-.76a3.16,3.16,0,0,0-1.22.28Z"/><path class="cls-17" d="M100.51,350.72a4.44,4.44,0,0,0,1.64.33q3.15.14,6.25.14,4.23,0,6.45-.14a4.77,4.77,0,0,0,1.31-.33v1.79q0,.53-.36.67-1,.14-7.4.14-6.18,0-7.52-.14a.7.7,0,0,1-.36-.71Zm3.39-12.89h1.82a.79.79,0,0,1,.86.83v1.7a10.42,10.42,0,0,0,1.26-.48q.36-.12.4-.33l.65,1.67a1.06,1.06,0,0,1,.1.4c0,.09-.08.17-.24.24a13.9,13.9,0,0,1-2,.72l-.14,0V345a7.39,7.39,0,0,0,2.53-1l-.69,2.22a1.31,1.31,0,0,1-.88.67,19.54,19.54,0,0,1-2.69.5,14.26,14.26,0,0,1-1.6.12,3.85,3.85,0,0,1-1.45-.34,2.16,2.16,0,0,1-1-1.27,3.28,3.28,0,0,1-.17-1q0-.57.05-1.69.12-1.58.22-2.74.05-.69.05-.83a.77.77,0,0,0-.26-.46l2,.24a.54.54,0,0,1,.57.58q0,.21-.1,1.48-.05.71-.12,1.95,0,.69,0,1,0,1,.88,1l.36,0V339A1.41,1.41,0,0,0,103.9,337.83Zm-2.27,9.86A3.14,3.14,0,0,0,103,348q2.63.14,5.25.14,3.58,0,5.42-.14a3.12,3.12,0,0,0,1.12-.33v1.79a.67.67,0,0,1-.36.69q-.83.12-6.18.12-5.15,0-6.28-.12a.76.76,0,0,1-.33-.72Zm7.85-9.79h1.79q.88,0,.88.62,0,.09-.36,1.84c0,.19,0,.37-.05.53a20.63,20.63,0,0,0,3.17-1q.65-.21.71-.52l.65,1.67a1.18,1.18,0,0,1,.1.4c0,.14-.14.26-.43.38a26.66,26.66,0,0,1-3.6,1.12q-.45.12-.74.17v.14a5.66,5.66,0,0,0,.12,1.63.66.66,0,0,0,.31.34,1.63,1.63,0,0,0,.48.07,9.34,9.34,0,0,0,1.77-.22,7.42,7.42,0,0,0,2.2-.74l-1,2.2a1,1,0,0,1-.71.57,29.75,29.75,0,0,1-3.1.33,2.89,2.89,0,0,1-1.17-.28,2.21,2.21,0,0,1-.86-1,8,8,0,0,1-.33-2.93,19,19,0,0,1,.29-3.56q.19-1.27.19-1.39C109.81,338.17,109.7,338,109.48,337.9Z"/><path class="cls-17" d="M123.29,340.12a6.24,6.24,0,0,0,.29.71,4,4,0,0,0,.62,1.05.75.75,0,0,0,.31.1l-1,.19-.55.12a.6.6,0,0,1,.29.45c0,.06-.11.15-.34.29a8.1,8.1,0,0,0-1.15.95.56.56,0,0,0-.15.28c0,.13.07.19.21.19l.22,0q.86-.62,1.93-1.24.67-.34.67-.52v-.29l1.07,1.31a1,1,0,0,1,.15.5q0,.24-.64.59a17.67,17.67,0,0,0-2.69,1.51c-.4.25-.6.42-.6.5s.17.14.5.14a8.23,8.23,0,0,0,2-.29h0a3.36,3.36,0,0,1-.22-.74q0-.26.84-.64l1.1-.45a.55.55,0,0,0-.14.15.24.24,0,0,0-.07.17,2.88,2.88,0,0,0,.07.31q.29,1,.69,2a.66.66,0,0,0,.53.21q-.86.52-.9.52a2.93,2.93,0,0,1-1.08.53s-.12-.13-.22-.38l-.15-.38-1.1.29.15.05q.5.21.5.53a1,1,0,0,1-.14.41,17.36,17.36,0,0,0,2.22-.14,1.45,1.45,0,0,0,.65-.33v1.64q0,.48-.26.62a4.75,4.75,0,0,1-.95.1q.31.58.67,1.15a.76.76,0,0,0,.6.26l-1,.6a3.34,3.34,0,0,1-1.27.59q-.09,0-.29-.41a18.05,18.05,0,0,1-.83-1.65c-.09-.21-.17-.37-.24-.5h-.31a25.12,25.12,0,0,1-1.57,2.34q-.21.29-.41.29a.88.88,0,0,1-.4-.16l-1.81-.89a.58.58,0,0,0,.45-.26q.57-.71,1-1.38a8,8,0,0,1-1-.09.68.68,0,0,1-.28-.65v-1.6a1.33,1.33,0,0,0,.81.33l1.64.12q.21-.41.31-.65a6.46,6.46,0,0,1-.91.07,2.16,2.16,0,0,1-1.41-.38,1,1,0,0,1-.36-.74,2.73,2.73,0,0,1,.79-1.55.43.43,0,0,1,.1-.1,1.1,1.1,0,0,1-.67-.36,1.17,1.17,0,0,1-.29-.74,2.19,2.19,0,0,1,.4-.88,9.39,9.39,0,0,1,1.08-1.33h0a6.15,6.15,0,0,1-.71.15.23.23,0,0,1-.21-.1,2.86,2.86,0,0,1-.48-1,3.13,3.13,0,0,1-.29-.81q0-.31.45-.43l.14-.05q-.52,0-.52-.5v-1.55a.64.64,0,0,0,.48.26q1.12,0,2.62-.12,1.69-.1,3.12-.33,1.14-.15,1.24-.43.4,1.55.4,1.7c0,.15-.28.28-.83.4l-.22,0,.69.28q.36.16.36.41a1.62,1.62,0,0,1-.15.36,10.59,10.59,0,0,1-.77,1.34c-.08.14-.16.21-.24.21a9.54,9.54,0,0,1-1.58-.76.28.28,0,0,0,.21-.14,8.88,8.88,0,0,0,.71-1.26c.09-.17.15-.29.17-.34Q124.36,340,123.29,340.12Zm-1.74,1.31c.29.17.52.32.71.45q-.15-.26-.31-.57a2.91,2.91,0,0,1-.33-.77.43.43,0,0,1,.14-.31l-1,.05v0a3.66,3.66,0,0,0,.29.83,5.7,5.7,0,0,0,.34.79.93.93,0,0,0,.19-.24A.67.67,0,0,0,121.55,341.43Zm7-3.46,1.62.93c.26.17.4.32.4.45a2.83,2.83,0,0,1-.17.86l0,.14c.31,0,.62,0,.93,0a2.17,2.17,0,0,1,0-.28q-.07-1.46-.38-1.7h1.88a.62.62,0,0,1,.69.55q.05.65.07,1.39l.84-.1a1.29,1.29,0,0,0,.53-.33v1.74a.67.67,0,0,1-.29.65,2.77,2.77,0,0,1-1,.16q0,.76,0,1.58l.52-.09a1,1,0,0,0,.46-.33v1.74a.68.68,0,0,1-.28.65,1.68,1.68,0,0,1-.71.14v1.53l.52-.09a1.12,1.12,0,0,0,.46-.33V349a.69.69,0,0,1-.28.65,1.88,1.88,0,0,1-.72.15q0,1.09-.05,1.67a8.31,8.31,0,0,0,.95-.1,1.12,1.12,0,0,0,.53-.34v1.81a.65.65,0,0,1-.36.67,11.75,11.75,0,0,1-2.69.16q-1.38,0-2.07-.05a.72.72,0,0,1-.69.31h-1.64a1.47,1.47,0,0,0,.33-1.07q0-2.22,0-5.18,0-.71,0-2.08l-.07,0a7,7,0,0,1-1.84-1q.28,0,.67-1,.86-1.87,1.62-3.94a6.51,6.51,0,0,0,.31-1.26A1.16,1.16,0,0,0,128.56,338Zm1.46,6a11.76,11.76,0,0,0,1.39.09q0-.79,0-1.58-.88,0-1.41-.05Q130,343.22,130,344Zm.09,3.65a10.63,10.63,0,0,0,1.33.09v-1.5q-.83,0-1.34-.07Q130.09,346.92,130.11,347.66Zm0,3.8q.62.05,1.24.07.05-.4.07-.91t0-.72l-1.31-.07Q130.11,350.78,130.09,351.46Z"/><path class="cls-17" d="M137.55,338.47a4.46,4.46,0,0,0,1.31.19,31.56,31.56,0,0,0,3.86-.5,37,37,0,0,1,5.06-.45,13.59,13.59,0,0,1,3.63.33,3.46,3.46,0,0,1,1.64,1,3.52,3.52,0,0,1,.48,1.95,4.4,4.4,0,0,1-.19,1.57q-.17.53-.43.53l-2.08-.4a.59.59,0,0,0,.29-.46,3.79,3.79,0,0,0,.14-1.24,1.8,1.8,0,0,0-.19-.84,1.38,1.38,0,0,0-1-.55,14,14,0,0,0-2.32-.15l-.79,0v1.12q.55.05,1.07.05a10.65,10.65,0,0,0,1.86-.12.78.78,0,0,0,.36-.31v1.45q0,.43-.19.55a7.63,7.63,0,0,1-2,.14l-1.07,0v.38a2.13,2.13,0,0,1,0,.41l2.51.4q3.08.41,3.63.41a.65.65,0,0,0,.43-.21l-.38,1q-.29,1-.6,1-.52,0-4-.55-2.89-.45-6.33-1.21l-.79-.17a15.42,15.42,0,0,1-.88,1.46,1.4,1.4,0,0,1-.4.46h.22a.74.74,0,0,1,.81.48l3-.31.14,0q-.09-.72-.36-.84h1.86a.6.6,0,0,1,.67.55.89.89,0,0,1,0,.17q1.86-.1,3-.1a5.65,5.65,0,0,1,1.6.17,2.83,2.83,0,0,1,1.22.64,1.56,1.56,0,0,1,.46,1.26q0,.47,0,.83l.34-.14v1.45q0,.41-.19.53a6.91,6.91,0,0,1-1,.07l.55.79s.37.5,1.1,1.48c0,.12.19.19.46.22l-.91.41a3.38,3.38,0,0,1-1.07.48q-.34,0-.86-.67a59.65,59.65,0,0,1-7.19.4q-3,0-5.46-.16-.52-.05-.55-.4t.15-1.74a.51.51,0,0,0,.46.29q2.46.12,5.39.12h.41v-.05q0-.6,0-1.12-2.1,0-3.24-.07-.14.55-.58.55h-2.13q.5-.19.5-.95v-3.18a1.2,1.2,0,0,0-.5-1.15h1l-.12-.05-1.69-.84a.87.87,0,0,0,.67-.45,21.94,21.94,0,0,0,1.86-3.06,2,2,0,0,0,.31-.76.21.21,0,0,0-.05-.1,6,6,0,0,1-1.07.22q-.47,0-1.07-1Zm3.65,10.26h.05q1.58.07,3.15.1,0-.64,0-1.29-2.27.26-3.17.33Zm1-6.44,2.51.48v-2.86a2,2,0,0,0,0-.28q-1.27.12-2.46.34l-1,.29,1,.12q.59.07.59.46a4.13,4.13,0,0,1-.31.91Zm7.81,9.23a1.6,1.6,0,0,1-.21-.59c0-.1.09-.23.28-.38l-3.49,0q0,.71-.05,1.14Q148.38,351.65,150,351.52Zm-3.43-4.11q0,.59,0,1.22v.22q2.19,0,3.73,0v-.52q0-.81-.53-.93-.34,0-1.27,0Q147.9,347.33,146.59,347.4Z"/><path class="cls-17" d="M159.06,337.83q1,.07,1.79.17.48.05.48.46a7.56,7.56,0,0,1-.4,1.36l-.05.17c.25,0,.5,0,.76,0a2.2,2.2,0,0,1,1,.19,1.77,1.77,0,0,1,.76.72,3.31,3.31,0,0,1,.43,1.38,14.46,14.46,0,0,1,.09,1.45.69.69,0,0,0,.05-.14,40.28,40.28,0,0,0,1.17-3.86,9.77,9.77,0,0,0,.33-1.51q0-.17-.28-.43l2,.24q.5.09.5.52a8.38,8.38,0,0,1-.26,1.2.3.3,0,0,0,0,.09l.26-.07a10.29,10.29,0,0,1,1.82-.4,2.73,2.73,0,0,1,1.2.26,1.83,1.83,0,0,1,1,.77,4.48,4.48,0,0,1,.43,1.91,38.06,38.06,0,0,1,.16,4q0,3.86-.12,5.23a2.69,2.69,0,0,1-1,1.88,2.31,2.31,0,0,1-1.34.43H168.2a2.2,2.2,0,0,1-2.08-1q-.34-.4-1.34-1.72a13.67,13.67,0,0,0,4.48.69.6.6,0,0,0,.46-.19q.19-.17.22-1.31v-4a26.6,26.6,0,0,0-.22-4,1.22,1.22,0,0,0-.26-.79,1.45,1.45,0,0,0-.76-.15,4.06,4.06,0,0,0-1,.28,2.63,2.63,0,0,1-.95.4q-.29,1-.67,1.93-.26.69-.53.69a2.86,2.86,0,0,1-.65-.12l-1-.19q0,.74,0,1.6,0,2.6-.07,4.37l0,.5a1.12,1.12,0,0,0,.4-.31v1.81a.67.67,0,0,1-.36.69,13.89,13.89,0,0,1-2.75.14q-1.38,0-2.1-.05a1.32,1.32,0,0,1,0,.24.62.62,0,0,1-.6.5h-1.89q.38-.31.45-1.89,0-2.74,0-4.79,0-2.6-.17-5.73-.07-1.46-.38-1.7h1.82a.58.58,0,0,1,.52.21,5.81,5.81,0,0,0,.22-.67,8.14,8.14,0,0,0,.26-1A.59.59,0,0,0,159.06,337.83Zm.05,7.23a13.15,13.15,0,0,0,1.34.07q.79,0,1.36-.05,0-1.55-.05-2a1.67,1.67,0,0,0-.17-.76.55.55,0,0,0-.5-.19,4,4,0,0,0-1.12.16,4.81,4.81,0,0,0-.86.34l-.05,0Q159.09,343.77,159.11,345.06Zm0,5.82a19.68,19.68,0,0,0,2,.1h.5c0-.14,0-.29.05-.46q.1-1.27.15-3.27-.53,0-1.36,0t-1.34,0Q159.11,349.47,159.09,350.88Zm7.33-6.3q.24,0,1.33,1.24a7.08,7.08,0,0,1,1.34,2.22.68.68,0,0,1-.31.53L167,349.81c.14-.14.21-.25.21-.33a9.29,9.29,0,0,0-1.48-2.32Q165,346,164.36,346q.62-.57,1.27-1.07A1.67,1.67,0,0,1,166.42,344.58Z"/><path class="cls-17" d="M176.85,340.31q1,.09,2,.21.52.05.52.48,0,.95-.65,5.63a47.42,47.42,0,0,1-.88,5.22q-.24,1.08-.62,1.08a4.79,4.79,0,0,1-.64-.1q-.76-.1-1.43-.26a2.74,2.74,0,0,0,.52-1.14q.5-2.63,1-6.35t.53-4.29A.66.66,0,0,0,176.85,340.31Zm4.54-2.41h2.24q.53,0,.69,1.1a45.65,45.65,0,0,1,.22,5.28q0,7.21-.6,8.43a1.74,1.74,0,0,1-1.79,1.1,7.65,7.65,0,0,1-1.82-.26,1,1,0,0,1-.86-.65q-.34-.88-.77-2a2.42,2.42,0,0,0,1.2.74,8.42,8.42,0,0,0,1.43.14q.4,0,.52-.76a56.62,56.62,0,0,0,.24-6.7,30,30,0,0,0-.29-5.28A2,2,0,0,0,181.39,337.9Zm7.44,1.95a.61.61,0,0,0-.21.46q0,.58.79,4.7.84,4.46,1.48,6.73.09.28.53.28-1,.43-1.89.76a2,2,0,0,1-.71.16q-.19,0-.71-2.19-.76-3.42-1.34-6.9-.36-2.36-.36-2.75a.48.48,0,0,1,.34-.5Q187.67,340.24,188.83,339.85Z"/><path class="cls-17" d="M194.77,337.83l1.84.22c.33.06.5.21.5.46a6.05,6.05,0,0,1-.12.76q.84.07,1.65.07a18.36,18.36,0,0,0,2.6-.14,1,1,0,0,0,.53-.33v1.79a.68.68,0,0,1-.33.69,6.37,6.37,0,0,1-1.36.1q-.14.74-.65,2.46-.14.52-.31,1a19.33,19.33,0,0,0,2.51-.15,1.52,1.52,0,0,0,.71-.4v2a.75.75,0,0,1-.36.74,10,10,0,0,1-2.5.21,1.06,1.06,0,0,1,.1.19q1,2,2.19,4,.16.26.69.26l-.69.62q-1,1.1-1.51,1.1-.14,0-.55-.71-.71-1.29-1.76-3.6l-.14-.29q-.64,1.72-1.38,3.58-.48,1.24-.84,1.24a8,8,0,0,1-2.07-.91q.4,0,.81-1.07.93-2.27,1.67-4.46a8.64,8.64,0,0,1-1.72-.17.84.84,0,0,1-.36-.77v-1.93a1.45,1.45,0,0,0,.88.4q1,.1,1.94.14.22-.67.4-1.33l.58-2.1q-.79,0-1.24-.05-.22.91-.52,1.79c-.13.4-.25.6-.38.6a2.65,2.65,0,0,1-.62-.12l-1.33-.28c.16-.06.28-.25.34-.58q.45-1.55.83-3.3a10.39,10.39,0,0,0,.22-1.27Q195.06,338.09,194.77,337.83Zm7.37.76H204a.62.62,0,0,1,.69.57.58.58,0,0,0,0,.14,8.57,8.57,0,0,0,.88-.21,7.44,7.44,0,0,1,1.95-.36,1.51,1.51,0,0,1,1.34.77,8.2,8.2,0,0,1,.59,3.58v2a36.68,36.68,0,0,1-.48,5.78l.1,0a1,1,0,0,0,.52-.34v1.76a.71.71,0,0,1-.29.67,8.6,8.6,0,0,1-2.65.21q-1.22,0-1.89-.05v.05a.62.62,0,0,1-.64.48h-2q.38-.33.45-2,0-2.91,0-5.09,0-2.75-.17-6.09A3.52,3.52,0,0,0,202.14,338.59Zm2.79,12.31q.91.09,1.77.09h.19a31.79,31.79,0,0,0,.33-5.08q0-1.05,0-2.39,0-2.69-.45-2.79a2.89,2.89,0,0,0-1.31.36,5.53,5.53,0,0,1-.57.24q.09,2,.09,4.7Q205,349.12,204.93,350.9Z"/><path class="cls-17" d="M214,337.83h1.64q.86,0,.93.76v.79q.71,0,1.15-.1a.92.92,0,0,0,.5-.33v1.55a.61.61,0,0,1-.28.58,12.93,12.93,0,0,1-2.65.14,14.27,14.27,0,0,1-2.67-.14.67.67,0,0,1-.28-.62V339a.91.91,0,0,0,.62.33q.69.09,1.33.1v-1A.72.72,0,0,0,214,337.83Zm-1.65,9.5h1.6q.48,0,.62.26l.17,0a6.62,6.62,0,0,1,1.45-.22,1.61,1.61,0,0,1,.91.24,1.41,1.41,0,0,1,.67.74,4.23,4.23,0,0,1,.17,1.43q0,.5-.07,1.51a1,1,0,0,0,.34-.28v1.5a.59.59,0,0,1-.28.58,9,9,0,0,1-2,.12l-1.24,0q-.09.58-.5.58h-1.81q.43-.17.43-.83V348.3A1,1,0,0,0,212.34,347.33Zm.43-5.65a.68.68,0,0,0,.5.34,14.6,14.6,0,0,0,2,.14,11.15,11.15,0,0,0,2-.14.79.79,0,0,0,.41-.34v1.65q0,.48-.26.62a7.82,7.82,0,0,1-2.19.16A8.66,8.66,0,0,1,213,344a.69.69,0,0,1-.28-.64Zm0,2.75a.74.74,0,0,0,.5.34,13,13,0,0,0,2,.16,9.91,9.91,0,0,0,2-.16.92.92,0,0,0,.41-.34v1.65q0,.48-.26.62a8.79,8.79,0,0,1-2.19.14,9.73,9.73,0,0,1-2.22-.14.68.68,0,0,1-.28-.65Zm1.91,6.92q.6.05,1.2.05h.05l0-.33q.09-.93.09-1.34a1,1,0,0,0-.12-.57.39.39,0,0,0-.31-.12,1.29,1.29,0,0,0-.6.19l-.34.17Zm5-13.39h1.64q.86,0,.93.76v.67a10.66,10.66,0,0,0,1.07-.1,1.07,1.07,0,0,0,.45-.28v1.45c0,.28-.07.45-.22.53a.73.73,0,0,1-.22.05q-.07.95-.24,2.51h1.19q-.36-3.51-.36-5.16a.43.43,0,0,1,.36-.46q.83-.12,1.84-.22a.8.8,0,0,0-.29.62q0,.33,0,.81l.36-.29a1.29,1.29,0,0,1,.59-.26q.17,0,.91,1.08a7.11,7.11,0,0,1,.93,1.94.52.52,0,0,1-.21.41q-.62.43-1.24.9a.42.42,0,0,0,.07-.19,8.61,8.61,0,0,0-1-2.08,4.58,4.58,0,0,0-.33-.52q.12,1.33.36,3.36.67,0,1.14-.09a2.06,2.06,0,0,0,.88-.34v1.55q0,.46-.29.58a10.62,10.62,0,0,1-1.48.1q.14.93.28,1.74a4.17,4.17,0,0,0,.52-1.15.58.58,0,0,0-.07-.26l1.26.81c.17.13.26.24.26.34a11,11,0,0,1-1.5,2.93q.38,1.83.74,3.15a.8.8,0,0,0,.55.33q-.79.28-1.62.52a2.69,2.69,0,0,1-.65.12q-.21,0-.65-1.7-1,1.27-1.27,1.27a.72.72,0,0,1-.41-.19l-.05.05a17.27,17.27,0,0,1-2.15.07l-1.36,0v.09a.53.53,0,0,1-.52.43h-1.57q.31-.17.34-1.08,0-1.57,0-2.74,0-1.48-.16-3.27-.05-.83-.29-1h1.51a.5.5,0,0,1,.57.4v0l.52-.16a5.62,5.62,0,0,1,1.41-.26,1.58,1.58,0,0,1,1.14.38,2.7,2.7,0,0,1,.52,1.82v1a13.12,13.12,0,0,1-.29,2.7l.07,0a.77.77,0,0,0,.38-.21l.19-.29q.5-.76.9-1.41-.34-2-.65-4.41h-1.34a48.68,48.68,0,0,1-5-.14.63.63,0,0,1-.28-.6v-1.53a2,2,0,0,0,1.07.34l.22,0q-.12-.62-.22-1.43-.07-.57-.09-.95l-.22-.05a.65.65,0,0,1-.22-.57V339a.9.9,0,0,0,.55.28l1,.09v-.86A.75.75,0,0,0,219.7,338Zm.77,10.93.69,0,.79,0v-.24q0-1.2-.38-1.26a2,2,0,0,0-.88.24l-.26.14Q220.46,348.31,220.48,348.9Zm0,2.79q.67.05,1.31.05h.09q.07-.55.1-1.24h-1.48Q220.48,351.17,220.46,351.69Zm.38-8.18.62,0a.14.14,0,0,0,0-.05q.17-1.39.21-2.32h-1.19q0,.29.07.72Q220.7,342.89,220.84,343.51Z"/></g></svg>