<svg xmlns="http://www.w3.org/2000/svg" viewBox="0 0 230 64"><defs><style>.cls-1{fill:#fff;stroke:#f5a214;stroke-width:1.81px;}.cls-1,.cls-10,.cls-11,.cls-12,.cls-13,.cls-14{stroke-miterlimit:10;}.cls-2{fill:#f7fcfe;}.cls-14,.cls-3{fill:none;stroke-linecap:round;}.cls-3{stroke:#1d2539;stroke-linejoin:round;stroke-width:0.43px;}.cls-4{fill:#dbdad6;opacity:0.2;}.cls-5{fill:#eacc2c;}.cls-6{fill:#3d3c3d;}.cls-7{fill:#939498;}.cls-8{fill:#e0e0e0;}.cls-9{fill:#594a42;}.cls-10{fill:#00a499;stroke-width:0.1px;}.cls-10,.cls-11,.cls-12,.cls-13{stroke:#646464;}.cls-11{fill:#e4f3f4;}.cls-11,.cls-12{stroke-width:0.15px;}.cls-12{fill:#97d3d3;}.cls-13{fill:#c1e4e6;stroke-width:0.1px;}.cls-14{stroke:#e6610e;stroke-width:0.27px;}.cls-15{fill:#282828;}.cls-16{fill:#1b2438;}</style></defs><title>專題網頁</title><g id="圖層_2" data-name="圖層 2"><circle class="cls-1" cx="31.31" cy="32.05" r="23.11"/><path class="cls-2" d="M41.59,36.66c0,9.19-4.57,12.07-10.25,12.07S21,45.86,21,36.66,25.63,20,31.31,20,41.59,27.47,41.59,36.66Z"/><path class="cls-3" d="M41.13,41.19a20,20,0,0,0,.47-4.53,26.17,26.17,0,0,0-.52-5.24"/><path class="cls-3" d="M39.05,25.72C37.17,22.23,34.4,20,31.31,20,25.63,20,21,27.47,21,36.66S25.6,48.74,31.28,48.74c3.24,0,6.13-.94,8-3.44"/><path class="cls-4" d="M21.83,33.25a15.31,15.31,0,0,1,7-12.72C24.33,22.35,21,28.88,21,36.66c0,9.19,4.64,12.07,10.31,12.07a13,13,0,0,0,3.5-.44A15.39,15.39,0,0,1,21.83,33.25Z"/><circle class="cls-5" cx="31.49" cy="30.92" r="6.69"/><ellipse class="cls-6" cx="28.28" cy="29.24" rx="0.54" ry="0.85"/><ellipse class="cls-6" cx="34.49" cy="29.24" rx="0.54" ry="0.85"/><circle class="cls-7" cx="25.38" cy="38.65" r="1.33" transform="translate(-8.07 6.72) rotate(-13.04)"/><circle class="cls-8" cx="25.38" cy="38.65" r="0.73" transform="translate(-8.06 6.72) rotate(-13.03)"/><path class="cls-9" d="M25.45,38.85a.22.22,0,0,1-.25-.08s-2.8-4.14-3.91-6.35a.22.22,0,1,1,.39-.2c1.1,2.19,3.86,6.27,3.88,6.31a.22.22,0,0,1-.06.3Z"/><path class="cls-7" d="M39.22,39.41A1.85,1.85,0,0,0,38.63,37c-1.35-1-2.6.42-2.6.42l.07-.2a1.93,1.93,0,0,1,2.58-.35,1.74,1.74,0,0,1,.75,2.17Z"/><path class="cls-9" d="M39.53,36.17,39.24,36c-.35-.24-1.61-.86-3.29,1.14s-.29,3.08-.29,3.08l.17-.19s-1.23-.63.34-2.71,3-1,3-1,1.27.66.13,2.84-2.46,1.48-2.46,1.48l-.15.19c.57.34,1.73.5,2.82-1.49S39.92,36.44,39.53,36.17Z"/><path class="cls-7" d="M36.92,40.85c.09-.14.09-.26,0-.33s-.22-.13-.34,0-.1.25,0,.31S36.8,41,36.92,40.85Z"/><path class="cls-7" d="M36,40c.13.1.17.21.08.32s-.16.19-.33.09-.18-.2-.12-.29S35.82,39.85,36,40Z"/><path class="cls-9" d="M39.23,36.31l0,0a.19.19,0,0,1-.05-.26,17.77,17.77,0,0,0,1.79-3.7.19.19,0,1,1,.36.11,17.84,17.84,0,0,1-1.84,3.79A.19.19,0,0,1,39.23,36.31Z"/><path class="cls-10" d="M24,25s5.45-2.53,14.65-.06l.18.35a76.62,76.62,0,0,0-15,0Z"/><ellipse class="cls-11" cx="31.01" cy="19.69" rx="4.66" ry="4.31"/><ellipse class="cls-12" cx="31.01" cy="19.69" rx="2.59" ry="2.4"/><ellipse class="cls-13" cx="31.01" cy="19.69" rx="1.79" ry="1.66"/><path class="cls-14" d="M29.73,35.17A3.17,3.17,0,0,0,33.24,35"/><path class="cls-15" d="M37.81,27.93a.47.47,0,0,0-.1-.2,1.6,1.6,0,0,0-1-.44c-.44,0-.88,0-1.33,0l-3.26.12-.65,0-.64,0-3.26-.12c-.44,0-.88,0-1.33,0a1.6,1.6,0,0,0-1,.44.47.47,0,0,0-.1.2c0,.39-.16.77.28,1.06a1.64,1.64,0,0,1,.17.66A1.48,1.48,0,0,0,27,30.8a9.39,9.39,0,0,0,2.44.07,1.17,1.17,0,0,0,.79-.47c.23-.31.42-.64.62-1s.18-.38.27-.58a.34.34,0,0,1,.36-.21.35.35,0,0,1,.36.21c.09.19.17.39.28.58s.39.66.62,1a1.17,1.17,0,0,0,.79.47A9.39,9.39,0,0,0,36,30.8a1.48,1.48,0,0,0,1.39-1.16,1.64,1.64,0,0,1,.17-.66C38,28.7,37.78,28.32,37.81,27.93Zm-7.1.83a2.89,2.89,0,0,1-.63,1.32,1.43,1.43,0,0,1-.92.5,7.28,7.28,0,0,1-2.14,0,1,1,0,0,1-.9-.7A3.56,3.56,0,0,1,26,28.08a.47.47,0,0,1,.45-.43c.5,0,1.19-.07,1.49-.07s.59,0,.86,0a7.53,7.53,0,0,1,1.27.2A.8.8,0,0,1,30.71,28.76Zm6.13,1.1a1,1,0,0,1-.9.7,7.28,7.28,0,0,1-2.14,0,1.43,1.43,0,0,1-.92-.5,2.9,2.9,0,0,1-.62-1.32.8.8,0,0,1,.63-1,7.52,7.52,0,0,1,1.27-.2c.28,0,.58,0,.87,0s1,0,1.49.07a.47.47,0,0,1,.45.43A3.58,3.58,0,0,1,36.84,29.85Z"/><path class="cls-16" d="M60.82,19.14a7.79,7.79,0,0,0,2.29.33,55.15,55.15,0,0,0,6.76-.87,64.62,64.62,0,0,1,8.87-.79,23.83,23.83,0,0,1,6.37.57A6.07,6.07,0,0,1,88,20.22a6.17,6.17,0,0,1,.84,3.41,7.69,7.69,0,0,1-.33,2.75q-.3.93-.75.93l-3.65-.69a1,1,0,0,0,.51-.82,6.65,6.65,0,0,0,.24-2.17,3.15,3.15,0,0,0-.33-1.48,2.42,2.42,0,0,0-1.69-1,24.46,24.46,0,0,0-4.07-.27q-.73,0-1.39,0v2q1,.09,1.87.09a18.76,18.76,0,0,0,3.26-.21,1.37,1.37,0,0,0,.63-.54v2.54q0,.75-.33,1a13.38,13.38,0,0,1-3.56.24q-1.15,0-1.87,0v.66a3.75,3.75,0,0,1-.06.72q2.35.39,4.41.69,5.4.73,6.37.72a1.14,1.14,0,0,0,.75-.36l-.66,1.75q-.51,1.78-1.06,1.78-.91,0-7.09-1-5.07-.79-11.11-2.11l-1.39-.3A26.86,26.86,0,0,1,66,31.12a2.44,2.44,0,0,1-.69.82h.39a1.3,1.3,0,0,1,1.42.84l5.22-.54a1,1,0,0,0,.24,0q-.15-1.27-.63-1.48h3.26a1.05,1.05,0,0,1,1.18,1,1.51,1.51,0,0,1,0,.3q3.26-.18,5.22-.18a10,10,0,0,1,2.81.3,5,5,0,0,1,2.14,1.12,2.74,2.74,0,0,1,.82,2.2q0,.81,0,1.45l.6-.24v2.54q0,.72-.33.94a12.31,12.31,0,0,1-1.69.12l1,1.39s.64.88,1.93,2.6c.06.2.33.33.81.39l-1.6.72a5.89,5.89,0,0,1-1.87.84q-.6,0-1.51-1.18A104.46,104.46,0,0,1,72,45.7q-5.22,0-9.57-.27-.91-.09-1-.69,0-.42.27-3a.9.9,0,0,0,.81.51q4.32.21,9.45.21h.72v-.09q0-1.06,0-2-3.68,0-5.67-.12-.24,1-1,1H62.36q.87-.33.88-1.66V34a2.1,2.1,0,0,0-.87-2H64.2L64,31.84l-3-1.48a1.53,1.53,0,0,0,1.18-.79,38.35,38.35,0,0,0,3.26-5.37A3.53,3.53,0,0,0,66,22.88a.37.37,0,0,0-.09-.18,10.34,10.34,0,0,1-1.87.39q-.81,0-1.87-1.78Zm6.4,18h.09q2.78.12,5.52.18,0-1.12-.06-2.26-4,.45-5.55.57ZM69,25.84l4.41.85v-5a3.4,3.4,0,0,0,0-.48q-2.23.21-4.32.6-1,.3-1.78.51l1.69.21q1,.12,1,.81a7.17,7.17,0,0,1-.54,1.6ZM82.67,42a2.82,2.82,0,0,1-.36-1q0-.27.48-.66-2.48,0-6.13,0,0,1.24-.09,2Q79.8,42.25,82.67,42Zm-6-7.21q0,1,0,2.14v.39q3.83,0,6.55-.06v-.91q0-1.42-.94-1.63-.6-.06-2.23-.06Q79,34.68,76.67,34.8Z"/><path class="cls-16" d="M93.58,19.14a7.8,7.8,0,0,0,2.29.33,55.18,55.18,0,0,0,6.76-.87,64.61,64.61,0,0,1,8.87-.79,23.84,23.84,0,0,1,6.37.57,6.07,6.07,0,0,1,2.87,1.84,6.16,6.16,0,0,1,.85,3.41,7.72,7.72,0,0,1-.33,2.75q-.3.93-.75.93l-3.65-.69a1,1,0,0,0,.51-.82,6.62,6.62,0,0,0,.24-2.17,3.15,3.15,0,0,0-.33-1.48,2.42,2.42,0,0,0-1.69-1,24.45,24.45,0,0,0-4.07-.27q-.72,0-1.39,0v2q1,.09,1.87.09a18.75,18.75,0,0,0,3.26-.21,1.37,1.37,0,0,0,.63-.54v2.54q0,.75-.33,1A13.37,13.37,0,0,1,112,26q-1.15,0-1.87,0v.66a3.75,3.75,0,0,1-.06.72q2.35.39,4.41.69,5.4.73,6.37.72a1.15,1.15,0,0,0,.75-.36l-.66,1.75q-.51,1.78-1.06,1.78-.91,0-7.09-1-5.07-.79-11.11-2.11l-1.39-.3a27.27,27.27,0,0,1-1.54,2.57,2.46,2.46,0,0,1-.69.82h.39a1.3,1.3,0,0,1,1.42.84l5.22-.54a1,1,0,0,0,.24,0q-.15-1.27-.63-1.48h3.26a1.05,1.05,0,0,1,1.18,1,1.59,1.59,0,0,1,0,.3q3.26-.18,5.22-.18a10,10,0,0,1,2.81.3,5,5,0,0,1,2.14,1.12,2.74,2.74,0,0,1,.81,2.2q0,.81,0,1.45l.6-.24v2.54q0,.72-.33.94a12.27,12.27,0,0,1-1.69.12l1,1.39s.64.88,1.93,2.6c.06.2.33.33.81.39l-1.6.72a5.88,5.88,0,0,1-1.87.84q-.6,0-1.51-1.18a104.45,104.45,0,0,1-12.61.69q-5.22,0-9.57-.27-.91-.09-1-.69,0-.42.27-3a.9.9,0,0,0,.82.51q4.31.21,9.45.21h.72v-.09q0-1.06,0-2-3.68,0-5.67-.12-.24,1-1,1H95.12q.88-.33.88-1.66V34a2.1,2.1,0,0,0-.88-2H97l-.21-.09-3-1.48A1.53,1.53,0,0,0,95,29.58a38.35,38.35,0,0,0,3.26-5.37,3.54,3.54,0,0,0,.54-1.33.37.37,0,0,0-.09-.18,10.37,10.37,0,0,1-1.87.39q-.81,0-1.87-1.78Zm6.4,18h.09q2.78.12,5.52.18,0-1.12-.06-2.26-4,.45-5.55.57Zm1.75-11.29,4.41.85v-5a3.55,3.55,0,0,0,0-.48q-2.23.21-4.32.6-1,.3-1.78.51l1.69.21q1,.12,1,.81a7.2,7.2,0,0,1-.54,1.6ZM115.43,42a2.81,2.81,0,0,1-.36-1c0-.18.16-.4.48-.66q-2.47,0-6.13,0,0,1.24-.09,2Q112.56,42.25,115.43,42Zm-6-7.21q0,1,0,2.14v.39q3.83,0,6.55-.06v-.91q0-1.42-.94-1.63-.6-.06-2.23-.06Q111.71,34.68,109.42,34.8Z"/><path class="cls-16" d="M134.42,22.55q0,.54-.09,1.18,3.77.24,7.45.24,5.25,0,8-.21a4.86,4.86,0,0,0,1.63-.54v2.63a1,1,0,0,1-.48,1q-1.21.21-9.14.21-5.25,0-7.7-.09v.18q0,.48,0,.91,3.89.21,7.73.21,5.25,0,8-.18a4.42,4.42,0,0,0,1.63-.51v2.63a.94.94,0,0,1-.48,1,77,77,0,0,1-9.14.27q-5.43,0-7.85-.15,0,.72,0,1.33,3.32.15,6.64.15,7.18,0,11-.27a7.91,7.91,0,0,0,2.2-.57V34.8a1.2,1.2,0,0,1-.45,1.12q-.48.06-1.51.09l1.63,1.45a1.11,1.11,0,0,1,.33.75q0,.33-.94,1-.79.63-2.69,1.93,1.84,1.18,3.74,2.35a1.44,1.44,0,0,0,1.09.45q-1.75,1.09-1.81,1.09a6.07,6.07,0,0,1-2.26,1.12A6.41,6.41,0,0,1,148,44.79q-1.18-.75-2.69-1.9l-.69,1.51a1.57,1.57,0,0,1-1.21.91q-5.58.63-7.33.63a12.47,12.47,0,0,1-3.23-.45,5.55,5.55,0,0,1-2.42-1.42q-.91-1-.91-4.29,0-2,0-3.77-1.33,0-1.93-.09a1.28,1.28,0,0,1-.48-1.18V31.93a6.53,6.53,0,0,0,2.5.54q.09-4.2.33-7.73.27-5.31.27-5.85t-.72-.75H133q1.63,0,1.63,1.09v0q3.77.21,7.51.21,5.46,0,8.33-.24a4.34,4.34,0,0,0,1.69-.57v2.72a1,1,0,0,1-.48,1,83.9,83.9,0,0,1-9.54.27Q136.93,22.64,134.42,22.55Zm9.17,19q-1.6-1.24-3.44-2.75a30.69,30.69,0,0,1-3.2-2.72q-1.72,0-3.11,0,0,2,0,3.68t.39,2.11a3.28,3.28,0,0,0,1.33.45q.91.06,1.9.06a28.91,28.91,0,0,0,4-.36A21.72,21.72,0,0,0,143.6,41.59Zm-.81-5.46q1.87,1.39,3.89,2.75a12.74,12.74,0,0,0,1.57-1.21,13.17,13.17,0,0,0,2-1.6Q147.49,36.13,142.78,36.13Z"/><path class="cls-16" d="M161.14,18l3.23.39q.87.15.88.82a10.67,10.67,0,0,1-.21,1.33q1.48.12,2.9.12a32.18,32.18,0,0,0,4.56-.24,1.76,1.76,0,0,0,.94-.57V23a1.2,1.2,0,0,1-.57,1.21,11.16,11.16,0,0,1-2.38.18q-.24,1.3-1.15,4.32-.24.91-.54,1.75a34,34,0,0,0,4.41-.27,2.67,2.67,0,0,0,1.24-.69v3.44a1.33,1.33,0,0,1-.63,1.3,17.62,17.62,0,0,1-4.38.36,1.87,1.87,0,0,1,.18.33q1.72,3.5,3.83,7,.27.45,1.21.45l-1.21,1.09q-1.81,1.93-2.66,1.93-.24,0-1-1.24-1.24-2.26-3.08-6.31c-.1-.2-.18-.37-.24-.51q-1.12,3-2.41,6.28-.85,2.17-1.48,2.17a14.1,14.1,0,0,1-3.62-1.6q.69,0,1.42-1.87,1.63-4,2.93-7.82a15.22,15.22,0,0,1-3-.3,1.47,1.47,0,0,1-.63-1.36V29.49a2.55,2.55,0,0,0,1.54.69q1.75.18,3.41.24.39-1.18.69-2.32l1-3.68q-1.39,0-2.17-.09-.39,1.6-.91,3.14-.33,1.06-.66,1.06a4.6,4.6,0,0,1-1.09-.21q-1.06-.24-2.32-.48.42-.15.6-1,.79-2.72,1.45-5.79a18.11,18.11,0,0,0,.39-2.23Q161.66,18.47,161.14,18Zm12.92,1.33h3.35a1.08,1.08,0,0,1,1.21,1,1,1,0,0,0,0,.24,14.64,14.64,0,0,0,1.54-.36,13.08,13.08,0,0,1,3.41-.63,2.64,2.64,0,0,1,2.35,1.36q1,1.69,1,6.28v3.5a64.3,64.3,0,0,1-.84,10.14l.18,0a1.71,1.71,0,0,0,.91-.6v3.08a1.25,1.25,0,0,1-.51,1.18q-.6.36-4.65.36-2.14,0-3.32-.09v.09a1.09,1.09,0,0,1-1.12.84h-3.44q.66-.57.79-3.53.06-5.1.06-8.93,0-4.83-.3-10.68Q174.57,19.86,174.06,19.35Zm4.89,21.58q1.6.15,3.11.15h.33a55.76,55.76,0,0,0,.57-8.9q0-1.84,0-4.2,0-4.71-.78-4.89a5.08,5.08,0,0,0-2.29.63,9.44,9.44,0,0,1-1,.42q.15,3.59.15,8.24Q179,37.82,178.95,40.93Z"/><path class="cls-16" d="M194.83,18h2.87q1.51,0,1.63,1.33v1.39a20,20,0,0,0,2-.18,1.61,1.61,0,0,0,.88-.57V22.7a1.07,1.07,0,0,1-.48,1,22.68,22.68,0,0,1-4.65.24,25,25,0,0,1-4.68-.24,1.18,1.18,0,0,1-.48-1.09V20a1.6,1.6,0,0,0,1.09.57q1.21.15,2.32.18V19A1.26,1.26,0,0,0,194.83,18Zm-2.9,16.66h2.81q.85,0,1.09.45l.3-.06a11.68,11.68,0,0,1,2.54-.39,2.83,2.83,0,0,1,1.6.42,2.47,2.47,0,0,1,1.18,1.3,7.41,7.41,0,0,1,.3,2.5q0,.88-.12,2.66a1.68,1.68,0,0,0,.6-.48V43.7a1,1,0,0,1-.48,1,15.74,15.74,0,0,1-3.59.21q-1.33,0-2.17,0-.15,1-.87,1h-3.17q.75-.3.75-1.45V36.37A1.76,1.76,0,0,0,191.94,34.68Zm.75-9.9a1.19,1.19,0,0,0,.88.6,25.57,25.57,0,0,0,3.5.24,19.53,19.53,0,0,0,3.56-.24,1.38,1.38,0,0,0,.72-.6v2.9q0,.85-.45,1.09a13.76,13.76,0,0,1-3.83.27,15.22,15.22,0,0,1-3.89-.27,1.21,1.21,0,0,1-.48-1.12Zm0,4.83a1.3,1.3,0,0,0,.88.6,22.73,22.73,0,0,0,3.5.27,17.37,17.37,0,0,0,3.56-.27,1.6,1.6,0,0,0,.72-.6v2.9q0,.85-.45,1.09a15.4,15.4,0,0,1-3.83.24,17,17,0,0,1-3.89-.24,1.2,1.2,0,0,1-.48-1.15ZM196,41.74q1.06.09,2.11.09h.09c0-.2,0-.39.06-.57q.15-1.63.15-2.35a1.7,1.7,0,0,0-.21-1,.68.68,0,0,0-.54-.21,2.26,2.26,0,0,0-1.06.33l-.6.3Zm8.81-23.48h2.87q1.51,0,1.63,1.33v1.18a18.22,18.22,0,0,0,1.87-.18,1.87,1.87,0,0,0,.78-.48v2.54q0,.72-.39.94a1.25,1.25,0,0,1-.39.09q-.12,1.66-.42,4.41h2.08q-.63-6.16-.63-9.05a.75.75,0,0,1,.63-.81q1.45-.21,3.23-.39a1.4,1.4,0,0,0-.51,1.09c0,.38,0,.86.06,1.42l.63-.51a2.26,2.26,0,0,1,1-.45q.3,0,1.6,1.9a12.5,12.5,0,0,1,1.63,3.41.91.91,0,0,1-.36.72Q219.1,26.14,218,27a.75.75,0,0,0,.12-.33A15.08,15.08,0,0,0,216.38,23a7.89,7.89,0,0,0-.57-.91q.21,2.32.63,5.88,1.18-.06,2-.15a3.62,3.62,0,0,0,1.54-.6v2.72q0,.81-.51,1a18.87,18.87,0,0,1-2.59.18q.24,1.63.48,3a7.31,7.31,0,0,0,.91-2,1,1,0,0,0-.12-.45l2.2,1.42c.3.22.45.42.45.6q0,.81-2.62,5.13.66,3.2,1.3,5.52a1.39,1.39,0,0,0,1,.57q-1.39.48-2.84.91a4.68,4.68,0,0,1-1.15.21q-.36,0-1.15-3-1.72,2.23-2.23,2.23a1.26,1.26,0,0,1-.72-.33l-.09.09a30.22,30.22,0,0,1-3.77.12q-1.48,0-2.38,0v.15a.92.92,0,0,1-.91.75h-2.75q.54-.3.6-1.9.06-2.75.06-4.8,0-2.59-.27-5.73-.09-1.45-.51-1.69H205a.88.88,0,0,1,1,.69v0l.91-.27a9.83,9.83,0,0,1,2.47-.45,2.77,2.77,0,0,1,2,.66,4.74,4.74,0,0,1,.91,3.2v1.75a23.07,23.07,0,0,1-.51,4.74l.12,0a1.35,1.35,0,0,0,.66-.36l.33-.51q.87-1.33,1.57-2.47-.6-3.44-1.15-7.73h-2.35a85.31,85.31,0,0,1-8.69-.24,1.1,1.1,0,0,1-.48-1.06V27.2a3.44,3.44,0,0,0,1.87.6l.39,0q-.21-1.09-.39-2.5-.12-1-.15-1.66a1.6,1.6,0,0,1-.39-.09,1.13,1.13,0,0,1-.39-1V20.1a1.58,1.58,0,0,0,1,.48l1.69.15V19.23A1.32,1.32,0,0,0,204.85,18.26Zm1.36,19.16,1.21,0c.54,0,1,0,1.39,0V37q0-2.11-.66-2.2a3.5,3.5,0,0,0-1.54.42,3.63,3.63,0,0,1-.45.24Q206.18,36.4,206.21,37.43Zm0,4.89q1.18.09,2.29.09h.15q.12-1,.18-2.17h-2.6Q206.21,41.41,206.18,42.32ZM206.85,28q.54,0,1.09,0a.24.24,0,0,0,0-.09q.3-2.44.36-4.07h-2.08q.06.51.12,1.27Q206.6,26.89,206.85,28Z"/></g></svg>