<svg xmlns="http://www.w3.org/2000/svg" xmlns:xlink="http://www.w3.org/1999/xlink" viewBox="0 0 230 64"><defs><style>.cls-1{fill:#f5a214;}.cls-2{fill:#fff;}.cls-3{fill:#f4cb26;}.cls-4{clip-path:url(#clip-path);}.cls-5{fill:#fac76b;}.cls-6{fill:#1d2539;}</style><clipPath id="clip-path"><path class="cls-1" d="M47.65,33.61c.06,8.21-4.38,12.79-12.7,12.21-8.56-.59-14.81-4.1-14.23-12.27.34-4.79,2.43-10.86,7.15-12.21,6.44-1.84,14.54,1.3,17.23,4.5s2.3,4.93,2.55,7.77Z"/></clipPath></defs><title>專題網頁</title><g id="圖層_2" data-name="圖層 2"><circle class="cls-2" cx="31.31" cy="32" r="24.04"/><path class="cls-3" d="M27.46,7.32c.35-.08.67,0,.55.07.7-.25.73-.1.79-.38.45-.16,1,0,.45.14l1.33-.24h-.81c.21-.25,1.29,0,1.54-.28l-1.47.1.07-.08a4.38,4.38,0,0,1-1.21.08s0-.1.26-.12c-1.77.2-.43.47-1.86.75A1.69,1.69,0,0,1,27.46,7.32Z"/><path class="cls-3" d="M25.87,7l-.54.44-1,.19c0,.1-.69.37-.17.33a2.27,2.27,0,0,1,.43-.15c0,.12-.35.23-.62.33s-.48.23-.3.28A5.69,5.69,0,0,0,25,7.86a5.88,5.88,0,0,1,1.61-.23c.21-.07.22-.2.49-.27l-.19,0-.09-.32a3.8,3.8,0,0,1-.7.17c.37-.21.75-.38,1.14-.58a2,2,0,0,0-1,0,7.61,7.61,0,0,1-1.07.2C25.77,7,24.69,7.08,25.87,7Z"/><path class="cls-3" d="M27.07,7.36h0Z"/><path class="cls-3" d="M44.61,50.87c.19-.15.2-.25.2-.3A21.26,21.26,0,0,1,42.61,52c.11,0,.82-.27.41,0a1.61,1.61,0,0,0,.82-.62l-.09.21c.44-.45,1-.43.69-.11l0,0,1-1.54C44.94,50.29,45.21,50.41,44.61,50.87Z"/><path class="cls-3" d="M35.22,8.92c.35,0,.4,0,.37,0A2.11,2.11,0,0,0,35.22,8.92Z"/><path class="cls-3" d="M45.67,49.6c.1-.15.17-.33.26-.5A3.53,3.53,0,0,0,45.67,49.6Z"/><path class="cls-3" d="M44.25,54.32s0,0,0,0l.17-.23h0Z"/><path class="cls-3" d="M51.8,39.83l0-.16A1.43,1.43,0,0,0,51.8,39.83Z"/><path class="cls-3" d="M37,58.36l1.28-.53c-.15.14.48-.06.23.12.1,0,.56-.2.42-.21l-.27.08c.62-.45.18-.4,1.22-1a2.9,2.9,0,0,0-1.33.54l-.33.12-1,.65Z"/><path class="cls-3" d="M50.55,16.08h0Z"/><path class="cls-3" d="M50.68,16.07h-.1C50.65,16.1,50.84,16.29,50.68,16.07Z"/><path class="cls-3" d="M45.63,49.85a.4.4,0,0,1,0-.25l-.22.35Z"/><path class="cls-3" d="M45.26,50.86l-.79.64-.24.31A9.39,9.39,0,0,0,45.26,50.86Z"/><path class="cls-3" d="M51.07,41.13c.8-1.77.09.56.54-.21a4.1,4.1,0,0,0,.18-1.09c-.21.75-.3.66-.4.56s-.19-.18-.49.52a1.17,1.17,0,0,1,.07-.73,4,4,0,0,1,.33-.85c.45-.46,0,.55.2.77.17-.6.09-.51,0-.81.44-.88.26-2,.77-2.46.13-.69,0-.68-.11-1.09-.13-.06-.21.18-.28.47a1.67,1.67,0,0,1-.35.7s.11-.13.14-.09l-.2.56c.23-.52.25.15.2.45s-.14.64-.21.56a3.07,3.07,0,0,0,0-.34c-.18.39-.12,1-.41,1.33-.07,0,0-.17-.06-.21a5.7,5.7,0,0,1-.36,1.73l-.07-.51A4.7,4.7,0,0,1,49.34,43c.09-.06.22-.21.21-.08-.23.51-.61.77-.6.47a2.53,2.53,0,0,1-.73,1.09,4.74,4.74,0,0,0-.83,1.2l-.63,1.75c-.26.56-.54,1.13-.83,1.71a2.48,2.48,0,0,1,.27-.35c.4,0,.52-.18.24.38.34-.48,0-.48.66-1.06-.17.3,0,.59.59,0A9.22,9.22,0,0,0,49,45.66l.43-1.2c.15-.4.25-.84.42-1.27.1,0,.32-.28.57-.66s.45-.88.62-1.19a2.65,2.65,0,0,1-.32,1.34c.18-.29.43-.83.63-1.22Z"/><path class="cls-3" d="M49.26,45.41l.12-.1A.41.41,0,0,0,49.26,45.41Z"/><path class="cls-3" d="M50.64,42.82v0l.08-.16Z"/><path class="cls-3" d="M46.28,49.87a2.58,2.58,0,0,1-.18.31c.05-.06.12-.13.18-.21S46.33,49.85,46.28,49.87Z"/><path class="cls-3" d="M45.74,49.88v-.1l-.12.07S45.68,49.91,45.74,49.88Z"/><path class="cls-3" d="M54.7,34.17l0-.2A.36.36,0,0,0,54.7,34.17Z"/><path class="cls-3" d="M52.19,39.24c-.22.65.24.17-.1,1.09l.11-.26a12,12,0,0,1-1.08,2.57c0-.13-.37.37-.48.2a3.73,3.73,0,0,0-.52,1.35,8.14,8.14,0,0,1-.75,1.12c.2-.09-.1.73.46-.23,0,.08,0,0,0,.13.57-.48.48-.89.8-1.41.28-.26-.17.61,0,.33s.51-.86.75-1.3.35-.84.16-.9a1.26,1.26,0,0,1,.47-.67c0-.95,1.33-3,.77-3.18l-.12.59a4,4,0,0,0-.15.7Z"/><path class="cls-3" d="M47.16,49l.11-.09Z"/><path class="cls-3" d="M38.92,52.34l.14-.42c.74-.28,1.19-.57,1.67-.77l.71-.32c.24-.12.49-.28.78-.46.11,0,0,.1-.08.16.4-.28.95-.55,1.4-.91a8.3,8.3,0,0,0,1.11-1c.27-.16.91-.66.76-.36a1.9,1.9,0,0,1,.34-.37c.12.06-.26.29-.2.37.11-.09.16-.11.16-.16-.1.24.47.15-.36.89-.51.05.55-.54.15-.62-.27.24-.16.31-.15.36-.36.3-.41.21-.44.14-.08.18-.63.42-.74.69-.71.56-.1-.23-.57.13,0,.16-.05.32-.09.47l-.87.46c-1.17.83.49.41-.88,1.37.12-.25-.62-.21-1.33.05a16.82,16.82,0,0,1,1.62-1c-.83.2,1-.62.44-.65a3,3,0,0,1-1.35.85l.14-.1c-.52.21-.75.71-1.51.92-.36.14-.32,0-.29-.06C39.2,52.25,38.95,52.41,38.92,52.34Zm.76-.35c.16-.05.32-.13.48-.19A1.27,1.27,0,0,0,39.68,52Z"/><path class="cls-3" d="M18.1,10.17l.17-.07A.72.72,0,0,0,18.1,10.17Z"/><path class="cls-3" d="M18.91,54.47l-.29-.19Z"/><path class="cls-3" d="M11.94,50.41l-.42-.34A2.2,2.2,0,0,0,11.94,50.41Z"/><polygon class="cls-3" points="14.72 12.58 14.7 12.59 14.65 12.66 14.72 12.58"/><path class="cls-3" d="M5.63,35.75a1.6,1.6,0,0,0,0-.3S5.62,35.58,5.63,35.75Z"/><path class="cls-3" d="M12,50.47l0,0-.06,0Z"/><path class="cls-3" d="M21.71,56.81l.23,0Z"/><path class="cls-3" d="M21.58,55.77l.22,0Z"/><path class="cls-3" d="M33.52,58.22l.48-.07A2.42,2.42,0,0,0,33.52,58.22Z"/><path class="cls-3" d="M22.69,56.4l.08,0C22.71,56.37,22.67,56.38,22.69,56.4Z"/><path class="cls-3" d="M21.14,9.67h0v0Z"/><path class="cls-3" d="M22,8.78l.37-.16A2.29,2.29,0,0,0,22,8.78Z"/><path class="cls-3" d="M6.07,28.91c.07-.12.17-.4.2-.25C6.23,28.41,6.06,28.4,6.07,28.91Z"/><path class="cls-3" d="M20.2,12.45a1.3,1.3,0,0,1,.14-.22C20.23,12.35,20.13,12.46,20.2,12.45Z"/><path class="cls-3" d="M20.34,12.23,20.5,12Z"/><path class="cls-3" d="M8.58,32a.23.23,0,0,0,0,.13S8.6,32.11,8.58,32Z"/><path class="cls-3" d="M22.66,8.56c0-.1,1.65-.87.23-.39,0-.24.86-.47,1.24-.59-.3,0,.1-.19,0-.25a7.24,7.24,0,0,1-.71.3c-.18-.05.27-.31.67-.35-.51,0,.55-.34-.15-.26a12.38,12.38,0,0,0-1.79.79,4.84,4.84,0,0,0-1.34.95A8.09,8.09,0,0,1,23,7.82l-.2.3A5.6,5.6,0,0,0,21,8.78a14.34,14.34,0,0,1,1.61-.52c.8-.11.32.11-.25.36A.67.67,0,0,1,22.66,8.56Z"/><path class="cls-3" d="M22.33,10.65h0l.05,0Z"/><path class="cls-3" d="M33.09,54l.12-.09C33.1,53.93,33.07,54,33.09,54Z"/><path class="cls-3" d="M21.06,10.12h0Z"/><path class="cls-3" d="M29.95,54l0,0Z"/><path class="cls-3" d="M28.66,58.46l0,0C28.77,58.48,28.73,58.47,28.66,58.46Z"/><path class="cls-3" d="M29.95,54a0,0,0,0,1,0,0S29.94,54,29.95,54Z"/><path class="cls-3" d="M15.69,48.63a.73.73,0,0,0,0,.14S15.77,48.74,15.69,48.63Z"/><path class="cls-3" d="M17.92,50.87l0,.05Z"/><path class="cls-3" d="M5,29.64c0,.18,0,.31,0,.43A3,3,0,0,0,5,29.64Z"/><path class="cls-3" d="M30,54l.15-.07Z"/><polygon class="cls-3" points="11.71 45.66 11.79 45.73 11.76 45.67 11.71 45.66"/><path class="cls-3" d="M10.93,44.14a.56.56,0,0,0,.12.06c-.19-.24-.42-.6-.62-.91s-.34-.59-.47-.6a4.93,4.93,0,0,1,.23.66c.08.26.15.48,0,.44.27.34.46,1,.62,1.14-.26-.67.12-.16.43.2s-.19,0,0,.37l.62.79-.5-.71.33.09-.07-.06C10.75,44.44,11.82,45.33,10.93,44.14Z"/><path class="cls-3" d="M11,44.21a1.19,1.19,0,0,0,.17.17A.4.4,0,0,0,11,44.21Z"/><path class="cls-3" d="M9,38.74l-.1-.23Z"/><path class="cls-3" d="M43.6,52.15c-.06,0-.83.28-.74.42l.67-.35Z"/><path class="cls-3" d="M8.81,22.87c0,.09-.07.18-.1.27v.06A1.06,1.06,0,0,0,8.81,22.87Z"/><path class="cls-3" d="M10,43.6a.69.69,0,0,0,.21.19A.7.7,0,0,0,10,43.6Z"/><path class="cls-3" d="M9.19,23c.09-.09.21-.23.28-.23a4.84,4.84,0,0,0,.18-.65A6.44,6.44,0,0,1,9.19,23Z"/><path class="cls-3" d="M9.67,22.07v0Z"/><path class="cls-3" d="M44.06,52l.17-.15-.08.1c.17-.09.35-.16.52-.27l.18-.16a.16.16,0,0,0,0,.08l.16-.1c.27-.42,1.12-1.19,1.3-1.48a7.07,7.07,0,0,1,.89-.94c-.23.2-.51.5-.35.49.51-.36,1-.31,1.55-1.29-.14.16-.28.32-.43.47.24-.43.47-.87.69-1.3.45-.27-.34.64-.38.88.61-.94,1.61-1.31,1.65-1.94.19.06.52.15.95-.46-.49.3.15-.43-.3-.22.07-.26.54-.62.43-.74l0,.1a2.78,2.78,0,0,0,.84-2,32.7,32.7,0,0,0,1.36-3.07,1,1,0,0,0,.73-.67c-.07-.26.1-1.36-.07-1.52-.3.81,0,.73-.08,1.26-.37.34-.23,0-.56.48.31-.4.46-2.08.81-2.53l0,.18c.34-.77.84-.86.75-2.29a4.89,4.89,0,0,0-.06-.68s0,0,.06.06c.08-1.09.31-.78.18-2,0,.09,0,0,0,.13a5,5,0,0,0-.24-1.9c.17-.33.18.06.33.25a7.22,7.22,0,0,0-.84-3.19,5.92,5.92,0,0,0-.06-.78c.21.42.47,1,.56.79a8.71,8.71,0,0,1-.29-.92,2.61,2.61,0,0,1,.52.55c-.12-1.29-.47-.18-.34-1.14-.1-.39-.32-.57-.47-.57a7.39,7.39,0,0,0,0-.75c-.2,0-.51-.85-.74-1.39-.1,0,0,.51.12.69-.15,0-.42-.54-.55-.91.33-.3-1.16-2.3-.55-2.09-.2-.4-.51-.79-.78-1.22s-.55-.86-.87-1.25A14.31,14.31,0,0,0,49.1,16.7c-.18-.35-.71-.94-.26-.71a5.74,5.74,0,0,0-1.39-1.16,9.68,9.68,0,0,1-1.4-1.1c-.05-.12.5.4.53.28a8.93,8.93,0,0,1-1.07-.86,5.91,5.91,0,0,0-1.41-1.05.43.43,0,0,0,.37.08c0,.06-.58-.2-.93-.34-.16-.14.26.11.19,0-2.32-1.61-4.51-2-7.15-2.61.75.2,1.11,0,1.15-.06L37,9c-.32.05-.88-.12-1.38-.08-.05-.06-.28-.14,0-.16a4.7,4.7,0,0,0-2-.17,7.64,7.64,0,0,1-2.25.1l2.29-.39L33,8a8.57,8.57,0,0,1,1-.15c-.59-.23-1.16.11-1.21-.1.13,0,.44,0,.46-.12a3.15,3.15,0,0,0-1.09,0A12.4,12.4,0,0,1,37,7.89c.2,0-.18,0-.23.08a12.36,12.36,0,0,0,1.4.4c.43-.06-.26-.19-.56-.29.08-.13.23-.08.58,0,0,.15,1.83.68,2.17,1.05,1.76.66-.08-.61,1.58.24l.41.44.83.27c.28.12.56.26.85.4a9.12,9.12,0,0,1,1.64,1l-.21-.15c-.19,0,0,.19.08.3.67.63,1.52.89,1.8,1.43.46.26,1,.66,1.64,1.09s1.11,1,1.57,1.38c0,.43-1.24-1-1.72-1.24.27.25.5.53.75.8a2.32,2.32,0,0,0-1.13-.77c.65.68,1,.78,1.68,1.39-.11,0-.06.12.22.43l.23,0s0,.06.08.17l1.06,1.23c-.14-.32,0-.44-.27-.78,0,.19-.23-.09-.48-.43.32.22-.16-.4-.09-.45.51.68,1.16,1.51,1.54,1.93l0,.25c.38.71.91,1.4,1.15,1.89l-.17-.1a14.77,14.77,0,0,1,1.12,2.54c.47.73,1,1.7,1.43,2.33.31.32.41,2.55.79,3.48a9,9,0,0,1-.4-1c.07.65.42,1.13.22,1.36-.14-1.46-.17.11-.34-.54.09.67.29,1.37.36,1.7-.11-1.1.4.36.14-.75a8.86,8.86,0,0,1,.39,3.1c-.1,0-.16.12-.22.51l.13.32c-.05.49-.13-.95-.23,0a6.92,6.92,0,0,1,0,2,2.55,2.55,0,0,0,0,1.56c-.3.73,0-1.48-.36-.37-.07-.69.29-1.58,0-1.82,0,.66-.21.22-.27.63l0,.73,0-.16a15,15,0,0,1-.93,4.63l-.28,1.85a9.18,9.18,0,0,1-.73,1.93c.1-.48-.73,1.13-.48.11-.46.59-.74,1.27-.65,1.35.37-.54.15-.18.48-.63a4.13,4.13,0,0,1-.79,1.38c.09-.14,0-.09,0-.15-.48.62-.09.39-.38.88-.25,0-.79,1-1.17,1.34a7.21,7.21,0,0,1-.3.73c.16-.41-.53.5-.72.49a4.07,4.07,0,0,1-1.08,1.49c.19-.29-.64.42-.76.31a4.59,4.59,0,0,0-.73.66c-.22.21-.42.42-.62.64a4.34,4.34,0,0,1-1.42,1.13c0-.05.18-.28-.17-.12s-.71.46-1,.65h0c-.13.09-.21.16-.19.2a5.35,5.35,0,0,1-1.54,1.34c.15.13,1-.34,1.33-.6l.21-.35c.44.07.84-.57,1.11-.62A5.42,5.42,0,0,1,44,55.21c-.62.38-1.32.74-1.82,1.09a6.15,6.15,0,0,0,1.55-.48,12.75,12.75,0,0,0,1.83-1L45,55l.62-.38-.7.19a13.72,13.72,0,0,0,1.59-1c-.57.44-1,.32-.6.16.76-.3.6-.59,1.1-.93-.28.19-.63.45-.47.19,1.08-.54,1.29-.81,2.24-1.37-.31-.14,1-.94.93-1.24l-.39.32a8.34,8.34,0,0,0,.62-.88c.85-.55-.4.83.74-.16,1-1,.7-1.18,1.32-2.07a3.15,3.15,0,0,1-.32.83,6,6,0,0,1-.76,1l.43-.34A9.41,9.41,0,0,1,50,50.93c.57-.86-.38.29-.85.46.06.19.52-.27.05.36.52-.5.62-.54,1.3-1.17a5.19,5.19,0,0,0-1.17,1.48,2.78,2.78,0,0,1-1.15,1.26c.6-.55-.39,0-.52,0-.29.24-.88.74-1.11,1l.38,0c-.78.7-1.4.37-2.26,1.23-.05.22.92-.49.75-.36-1.29,1-2.07.84-3.41,1.28,0,.1,0,.27-.37.57.09-.2-.28-.14.19-.45a6.26,6.26,0,0,0-1.33.62c1-.26-.3.35-.45.5-.5.15.1-.2.38-.35-.41.1-.94.05-1.09.35-.06-.15.95-.8,1.63-1.1l-.49.15a2.44,2.44,0,0,1,.85-.35c-.51.05-.51-.1-.45-.24s0,0,0,0c.39-.1.66-.25.54-.3.24-.34-.56.08-.86.06l-.55.25-.86.69c-.29.22-.6.41-.91.62a5,5,0,0,1-2,.27l-.15.22c-.78.1-1.52.15-1.06-.16,0,.06.14,0,.3,0a.23.23,0,0,1,.1-.07l0,0L34.16,58c1.36-.48,0-.35.22-.72a10.66,10.66,0,0,1-1.38.23c.85.06,0,.16-.27.22-.09-.19-1.13.08-1.63,0l0,0a9.72,9.72,0,0,0-1.82-.09,4.21,4.21,0,0,1-1.11.46c1,.2.39.19.45.33a1.08,1.08,0,0,0-.31,0c-.15,0,.19.1.21.17a8.08,8.08,0,0,0,2.62-.24c-.32-.13-.56.09-.92,0a13.92,13.92,0,0,1,2.08-.14l.3.14.88-.13c-.36.1-.13.26-1.06.34.13.14.93-.08,1.51-.06.09-.07.18-.17.27-.25-.1.13,1.12,0,.27.26a11.54,11.54,0,0,1-1.41.29l.41.12-1.22.1.28-.12c-2,.23-.58-.34-2.54-.17a4.27,4.27,0,0,1-2.49,0c.87.07.11-.16.46-.26a3.58,3.58,0,0,0-1.66,0c-.2-.17-.33-.3.44-.16.15-.27-1-.1-1-.43a6.64,6.64,0,0,0-2.44-.19,5.42,5.42,0,0,1-2.64-.83l.15-.06c-.91-.35-1.61-.69-2.29-1s-1.27-.78-2.07-1.22c-.35-.33-.66-.72-1-1.07.28.15,1.09.47.85.12.37.66,1.08.91,1.62,1.44.1,0-.12-.23-.21-.34a6.61,6.61,0,0,0,1,.71c0-.05-.51-.46-.08-.24.2.18.42.34.63.52,1,.39.67-.17,1.75.44A2.5,2.5,0,0,1,19.79,56c.51.28-.74-.24-.31.07.87.12,1.12.54,2.23.76a1.29,1.29,0,0,1-.45-.06l1.48.65c-.16-.14.16-.06.52,0s.76.1.71,0A27.34,27.34,0,0,1,21,56.3a4.22,4.22,0,0,0,1.64.11l.09.05c.34-.1.08-.26.21-.6a8.55,8.55,0,0,1-2.31-.72c-.25.09.41.51.91.63a7.36,7.36,0,0,1-.87-.24h.2c-.67-.35-1.35-.68-2-1.06a1.49,1.49,0,0,0,.81.17,3.13,3.13,0,0,1-.72-.51c0,.2-.14.3-.38.15a12.35,12.35,0,0,1-1.4-1,3.68,3.68,0,0,1-.68-.84l-.14-.09c.08.3-1-.32-1.52-.45.15-.14-.48-.6-.72-1-.32,0-.32.46-.06,1,.88.51.56.21,1.12.26l1.38.78-.39-.06c.57.56,1.37.73,1.18.91-.46-.06-1-.55-1.39-.68l.37.39c-.89-.37-.25-.47-1.25-1,.21.41-.09,0-.56-.24.21.36,1.63,1.16,1.15,1.24a4.18,4.18,0,0,1-1-.88,3.33,3.33,0,0,0-1.13-.93h.06A7,7,0,0,0,12,50.45a8.27,8.27,0,0,0-1.21-1.24l.09-.06a6.72,6.72,0,0,1-.51-.57c.35.18.55.7,1,1.17l.09-.19c.34.7.92.86,1.45,1.14-.71-.48-1.57-1.77-2-1.67a5.14,5.14,0,0,1-.18-.53l-.2-.16c-.11-.4.29-.21.79.34,0,.13.08.19,0,.19a3.92,3.92,0,0,1,1.15,1l-.37-.26A4.75,4.75,0,0,0,14,51.05l-.79-.78c-.25-.27-.48-.55-.72-.82-.47-.55-1-1.05-1.38-1.63a8.26,8.26,0,0,0-1.53-.26,7.77,7.77,0,0,1-1-1.3,8.68,8.68,0,0,1-.71-1.35l.11,0a7.39,7.39,0,0,0-.53-1c-.09-.44.32.17.24-.12L7,42.65c.2,0,.7,1,1,1.53-.06-.09-.18-.26-.17-.19.18.63,1.1,1.47,1,1.85.2.24-.5-.44,0,.47.28.67.62.72.73.73s-.49-1-.18-.74a6,6,0,0,1-.8-1.22c.29.46.85,1,.86,1.3.75.78,1.08.35.8,0-.08.2-1.15-1.52-.6-.24A13.16,13.16,0,0,1,8.05,44l.05,0-.49-.9c.11.11.29.36.38.33l-.86-1.16c.26.32.23.2.13-.05A5.92,5.92,0,0,1,7,41.43c-.2-.08-.5-.57-.4,0s.2.3.4.8l-.5-.63V41.5l-.35-.37c-.35-1,.6.28,0-.93l-.2.25c-.47-1.52-.61-3.56-.86-4.64.2.28.47.37.55-.06a9.37,9.37,0,0,0,.36,2c0,.07-.14-.12-.28-.41a3.48,3.48,0,0,1-.27-1.08c-.19.21-.06.67.08,1.08s.33.77.12.87c.32,1.88.75,1.25,1,2.83.2-.05.25.39.45.4.15-.55-.76-2-.86-3a1.07,1.07,0,0,0,.17.31A5.54,5.54,0,0,0,6,37.3v.07c-.36-.84.06-.57.06-1.1-.06-.19-.11-.92-.24-.78,0-.32,0-.64.06-1l-.22.07c0-.53.1-.66-.06-1.13h-.2c0,.44,0,.89,0,1.34-.13-.67-.21-.17-.3-.91.27.82.08-.6.27-.69l-.14-.54.06.14c.09-.43-.12-.51-.08-1a3.34,3.34,0,0,0,0,1.74,9.39,9.39,0,0,1-.3-1.92A7,7,0,0,1,5,30.06c0,1,.63-.32.39,1.73,0,0,0-.21,0-.27-.3.27,0,1.24.15,1.68.14-.12.2.34.25-.45-.07.26-.41-.66-.22-1.41l.31.14L6,30.42v.1c.23-.39,0-1.15.25-1.87,0-.55.39-2.55-.09-1.75a5.93,5.93,0,0,0,.39-2l-.36.86a6.15,6.15,0,0,0,0-1.73c.11-.06.25-.22.28,0l.88-2.29a8.66,8.66,0,0,0,.7-1.88c.49-.93.94-.85,1.56-2.18.14-.28-.41,0,.24-.71.06,0-.36.88.26,0,.27-.75,1.14-1.38,1.68-2.23.42-.33,1-1,1-.75a8.52,8.52,0,0,0-1.39,1.67c0-.17-.44.4-.15-.15-.87.91-.39.72-1.15,1.56,0,.11.52-.34.61-.57.2.15-1.19,1.84-.35,1.22.72-.91.47-1.56,1.34-2.18-.15.4-.63.85-.72,1.43l.58-.6c.07-.2.13-.41.22-.6v.05c1.18-.92.69-1.21,1.54-2.26-.7.4-.19-.46-.7-.13.64-.65,1.18-1.07,1.35-.88-1.1,1.3.1.27-.83,1.52.25-.11,0,.51.69-.08.62-.82-.38,0,.31-.71.06,0,.12,0,.12,0,.26-.42.44-.33.76-.83l-.07.13c.63-.33.49-.61,1.08-.85-.31,0,.23-.37.46-.7a7.27,7.27,0,0,0-2,1.06c0,.22.11.23-.21.62l.58-.55c-.11.13-.18.25-.28.38l-.62.45c.64-.74.2-.56.41-1,.73-.53.56-.49,1-.8.1.22,1.6-.75,2.57-1.1l-.41.24c-.55.51.54-.1.59-.06l.4-.38c-.08.07-.17.18,0,.09.59-.42.46-.58,1.09-.94.1.09-.36.53.08.39a2.22,2.22,0,0,0,1.56-.43A1.33,1.33,0,0,1,22,8.78l-.09.06.64-.09c-.42.38-1.05.27-1.44.72l0,.21a3.92,3.92,0,0,0-1,.71,9.53,9.53,0,0,0,1.28-.69c.14.08-.26.38-.32.42l0-.15c-.81.23-1.05.66-1.93,1.18-.14.07-.06,0-.05,0-.6.6-1.46.77-1.94,1.5l.15-.24a18.54,18.54,0,0,0-1.77,2l0,.07c.12,0-.17.22-.35.34h0A10.94,10.94,0,0,0,14.42,16a1.65,1.65,0,0,0,.4-.29c0-.19.8-.76.56-.83.41-.2.81-.82,1.11-1-.55.27.19-.41.22-.56.24,0,.7-.54.75-.35.12,0-.31.08-.44.32-.39.5,1-.56.48,0,.68-.73,1.84-1.3,2.62-2l-.52.23A5.93,5.93,0,0,1,21,10.91c-.29.17-.65.32-1,.56.07.16.92-.45,1-.37l1-.85-.5.23a7.73,7.73,0,0,1,2.19-.81c-.35.45-1.22.4-2,.9-.53.38.47.07-.05.4a1.48,1.48,0,0,0,.67-.33l.24,0c-.41.41-1.49.92-2.1,1.44a.37.37,0,0,0,.1-.14,5.92,5.92,0,0,0-1.57.91,1.14,1.14,0,0,0,.53-.32c.05,0-.41.36-.55.52.51-.22.17.07.48-.07a7,7,0,0,1-.89.59c-.23.06.07-.22,0-.3-.31.33-.66.21-1.1.72.73-.48,0,.36-.2.6l.12-.08a.7.7,0,0,1-.53.45c.21-.3.53-.45.35-.51a2.49,2.49,0,0,0-.52.52l.11-.25-.84.81a3.18,3.18,0,0,0-.12.81c-.29.1-.46.47-.6.69l0-.13c-.41.3-1.13,1.18-1.06,1.35-.36.2,1.14-2.42-.5-.4-.59.8-.07.72-.3,1.24,0,0,0,0-.06,0-.27.33-.2.43-.34.76a1.93,1.93,0,0,0,.44-.59c0,.18-.54.7-.58,1.05,0-.49-.5.65-.44.3a3.31,3.31,0,0,0-.65,1.06,4.06,4.06,0,0,0-.2,1c-.52.39-.42.9-.84,1.72a5.08,5.08,0,0,1,.2-.56c0-.57-.42.87-.31,0,0,.18.09,0,.12-.13s.14-.6,0-.57a6.1,6.1,0,0,0-.44.65l0-.27-.62,1s.11,0,.15-.09a8.07,8.07,0,0,0-.39,1l-.26,1-.24,1c0,.33-.09.65-.14.95.27.16.16.88.14,1.7a7.57,7.57,0,0,0,.12,2.2C9,32,8.69,31.88,8.58,32a3.63,3.63,0,0,1-.14-1.16c.09-.08.22-.67.3-.28,0-1.36-.25.17-.43-.25a8.25,8.25,0,0,0,.15,1.9c.13.53.26,1,.35,1.44l-.06,0c.06.23.09.47.17.7,0-.58.27-.57.26.17l0-.09a12.15,12.15,0,0,0,.3,1.93c.08.13.19.26.28.39.14.64-.17.75-.31,1A5.58,5.58,0,0,0,10.54,40c-.06.38.58,1.8.07,1.12.55.8,1.09.3,1.48,1.88l-.34-.28a20.83,20.83,0,0,0,1.46,2,12.62,12.62,0,0,1,1.15,1.49c-.76-.11.89,1.77.78,2.3,0-.13.49.24.59.25a.7.7,0,0,0,.42.39c-.39-.48.65-.09-.34-.72a6.24,6.24,0,0,1,2.35,1.21l-.14.15-.76-.64c0,.19-.4-.16-.6-.25,1.36,1.29-.53.24,1,1.4.23,0,.1,0,.53.24-.19-.14-.31,0,0,.18l.39.09c.37.67-1-.48-.7,0-.7-.32-1.83-1.06-1.79-.72.94.86,1.2.31,2.18,1.19l.06.16a2.1,2.1,0,0,0,.87.1c0,.07.06.17.3.33a9.72,9.72,0,0,0,2,.4A3.87,3.87,0,0,1,20,51.53a7.55,7.55,0,0,0-1.49-.94c.28.12,1.48.73,1.68.54l-.12.17a14,14,0,0,1,1.83.79l-.47-.1a4.81,4.81,0,0,1,1.18.63,2.14,2.14,0,0,0,1.13.32,3,3,0,0,0-.66-.22,8.9,8.9,0,0,1,1.66.56l1.22,0c0,.1.68.29.3.36.78.39,1.26.07,1.73.12.82.34-.75,0-.89.25a13.9,13.9,0,0,0,1.75.29,6.1,6.1,0,0,0,1.39-.11c-.24-.05-.36-.09-.34-.14a2.58,2.58,0,0,0,.78.09l.19-.12c.44.11.38.19,0,.27.43.07.93-.25,1.38-.07a4.09,4.09,0,0,1-1.15.12,4.3,4.3,0,0,0-.89,0,7.64,7.64,0,0,1,1.59.16,5.27,5.27,0,0,0,1.92,0c0,.06-.29.23.09.18.87-.18.19-.31.45-.49a1.79,1.79,0,0,1-1.37,0l.17-.12c0,.05.45,0,.57.08l.08-.23c0,.25.66.33,1.17.16-.55-.09-.41-.11-.59-.36.67-.38.86.15,1.6-.29,0,.11-.73.28-.11.23s.39-.29.7-.43c-.32.29-.19.41-.55.76-.9.19-.37.06-1.25.29l.79.05c-.78.15-.53.31-.59.4,1.4,0,1-.47,1.82-.62.37-.24-.8.18-.19-.13.79-.17.15-.18,1-.48l-.12.13c.3,0,.53-.15.82-.29s-.58-.54.73-1c0,.08-.06.12,0,.14-.23.68-.49,1.4-.79,2.08l2.32-.79c.77-.36,1.62-.67,2.42-1.07.26,0,0,.27-.27.48s-.66.39-.57.44l-.78.3c0-.15,1.54-.79.76-.69-.63.35-1.1.59-1.58.79a8.42,8.42,0,0,0-1.55.76c.51.15,1.71-.63,2.61-.83a6.65,6.65,0,0,0-.9.49c.79-.32,1.65-.66,2.53-1.08l.15-.18a6.47,6.47,0,0,1-1.07.48c.81-.32,1.31-.93,1.24-1.14l-.13.07.22-.22ZM37,9a.35.35,0,0,0,.14-.05S37.12,9,37,9ZM28,56.27c.29,0,.58.12.87.16l.88.08c.58,0,1.16.12,1.73.13-2-.55-3.36-1-.07-.83l.22,0c-.43,0-1.17-.11-1.87-.09-.57.2-2.49.51-2.49.57.18.16.51.06.87.16Zm-.69-.92c-.63-.15-.5,0-.62.06l.68.07C27.29,55.43,27.26,55.39,27.31,55.35Zm-.6.16.16,0Zm12.52-.79-.06,0,.45-.14A2,2,0,0,0,39.23,54.71Zm-1.33.18-.1.21.43-.09A.41.41,0,0,0,37.9,54.89Zm-4.2.24c-.24.23-1.12.28-1.16.52-.05.07.13.08.35.09l.75,0s.06-.07.14-.11c-.26,0-.44-.07-.35-.22.7.28.57-.31,1.28-.32C34.92,54.88,33.91,55,33.71,55.14ZM12.75,17l.23-.06-.21.49c-.57.7-1.36,1.06-1.5,2a2,2,0,0,1-.73.49c.11-.16.21-.3.31-.42.4-1.13.73-1.29,1-1.41S12.31,17.8,12.75,17ZM7.7,26.26a.22.22,0,0,0,0-.14L7.54,31A7.55,7.55,0,0,0,8,29.4a3.13,3.13,0,0,0,.16.43L8,30.07l.15.72a6.88,6.88,0,0,0,.27-1.12S8.35,28.4,8.28,28L8,29c.11-.25.21-1.56.31-2.07-.12,0-.43.82-.22,1-.16.08,0-1-.27-.33A7.76,7.76,0,0,1,8.47,25l.27,0c.3-.56-.14-.5.25-1.16-.27.88.31-.05.08.64.17-.19.25.08.48-.6-.09-.68.42-.65.41-1.27.26-.3,0,.45.37-.2.21-.84.08-.86-.12-1-.41.71-.11,1-.45,1.52L10,21.57a1.66,1.66,0,0,0-.3.5,2.23,2.23,0,0,0,.15-.7l0-.34a5.16,5.16,0,0,1-.78,1.36L9,22.26a1.26,1.26,0,0,0-.29.88c-.23.65-.31,1.35-.5,1.44v-.28C7.92,25.11,8,25.23,7.7,26.26Zm8.45,25.08c-.15-.65-.35-1.28-2.07-2.87l.15.12A4.82,4.82,0,0,0,13,47.29a5,5,0,0,1-1.21-1.56,4.28,4.28,0,0,0,1.27.83L12.51,46c.31,0-.23-.49-.54-.93l.51.22a3.13,3.13,0,0,0,.64.93c-.07-.06,0,.21.2.57a4.61,4.61,0,0,0,.76,1c.09-.18-1-1.22-.28-.94-.5-.34-.35-.54-.78-1,.45.38.29,0,.65.21l-.63-.74c0-.06,1,1,.66.27-.31-.25-.82-1.14-1-1l0-.05c-.34-.64-.41-.11-.77-.94-.09,0-.07.23.12.49s.31.18.64.62c0,.3-.36-.57-.37-.09,0,.24,1,1.12.48,1l-.4-.61c-.19.11-.47-.35-.59-.25-.3-.35-.33-.84-.72-1.14-.21-.1-.26.31-.56-.41A13.38,13.38,0,0,0,9.51,40.3l-.32-.5c-.1.09.4,1,.12.75l-.36-.85.1,0a6.19,6.19,0,0,0-.4-.81c.21.23.4.87.55.68A5.63,5.63,0,0,0,9,38.74c0,.08.07.14.1.12-.12-.86-.44-.74-.56-.94-.49-.79,0,.93-.26.88a25,25,0,0,1-.71-2.52c.1.21.2.42.28.32,0-.65.16,0,0-.92-.26.11-.4-1.08-.56-1.71.1-.31.12-.37.16.28.18-.09.07-.95.07-1.26s-.1-.48-.15-.67c-.08.26-.21.15-.3-.41l0,0a9.29,9.29,0,0,0,.11,3L7,34.69c0,1.1.65,2.28.47,2.83-.15,0,0,.22-.18.25l.36.74-.13-.14a11.48,11.48,0,0,0,.42,1.3l0,0,1,1.3c.08,0,.09-.08.23.09a3.62,3.62,0,0,1,.23.46h0c.12.3.1.55.23.94-.18-.37-.38-.74-.56-1.12-.17,0-.3.13-.12.73-.12-.23-.27-.28-.15,0,.05,0,.45.71.43.39.29.53.53,1.29,1,2.05.2.39.42.79.67,1.18a7.55,7.55,0,0,0,.91,1.06c-.93-1,.48,1-.46-.17.44,1,.69.59,1.35,1.4,0,.12-.38-.42-.64-.52,1,1.42,2.22,1.95,3.42,3.09l-.07.19A7.35,7.35,0,0,0,16.14,51.34ZM19,53c.29.14.56.31.87.43l-.08,0,.93.28c-.5-.32-.74-.67,0-.4-.1,0,.07.23-.2.15.44.34,1.48,1,1.31.56-1.05-.21-.07-.44-.89-.61a6.36,6.36,0,0,1,1.23.38c-.46,0,0,.37.54.65.28.05,1,.36,1.45.45-.1-.22.3-.18-.39-.48a3.5,3.5,0,0,1,.5.13,3.31,3.31,0,0,1,.63.22c-.19,0-.52-.08-.52,0a4.27,4.27,0,0,0,.79.43l.48.09a.35.35,0,0,1-.1-.09l.55,0c-.71-.1-.3-.16-.27-.26-.07.19.44.14.67.19l-.46-.34c.26,0,.83.35.75.11a17.65,17.65,0,0,0-2.45-.59l.34.26c-1.12-.2-.57-.49-1.76-.9-.57,0-1.73-.75-1.89-.48.18,0-.59-.57-1-.66s-1.82-.74-1.51-.4.87.36,1.06.68l-.69-.35.36.4C19.07,52.6,19,52.74,19,53Zm17.42,4.57h0Z"/><path class="cls-3" d="M21.57,9.49c.17-.18.72-.34.56-.45,0,.07-.2.17-.4.25S21.39,9.48,21.57,9.49Z"/><path class="cls-3" d="M22.26,9.39c0-.05,0-.1.21-.19l-.64.28Z"/><path class="cls-3" d="M23.31,10.2a2.54,2.54,0,0,1,1-.55c.31.31-.8.41-.89.85a3.17,3.17,0,0,0,1-.52,3.23,3.23,0,0,1,.89-.44,3.19,3.19,0,0,0-1.18.17C23.65,9.86,23.27,10.05,23.31,10.2Z"/><polygon class="cls-3" points="23.09 10.82 23.56 10.55 23.5 10.55 23.03 10.82 23.09 10.82"/><path class="cls-3" d="M11.08,15.3c-.13,0-.27.35-.37.53A1.94,1.94,0,0,0,11.08,15.3Z"/><path class="cls-3" d="M49.68,13.12c-.6-.51-1.18-1-1.8-1.53L46,10.23A34.07,34.07,0,0,1,49.68,13.12Z"/><path class="cls-3" d="M6,29.63a21.51,21.51,0,0,1,.07-3.07,4.43,4.43,0,0,0-.24,1.89,6.33,6.33,0,0,1-.11,1.69Z"/><path class="cls-3" d="M5.07,29.09c.24-.18.19,1,.39.83,0-.85-.22-.42-.09-1.18Z"/><polygon class="cls-3" points="10.04 24.73 10.04 25.08 10.09 24.82 10.04 24.73"/><polygon class="cls-3" points="5.27 34.86 5.2 34.73 5.22 35.37 5.27 34.86"/><path class="cls-3" d="M5.13,34.59l.07.13Z"/><polygon class="cls-3" points="10.37 25.29 10.59 24.85 10.57 24.59 10.37 25.29"/><path class="cls-3" d="M8.23,29.25V28.8C8.22,28.89,8,29.49,8.23,29.25Z"/><polygon class="cls-3" points="5.9 38.69 6.14 39.27 6.15 39.2 5.91 38.62 5.9 38.69"/><path class="cls-3" d="M8.74,32.77c.17-.31.09.87.22.24C8.91,32.46,8.83,32.69,8.74,32.77Z"/><path class="cls-3" d="M8.69,39.49a.92.92,0,0,0,.11.21Z"/><path class="cls-3" d="M8.69,39.49c-.09-.23-.1-.48-.19-.63A1,1,0,0,0,8.69,39.49Z"/><path class="cls-3" d="M9.78,42.08l-.08-.21c.18.17.12.08,0-.08s-.15-.17-.2-.18l-.13-.1.14.15C9.63,42,9.73,42.19,9.78,42.08Z"/><path class="cls-3" d="M14.13,52.64c-.64-.67-.8-.86-.67-.93-.61-.62-.68-.35-1.11-.67C13.1,51.7,13.21,51.88,14.13,52.64Z"/><path class="cls-3" d="M12.35,51c-.08-.07-.15-.15-.25-.24A1.64,1.64,0,0,0,12.35,51Z"/><path class="cls-3" d="M10,38.57c.11.13.24.26.37.38l-.09-.15Z"/><path class="cls-3" d="M15.18,53.54a2.65,2.65,0,0,1-.44-.39C14.61,53.23,15.31,53.65,15.18,53.54Z"/><path class="cls-3" d="M14.39,49.24c0-.11-.41-.47-.53-.65C14.06,48.83,14,49.22,14.39,49.24Z"/><path class="cls-3" d="M17.68,54.53c-.14-.1-.31-.31-.15-.35C17.29,54.11,16.87,54.15,17.68,54.53Z"/><polygon class="cls-3" points="15.5 50.28 15.44 50.17 14.96 49.85 15.5 50.28"/><path class="cls-3" d="M15.5,47.44c-.52-.32.35,1-.45.32.82,1.07.08-.22.78.47C15.44,47.81,15.42,47.44,15.5,47.44Z"/><path class="cls-3" d="M15.83,48.22l.19.19Z"/><path class="cls-3" d="M22.42,53.76l-.22,0Z"/><path class="cls-3" d="M18.32,50.1l-.87-.33c.58.24,1.78,1.12,1.86.83A4.37,4.37,0,0,0,18.17,50Z"/><path class="cls-3" d="M26.89,58.48l-.48,0,.57.12C26.82,58.57,27.15,58.43,26.89,58.48Z"/><path class="cls-3" d="M27.09,58.65l-.11,0Z"/><path class="cls-3" d="M20.76,53.12a3.87,3.87,0,0,0-.76-.33C20.08,52.89,20.75,53.26,20.76,53.12Z"/><polygon class="cls-3" points="30.14 58.45 29.38 58.46 30.2 58.48 30.14 58.45"/><path class="cls-3" d="M33.68,58.82l.14,0a4.86,4.86,0,0,0,.62-.16l-.14,0A4.77,4.77,0,0,1,33.68,58.82Z"/><path class="cls-3" d="M29.44,53.88c-.42,0-.77.12-.67.19a6,6,0,0,0,.83.06c-.19-.21-.23,0-.7-.09A4.68,4.68,0,0,0,29.44,53.88Z"/><path class="cls-3" d="M54.64,44.71a2.35,2.35,0,0,1-.77,1.13c0-.15.29-.68,0-.41l-.17.9c-.76.86.09-1,.27-1.49-.65.94-.57,1.39-1.31,2.37a3.75,3.75,0,0,1,.6-.53c.23.11-.55,1-1,1.64.39-.36.28-.07.12.3a.48.48,0,0,0-.06.14l-.05.13.06-.08s.05,0,.13,0a11.45,11.45,0,0,1,1.12-1.28c-.29.07-.05-.23.22-.67a9.51,9.51,0,0,0,.74-1.23l.31-.58.13-.21c.06,0,.07.06-.06.42C55,45,55.5,44,55.35,44a20.77,20.77,0,0,0,1-2.16.9.9,0,0,1,.13-.17c0-.09,0-.11,0-.1a27,27,0,0,0,1.75-10.11A10,10,0,0,1,58,33c-.21-.79-.09.85-.31.61a3.23,3.23,0,0,1,.06-1.16c-.11-.11-.24.31-.38.26A2.94,2.94,0,0,0,57.44,34a2.4,2.4,0,0,1,0,1.36c-.13-.07-.2-.46-.3.34v-.21c0,1.31-.46.94-.22,1.82l-.19-.06a14,14,0,0,1-.41,2.35l0,0a13.83,13.83,0,0,1-.92,2.92,8.29,8.29,0,0,0,.13-1c-.32.62-.17.86-.41,1.3,0,0-.21,0,0-.45-.25.78-.47,1.59-.77,2.37C54.15,45.36,54.52,44.75,54.64,44.71Z"/><path class="cls-3" d="M52.7,47.21a3.6,3.6,0,0,0-.28.36Z"/><path class="cls-3" d="M58.13,30.78l0,.72A5.62,5.62,0,0,0,58.13,30.78Z"/><path class="cls-3" d="M50.77,50.25c.37-.25-.11.34-.11.45l1.06-1.17c-.06,0,0-.22-.1-.24Z"/><path class="cls-3" d="M52.14,49.29a1.49,1.49,0,0,1,.14-.42,7.05,7.05,0,0,1-.56.66S51.88,49.54,52.14,49.29Z"/><path class="cls-3" d="M48.82,46.72l.15-.18.17-.33A4.33,4.33,0,0,1,48.82,46.72Z"/><path class="cls-3" d="M51.25,43.87a2.31,2.31,0,0,0-.53.87A9,9,0,0,0,51.25,43.87Z"/><polygon class="cls-3" points="49.77 43.84 50.01 43.31 49.97 43.35 49.77 43.84"/><path class="cls-3" d="M56.59,25.69l-.1-.32A3,3,0,0,0,56.59,25.69Z"/><path class="cls-3" d="M57.56,31.46c.15-1.65.24,1.07.51.56l-.14-.9.08.07-.08-1.1c-.12.24-.12.4-.27.36,0-1.46.18-.47.23-1.56l-.27-1.63.06.12a.56.56,0,0,0-.08-.24c-.14-.92-.46-1.8-.68-2.69s-.64-1.74-1-2.6c-.47-.89,0,.61-.49,0,.4,1.08.86,2.72,1.1,2.75,0,0-.14-.08-.11.16l.39.58-.09-.64a6.55,6.55,0,0,1,.59,1.64,5.16,5.16,0,0,1,.14,1.52,12.5,12.5,0,0,1-.66-2.25c-.05.09-.1.42-.23.06a16.73,16.73,0,0,1,.58,2.84C57.36,29.46,57.37,30.42,57.56,31.46Z"/><path class="cls-3" d="M49.76,13.48h0S49.73,13.46,49.76,13.48Z"/><path class="cls-3" d="M50.19,14l.86.54-1-1.12-.21.06a1.89,1.89,0,0,1,.64.59Z"/><path class="cls-3" d="M51.93,15.29c-.57-.56-.73-.36-.52,0-.56-.46-.07-.44-.58-.65-.12.12.56.7.7.85Z"/><polygon class="cls-3" points="54.97 20.28 54.79 20.12 55.01 20.63 54.97 20.28"/><path class="cls-3" d="M54.79,20.12l-.21-.5a.42.42,0,0,0-.09.23Z"/><path class="cls-3" d="M53.91,18.36c-.11-.21-.23-.43-.38-.7Z"/><path class="cls-3" d="M54.18,18.92l0,0-.29-.53Z"/><path class="cls-3" d="M54.58,19.62c.11-.16.21-.33-.24-1l-.13.26A7.79,7.79,0,0,1,54.58,19.62Z"/><polygon class="cls-3" points="51.91 40.23 52 39.71 51.96 39.76 51.86 40.28 51.91 40.23"/><path class="cls-3" d="M53,37.4a2.74,2.74,0,0,0,0-.33A.84.84,0,0,0,53,37.4Z"/><path class="cls-3" d="M52.31,35c.25-.56.09.84.32-.24.16-.08.27.47.12,1-.13-.07,0-.52-.2-.23.11.37,0,.48.21.4.05.61.15.7.19,1.13,0-.18.08-.4.14-.66l.14-.83a4.35,4.35,0,0,0,.08-1.66c-.23-.52-.59-.24-1-.28a2.58,2.58,0,0,0-.12.69C52.19,34.66,52.19,35,52.31,35Z"/><path class="cls-3" d="M51.81,35.88a3.4,3.4,0,0,0-.07.51C51.89,36.37,51.79,36.09,51.81,35.88Z"/><path class="cls-3" d="M54.82,29.44c-.06-.05-.21-.59-.28-.46a7.07,7.07,0,0,1,.17.81A.56.56,0,0,1,54.82,29.44Z"/><path class="cls-3" d="M54.76,30.16l0-.36A1.75,1.75,0,0,0,54.76,30.16Z"/><path class="cls-3" d="M54.85,29.4l0,0S54.85,29.45,54.85,29.4Z"/><path class="cls-3" d="M52.74,16.42c.09,0-.21-.35-.36-.5A3.16,3.16,0,0,0,52.74,16.42Z"/><path class="cls-3" d="M40.3,7.5,40,7.3A1,1,0,0,0,40.3,7.5Z"/><path class="cls-3" d="M34.52,8.89a.13.13,0,0,1-.07,0A.11.11,0,0,0,34.52,8.89Z"/><path class="cls-3" d="M34.45,8.94c-.23,0-.89-.19-1.14-.05l0,0-.46.05.85,0A2.27,2.27,0,0,0,34.45,8.94Z"/><path class="cls-1" d="M47.65,33.61c.06,8.21-4.38,12.79-12.7,12.21-8.56-.59-14.81-4.1-14.23-12.27.34-4.79,2.43-10.86,7.15-12.21,6.44-1.84,14.54,1.3,17.23,4.5s2.3,4.93,2.55,7.77Z"/><g class="cls-4"><path class="cls-1" d="M49.89,32.2c.74,8.2-4.59,13.42-13.33,12.82-9-.62-15.55-4.31-14.94-12.88.36-5,2.55-11.4,7.5-12.82C35.88,17.39,45,20.3,47.21,24a20.6,20.6,0,0,1,2.68,8.16Z"/></g><path class="cls-5" d="M35.1,24.11c2.77.66,5.39,1.67,7.21,4,.77,1,2.13-.4,1.37-1.37-2-2.54-5-3.73-8.07-4.47-1.21-.29-1.73,1.58-.51,1.87Z"/><circle class="cls-5" cx="44.74" cy="29.71" r="0.93"/><path class="cls-6" d="M83.67,16,87,17.81a2.34,2.34,0,0,1,.4.3q1-.2,2.22-.5a34.82,34.82,0,0,1,7.86-.89,6.21,6.21,0,0,1,3.25.73,2.35,2.35,0,0,1,1.36,2.19,4.09,4.09,0,0,1-1,2.19,18.91,18.91,0,0,1-1.59,2.09q2.29-.07,3.84-.17a7.46,7.46,0,0,0,2.25-.63v3.35a1.33,1.33,0,0,1-.56,1.29q-1.69.23-12.69.23-7.92,0-11.2-.13-.17,6.83-1,16.27-.27,3.12-1.19,3.12-.3,0-4-.27.63-.76.83-3.81,1-10.74,1-19.29A1.23,1.23,0,0,0,76,22.69l3.81.1a1.19,1.19,0,0,1,1.19.89l.66.07q.5,0,.89,0-1.06-.6-3-1.86.5,0,1.13-.86a38.06,38.06,0,0,0,2.62-3.28,3.17,3.17,0,0,0,.5-1.06A1.89,1.89,0,0,0,83.67,16ZM88,34.22q-.1,1.66-.3,4.44-.07,1.66-.07,2.32,0,2.65,3.28,2.65a57.86,57.86,0,0,0,7.36-.5,34,34,0,0,0,7.39-1.59l-1.16,3.71a2.19,2.19,0,0,1-1.49,1.16q-5.1.6-8.39.76t-5,.2a11.29,11.29,0,0,1-3.75-.76A4.53,4.53,0,0,1,83.37,44a5.18,5.18,0,0,1-.46-2.15q0-1.29.13-3.84.26-3.58.5-6.23.13-1.59.13-1.89a1.47,1.47,0,0,0-.5-.9l4,.46q1.06.1,1.13,1,1.29-.1,3.15-.37a55.44,55.44,0,0,1,5.83-.6,13.38,13.38,0,0,1,3.35.33A5.72,5.72,0,0,1,103.32,31q.8.8.8,4,0,3.38-.63,4.41a3.77,3.77,0,0,1-2.39,1.36,13.8,13.8,0,0,1-3.38.33,31.38,31.38,0,0,1-4.28-.23q-.76-.1-1.26-1.33a24.61,24.61,0,0,0-1.36-2.82,15.8,15.8,0,0,0,3.35.53,20,20,0,0,0,3.18.3,4.29,4.29,0,0,0,1.59-.2q.63-.33.63-2.35,0-1.49-.86-1.76a11.91,11.91,0,0,0-2.75-.2,37.31,37.31,0,0,0-4.57.43Q88.87,34.09,88,34.22ZM84.46,23.85q3.94.17,7.86.17h1.86a7.06,7.06,0,0,1-.93-.89,4.56,4.56,0,0,0,1.92-1Q96.66,21,96.66,20.7q0-.63-.9-.63a35.67,35.67,0,0,0-6.66,1q-2.12.56-3,.7-.73,1-1.39,1.82A2,2,0,0,1,84.46,23.85Z"/><path class="cls-6" d="M117.41,21a12,12,0,0,0,.56,1.36,7.64,7.64,0,0,0,1.19,2,1.45,1.45,0,0,0,.6.2l-2,.37-1.06.23a1.16,1.16,0,0,1,.56.86q0,.17-.66.56a15.5,15.5,0,0,0-2.22,1.82,1.09,1.09,0,0,0-.3.53q0,.36.4.37a2.69,2.69,0,0,0,.43,0q1.66-1.19,3.71-2.39,1.29-.66,1.29-1v-.56L122,27.86a1.87,1.87,0,0,1,.3,1q0,.47-1.23,1.13a34.23,34.23,0,0,0-5.17,2.92q-1.16.73-1.16,1t1,.27a15.86,15.86,0,0,0,3.91-.56h.07a6.44,6.44,0,0,1-.43-1.43q0-.5,1.62-1.23l2.12-.86a1,1,0,0,0-.27.3.45.45,0,0,0-.13.33,5.35,5.35,0,0,0,.13.6q.56,1.89,1.33,3.78a1.27,1.27,0,0,0,1,.4q-1.66,1-1.72,1a5.65,5.65,0,0,1-2.09,1q-.13,0-.43-.73c-.09-.2-.19-.44-.3-.73q-1.16.33-2.12.56l.3.1q1,.4,1,1a2,2,0,0,1-.27.8,33.71,33.71,0,0,0,4.28-.27,2.82,2.82,0,0,0,1.26-.63v3.15q0,.93-.5,1.19a9.28,9.28,0,0,1-1.82.2q.6,1.13,1.29,2.22a1.47,1.47,0,0,0,1.16.5Q123.14,46,123.11,46a6.44,6.44,0,0,1-2.45,1.13q-.17,0-.56-.8a34.44,34.44,0,0,1-1.59-3.18q-.27-.6-.46-1h-.6a48.66,48.66,0,0,1-3,4.51q-.4.56-.8.56a1.69,1.69,0,0,1-.76-.3l-3.48-1.72a1.11,1.11,0,0,0,.86-.5q1.09-1.36,2-2.65a16.17,16.17,0,0,1-1.86-.17,1.32,1.32,0,0,1-.53-1.26V37.57a2.57,2.57,0,0,0,1.56.63q1.59.13,3.15.23.4-.8.6-1.26a12.38,12.38,0,0,1-1.76.13,4.16,4.16,0,0,1-2.72-.73,1.82,1.82,0,0,1-.7-1.42,5.26,5.26,0,0,1,1.52-3,.84.84,0,0,1,.2-.2,2.1,2.1,0,0,1-1.29-.7,2.25,2.25,0,0,1-.56-1.42,4.22,4.22,0,0,1,.76-1.69,18.26,18.26,0,0,1,2.09-2.55h0a11.61,11.61,0,0,1-1.36.3.44.44,0,0,1-.4-.2,5.5,5.5,0,0,1-.93-1.86,6,6,0,0,1-.56-1.56q0-.6.86-.83a1.23,1.23,0,0,0,.27-.1q-1-.07-1-1v-3a1.23,1.23,0,0,0,.93.5q2.15,0,5-.23,3.25-.2,6-.63,2.19-.3,2.39-.83.76,3,.76,3.28t-1.59.76l-.43.07,1.33.53q.7.3.7.8a3.17,3.17,0,0,1-.3.7,20.38,20.38,0,0,1-1.49,2.59q-.23.4-.46.4a18.36,18.36,0,0,1-3-1.46.53.53,0,0,0,.4-.27,17.06,17.06,0,0,0,1.36-2.42q.26-.5.33-.66Q119.46,20.8,117.41,21Zm-3.35,2.52q.83.5,1.36.86-.3-.5-.6-1.09a5.59,5.59,0,0,1-.63-1.49.82.82,0,0,1,.27-.6l-1.86.1v.07a7,7,0,0,0,.56,1.59,10.84,10.84,0,0,0,.66,1.52,1.76,1.76,0,0,0,.36-.46A1.29,1.29,0,0,0,114.06,23.51Zm13.49-6.66,3.12,1.79q.76.5.76.86a5.47,5.47,0,0,1-.33,1.66l-.07.26q.9.07,1.79.07a4.2,4.2,0,0,1,0-.53q-.13-2.82-.73-3.28h3.61A1.2,1.2,0,0,1,137,18.74q.1,1.26.13,2.68,1-.1,1.62-.2a2.49,2.49,0,0,0,1-.63v3.35a1.29,1.29,0,0,1-.56,1.26,5.36,5.36,0,0,1-2,.3q0,1.46.07,3,.53-.07,1-.17a1.91,1.91,0,0,0,.9-.63V31.1a1.32,1.32,0,0,1-.53,1.26,3.28,3.28,0,0,1-1.36.27v2.95l1-.17a2.15,2.15,0,0,0,.9-.63v3.35a1.32,1.32,0,0,1-.53,1.26,3.6,3.6,0,0,1-1.39.3q0,2.09-.1,3.21a16.08,16.08,0,0,0,1.82-.2,2.16,2.16,0,0,0,1-.66v3.48a1.25,1.25,0,0,1-.7,1.29,22.74,22.74,0,0,1-5.17.3q-2.65,0-4-.1a1.38,1.38,0,0,1-1.33.6h-3.15a2.83,2.83,0,0,0,.63-2.05q.07-4.28.07-10,0-1.36-.07-4l-.13,0q-.53,0-3.55-2,.53,0,1.29-1.89,1.66-3.61,3.12-7.59a12.57,12.57,0,0,0,.6-2.42A2.26,2.26,0,0,0,127.55,16.85Zm2.82,11.63a22.54,22.54,0,0,0,2.68.17q0-1.52-.07-3-1.69,0-2.72-.1Q130.34,27,130.37,28.49Zm.17,7a20.42,20.42,0,0,0,2.55.17V32.79q-1.59,0-2.59-.13Q130.5,34.09,130.54,35.51Zm0,7.33q1.19.1,2.39.13.1-.76.13-1.76,0-.76,0-1.39-1.56-.07-2.52-.13Q130.54,41.51,130.5,42.84Z"/><path class="cls-6" d="M143.76,16.72a7.33,7.33,0,0,0,3,.66q5.83.3,11.6.3,7.86,0,12-.3a6.93,6.93,0,0,0,2.42-.66V20.1a1.36,1.36,0,0,1-.5,1.26q-1.89.43-13.89.43h-.53q-.5,1.19-1.06,2.29a62.41,62.41,0,0,1,6.4-.33,20.72,20.72,0,0,1,4.74.43,5,5,0,0,1,3,2q.83,1.29.83,5.93,0,3.94-.13,7.62,0,1.19-.07,2a4.1,4.1,0,0,0,1.13-.43v3.45a1.32,1.32,0,0,1-.63,1.33q-1.59.23-11.73.23-7,0-10-.13a1.39,1.39,0,0,0,0,.26A1.26,1.26,0,0,1,149,47.51h-3.88q.73-.5.86-3.21.07-4.71.07-8.22,0-4.41-.33-9.78-.17-2.52-.76-2.92h3.81a1.22,1.22,0,0,1,1.36,1.06,2.24,2.24,0,0,0,0,.36l1.46-.13A25.55,25.55,0,0,0,153,21.76a71.21,71.21,0,0,1-8.75-.4,1.4,1.4,0,0,1-.53-1.29Zm6.63,16.21q4.28.27,8.48.26,5.37,0,8.45-.23V32.1a9.58,9.58,0,0,0-.36-3.48,2,2,0,0,0-1.52-.93,13.74,13.74,0,0,0-2.78-.2,39.55,39.55,0,0,0-4.08.23q-2.19.13-5.24.63-2.19.43-3,.56Q150.35,30.74,150.39,32.93Zm0,9q5,.27,9.91.26,4,0,6.86-.1,0-.7.07-1.76.07-1.62.07-3.12-2.69.1-8.39.1t-8.48-.13Q150.39,40,150.36,41.91Z"/><path class="cls-6" d="M177,16.45h3a1,1,0,0,1,1.09.83,1.43,1.43,0,0,1,0,.26l1.26-.2a29,29,0,0,1,4.54-.5,5.1,5.1,0,0,1,2.68.66,3.82,3.82,0,0,1,1.92,2,11.17,11.17,0,0,1,.46,3.84q0,1.33-.13,4.14-.07.86-.1,1.42a2.48,2.48,0,0,0,.73-.56v3a1.12,1.12,0,0,1-.5,1.09,28.21,28.21,0,0,1-5.3.3v2a33.32,33.32,0,0,0,4.28-.27,2.68,2.68,0,0,0,1.29-.66V37c0,.62-.18,1-.53,1.19a4.61,4.61,0,0,1-1,.13l.36,1.59a41.44,41.44,0,0,0,1.33,4.54,1.24,1.24,0,0,0,.93.5A27.47,27.47,0,0,1,190.59,46a5.27,5.27,0,0,1-1.36.27q-.23-.07-.63-1.39-.8-3-1.43-6.1c0-.11,0-.21-.07-.3h-.4v6.73q0,2-1.13,2h-3.65q.76-.36.76-1.72v-7h-.6q-.2,1.13-.56,2.88a28.22,28.22,0,0,1-1,4.31q-.3.86-.73.86a8,8,0,0,1-1.16-.2q-1.33-.17-2.55-.43a2.38,2.38,0,0,0,.86-1,40.68,40.68,0,0,0,1.59-5L179,38.4q-1.06-.1-1.56-.2a1.33,1.33,0,0,1-.53-1.23V33.82a2.51,2.51,0,0,0,1.59.66q2.19.2,4.24.27V33.06a1.27,1.27,0,0,0,0-.3q-.8,0-1.43-.1v.13a1,1,0,0,1-1,.76h-3.12q.63-.33.73-2.29,0-3.31,0-5.8,0-3.15-.27-6.93Q177.5,16.79,177,16.45Zm4.47,6.79,1.36.1V20.13h-.07l-1.39.3Q181.44,21.76,181.48,23.25Zm0,5.87c.49,0,.95.08,1.39.1V26.8l-1.36-.07Q181.48,28.09,181.44,29.12Zm5.14-9.31v3.55q1,0,1.69-.1a5.27,5.27,0,0,0-.63-2.92A1.87,1.87,0,0,0,186.58,19.8Zm0,7v2.55q.76,0,1.43,0,.07-.76.13-2.25a1.41,1.41,0,0,1,0-.33Q187.51,26.76,186.58,26.76Zm5.7-9.78a2.41,2.41,0,0,0,1.59.66q3.11.27,6.2.26a57.4,57.4,0,0,0,6.4-.26,2.69,2.69,0,0,0,1.33-.66v3.18q0,.93-.56,1.19a30,30,0,0,1-5.5.3c-.07.31-.14.63-.23,1,0,.18-.08.32-.1.43q.66-.07,1.16-.07a4.24,4.24,0,0,1,2.62.8,4.35,4.35,0,0,1,1.89,2.52,17.12,17.12,0,0,1,.46,4.81q0,1.66-.17,5.17-.07,1.16-.17,1.86a3,3,0,0,0,.6-.46v3a1.15,1.15,0,0,1-.56,1.16,11.13,11.13,0,0,1-2.09.2,1,1,0,0,0,.13.17,32.29,32.29,0,0,0,2.39,2.65,1.32,1.32,0,0,0,1.06.4q-1.76,1.06-1.79,1.06a6.12,6.12,0,0,1-2.19,1.09q-.2,0-.7-.56t-1.79-2.15a4.08,4.08,0,0,1-.86-1.29q0-.53,1.76-1.33H201.4q-2.32,0-3.68-.07l1.39.73q.7.46.7.93a13.45,13.45,0,0,1-2.12,2.88q-.76,1-1.29,1a15.55,15.55,0,0,1-3.75-1.72,2.2,2.2,0,0,0,1.29-.83q1.09-1.23,1.66-2h-2.95q.83-.37.83-1.72V24.71a2.22,2.22,0,0,0-.83-2h3.25a1.37,1.37,0,0,1,1.23.5q.13-.76.3-1.52a29.54,29.54,0,0,1-4.64-.3,1.37,1.37,0,0,1-.5-1.23Zm5.17,11q1.29.1,2.59.1a32.46,32.46,0,0,0,3.28-.13A4,4,0,0,0,203,26.9a1.44,1.44,0,0,0-1.33-.73,15.22,15.22,0,0,0-3.08.4l-1.09.26Zm0,5.17a25.19,25.19,0,0,0,2.59.13q2.15,0,3.45-.13.07-1.12.07-1.82-1.23.1-3.51.1-1.59,0-2.59,0Zm0,5.27q2,.17,3.94.17.93,0,1.69,0,.07-.76.17-2.06-1.16.07-3.21.07-1.59,0-2.59,0Z"/></g></svg>